<svg width="160" height="160" fill="none" xmlns="http://www.w3.org/2000/svg"><path d="M54.51 16.472l-2.553.76-.007-.023c.346-.554.583-1.55.635-2.618l.318-6.806 1.771-.527 4.068 5.512c.553.75 1.187 1.475 1.765 1.891l.007.023-4.037 1.202-.007-.023c.337-.789.3-1.654-.392-2.613l-.329-.465-2.668.794-.016.443c-.066 1.397.487 2.184 1.438 2.427l.007.023zm-1.405-3.35l2.38-.71-2.21-3.11-.17 3.82zM38.27 25.63l-2.748 2.116-4.718-1.834.338-2.911c.149-1.327-.454-1.862-1.162-2.044l-.014-.019 2.68-2.065.015.02c-.61 1.106-.944 2.469-1.065 3.5l-.128 1.023 4.19 1.589c1.084.408 1.836.646 2.597.606l.014.018zm-7.34 5.653l-.015-.02c-.298-.982-.505-1.518-1.335-2.576l-1.867-2.378c-.83-1.058-1.304-1.39-2.191-1.918l-.015-.018 2.89-2.227.015.02c.307.974.518 1.554 1.319 2.573l1.881 2.398c.8 1.02 1.316 1.365 2.194 1.9l.014.02-2.89 2.226zM17.322 50.192l-1.381 2.277-.021-.012c-.116-.642-.612-1.537-1.291-2.36l-4.345-5.24.958-1.58 6.726 1.337c.915.18 1.873.29 2.582.21l.02.012-2.184 3.601-.02-.012c-.281-.81-.891-1.424-2.05-1.667l-.557-.122-1.443 2.38.286.339c.891 1.075 1.83 1.285 2.7.824l.02.013zm-3.297-1.53l1.288-2.124-3.732-.81 2.444 2.934zM9.93 76.912l-.024-.004c-.882-.53-1.397-.789-2.721-1.017l-2.98-.513c-1.325-.228-1.898-.156-2.908.047l-.024-.004.63-3.593.024.004c.884.518 1.43.807 2.707 1.027l1.218.21.531-3.026-1.206-.208c-1.324-.228-1.9-.144-2.91.059l-.024-.004.63-3.593.024.004c.886.505 1.433.794 2.71 1.014l3.004.517c1.277.22 1.89.131 2.896-.049l.023.004-.63 3.593-.024-.004c-.881-.529-1.394-.8-2.719-1.028l-1.348-.232-.53 3.026 1.36.234c1.276.22 1.89.13 2.897-.061l.024.004-.63 3.593zm3.252 25.305l-.023.004c-1.016-.178-1.59-.236-2.909.024l-2.966.586c-1.319.261-1.827.533-2.696 1.083l-.023.005c-.251-1.247-.464-2.061-.786-3.661-.666-3.306.446-5.69 3.236-6.242 2.79-.55 4.74 1.107 5.428 4.53l.74 3.671zm-5.46-5.54c-2.708.536-3.92 1.387-3.498 3.42.045.223.127.451.236.687l7.558-1.493a4.974 4.974 0 00-.076-.866c-.389-2.051-1.854-2.215-4.22-1.747zm20.671 30.775l.018-.015 2.366 2.762-.019.015c-.977.335-1.508.563-2.537 1.428l-2.315 1.945c-1.03.865-1.342 1.348-1.835 2.248l-.019.015-4.332-5.058 1.643-1.992.179.116c-.058.91-.344 2.734.024 3.256l.766 1.08 2.839-2.386-.36-.419c-.46-.538-1.424-.558-2.045-.6l-.133-.155 2.186-1.838.133.155c-.059.614-.278 1.613.198 2.169l.352.41 1.065-.896c.992-.833 1.325-1.348 1.826-2.24zm19.193 14.464c2.373 1.387 3.106 4.095 1.78 6.322-1.332 2.237-4.092 2.932-6.465 1.545-2.372-1.387-3.083-4.109-1.75-6.347 1.325-2.227 4.063-2.906 6.435-1.52zm-.215.361c-1.212-.708-2.504.288-3.848 2.546-1.345 2.258-1.64 3.879-.407 4.599 1.244.727 2.529-.329 3.867-2.577 1.339-2.247 1.61-3.853.388-4.568zm39.366 7.61v.024c-.353.843-.53 1.312-.52 2.476l.015 1.704 1.231 2.258c.695 1.29 1 1.816 1.58 2.267v.036l-4.464.037v-.036c.369-.339.745-1.23.112-2.365l-.853-1.565-.816 1.519c-.638 1.169-.03 1.98.609 2.431v.024l-2.916.024v-.024c.739-.642 1.236-1.426 1.72-2.306l1.23-2.267-.015-1.728c-.01-1.116-.182-1.618-.55-2.455v-.024l3.637-.03zm18.114-4.436l-.009-.023 3.415-1.25.008.022c-.014 1.028.017 1.591.487 2.851l1.922 5.149.183-.093c.696-.331 1.202-2.408 1.46-3.499l.213-.014.612 3.149-7.054 2.583-1.604-2.786.171-.127c.913.663 2.661 1.914 3.407 1.718l.2-.048-1.921-5.149c-.462-1.237-.817-1.708-1.49-2.483zm18.398-10.252l.014.019c.256.994.441 1.539 1.225 2.631l1.765 2.455c.784 1.092 1.244 1.443 2.108 2.008l.014.02-2.981 2.102-.014-.019c-.266-.987-.453-1.575-1.209-2.628l-1.779-2.475c-.756-1.052-1.256-1.419-2.11-1.991l-.014-.02 2.981-2.102zm17.122-4.595l-1.968-1.185.077-.202c1.689.142 2.787.072 3.431-.688.427-.503.449-1.141-.003-1.517-.655-.545-1.667.018-2.829.534-1.237.531-2.619.973-3.975-.155-1.596-1.329-1.095-3.051.062-4.414.706-.833 1.603-1.445 2.198-1.683l2.207 1.368-.094.203c-2.301-.292-3.499-.196-4.229.664-.52.613-.51 1.324.035 1.777.756.63 1.797.107 2.959-.409 1.237-.531 2.57-1.045 3.824-.001 1.494 1.244.913 3.024-.29 4.442a7.268 7.268 0 01-1.405 1.266zm5.935-27.779l-.023-.009 1.307-3.277.022.009c.725.644 1.148.977 2.332 1.441l3.107 1.215c1.185.463 1.723.507 2.697.527l.022.008-1.533 3.846c-1.031 2.586-2.162 3.059-3.391 2.578-.883-.346-1.552-1.033-1.617-2.231l-2.747.214c-.918.066-1.496.124-2.14.606l-.023-.009 1.218-3.054 4.245-.246.266-.669-1.061-.416c-1.14-.446-1.712-.502-2.681-.533zm7.795 2.998c.045-.111.092-.26.149-.405l-3.799-1.487-.187.468c-.466 1.171.522 1.931 1.494 2.312.906.354 1.859.327 2.343-.888zm-4.111-28.604h.024c.944.412 1.488.603 2.831.659l3.021.126c1.343.056 1.902-.09 2.877-.42h.024l-.283 6.654-2.561.362-.051-.206c.663-.633 2.102-1.702 2.204-2.419l.176-1.314-3.705-.154-.023.552c-.03.707.662 1.372 1.087 1.823l-.008.203-2.854-.118.009-.204c.462-.413 1.304-1.003 1.335-1.734l.022-.54-3.872-.161.03 1.563c.014.78 1.715 2.317 2.552 2.964l-.069.214-3.064-.825.298-7.025zm2.468-27.449l1.328 4.198-.022.007c-.823-.41-1.549-.36-2.607.433l-3.601 2.7 4.129.164c1.2.054 2.268-.39 2.65-1.489l.023-.007.804 2.54-.023.007c-.569-.364-1.65-.48-2.596-.526l-6.849-.286-.557-1.762 5.348-4.06c.85-.616 1.555-1.174 1.95-1.913l.023-.007zm-16.49-10.192l.02-.014c1.008-.224 1.562-.39 2.681-1.135l2.517-1.675c1.119-.745 1.485-1.19 2.075-2.03l.02-.013 2.047 3.02-.02.012c-1.001.234-1.598.401-2.677 1.12l-2.537 1.688c-1.079.718-1.461 1.203-2.058 2.033l-.02.013-2.048-3.02zm-12.352-12.485l-.085-8.977-2.526 3.08c-.822 1.003-.93 1.675-.997 2.86l-.016.019-2.069-1.697.015-.018c1.191-.265 1.814-.468 2.676-1.5l2.185-2.615c.754-.902.805-1.45.842-2.506l.015-.018 2.46 2.016.048 6.418 1.291-1.564c.86-1.049.964-1.678 1.012-2.895l.015-.019 2.06 1.69-.015.018c-1.163.287-1.809.518-2.64 1.513l-3.786 4.53-.485-.335zm-23.532-15.861c-1.96-1.041-2.852-2.697-1.641-4.934l1.194-2.206c.639-1.182.754-1.746.882-2.765l.011-.021 3.243 1.722-.011.021c-.807.659-1.207 1.071-1.841 2.243l-1.285 2.374c-1.017 1.879-.577 2.805.398 3.323 1.431.76 2.493-.143 3.321-1.674l1.131-2.09c.645-1.192.633-1.85.364-3.067l.011-.02 2.459 1.305-.011.021c-1.125.49-1.733.832-2.373 2.014l-1.068 1.974c-1.051 1.942-2.378 3.058-4.784 1.78z" fill="#fff"/><ellipse cx="77.006" cy="4.988" rx="2.006" ry="1.988" fill="#fff"/><ellipse cx="67.006" cy="152.988" rx="2.006" ry="1.988" fill="#fff"/></svg>