<svg width="155" height="120" fill="none" xmlns="http://www.w3.org/2000/svg"><g opacity=".5" fill="#21225F"><path d="M125.174 77.884c-.573.021-.683.451-.735.887-.063.523-.393 1.146.24 1.51.351.2.797.142 1.023-.303.11-.215.153-.465.179-.549.236-1.157.014-1.571-.707-1.545zM93.472 111.43c-.456.014-.653.518-.788.902-.125.357.273.303.433.366.545.161.858-.136.924-.54.053-.325-.291-.737-.569-.728z"/><path d="M148.321 76.933a8.352 8.352 0 00-2.067-1.212c-2.766-1.115-5.542-1.078-8.27.046-3.201 1.32-6.53 1.94-9.964 2.092-.986.044-1.296.377-1.251 1.38.045.983.252 1.15 1.358 1.077.274-.018.549-.035.822-.067 2.592-.308 5.099-.916 7.589-1.744 2.466-.82 5.067-1.2 7.688-.78 1.325.212 2.721.405 3.752 1.365 1.081 1.006 2.082 2.112 3.03 3.249.838 1.004 1.426 2.17 1.65 3.491.131.776-.038 1.454-.543 2.077-1.779 2.195-4.241 2.724-6.844 2.773-1.489.028-2.995-.04-4.203-1.24-.533-.53-1.162-.314-1.505.38-.872 1.76-2.031 3.325-3.264 4.824-2.205 2.68-4.826 4.848-7.992 6.308-.571.264-.828.239-1.038-.438-.416-1.343-1.114-2.564-2.014-3.637-1.123-1.338-2.405-2.488-4.097-3.066-4.254-1.453-8.608 1.08-10.901 3.376-.522.523.073.735.298 1.041.282.385.532.383.876.008.968-1.054 2.076-1.949 3.379-2.544 2.368-1.08 4.762-1.462 7.152-.039 2.167 1.29 3.422 3.336 4.484 5.541.183.381-.02.529-.326.581-.276.047-.623.461-.825-.112-.678-1.914-2.211-3.026-3.827-4-2.601-1.567-5.221-1.415-7.748.204-1.641 1.051-2.764 2.538-3.297 4.438-.19.677-.61.686-1.126.507-.668-.232-.13-.591-.054-.877.078-.296.228-.574.361-.853.572-1.207.574-1.206-.611-2.034-.574.816-.951 1.728-1.208 2.677-.165.608-.415.788-1.035.641-1.705-.408-3.446-.68-5.133-1.148-4.541-1.258-9.047-2.627-13.028-5.303-.795-.534-.813-.533-.126-1.161a46.364 46.364 0 004.938-5.264c2.744-3.43 4.986-7.14 6.175-11.432.447-1.613.671-3.268.9-4.885.318-.09.472.116.645.217 6.585 3.845 13.733 5.912 21.226 6.898.333.044.733.156.895-.227.143-.341-.333-.367-.536-.58.498-.06.985-.042 1.04-.634.047-.498-.228-.812-.683-.979-.287-.105-.563-.252-.857-.323-1.315-.32-2.631-.635-3.954-.918-.571-.123-.814-.307-.69-.991.466-2.59.372-5.19-.183-7.759-.153-.71-.058-.948.706-1.02 1.535-.146 2.847-.806 3.664-2.19 1.123-1.902.552-4.339-1.341-5.788-1.29-.986-2.774-1.585-4.302-2.086-5.459-1.79-10.624.754-12.533 6.197-.731 2.083-1.149 4.245-1.519 6.417-.044.256-.003.55-.206.758-1.007-.288-1.61-.832-1.618-1.955-.005-.578-.21-1.155-.328-1.733-.062-.305-.117-.61-.015-.918 1.489-4.486 3.282-8.812 6.166-12.61 1.576-2.074 3.572-3.46 6.05-4.171.292-.084.602-.12.857-.318.301-.232.467-.521.286-.881-.161-.32-.459-.37-.796-.274-2.524.718-4.856 1.782-6.641 3.803-2.379 2.693-4.086 5.8-5.433 9.12-.412 1.015-.778 2.048-1.21 3.192-.358-.647-.52-1.143-.337-1.78.574-1.994 1.257-3.946 2.204-5.786 1.634-3.178 3.474-6.264 6.318-8.472 5.565-4.321 11.578-5.113 17.952-1.813 1.613.835 3.214 1.682 4.957 2.238 4.733 1.508 9.098.99 13-2.264.662-.552 1.3-1.133 1.966-1.68.265-.218.602-.38.938-.201.384.205.253.595.196.918a3.996 3.996 0 01-.41 1.224c-1.108 2.051-2.608 3.795-4.505 5.075-3.217 2.17-6.722 2.347-10.308.968-2.331-.897-4.507-2.132-6.73-3.262-2.163-1.1-4.377-1.965-6.839-2.025-.439-.01-.742.038-.765.537-.02.434.09.806.594.898.121.022.244.03.366.043 1.912.207 3.716.744 5.446 1.62 2.197 1.114 4.329 2.36 6.594 3.335 1.823.784 3.694 1.48 5.688 1.439 5.655-.114 9.861-2.855 12.91-7.537a7.11 7.11 0 001.091-2.844c.185-1.244-.185-2.21-1.022-2.688-.882-.504-2.165-.37-2.983.474-1.217 1.256-2.629 2.25-4.068 3.188-2.612 1.704-5.459 2.483-8.602 1.92-2.211-.396-4.246-1.236-6.194-2.321-6.664-3.713-13.172-3.206-19.456.855-3.24 2.094-5.836 4.922-8.022 8.107-.972 1.417-1.805 2.932-2.763 4.502-1.212-1.822-2.7-3.315-4.288-4.789 1.756-.893 3.294-1.861 4.802-2.875 1.859-1.25 3.461-2.765 4.666-4.69 2.28-3.643 3.541-7.617 3.8-11.91.426-7.059-1.464-13.256-6.732-18.177-1.959-1.83-4.087-3.268-6.905-3.312-2.897-.045-4.823 1.748-4.773 4.56.053 2.991 1.994 5.141 3.39 7.52.185.317.842.221 1.24-.073.453-.334.018-.598-.12-.834a37.92 37.92 0 00-1.395-2.194c-1.033-1.516-1.195-3.172-.705-4.882.3-1.051 1.063-1.894 2.163-1.878 1.688.024 3.448.257 4.746 1.474 2.994 2.808 5.453 6 6.309 10.17.397 1.936.661 3.892.566 6.035-1.402-1.065-2.861-1.665-4.449-1.968-1.608-.306-3.21-.217-4.834.066-.042-.296-.074-.51-.102-.723-.028-.215-.033-.436-.082-.646-.082-.347.043-.855-.35-.984-.348-.114-.644.293-.967.46-.48.248-.313.69-.31 1.073.039 5.099-1.793 9.372-5.555 12.777-2.12 1.918-4.808 2.545-7.462 3.23-.346.09-.655-.09-.973-.209-2.113-.792-4.26-1.424-6.538-1.482-.383-.01-.794.113-1.159-.114-.066-.317.108-.558.208-.806 1.606-3.955 2.37-8.07 2.365-12.344C72.918 13.965 59.103 1.738 42.84 3.96c-6.178.844-11.562 3.477-16.261 7.563-.5.434-.842.533-1.407.099-.656-.503-1.406-.889-2.136-1.284-4.35-2.354-8.97-4.062-13.605-5.72-1.149-.411-2.083-.788-2.483-2.206C6.552 1.004 5.34.08 3.834.005 2.516-.062 1.397.558.644 1.71c-1.142 1.75-.714 4.698.871 6.06 1.063.914 2.595 1.218 3.687.49.83-.552 1.471-.423 2.267-.05 3.055 1.435 6.034 3.023 9.052 4.532a75.95 75.95 0 015.544 3.051c-1.205 1.447-1.91 3.11-2.805 4.651-3.172 5.46-4.67 11.363-4.387 17.707.615 13.813 10.73 24.352 24.333 25.354.663.049 1.328.052 2.105.08-.229.5-.4.892-.586 1.276-.83 1.727-1.172 3.58-1.449 5.46-.11.745.308.895.863 1.026.73.173.63-.399.7-.783.316-1.707.547-3.433 1.09-5.088.221-.678.32-1.423.898-1.94-.98 3.096-2.064 6.16-2.15 9.582-.266-.477-.639-.486-.945-.606-.22-.087-.507-.206-.645.103-.193.43-.234.902-.144 1.364.055.28.33.275.532.225.99-.246 1.235.218 1.08 1.103-.025.144-.007.295-.01.447-1.82-.173-1.808-.173-1.856 1.636a51.4 51.4 0 01-.302 4.357c-.8 7.15-3.166 13.665-7.464 19.448a55.304 55.304 0 00-4.055 6.319c-.6 1.089-1.099 2.219-1.27 3.47-.295 2.173.854 3.757 2.972 4.184 1.235.248 2.382.048 3.493-.489 5.083-2.456 8.92-6.294 11.97-11 .799-1.231 1.426-2.561 2.043-3.96.43.364.776.668 1.133.959.961.783.934.75 1.56-.327.446-.769.334-1.21-.383-1.75-1.288-.972-2.3-2.23-3.212-3.571-2.024-2.978-3.081-6.332-3.827-9.812-.613-2.857-.931-5.74-.838-8.664.06.192.104.386.118.582.046.615.076 1.232.12 1.847.429 5.937 2.161 11.392 5.7 16.24 1.575 2.155 3.435 3.972 5.518 5.588l.066.028c.017.022.032.045.05.067.013.016.03.029.044.043l-.11-.1-.05-.038c-.406-.176-.831-.485-1.207-.434-.46.063-.456.748-.739 1.103-.512.643-.268.981.387 1.32 4.168 2.164 8.576 3.235 13.26 2.913 1.132-.077 2.028.183 2.877.879 3.108 2.546 6.485 4.709 9.771 7.001 2.919 2.036 5.957 3.823 9.289 5.105 7.144 2.748 16.712 1.167 21.995-4.934 2.034-2.348 3.904-4.796 4.739-7.874.127-.467.416-.439.77-.429 2.462.07 4.916-.062 7.36-.35 7.635-.898 13.884-4.18 18.2-10.781.669-1.023 1.406-2.001 1.863-3.12.103.018.141.014.161.03.233.201.464.404.694.609 1.718 1.529 3.704 2.262 6.008 2.142 4.013-.21 6.624-2.45 6.998-6.15.189-1.866-.232-3.651-1.162-5.28-1.259-2.204-2.928-4.061-4.908-5.628zm-7.931-.04l.018-.042.043.04-.061.002zm2.125-.093c-.013.005-.025.007-.038.013a1.422 1.422 0 00-.026-.008c-.278.165-.571-.038-.854.015a.755.755 0 00-.044.032 1.2 1.2 0 01-.034-.013c-.146.024-.299.123-.438-.043.163-.082.3-.012.438.043.007-.002.014-.004.021-.004a.496.496 0 01.057-.015c.277-.189.566-.093.854-.014l.017-.01.047.004c.353-.13.688-.02 1.047.086l-1.047-.086zm-22.07-14.711c.246.786.036 1.436-.509 1.997.261-.65.304-1.348.509-1.997zm-5.3-3.67c1.073.25 2.084.729 3.083 1.223.873.431 1.274 1.111 1.404 2.03.244 1.714-.867 3.302-2.536 3.616-1.392.263-1.863.912-1.593 2.389.308 1.678.678 3.345.707 5.059.015.898-.029 1.797-.037 2.696-.003.406-.136.535-.564.422a55.01 55.01 0 01-10.751-4.135c-.383-.194-.451-.443-.359-.823.087-.361.136-.731.241-1.318.612-2.585 1.409-5.343 2.774-7.887 1.989-3.706 3.925-4.14 7.631-3.272zm-11.748 11.798c.629-2.228 1.205-4.473 1.906-6.678.415-1.306 1.006-2.561 2.219-3.36l.017-.038c.011 0 .019-.004.029-.007l.226-.334a.088.088 0 01.026.009l.014-.001-.003.007c-.042.078.041.03 0 0l-.011-.006c-.011 0-.022 0-.033.002-.073.107-.054.286-.219.323l-.016.024-.03.021c-.572 1.309-1.344 2.517-1.839 3.867-.755 2.06-1.368 4.155-1.715 6.328-.039.246.095.753-.397.66-.526-.101-.262-.507-.174-.817zm-2.783 1.146c6.378 4.223 13.532 6.312 20.882 7.907-7.217-.626-13.867-3.1-20.221-6.512-.503-.27-1.005-.524-.661-1.395zm47.035-28.735c.442.324.375.9.215 1.375-.48 1.427-1.111 2.77-2.262 3.79l-.018.044c-.011.002-.018.005-.028.008l-.179.283a.61.61 0 01-.014.062l-.255.141-.18.224-.06.09-.011.001c-.001.07-.017.072-.049.008l.049-.008.071-.09.167-.244.254-.14.028-.044c.023-.118.033-.244.179-.283a2.61 2.61 0 00.015-.025l.031-.028c.368-.922 1.057-1.69 1.256-2.694.153-.771.336-1.541-.558-2.093.504-.285.905-.702 1.349-.377zM91.05 13.965c-.018 0-.035.003-.052.004-1.572.754-2.442 2.002-2.5 3.981-.764-2.24.34-3.853 2.5-3.981l.04-.02h.053c.077-.036.152-.105.268.006l-.268-.005a.21.21 0 01-.041.015zm1.272-.047c.017.002.035.002.052.006.01.003.02.012.03.018l-.082-.024zM5.432 4.817c-.112.566-.365 1.053-.834 1.396-.629.46-1.373.37-1.763-.284-.671-1.126-.859-2.315-.197-3.526.371-.678.844-.804 1.533-.44.967.512 1.487 1.69 1.26 2.854zm33.785 81.09c.208.681.017 1.304-.082 1.931-.106.67-.281 1.317-.471 1.968-.189.647-.459 1.26-.68 1.895.53-1.893.924-3.815 1.233-5.793zm-1.548 6.581c.003-.015.027-.026.041-.039l-.009.158a1.632 1.632 0 00-.048.037c.004-.052.006-.105.016-.156zm-4.173 8.278l.058.034-.058.057v.005a.048.048 0 01-.01.005l-.004.004-.045.093-.037-.055.086-.042.01-.01v-.091zm-5.602 9.022c1.224-2.787 2.927-5.278 4.763-7.681l.039-.083.015-.002c.023-.142.097-.235.237-.265.007-.009.013-.018.021-.026l.03-.034.046-.136c.007.018.026.043.02.052a.951.951 0 01-.066.084 3.235 3.235 0 00-.018.053.332.332 0 00-.033.007c-.074.094-.079.252-.237.265l-.003.018-.051.067c-.801 1.737-1.935 3.279-2.85 4.949-.868 1.585-1.815 3.13-2.192 4.945-.208-.778-.022-1.526.28-2.213zm12.775-4.255c-2.769 3.026-5.777 5.734-9.577 7.401-.629.275-1.271.466-1.958.334-.658-.016-.729-.438-.686-.959.114-1.391.657-2.629 1.346-3.805 1.65-2.813 3.325-5.612 4.975-8.426.252-.43.457-.541.913-.224 1.888 1.312 3.512 2.904 5.014 4.638.334.386.3.683-.027 1.041zm2.312-3.254c-.466.68-.882 1.395-1.52 2.133-1.378-2.381-3.218-4.129-5.356-5.569-.39-.264-.348-.515-.18-.846.195-.383.393-.764.585-1.147.439-.877.458-.906 1.297-.298 1.873 1.356 3.613 2.863 5.084 4.67.297.365.374.644.09 1.057zm-2.639-12.75c.834 2.958 2.143 5.69 4.011 8.115.555.72.603 1.269.104 1.957-.23.316-.301.742-.696 1.028-1.256-1.844-2.876-3.3-4.577-4.682-.522-.424-1.407-.574-1.563-1.19-.154-.607.453-1.233.691-1.866.605-1.607 1.169-3.226 1.58-4.937.15.525.302 1.05.45 1.575zm51.25 10.717c.035.024.044.084.06.136l.025.012.01.013c.212-.004.405.03.516.241l.03.011c.004.007.01.011.014.017.244.034.484.077.655.281l.032.009.067.039c2.185.729 4.312 1.632 6.536 2.245.443.121.88.262 1.308.428-2.754-.47-5.405-1.251-7.844-2.673l-.081-.028-.018-.02c-.229-.069-.5-.042-.655-.281l-.03-.004c-.005-.009-.01-.015-.014-.024-.18-.062-.386-.069-.515-.241h-.028l-.008-.025c-1.992-.93-3.802-2.17-5.688-3.398.226-.316.391-.702.825-.293 1.462 1.378 3.157 2.433 4.804 3.555zm3.009-16.895c-.687 1.125-1.278 2.33-2.29 3.222l-.042.068-.014.025c-.004.146-.051.266-.192.33a5.014 5.014 0 01-.021.037c-.02.015-.043.028-.062.044-.013.012-.024.026-.036.04l.083-.105c.013-.004.024-.01.036-.016l.192-.33v-.044c.02-.016.037-.033.055-.049 1.534-2.566 3.082-5.125 4.157-7.936.35-.918.692-1.84 1.022-2.716-.133 1.656-1.377 4.954-2.888 7.43zm3.53-22.61c.963-3.723 2.638-7.062 5.252-9.89.049-.052.128-.075.2-.105l.021-.032.017-.005a.381.381 0 01.208-.32l.002-.028.042-.02c.048-.06.106-.098.186-.088l.025-.011.035-.05c.03-.113.051-.232.194-.273l.007-.009.021-.026-.028.035-.194.273a.546.546 0 01-.021.07.25.25 0 00-.039-.009l-.186.088a.457.457 0 00-.029.038c-.006.003-.01.008-.015.01-.01.146-.03.285-.208.32l-.003.021-.035.016c-1.182 1.785-2.385 3.554-3.314 5.498-.654 1.369-1.21 2.768-1.623 4.227-.076.267-.112.55-.353.738-.215-.102-.208-.292-.162-.469zm-2.972-29.35c2.197-.241 4.356-.039 6.37.997 1.077.554 1.846 1.247 1.581 2.68-.167.908-.239 1.839-.474 2.906-.815-.778-1.428-1.55-2.239-2.119-1.772-1.242-3.765-1.794-5.87-1.993-.564-.053-.814-.212-.78-.821.094-1.728-.328-1.46 1.412-1.65zm-1.914 4.152c.094-.27.297-.255.52-.256 3.21-.016 5.907 1.173 8.106 3.529.24.258.409.533.257.916-.27.683-.522 1.373-.822 2.165-2.504-2.432-5.36-3.876-8.933-3.911.32-.892.6-1.666.872-2.443zm-3.064 5.948c.087-.127.214-.236.267-.375.583-1.545 1.72-1.796 3.218-1.61 2.473.305 4.721 1.044 6.645 2.703.531.458.553.82.233 1.411-1.342 2.473-3.13 4.507-5.534 5.972-1.262.77-2.52 1.545-3.772 2.332-.316.199-.581.278-.918.024-2.215-1.672-4.583-3.109-7.083-4.538 2.643-1.726 5.183-3.36 6.944-5.919zm-4.808 3.297c.463-.247.846-.681 1.418-.703l.026-.018.019-.024c.04-.196.192-.301.33-.416l.069-.087.222-.139.203-.116.035-.024.012-.003.043-.009-.043.01-.047.026-.19.134a8.3 8.3 0 00-.223.137 1.428 1.428 0 01-.08.07l-.331.417-.01.04-.035.002c-1.172.819-2.35 1.628-3.512 2.462-.668.48-1.27.452-1.973-.212 1.46-.4 2.802-.872 4.067-1.547zm-5.585 3.806l.026.007.043.026c.22.055.453.084.648.187 4.505 2.376 8.895 4.927 12.387 8.757.956 1.05 1.923 2.112 2.418 3.494l.04.052.18.235.153.212.14.214c.067.023.067.044 0 .062l-.007-.06c-.159.007-.165-.093-.146-.211-.127-.012-.134-.114-.154-.207a189.58 189.58 0 00-.184-.237l-.022-.06c-3.044-4.17-7.007-7.286-11.319-9.993-1.356-.852-2.754-1.633-4.134-2.445l-.057-.015-.012-.018-.52-.14c.284-.073.421-.008.52.14zm-1.159-.507c.026.002.05.01.075.017-.005.016-.011.045-.016.045-.026-.001-.05-.01-.076-.016.006-.016.013-.046.017-.046zm-1.55-.663l.058.037c-.023.004-.047.014-.068.01-.022-.005-.04-.024-.06-.036l.07-.011zm-.885-.303c-2.258-.632-4.528-1.187-6.954-1.075.049-.414.152-.63.576-.54 2.145.457 4.365.605 6.378 1.615zm-6.022-14.595c-.064-.232-.137-.462-.19-.697-1.43-6.395-5.004-11.212-10.546-14.582-.247-.15-.544-.237-.714-.5l-.035-.015-.007-.016c-.198-.018-.38-.067-.494-.246a.337.337 0 01-.039-.017l-.014-.022-.442-.11c.243-.123.351-.028.442.11l.032.008.02.031c.173.068.405.015.495.246l.022.002.02.029c2.076.805 3.82 2.134 5.467 3.6 2.756 2.453 4.58 5.543 5.91 8.959.41 1.054.122 2.137.073 3.22zm-36.309 11.86c.367.373.744.738 1.1 1.122.582.63 1.147 1.277 1.726 1.912 1.461 1.602 4.077 1.636 6.03.064.91-.73 1.592-1.63 1.873-2.89.46.268.615.717.862 1.07 1.112 1.591 2.489 2.821 4.385 3.365.597.172 1.203.293 1.812.082.336-.116.519-.034.615.313.229.829.303 1.653-.092 2.449-.71 1.433-1.975 1.656-3.14.567-.148-.139-.241-.377-.622-.285.002.933.641 1.375 1.341 1.749.827.441 1.622.337 2.277-.319.676-.677 1.08-1.505 1.119-2.478.019-.487-.026-.975-.043-1.475 2.538 1.148 4.231.797 5.475-1.118.805-1.24.852-3.227.03-3.99-.021.816-.06 1.58-.248 2.322-.24.952-.697 1.791-1.708 1.993-1.084.216-1.945-.368-2.703-1.106-.222-.216-.185-.44-.091-.678 1.018-2.6.251-4.781-1.54-6.727-.04-.044-.06-.106-.105-.192.208-.215.503-.147.749-.197 2.86-.589 4.301-3.078 3.406-5.893-.373-1.175-.214-2.39-.225-3.59-.013-1.304.092-2.595.382-3.873.134-.589.377-.668.896-.442C62.417 28.31 66 31.826 67.754 37.1c.16.481.166.97.118 1.469-1.095 11.358-10.107 19.664-21.363 19.678-1.762.003-3.492-.277-5.197-.711-.537-.137-1.057-.333-1.481-.718-3.638-3.301-5.627-7.426-5.968-12.432zm4.953 12.237l-.026-.042c-.464-.066-.895-.225-1.19-.604-.827-1.064-1.566-2.182-1.973-3.487l-.041-.06-.038-.062.056.049.023.072c.992 1.42 1.918 2.89 3.174 4.101l.015.033zm-3.46-4.79l-.026-.039-.001-.054.006.05.021.043zm2.545-18.637c-.376-.604-.732-1.221-1.114-1.821-.18-.284-.265-.532-.048-.845 1.785-2.563 4.112-4.373 7.138-5.347.683 2.46 1.227 4.873 2.07 7.196.601 1.66 1.193 3.326 2.144 4.826.194.307.242.507-.077.772a153.156 153.156 0 00-3.299 2.828c-.387.34-.673.34-.954-.114-.095-.154-.232-.312-.388-.393-1.981-1.026-2.852-2.991-3.974-4.746-.125-.195-.186-.521-.487-.484-.29.035-.472.3-.588.546-.146.308.124.523.284.732.694.906 1.406 1.799 2.163 2.763-2.874.602-5.012 1.889-5.016 5.322-1.4-.94-2.38-1.787-2.222-3.619.248-2.877.76-5.642 2.06-8.23.083-.165.136-.349.387-.47.3.556.59 1.127.916 1.676.118.2.195.647.57.353.273-.216.774-.4.435-.945zm7.005-7.719c.408 2.226 1.127 4.366 1.754 6.531.14.486.439.935.383 1.472l.015.024.001.03c.286.258.379.59.365.964l.016.019v.023a.56.56 0 01.227.583l.016.018.196.208.065.406.178.23.019.049-.038-.035-.179-.232-.066-.405-.196-.208.005-.032c-.144-.167-.235-.355-.227-.582-.006-.004-.01-.009-.017-.013v-.029c-.25-.272-.359-.599-.364-.965l-.019-.019c.002-.011.002-.022.003-.034-.484-.715-.698-1.55-.944-2.356-.56-1.83-1.047-3.682-1.555-5.528-.06-.215-.254-.539.115-.615.482-.1.214.313.248.496zm10.674-.15c-1.515 1.907-1.19 4.159-1.142 6.456-1.96-.917-4.372-.657-6.003 1.887-.297-.22-.336-.58-.436-.889-.782-2.411-1.54-4.831-2.316-7.245-.172-.538-.099-.857.53-1.001 2.387-.548 6.964-.2 9.367.792zm-8.22-5.122c.633.22.965.724 1.39 1.097.41.36.785.762 1.316 1.285l-2.99.12c-.062-.865.153-1.65.285-2.502zm4.724 21.674c1.01 1.12 1.465 2.419 1.2 3.936-.398 2.301-1.948 3.04-3.965 1.914-1.954-1.089-3.184-2.884-4.464-4.625-.228-.311-.459-.772.098-1.112 1.35-.825 2.454-1.958 3.602-3.03.358-.334.547-.414.919.037.823 1 1.742 1.918 2.61 2.88zm-2.189-7.55c-.001 1.637.29 3.118 1.83 4.042-1.573-.425-2.137-1.672-1.83-4.042zm1.063 2.552c-.458-.84-.541-1.76-.439-2.692.032-.853.536-1.197 1.302-1.3 1.139-.155 2.075.22 2.755 1.135.693.932.753 1.942.14 2.954-.401.661-.932 1.195-1.75 1.182-.896-.015-1.579-.493-2.008-1.28zm-5.404-14.006l.281-1.154c.02.404.084.832-.281 1.154zm-7.245 23.147c-.617-.798-.806-2.097-.61-3.19.294-1.646 1.587-2.67 3.114-2.466 1.49.199 2.791 1.762 2.705 3.267-.079 1.363-.714 2.412-1.836 3.15-1.337.88-2.27.666-3.373-.76zm.39 1.2c-1.417-.52-1.938-1.616-1.673-3.525.219 1.435.544 2.61 1.672 3.524zm14.692.832c.403.166.764.39.963.825l.027.012c.029-.005.052.009.074.028l.177.04c-.082.075-.126.004-.177-.04l-.091-.021-.01-.019c-.4-.17-.744-.415-.963-.825zm2.226-16.208l-.003.027c.164.143.048.299-.048.448l.048-.448-.017-.016.01-.084c-.258-2.024-.276-4.023.621-5.926-.452 1.949-.365 3.956-.62 5.926l.009.073zm10.751.669l.025.052c.856.828 1.675 1.673 1.462 3.026l.011.022.038.078-.053-.067.004-.033-1.462-3.026-.042-.04.004-.03-.127-.169a.31.31 0 00-.03-.006c-.05-.08-.1-.16-.148-.24l-.15-.223-.02-.047.04.034.15.222.144.242.014.019c.088.02.136.073.127.168a.674.674 0 01.013.018zM16.583 9.895l.048.01c.006.01.014.018.02.029l.6.288.057.01.012.021c2.4.946 4.685 2.133 6.993 3.288-.158.295-.29.357-.497.226-2.051-1.296-4.244-2.318-6.413-3.387-.039-.02-.059-.079-.083-.127l-.027-.01-.041-.02c-.23-.036-.46-.07-.6-.29l-.038-.017-.031-.02-.485-.09c.25-.115.362.009.485.09zm-1.57-.664l.048.009.013.022.398.155c-.209.088-.316-.006-.398-.155l-.03-.012-.03-.02a44.34 44.34 0 01-.49-.09c.254-.116.367.01.49.09zm-3.312-1.36l.036.007.026.029.8.304.063.007c.007.013.015.023.023.035.23.126.537.103.706.347a.546.546 0 01.04.025.193.193 0 01.07.024l.382.07c-.171.128-.269-.011-.381-.07l-.089-.017-.022-.032c-.226-.133-.537-.105-.706-.347a.57.57 0 01-.04-.025l-.047-.017c-.292-.033-.588-.056-.799-.304l-.044-.017-.018-.019-.563-.103c.322-.088.451-.012.563.103zm-1.63-.614l-.06-.035c-.847-.282-1.693-.564-2.54-.844-.218-.071-.422-.148-.297-.445.138-.326.345-.159.522-.057.775.444 1.544.896 2.315 1.346l.079.025a.289.289 0 01.048.025l.38.089c-.171.11-.268-.02-.38-.089a7.534 7.534 0 01-.066-.015zm1.265 2.137c-.018-.009-.028-.032-.038-.054l-.03-.01c-.005-.008-.012-.014-.017-.021-.228-.057-.486-.05-.618-.306l-.023-.013-.26-.1.277.103.006.01c.196.122.467.095.618.306l.035.008a.242.242 0 01.012.023c2.252.72 4.345 1.82 6.49 2.791 1.653.748 3.278 1.56 4.914 2.344.228.11.615.14.355.55-.15.238-.32.432-.672.214-3.555-2.195-7.35-3.925-11.049-5.845zm15.099 46.088a4.556 4.556 0 00-.037-.023l-.03-.05c-1.912-1.439-3.355-3.303-4.596-5.322-3.722-6.056-4.522-12.611-3.23-19.507-.388 5.632.531 11.057 2.626 16.285a28.501 28.501 0 004.885 8.06c.124.144.214.319.314.484l.049.037c.005.013.012.024.019.036l.288.18.042.016.002.012.004.003.003.037-.007-.04-.044-.027c-.11-.04-.225-.07-.288-.181zM40.9 61.054c-2.942-.098-5.788-.692-8.525-1.831-2.061-.858-3.539-2.469-5.012-4.008-4.11-4.295-6.425-9.518-7.514-15.362-.703-3.776-.9-7.552-.337-11.337.333-2.231.91-4.44 2.027-6.427C26.907 12.537 34.86 6.802 45.863 6.22c12.369-.656 22.127 7.808 24.122 20.244.023.142.008.29.008.436l.016.017-.005.041.036.104c-.013-.02-.033-.038-.037-.059a.158.158 0 010-.044 1.93 1.93 0 00-.01-.032V26.9c-.524-.491-.737-1.181-1.082-1.781-2.736-4.76-6.749-7.96-11.81-9.862-4.453-1.674-9.02-1.982-13.663-.971-1.353.294-2.646.784-3.933 1.294-.55.218-.56.494-.382.99.208.58.506.444.922.29 11.12-4.135 23.501 2.082 26.94 13.52.035.114.05.235.114.536-.28-.258-.455-.396-.605-.56-2.926-3.2-6.497-5.386-10.572-6.728-1.133-.373-2.336-.547-3.519-.736-.649-.103-1.133-.346-1.543-.874a15.923 15.923 0 00-2.462-2.512c-1.009-.83-1.594-.72-2.339.384-.54.801-.907 1.695-1.148 2.614-.151.578-.442.787-.953.94-3.342 1.003-6.148 2.835-8.205 5.696-1.736 2.414-2.803 5.157-3.478 8.048-.133.572-.364.783-.908.75-.88-.055-1.687.29-2.512.515-.909.247-1.186.812-.816 1.686.465 1.095 1.11 2.104 1.995 2.882 1.365 1.2 2.053 2.629 2.237 4.466.204 2.038.942 3.976 1.673 5.89.05.133.052.284.072.427l.021.012.015.05-.033-.038-.003-.024c-1.258-.688-2.227-1.727-3.13-2.8-4.073-4.846-5.735-10.457-4.668-16.708 1.015-5.942 3.974-10.807 8.787-14.46.734-.557.818-1.303.216-1.97-.332-.366-.565.01-.782.153-2.265 1.481-4.186 3.333-5.796 5.52-8.537 11.585-4.24 28.973 8.654 34.975 2.217 1.031 4.531 1.747 6.976 1.986.473.046.943.131 1.414.2l.034-.01c.014 0 .029.003.044.007l.207-.056c-.044.147-.13.08-.207.056l-.035.01-.043-.007c-1.566.505-3.186.408-4.786.355zm16.22-45.085c-.028.006-.058.022-.084.017-.027-.005-.05-.03-.074-.047.028-.006.059-.021.085-.016.026.005.05.03.074.046zM31.116 38.636c.253-.041.494-.244.867.006-.364.236-.61.032-.867-.006zm.62 4.388l-2.14-3.263c-.059.004.032-.01.123-.01 1.954.002 2.02.066 2.018 1.948l-.001 1.325zm32.608 60.143c-7.301.759-12.713-2.324-17-7.966-3.934-5.179-5.543-11.139-5.95-17.563-.3-4.733.568-9.224 2.078-13.647.154-.45.375-.637.828-.71 4.789-.764 9.291-2.328 13.395-4.966.475-.305.697-.2.89.286.159.402.379.78.556 1.176.137.307.304.434.637.247.309-.174.25-.373.111-.613-.248-.429-.466-.877-.742-1.286-.258-.383-.241-.62.162-.902 3.773-2.633 6.796-5.972 9.109-9.966.237-.41.582-.5.993-.54 1.427-.133 2.828.06 4.188.455 7.341 2.133 13.467 6.304 18.87 11.637 1.972 1.947 3.417 4.276 4.574 6.82 1.034 2.275 1.018 4.576.505 6.904-.884 4.016-2.478 7.751-4.56 11.285-1.488 2.525-3.043 5.002-4.746 7.385-.525.733-1.165 1.35-1.815 1.968-.468.444-.79.4-1.222-.035-1.11-1.118-2.263-2.191-3.377-3.304-.345-.344-.608-.4-1.014-.077-.414.33-.487.549-.053.922 1.194 1.024 2.295 2.158 3.6 3.05.22.152.496.256.621.613-1.03.851-2.103 1.67-3.242 2.395-5.339 3.403-11.023 5.77-17.396 6.432zm6.658 4.018v-.04a1.064 1.064 0 01-.047-.029c-1.134-.351-1.978-1.193-2.958-1.806 1.383-.068 1.977 1.196 2.958 1.806l.047.016v.013a.018.018 0 01.005.004l-.005.036zM94.74 117.56c-.192-.657-.071-1.253.36-2.011l-.36 2.011zm.6.096c.141-.784.252-1.36.347-1.938.393-2.41 1.848-3.784 4.164-4.229 2.088-.401 4.145-.297 6.203.736-2.869 3.209-6.455 4.763-10.713 5.431zm12.743-7.649c-.245.308-.431.321-.739.037-3.635-3.341-9.118-2.57-12.31-.264-.31.223-.532.414-.212.808.258.319.433.667.948.34a11.69 11.69 0 014.37-1.663c2.253-.377 4.345-.01 6.171 1.46.214.172.566.291.504.704-.367.204-.572-.115-.804-.259-3.776-2.348-11.094-.517-12.64 5.124-.073.267-.1.547-.15.822-.046.251.07.643-.364.606-.415-.036-.275-.436-.291-.673-.048-.71-.071-1.426.123-2.125.098-.355.133-.663-.345-.789-.5-.132-.667.15-.779.545-.188.66-.295 1.332-.237 2.021.059.71-.153.973-.937.852-2.628-.402-5.003-1.48-7.34-2.671-3.205-1.633-11.555-7.794-13.421-9.872.114-.229.352-.2.544-.253a44.1 44.1 0 0014.41-6.895c.667-.484 1.105-.473 1.754-.004 2.877 2.076 5.96 3.783 9.274 5.045 2.366.9 4.792 1.513 7.325 1.715 1.835.146 3.619.729 5.475.746.784.007 1.568-.024 2.483-.04-.856 1.715-1.696 3.28-2.812 4.683zm3.816-7.209c-.085.18-.166.347-.394.235-.134-.065-.104-.195-.038-.31.471-.827.777-1.769 1.6-2.349l.021-.042.015-.005c.011-.148.077-.259.216-.321l.001-.024.032-.014c.049-.07.112-.108.199-.09l.023-.01.017-.032a.39.39 0 01.157-.293l.024-.044.242-.11.006-.002a.02.02 0 01.004-.001l.01-.005.031-.008a2.063 2.063 0 00-.051.017l-.228.128a.394.394 0 00-.038.025l-.157.293a.456.456 0 00-.003.053.24.24 0 00-.037-.01l-.199.09a.312.312 0 00-.02.03l-.014.007c-.009.15-.043.282-.215.322l-.002.021-.034.025c-.39.807-.784 1.613-1.168 2.424zm3.319.524c-.737 0-1.473-.041-2.21-.054-.527-.009-.618-.221-.418-.704.771-1.868 1.983-3.31 3.776-4.267 1.511-.807 2.915-.469 4.283.308 1.565.887 2.952 1.994 4.056 3.594-3.168.935-6.316 1.127-9.487 1.123zm28.393-12.073c1.749.262 3.358.095 4.952-.334 1.607-.432 3.001-1.19 4.003-2.591-.639 3.16-5.832 4.875-8.955 2.925z"/><path d="M33.496 100.766v.091l.058-.057-.058-.034zm-.496.929l-.029.035-.022.026c.011-.003.022-.006.033-.007l.019-.054zm.439-.731l.046-.094.003-.003-.086.042.037.055zm18.686-.013c-.015-.015-.032-.028-.045-.044-.018-.021-.033-.044-.05-.067l-.065-.028.049.039.11.1zm89.395-24.113a2.4 2.4 0 00.034.014.521.521 0 01.044-.032.495.495 0 00-.057.015c-.007 0-.014.002-.021.004zM32.71 102.023c-.005.001-.009.003-.015.003l-.039.083.051-.067c0-.007.002-.012.004-.019zm81.302-2.633l-.242.11-.024.044a.551.551 0 01.037-.026l.229-.127zM54.457 48.923c-.022-.02-.045-.034-.074-.028l-.028-.012.01.019.092.02zm59.134 50.913l-.018.032-.022.01a.281.281 0 01.037.01c0-.017.001-.035.003-.052zm31.505-51.526l-.166.242.179-.224.255-.141a.61.61 0 00.014-.062l-.027.044-.255.14zM107.57 60.133c-.01.002-.018.006-.029.007l-.018.038.031-.021.016-.024zm-61.805.562a.136.136 0 00-.043-.007l-.035.01.043.007.035-.01zm68.269 38.68l-.011.005.042-.013-.031.008zm28.415-22.569l.026.007.038-.012-.047-.004-.017.009zm3.106-28.956c.009-.003.017-.007.028-.009.005-.015.012-.03.018-.044l-.031.028-.015.024zM91 13.973c.018 0 .035-.003.052-.003a.21.21 0 00.04-.016h-.052l-.04.02zm-20.047 93.144l.047.029v-.014c-.016-.004-.031-.01-.047-.015zm42.149-6.789l-.015.005-.021.041.035-.025.001-.021zm.248-.359l-.032.014-.002.024.014-.007a.297.297 0 01.02-.031zm-5.515-40.164h-.015a.055.055 0 01.012.007l.003-.007zm37.022-11.157l-.048.008c.032.065.047.062.048-.008zM16.65 9.936l-.02-.029-.048-.009.031.02.038.018zm42.03 6.783l.007.016.035.015c-.006-.01-.014-.019-.02-.03l-.022-.001zM35.547 52.367l.037.061.042.06-.023-.072a6.701 6.701 0 01-.056-.049zM58.133 16.43l.014.021a.329.329 0 00.039.018l-.02-.031a3.846 3.846 0 00-.033-.008zm34.868 84.578l-.067-.038c-.01-.004-.021-.006-.032-.009.006.007.013.012.018.02l.081.027zM12.649 8.253c-.008-.012-.016-.022-.023-.035l-.063-.007.045.017a.716.716 0 00.04.025zm82.87 53.107c.02.092.026.195.154.206-.019.118-.013.219.146.211l.006.061c.067-.018.068-.04.001-.063a198.59 198.59 0 00-.14-.213l-.153-.212-.181-.235-.04-.053.023.06.184.237zM13.466 8.65a.193.193 0 00-.07-.023.485.485 0 00-.04-.025l.021.032.09.016zm66.392 39.976l-.043-.025-.026-.007.013.017c.018.006.037.01.056.015zM47.86 35.364l.066.405.179.233.038.034-.02-.048-.177-.23-.065-.407-.196-.207-.016-.019-.005.032.196.208zm20.045.331l-.038-.078-.011-.023-.004.033.053.068zM17.322 10.257l-.011-.022a3.343 3.343 0 00-.057-.008l.042.02.026.01zm48.745 21.812l-.15-.223-.038-.034.02.048.149.222.147.24.031.007-.014-.018-.145-.242zm-10.453-.196l.003-.027-.009-.073-.01.085c.007.005.01.01.016.015zm10.78.697l-.025-.052-.014-.018-.003.03.042.04zm-19.336.96v-.03l-.016-.023-.003.034c.007.006.012.013.02.019zM11.762 7.903c-.009-.01-.019-.018-.027-.03l-.036-.006.019.019.044.017zm35.676 26.639v-.024l-.016-.018v.029l.016.013zM15.076 9.258l-.012-.023a6.262 6.262 0 01-.048-.008l.03.02.03.01zm89.264 40.625l-.021.025-.007.01h.001l.027-.035zM26.765 55.68a1.324 1.324 0 00-.042-.016l.044.028-.002-.012zm65.489 30.983l.014-.025.04-.068-.053.05-.001.043zM26.367 55.406l.03.05.037.023c-.006-.011-.013-.022-.018-.035l-.049-.038zm65.578 31.707c.012-.014.023-.028.036-.04.02-.016.041-.03.062-.044l.021-.037-.035.016-.084.105zM34.052 53.866l-.015-.05c-.008-.003-.014-.008-.021-.011 0 .008.001.016.003.023l.033.038zm58.195 46.811c-.004-.007-.01-.012-.013-.018l-.03-.011.013.024.03.005zm-.559-.269c-.004-.005-.008-.008-.01-.013l-.026-.012.008.025h.028zM70.003 26.957l.005-.042-.015-.017v.028l.01.03zM10.012 7.227l.06.035.066.015a.3.3 0 00-.048-.025l-.078-.025zm76.826 36.82l-.02.024-.025.018.036-.002c.002-.015.006-.027.009-.04zm.869-.788l.043-.009-.043.009zm-.237.156l.192-.134-.204.117-.222.139-.068.086c.027-.023.055-.046.08-.071l.222-.137zM10.352 8.89l.259.101.023.013-.006-.01-.276-.103zm93.52 41.446a7.967 7.967 0 01-.042.02l-.002.029c.006-.003.01-.008.015-.01l.029-.04zM11.254 9.313c.005.007.012.012.017.02l.03.01-.012-.022-.035-.008zm92.865 40.882a1.624 1.624 0 01-.035.05.491.491 0 00-.025.012.24.24 0 01.039.009.792.792 0 00.021-.07zm-.499.515c-.006.002-.01.004-.017.005l-.021.032.035-.015c0-.008.003-.014.003-.021zm11.586-3.988c-.466-.07-.809.046-.869.574-.049.43.021.87.522.915.431.04.872-.117.968-.658.088-.493-.158-.755-.621-.831zM92.339 25.766c-.068-.013-1.098.346-1.085.476.028.275.085.567.377.69.177.075 1.19-.579 1.18-.749-.01-.197-.096-.355-.472-.417zM79.624 60.231a11.883 11.883 0 00-2.116-2.447c-.601-.52-1.305-.728-2.05-.626-1.707.235-3.378.615-4.949 1.38-2.413 1.176-4.658 2.644-6.96 4.013-1.407.837-1.403.843-2.219-.53-.047-.08-.097-.16-.138-.242-.149-.306-.356-.397-.67-.224-.347.192-.254.44-.114.705.188.356.341.736.568 1.065.347.5.201.784-.264 1.114a113.54 113.54 0 00-3.709 2.76c-2.098 1.619-4.215 3.22-5.958 5.25-1.003 1.17-1.279 2.434-.778 3.964.957 2.92 2.062 5.778 3.261 8.602.497 1.17 1.034 2.323 1.777 3.361 1.834 2.563 4.48 3.463 7.47 2.546 1.067-.326 2.034-.87 3.006-1.403 2.733-1.495 5.184-3.439 7.864-5.02.547-.323.876-.388 1.293.175.476.644 1.093 1.18 1.584 1.815.424.548.702.304 1.11-.013.488-.38.3-.628-.019-.956-.495-.51-.934-1.079-1.457-1.555-.602-.547-.423-.852.181-1.216 2.576-1.552 4.855-3.481 6.925-5.663.901-.95 1.667-1.99 1.907-3.367.127-1.054.122-2.135-.272-3.177a51.871 51.871 0 00-5.273-10.311zm2.915 15.905c-1.525 1.49-3.052 2.985-4.862 4.121a1162.05 1162.05 0 01-12.706 7.881c-1.447.884-2.967 1.659-4.747 1.583l-.655-.028c-1.433-.43-2.589-1.237-3.403-2.533-1.375-2.19-2.263-4.614-3.294-6.968-.671-1.532-1.251-3.105-1.923-4.637-.355-.81-.252-1.518.268-2.17a13.2 13.2 0 011.31-1.434c5.45-5.09 11.63-9.125 18.124-12.7.979-.54 2.037-.866 3.131-1.073 1.217-.23 2.239.096 3.06 1.064 2.566 3.024 4.563 6.386 5.93 10.122.298.812.544 1.645.83 2.462.59 1.678.183 3.093-1.063 4.31zm-3.215 11.298c-.421-.048-.88.299-.95.705-.068.397.369.756.734.803.428.054.73-.345 1.063-.688-.245-.353-.478-.777-.847-.82zM37.015 16.58c-.248.12-.53.217-.4.592.088.26.178.52.283.773.083.2.187.423.462.289.236-.115.518-.197.589-.545-.103-.264-.228-.543-.32-.832-.108-.338-.298-.431-.614-.277zm6.935 32.912c-1.205.951-2.41 1.902-3.596 2.875-.378.31-.706.684-1.045 1.04-.2.208-.375.473-.132.73.214.224.462.049.654-.106.407-.326.821-.648 1.198-1.008 1.236-1.177 2.458-2.37 3.765-3.635-.473-.23-.663-.039-.844.104zm19.54-12.906c-1.14 1.025-2.262 2.072-3.39 3.111-.112.104-.229.206-.326.323-.156.187-.366.39-.163.646.224.282.494.163.734 0 .152-.103.302-.215.428-.347a597.426 597.426 0 003.43-3.599c.14-.147.32-.3.234-.64-.468-.07-.69.276-.947.506zm-.624-1.664a333.121 333.121 0 00-3.835 3.588c-.205.196-.563.47-.284.77.338.362.61-.055.823-.27 1.253-1.267 2.487-2.553 3.725-3.835.105-.108.22-.225.116-.41-.24-.18-.406.028-.545.157zm-18.16 16.086c-.974.797-1.95 1.593-2.899 2.422-.287.251-.67.625-.286 1.017.392.401.75.001.998-.29.815-.965 1.694-1.867 2.58-2.765.116-.119.297-.25.169-.48-.223-.2-.407-.03-.562.096zm1.246 1.11c-.175-.142-.371-.047-.502.076-.85.805-1.71 1.602-2.518 2.449-.27.283-.31.686.137.875.286.06.496-.015.637-.185a251.64 251.64 0 002.225-2.725c.118-.147.212-.335.021-.49zm11.963-14.415c-.125.151-.192.346-.031.5.247.235.467.044.634-.125a175.63 175.63 0 002.75-2.843c.3-.32.708-.575.715-1.15-1.47 1.081-2.897 2.203-4.068 3.618zm-17.233 3.242c-.584-.12-1.026.104-1.163.726-.13.59.15.933.79 1.07.51.048.971-.115 1.11-.74.134-.597-.19-.945-.736-1.056zm12.1-7.575c-.54-.124-.91.089-1.013.65-.098.532.118.927.653 1.045.53.118.875-.153 1.046-.66.061-.546-.152-.911-.686-1.035z"/><path d="M76.266 61.987l.04.038-.02-.051-.144-.254-.04-.017.02.032.144.252z"/><path d="M76.626 60.473c-.72-.938-1.648-1.307-2.834-1.095-1.41.253-2.703.801-3.974 1.428a69.012 69.012 0 00-13.236 8.551c-1.45 1.187-3.015 2.25-4.16 3.787-.307.41-.536.823-.582 1.336-.275.988.057 1.895.404 2.79a158.033 158.033 0 001.685 4.222c.828 1.968 1.656 3.938 3.11 5.558.836.932 1.809 1.422 3.089 1.32 1.428-.114 2.815-.412 4.074-1.071 4.39-2.297 8.708-4.729 12.72-7.657a34.038 34.038 0 003.81-3.22c1.483-1.461 1.918-3.187 1.373-5.18-1.085-3.972-2.987-7.525-5.479-10.77zm-.524 1.231l.04.017.144.254.02.05-.04-.037-.143-.252-.021-.032c-.688-.283-1.15-.932-1.879-1.149.91-.067 1.435.475 1.879 1.15zm5.003 12.045c-.09.899-.647 1.538-1.369 2.061-3.547 2.572-7.268 4.87-11.025 7.112-1.031.615-2.096 1.177-3.102 1.831-1.778 1.157-3.727 1.878-5.755 2.412-.866.228-1.569-.103-2.132-.762-.751-.88-1.268-1.915-1.725-2.962-1.079-2.47-2.082-4.972-3.136-7.453-.339-.797-.22-1.478.305-2.147.693-.881 1.514-1.616 2.377-2.32 4.723-3.855 9.718-7.277 15.254-9.854 2.104-.98 2.836-1.217 5.056.915 1.041 1 1.763 2.233 2.439 3.485 1 1.852 1.86 3.775 2.636 5.736.248.625.358 1.247.177 1.946z"/><path d="M57.503 72.3c-1.193.08-2.236.61-2.917 1.684-.168.264-.312.543-.245.868.182.879.375 1.754.909 2.505.22.31.474.568.87.627.348.086.689.037.961-.183.741-.596 1.49-1.186 2.181-1.838.544-.513.53-1.213.161-1.794-.485-.768-.72-1.949-1.92-1.868zm-1.863 2.93c-.418-.584-.815-1.07.262-1.46l-.262 1.46zm1.248 1.432c-.246.03-.345-.077-.41-.255-.214-.582-.438-1.165-.275-1.8.028-.396.239-.706.46-1 .505-.673.882-.658 1.329.037.1.156.193.317.28.481.62 1.19-.032 2.37-1.384 2.537zm18.65-10.475c-.715.354-1.453.678-2.12 1.112-3.505 2.281-6.992 4.592-10.484 6.895a3.678 3.678 0 00-.436.341c-.166.15-.31.337-.153.562.16.231.398.142.579.035.449-.267.882-.561 1.319-.847 3.732-2.442 7.464-4.883 11.192-7.33.226-.148.495-.259.636-.56-.054-.352-.304-.322-.533-.208zm.967 3.605c-3.832 2.04-7.493 4.378-11.238 6.57-.302.176-.782.398-.57.82.271.537.685.077 1.03-.035.145-.047.282-.124.414-.203 3.682-2.18 7.327-4.421 10.881-6.81.188-.126.457-.224.402-.566-.369-.196-.645.079-.919.224zm2.431 3.916a6.295 6.295 0 00-.926.403c-2.588 1.366-4.95 3.094-7.375 4.718-1.124.753-2.266 1.483-3.284 2.383-.193.17-.552.356-.35.658.21.316.497.025.713-.104.474-.283.941-.582 1.391-.904 2.154-1.538 4.386-2.953 6.644-4.33 1.049-.64 2.066-1.334 3.093-2.01.202-.132.43-.248.517-.508.002-.303-.186-.385-.423-.306zm-5.647-8.818c-3.873 2.097-7.332 4.836-11.005 7.242a1.635 1.635 0 00-.279.24c-.154.16-.301.345-.122.565.172.21.388.127.582.016.133-.075.257-.168.383-.256 3.63-2.53 7.32-4.974 11.025-7.391.263-.171.637-.263.67-.681-.567-.092-.573-.104-1.254.265zM62.146 80.13c-.215-.407-.538-.67-1.01-.725-1.142-.165-2.02.365-2.763 1.148-.26.273-.787.446-.694.907.205 1.025.396 2.08 1.142 2.888.417.45.973.58 1.518.335.723-.327 1.42-.722 2.1-1.136.357-.218.528-.6.449-1.042-.147-.823-.347-1.631-.742-2.376zm-.071 2.316c-.087.5-1.754 1.386-2.394 1.271-.492-.088-1.278-1.466-1.222-2.143.044-.53 1.801-1.486 2.538-1.38.525.077 1.208 1.501 1.078 2.252zm15.759-10.313c-4.241 2.17-8.427 4.436-12.34 7.176-.254.178-.59.325-.525.997l13.802-8.148c-.475-.361-.717-.137-.938-.025zm-16.667-1.471c-.322.21-1 .43-.703.89.298.463.768-.079 1.09-.288a940.07 940.07 0 008.947-5.89c.837-.558 1.624-1.19 2.504-1.841-.372-.02-.572.137-.782.258-3.769 2.154-7.421 4.499-11.056 6.87z"/></g></svg>