<svg width="47" height="40" fill="none" xmlns="http://www.w3.org/2000/svg"><g opacity=".08" fill="#97A2FB"><path d="M4.36 24.673a4.365 4.365 0 004.36-4.36 4.365 4.365 0 00-4.36-4.36A4.365 4.365 0 000 20.313a4.365 4.365 0 004.36 4.36zm0-8.179a3.823 3.823 0 013.819 3.82 3.823 3.823 0 01-3.82 3.818 3.823 3.823 0 01-3.818-3.819 3.823 3.823 0 013.819-3.819zM28.21 0a3.205 3.205 0 00-3.202 3.202 3.205 3.205 0 003.201 3.201 3.205 3.205 0 003.202-3.201A3.205 3.205 0 0028.209 0zm0 5.862a2.663 2.663 0 01-2.661-2.66 2.663 2.663 0 012.66-2.66 2.663 2.663 0 012.66 2.66 2.663 2.663 0 01-2.66 2.66zm5.688 26.076a2.026 2.026 0 002.024-2.024 2.026 2.026 0 00-2.024-2.023 2.026 2.026 0 00-2.023 2.023c0 1.116.908 2.023 2.023 2.023zm0-3.506c.818 0 1.483.665 1.483 1.482s-.665 1.482-1.483 1.482a1.484 1.484 0 01-1.482-1.482c0-.817.665-1.482 1.482-1.482zm-5.075-4.818a2.779 2.779 0 002.775-2.776 2.779 2.779 0 00-2.775-2.776 2.779 2.779 0 00-2.776 2.776 2.779 2.779 0 002.776 2.776zm0-5.01a2.237 2.237 0 012.234 2.234 2.237 2.237 0 01-2.234 2.235 2.237 2.237 0 01-2.235-2.235 2.237 2.237 0 012.235-2.234z"/><path d="M24.075 25.19a.232.232 0 00-.016.052.24.24 0 00-.004.079.237.237 0 00.02.078l.004.012.006.01a.284.284 0 00.113.112c.003.002.006.005.01.006l.01.004a.23.23 0 00.034.012l.022.005a.253.253 0 00.034.004l.015.002.005-.001a.272.272 0 00.066-.01c.005 0 .009-.003.013-.004l.033-.012c.493-.234 1.115-.198 1.622.096.485.28.802.78.848 1.34l.002.007a.265.265 0 00.082.166l.01.01c.008.005.014.012.022.018.017.011.034.02.052.028l.008.002c.03.011.062.018.093.018a.29.29 0 00.024 0l.012-.003a.258.258 0 00.121-.048.272.272 0 00.059-.057l.007-.009a1.717 1.717 0 012.821.007l.007.007a.33.33 0 00.03.034l.012.012a.272.272 0 00.05.034.271.271 0 00.056.02l.02.004.026.005h.023c.03 0 .06-.006.09-.016l.028-.014c.011-.006.024-.01.035-.017.008-.005.015-.012.022-.019l.01-.008a.263.263 0 00.082-.166l.002-.007c.045-.547.38-1.064.873-1.348a1.71 1.71 0 011.59-.063c.01.005.02.008.032.012l.014.005a.27.27 0 00.065.009h.005l.016-.001a.268.268 0 00.034-.004l.022-.005a.25.25 0 00.033-.012l.011-.003c.003-.002.006-.005.01-.006a.288.288 0 00.097-.088.275.275 0 00.015-.025c.002-.004.005-.006.006-.01l.004-.012a.262.262 0 00.02-.13.276.276 0 00-.02-.078l-.004-.012c-.234-.493-.198-1.115.096-1.623.28-.484.78-.801 1.34-.848.01 0 .018-.003.026-.005l.02-.003a.276.276 0 00.05-.018l.006-.003a.271.271 0 00.05-.033l.012-.013a.27.27 0 00.03-.032l.007-.008c.002-.004.003-.008.006-.011a.287.287 0 00.04-.125v-.041l-.001-.012a.284.284 0 00-.006-.029l-.006-.022a.27.27 0 00-.012-.03l-.009-.016a.27.27 0 00-.02-.03l-.009-.012a.261.261 0 00-.038-.037l-.014-.012a1.716 1.716 0 01.007-2.82l.022-.02.01-.008a.268.268 0 00.052-.069l.006-.012a.277.277 0 00.024-.085l.002-.007v-.012a.282.282 0 00-.041-.154l-.006-.01-.008-.01a.26.26 0 00-.103-.082.275.275 0 00-.077-.022l-.012-.002a1.756 1.756 0 01-1.348-.873 1.71 1.71 0 01-.063-1.59l.005-.012a.254.254 0 00.02-.104.24.24 0 00-.005-.052.278.278 0 00-.015-.052l-.005-.012-.005-.01a.267.267 0 00-.113-.112c-.003-.002-.006-.005-.01-.006l-.012-.005a.311.311 0 00-.078-.02.255.255 0 00-.13.02l-.012.005c-.493.234-1.115.198-1.623-.096a1.716 1.716 0 01-.854-1.342c0-.005-.002-.008-.003-.013a.24.24 0 00-.024-.081.248.248 0 00-.03-.048l-.006-.008a.273.273 0 00-.03-.031l-.007-.006c-.005-.004-.01-.01-.016-.013-.006-.005-.013-.007-.02-.011a.261.261 0 00-.046-.021l-.014-.005a.268.268 0 00-.084-.01h-.012c-.005 0-.009 0-.013.002a.259.259 0 00-.1.033.235.235 0 00-.043.03.292.292 0 00-.037.04l-.007.01a1.711 1.711 0 01-2.815-.005l-.008-.01a.275.275 0 00-.152-.099.253.253 0 00-.027-.005l-.013-.002h-.013a.268.268 0 00-.154.041l-.01.006-.008.008a.284.284 0 00-.083.103.248.248 0 00-.022.076l-.002.013a1.755 1.755 0 01-.873 1.348 1.71 1.71 0 01-1.59.063l-.013-.005a.32.32 0 00-.077-.02.285.285 0 00-.104.01.264.264 0 00-.026.01l-.012.005c-.004.001-.007.004-.01.006a.266.266 0 00-.113.112l-.005.01-.005.012a.272.272 0 000 .208l.005.012c.234.493.197 1.115-.096 1.623a1.71 1.71 0 01-1.34.848l-.013.002a.228.228 0 00-.053.012.303.303 0 00-.09.053.26.26 0 00-.037.04l-.008.008-.005.01a.29.29 0 00-.038.1.316.316 0 00-.004.054v.013l.002.006a.267.267 0 00.081.166l.011.01.022.018a1.716 1.716 0 01-.007 2.82l-.01.01a.263.263 0 00-.099.15.26.26 0 00-.005.028l-.002.013v.012a.282.282 0 00.027.128l.014.026.006.01.006.007.03.035.013.011a.265.265 0 00.05.034l.004.002a.271.271 0 00.05.019l.021.003c.009.002.017.005.026.005.547.046 1.064.38 1.348.873a1.71 1.71 0 01.063 1.59c-.003.004-.003.008-.005.012zm-.812-2.894a2.25 2.25 0 00.558-1.481c0-.552-.2-1.076-.552-1.481a2.25 2.25 0 001.217-1 2.377 2.377 0 00.284-1.593 2.246 2.246 0 001.563-.255 2.3 2.3 0 001.023-1.223 2.244 2.244 0 002.956.005c.176.507.53.942 1.006 1.218.368.212.784.32 1.193.32.134 0 .267-.015.398-.038-.106.53-.02 1.087.257 1.565a2.3 2.3 0 001.222 1.023 2.25 2.25 0 00-.557 1.481c0 .551.2 1.076.55 1.481a2.249 2.249 0 00-1.215 1 2.376 2.376 0 00-.284 1.59 2.247 2.247 0 00-1.563.258 2.3 2.3 0 00-1.023 1.222 2.25 2.25 0 00-1.482-.557c-.55 0-1.075.2-1.48.551a2.249 2.249 0 00-1-1.216 2.378 2.378 0 00-1.591-.284 2.249 2.249 0 00-.257-1.563 2.302 2.302 0 00-1.223-1.023z"/><path d="M36.773 27.663a.269.269 0 00.38-.035 10.76 10.76 0 002.03-10.052c-1.376-4.505-5.61-7.639-10.313-7.639h-.064a10.791 10.791 0 00-3.089.474 10.743 10.743 0 00-5.128 3.399 10.762 10.762 0 00-2.038 10.066c1.392 4.557 5.63 7.64 10.313 7.639.341 0 .685-.016 1.03-.05a.27.27 0 10-.053-.538c-4.823.466-9.354-2.566-10.772-7.209a10.222 10.222 0 011.936-9.562 10.202 10.202 0 014.87-3.228 10.257 10.257 0 012.934-.45h.061c4.466 0 8.488 2.977 9.795 7.256a10.22 10.22 0 01-1.928 9.548.27.27 0 00.036.38z"/><path d="M28.867 38.522c9.812 0 17.796-7.984 17.796-17.796 0-3.924-1.252-7.644-3.621-10.758a17.932 17.932 0 00-9.16-6.316.27.27 0 00-.153.519c7.297 2.138 12.393 8.946 12.393 16.555 0 9.514-7.74 17.255-17.255 17.255-9.515 0-17.256-7.741-17.256-17.255 0-7.1 4.454-13.576 11.081-16.117a.27.27 0 10-.193-.505 17.765 17.765 0 00-8.22 6.427 17.683 17.683 0 00-3.209 10.195c0 9.812 7.984 17.796 17.797 17.796zm-15.695 1.422a.27.27 0 00.38-.038.27.27 0 00-.037-.381c-3.958-3.237-6.751-7.542-8.077-12.45a.27.27 0 10-.522.141c1.355 5.018 4.21 9.419 8.256 12.728zM5.294 13.886a.27.27 0 00.337-.18A24.133 24.133 0 018.776 7.11a.27.27 0 00-.448-.304 24.689 24.689 0 00-3.215 6.742.27.27 0 00.181.338z"/></g></svg>