<svg width="185" height="120" fill="none" xmlns="http://www.w3.org/2000/svg"><g opacity=".7" fill="#006766"><path d="M120.987 119.957c1.368.105 2.729.025 4.085-.157 2.104-.284 4.162-.779 6.193-1.392 8.181-2.467 15.716-6.28 22.796-11.02 2.504-1.676 4.886-3.522 7.19-5.467 3.355-2.833 6.449-5.918 9.127-9.404 2.278-2.965 4.18-6.148 5.46-9.678 2.046-5.639 2.224-11.332.354-17.039-2.152-6.567-6.139-11.822-11.388-16.147a.518.518 0 01.059-.096c.143.05.279.083.4.144 1.106.563 2.009 1.387 2.885 2.245 1.008.987 1.988 2.005 3.036 2.948 1.265 1.14 2.785 1.731 4.488 1.836.423.026.846.054 1.269.053 1.836-.004 3.671-.014 5.507-.033.327-.003.661-.024.98-.094.59-.13.852-.663.575-1.186a4.56 4.56 0 00-.645-.921c-1.96-2.163-3.967-4.279-6.261-6.099-2.673-2.12-5.673-3.504-9.061-4.01-.279-.041-.561-.076-.834-.143-.12-.029-.222-.129-.406-.243.16-.166.262-.316.402-.41 1.494-1.015 2.75-2.286 3.878-3.68a200.32 200.32 0 003.563-4.56c.341-.445.647-.931.888-1.437.57-1.195.362-2.212-.68-3.012a10.275 10.275 0 00-2.056-1.217c-.767-.343-1.581-.629-2.404-.788-1.456-.282-2.355.259-2.877 1.633-.216.57-.334 1.176-.519 1.759-.413 1.3-.786 2.615-1.274 3.886-.632 1.644-1.611 3.089-2.872 4.32-1.632 1.593-3.612 2.503-5.852 2.868-.037.007-.081-.032-.199-.084.125-.29.277-.577.372-.88.237-.762.543-1.517.652-2.299.395-2.855-.555-5.283-2.53-7.331-1.253-1.3-2.751-2.274-4.305-3.172-2.077-1.2-4.149-2.411-6.224-3.616-.203-.118-.404-.244-.62-.335-.81-.342-1.361-.108-1.689.708-.052.13-.102.266-.125.404-.349 2.067-.43 4.117.394 6.11.122.296.215.604.377 1.067-.408-.141-.674-.206-.916-.32-2.837-1.348-5.827-1.784-8.939-1.548-2.346.178-4.695.323-7.041.495-.372.027-.759.068-1.104.196-.772.286-.944 1.112-.39 1.711.064.069.136.13.209.19.99.817 2.055 1.49 3.33 1.777.964.218 1.928.44 2.884.688 1.435.371 2.745 1.009 3.83 2.028l.126.122c-3.777.352-7.325 1.428-10.576 3.443-3.012 1.867-5.414 4.356-7.369 7.293-1.812 2.724-3.146 5.676-4.19 8.766-.937 2.771-1.626 5.606-2.159 8.479-1.127 6.072-1.831 12.196-2.164 18.36-.315 5.842-.205 11.671.641 17.472.381 2.613.944 5.185 1.808 7.685.585 1.697 1.343 3.307 2.356 4.802 1.818 2.685 4.351 4.082 7.555 4.33zm42.507-77.428c1.651-1.323 2.8-3.016 3.658-4.927.638-1.42 1.047-2.913 1.399-4.424.15-.64.309-1.28.518-1.9.168-.498.497-.675.988-.557 1.249.302 2.367.895 3.406 1.635.312.222.363.524.199.874a3.326 3.326 0 01-.349.61c-1.814 2.393-3.575 4.832-5.741 6.933-1.089 1.056-2.322 1.904-3.766 2.412a2.93 2.93 0 01-.544.13c-.086.012-.179-.03-.479-.09.321-.316.5-.526.711-.696zm7.773 4.235a15.9 15.9 0 011.811.79c2.273 1.16 4.252 2.814 6.078 4.58.463.447.917.904 1.367 1.365.289.296 1.201.959 1.259 1.37a.34.34 0 01-.01.151c-.133.406-1.169.201-1.481.178-.656-.05-1.307-.137-1.963-.184-1.324-.095-2.682-.03-3.948-.43-2.356-.744-3.916-2.917-5.858-4.445-2.344-1.845-5.269-2.754-8.122-3.626-.361-.11-.9-.12-.958.254 2.249 1.437 4.115 3.483 5.281 5.884 1.167 2.4 1.623 5.15 1.232 7.791-.13.883-.369 1.784-.938 2.472-.629-.402-.932-1.146-1.222-1.835-.867-2.056-1.959-4.03-3.388-5.744-1.162-1.394-2.539-2.607-3.614-4.07-1.074-1.463-1.843-3.282-1.532-5.07.041-.235.119-.493.327-.608.148-.082.329-.072.498-.06 5.09.347 10.384-.5 15.181 1.237zM144.631 33.64c-.713-2.177-1.294-4.479-.932-6.74v-.003l6.565 4.068c1.299.804 2.607 1.616 3.712 2.671 2.768 2.642 3.338 6.935.813 9.97-.146.176-.319.355-.545.394-.337.057-.631-.214-.862-.465-2.13-2.32-3.992-4.927-6.489-6.846-.497-.382-1.024-.742-1.411-1.235-.415-.528-.642-1.176-.851-1.814zm-15.85 1.594c-.246-.047-.545-.14-.589-.387-.057-.323.363-.498.687-.548 3.066-.48 6.198-.958 9.255-.426 3.313.577 6.335 2.32 8.897 4.498 1.32 1.122 2.534 2.362 3.69 3.651.913 1.018 2.628 2.453 3.089 3.735l.007.02c-2.066.982-5.192.493-7.292-.14-2.403-.725-4.604-2.04-6.512-3.67-1.947-1.665-3.633-3.678-5.856-4.95-1.647-.942-3.512-1.43-5.376-1.783zm-13.851 76.491c-.981-2.104-1.504-4.354-1.916-6.628-.641-3.53-.916-7.096-.949-10.678-.089-9.546.909-18.988 2.825-28.334.606-2.955 1.426-5.855 2.545-8.662.997-2.503 2.224-4.882 3.832-7.053 2.979-4.023 6.894-6.633 11.798-7.673 1.469-.312 2.982-.423 4.476-.624.294.345.591.688.905 1.014 2.859 2.972 6.232 4.828 10.48 4.74.376-.008.753.026 1.129.007 1.215-.059 2.43-.133 3.806-.211.057.368.102.692.157 1.013.267 1.565.92 2.962 1.884 4.21a25.952 25.952 0 001.648 1.934c1.818 1.925 3.468 3.967 4.637 6.365.288.591.586 1.182.925 1.745.265.438.552.884.917 1.236.545.526 1.215.554 1.793.085.357-.288.715-.653.897-1.061.362-.81.736-1.654.868-2.52.2-1.307.26-2.583.152-3.82 1.682 2.076 3.135 4.305 4.259 6.748 1.976 4.292 2.788 8.77 2.046 13.48-.468 2.963-1.496 5.73-2.924 8.357-1.309 2.408-2.908 4.616-4.678 6.703-3.739 4.41-8.115 8.115-12.802 11.461-4.223 3.016-8.712 5.594-13.4 7.817-3.534 1.675-7.158 3.127-10.927 4.196-1.859.528-3.736.968-5.666 1.15-1.223.115-2.444.137-3.655-.119-1.438-.305-2.655-.997-3.497-2.208a18.086 18.086 0 01-1.565-2.67z"/><path d="M155.664 66.945c-.573 3.027-1.567 5.912-3.054 8.609a91.234 91.234 0 01-3.081 5.222c-2.135 3.327-4.488 6.502-6.987 9.563-3.959 4.849-8.281 9.367-12.639 13.855a30.357 30.357 0 01-5.576 4.513c-.396.252-.788.515-1.166.794-.135.099-.317.215-.157.616.202-.059.391-.08.547-.164.828-.447 1.651-.902 2.468-1.368 2.845-1.622 5.243-3.808 7.597-6.047 2.797-2.66 5.353-5.547 7.933-8.412 5.511-6.12 10.099-12.864 13.712-20.263a45.892 45.892 0 001.924-4.543c1.068-2.954 1.481-6.021 1.28-9.16a16.15 16.15 0 00-.307-2.232c-.16-.776-.478-1.15-.761-1.02-.481.224-.387.713-.413 1.108-.201 3.013-.759 5.971-1.32 8.929zM136.3 61.527c-2.357 3.393-4.043 7.117-5.217 11.06-1.261 4.237-2.498 8.486-3.586 12.77-1.332 5.243-2.5 10.527-3.736 15.794-.527 2.244-1.056 4.488-1.569 6.735-.088.388-.296.796.058 1.307.516-.474.558-1.013.695-1.501 2.293-8.151 4.612-16.296 6.653-24.515.749-3.015 1.572-6.008 2.624-8.934 1.845-5.13 4.339-9.902 7.792-14.145 1.16-1.425 2.402-2.768 3.86-3.903a23.905 23.905 0 015.345-3.124c.513-.219.994-.52 1.473-.81.085-.052.147-.253.116-.354-.031-.1-.196-.233-.294-.227-.371.023-.754.05-1.106.16-2.298.72-4.499 1.667-6.52 2.99-2.679 1.753-4.777 4.089-6.588 6.697zm-20.003 9.24c.118-.123.158-.3.193-.467.855-4.074 1.915-8.132 3.647-11.917 1.731-3.786 4.168-7.31 7.435-9.888.878-.693 1.81-1.313 2.759-1.904.215-.134 1.282-.602 1.259-.875a.242.242 0 00-.006-.04c-.076-.356-.755-.143-.978-.066-1.473.508-2.796 1.382-4 2.371-3.287 2.698-5.775 6.289-7.503 10.174-1.728 3.886-2.72 8.066-3.309 12.277-.017.125-.03.265.05.362.109.132.334.096.453-.027z"/><path d="M133.277 98.061l.012-.004c.686-.256 1.213-.809 1.715-1.344l4.461-4.761c1.735-1.852 3.472-3.706 5.056-5.688.594-.743 1.173-1.514 1.537-2.393.159-.384.681-1.87-.284-1.654-.228.05-.407.222-.571.389-1.453 1.485-2.627 3.213-3.86 4.886-2.26 3.066-4.733 5.967-7.194 8.873-.42.495-.862 1.047-.872 1.696zm14.461-42.558c-3.21 1.976-5.875 4.765-7.973 7.896-2.097 3.132-3.645 6.605-4.881 10.166-.232.669-.454 1.345-.556 2.046.448-.116.712-.568.921-.981 1.645-3.253 2.958-6.681 4.877-9.78a29.01 29.01 0 018.073-8.518c.493-.343 1.671-.998 1.711-1.67-.664-.15-1.631.509-2.172.841zm-16.157 27.312c-.134.138-.208.323-.277.503-.04.104-.079.209-.117.314-.949 2.628-1.552 5.41-2.233 8.117l-1.095 4.354-.548 2.176-.285 1.132c-.036.14-.313.854-.241.958-.14.554-.27 1.178.028 1.666.472-.264.669-.829.828-1.346.873-2.835 1.737-5.673 2.593-8.514.523-1.737 1.044-3.476 1.488-5.236.287-1.138.543-2.288.664-3.456.032-.309.006-.7-.281-.816-.179-.072-.39.01-.524.148zm26.153 1.73c-.618-.462-1.253-.904-1.934-1.268-.274-.147-.565-.283-.875-.305-.311-.023-.648.09-.818.351-.157.243-.141.567-.024.831.043.099.099.19.163.277.106.145.236.276.367.4.597.567 1.285 1.06 1.949 1.517a66.388 66.388 0 004.251 2.694c.325.189.655.377 1.011.498.204.07.432.116.63.032 1.025-.434-1.618-2.514-1.981-2.818-.9-.752-1.8-1.505-2.739-2.209zm-17.593-31.568c.601.3 1.202-.156 1.064-.802a3.979 3.979 0 00-.537-1.28c-1.277-1.987-2.899-3.69-4.509-5.4a2.14 2.14 0 00-.689-.474c-.144-.063-.396-.044-.515.048-.121.092-.21.331-.185.485.044.27.155.54.292.78a45.202 45.202 0 001.861 2.986 35.005 35.005 0 002.125 2.804c.293.348.686.65 1.093.853zm21.75 13.415c-.409.08-.804.365-.892.772-.073.336.077.69.315.939l.017.017c.247.25.572.407.897.543 1.98.836 4.147 1.105 6.286 1.317.234.023.479.044.697-.046 1.212-.497-.976-1.622-1.371-1.808a23.463 23.463 0 00-4.713-1.637c-.406-.094-.827-.178-1.236-.097zm-11.197 7.268c-.042.154-.083.316-.048.472.035.156.173.302.333.287a.395.395 0 00.217-.11c.225-.2.335-.494.437-.777l1.633-4.527c.564-1.564 1.129-3.13 1.653-4.708.278-.838.545-1.682.725-2.547.046-.22.409-1.693-.064-1.785a.404.404 0 00-.241.046c-.193.088-.287.304-.364.503a127.015 127.015 0 00-4.281 13.145zm8.599 1.502c-.385-.072-.761.033-.963.415-.193.364-.13.725.222 1.235.295.202.72.594 1.221.817 1.58.706 3.187 1.351 4.787 2.013.171.07.359.11.544.134.289.036.573.004.714-.302.138-.3-.015-.54-.215-.752a1.497 1.497 0 00-.212-.184c-1.551-1.134-3.145-2.202-4.897-3.008a5.151 5.151 0 00-1.201-.368zm-40.41-4.016c-.239-.01-.489-.016-.707.083-.218.1-.392.338-.338.571.034.146.147.26.269.347.292.21.649.305.997.396 1.232.322 2.465.641 3.698.956.77.196 1.545.392 2.337.444.355.024.731.013 1.04-.161a.445.445 0 00.029-.018c1.256-.765-.384-1.634-1.083-1.79a35.551 35.551 0 00-6.242-.828zm14.836-13.498c1.952-.32-.545-2.206-1.111-2.505l-4.195-2.22c-.276-.146-.568-.296-.88-.281-.311.014-.634.263-.61.573a.505.505 0 00.064.205c.069.127.184.235.294.333a26.152 26.152 0 005.155 3.553c.399.21.838.415 1.283.342zm16.032 32.469c-.24-.065-.534.005-.654.223-.08.143-.07.32-.04.48.074.395.253.763.457 1.11.67 1.138 1.608 2.09 2.454 3.105.659.789 1.272 1.628 2.063 2.285.192.16.443.316.677.227.215-.081.31-.343.291-.571-.025-.306-.2-.576-.37-.83l-.891-1.34-.453-.675c-.867-1.28-1.791-2.548-2.917-3.609-.181-.17-.377-.34-.617-.405zm-6.416 5.563a.687.687 0 00-.546.507c-.06.25.029.511.124.75.374.935.876 1.802 1.449 2.627.72 1.037 1.552 2.007 2.384 2.958.179.204.398.426.669.409.279-.016.484-.302.504-.581.027-.383-.195-.735-.373-1.057-.228-.414-.457-.827-.69-1.239a55.013 55.013 0 00-1.449-2.437c-.324-.51-.662-1.017-1.079-1.454-.265-.278-.615-.543-.993-.483zm27.446-18.73c-.039.181-.079.372-.023.547.057.176.249.323.423.26l.003-.002c.145-.054.209-.221.256-.37.525-1.651 1.033-3.318 1.263-5.035.093-.701.269-6.376-1.227-5.873-.332.112-.344.57-.299.919.415 3.176.28 6.424-.396 9.555zm-33.406 24.211c-.391.248-.328.834-.171 1.269.297.824.78 1.654 1.339 2.437.57.8 1.22 1.549 1.83 2.189.24.252.58.516.901.38.212-.089.324-.336.324-.566-.001-.231-.09-.451-.18-.664-.708-1.677-1.521-3.354-2.805-4.644-.333-.333-.841-.653-1.238-.401zm-9.113-36.32c.26.037.534.045.776-.056a.731.731 0 00.087-.043c.203-.115.358-.323.355-.553-.006-.39-.416-.63-.774-.783-1.883-.807-3.92-1.475-5.946-1.807-.245-.04-.559-.042-.668.181a.421.421 0 00-.006.315c.124.376.528.572.893.727 1.127.476 2.257.945 3.387 1.415.614.255 1.237.512 1.896.604zM116.19 98.237c1.419-.058 2.842-.117 4.247-.329.328-.05.667-.113.935-.309.661-.485.27-1.22-.427-1.351-.295-.056-.598-.022-.896.016a34.227 34.227 0 00-4.019.76 2.14 2.14 0 00-.443.149.897.897 0 00-.134.082c-.168.124-.29.333-.25.537.038.194.211.34.399.4.188.061.391.054.588.046zm1.674-17.194c1.906.16 3.834.272 5.724-.021.187-.03.381-.066.528-.184.877-.705-1.052-.993-1.404-.986-1.65.033-3.298.137-4.939.311-.258.028-.578.113-.621.37a.327.327 0 00.028.187c.041.09.117.166.205.214.145.079.315.095.479.109zm-1.766 25.202a11.798 11.798 0 004.044-.671c.346-.123.733-.315.804-.675.061-.309-.161-.621-.447-.752-.286-.131-.618-.115-.927-.058-1.012.377-2.142.576-3.179.937a2.552 2.552 0 00-.473.205.909.909 0 00-.243.211c-.173.221-.174.599.07.737.104.06.23.064.351.066zm1.476-16.902c1.548.106 3.184.106 4.699-.267.147-.036.303-.083.399-.2.186-.227.03-.597-.229-.733-.26-.137-.571-.11-.863-.079l-3.849.41c-.181.02-.369.04-.523.139-.153.098-.259.297-.191.465a.438.438 0 00.02.041c.098.168.336.21.537.224zm15.084 17.158c-.168-.091-.392-.105-.54.016-.239.197-.14.58-.008.861.603 1.283 1.481 2.449 2.5 3.431.074.072.157.146.259.159.232.031.376-.26.367-.493-.012-.294-.14-.569-.277-.829-.22-.419-.469-.822-.735-1.214a25.367 25.367 0 00-1.154-1.538c-.119-.149-.244-.302-.412-.393zm-6.967 4.963c-.547.725-.484 2.1-.391 2.946.019.17.046.344.133.492.01.017.021.033.033.049.092.123.236.211.387.198.223-.02.368-.24.467-.442.392-.8.599-1.69.601-2.582 0-.356-.072-.775-.391-.932-.286-.14-.647.017-.839.271zm33.607-30.212c-.57-.298-1.184-.605-1.824-.54-.067.197.139.373.317.48 1.933 1.171 3.987 2.1 6.02 3.085.253.123.572.24.797.072-.076-.34-.418-.543-.728-.704l-4.582-2.393zm10.337 1.166c-.152.047-.264.174-.36.301-.241.32-.429.678-.614 1.034a87.015 87.015 0 00-1.647 3.347c-.096.205-.172.494.015.622a.26.26 0 00.149.045.39.39 0 00.228-.079c.107-.08.177-.201.243-.319l1.916-3.405c.122-.216.91-1.801.07-1.546zm-16.755 5.309c-.133.132-.153.347-.096.526.056.18.175.331.291.479.94 1.19 1.884 2.383 2.969 3.443.048.047.107.098.174.088.046-.008.083-.043.11-.08.457-.627-2.051-3.198-2.481-3.757-.252-.326-.556-.681-.967-.7zm-11.396 12.858c-.229-.276-.462-.556-.752-.767a.522.522 0 00-.253-.106.191.191 0 00-.153.05c-.094.093-.054.252.002.372.207.438.54.802.868 1.159l2.77 3.014c.13.142.387.275.48.106-.21-.743-.882-1.324-1.37-1.911l-1.592-1.917zm-22.893 13.203c.151-.025.285-.11.411-.197a7.276 7.276 0 001.308-1.157c.295-.334.779-1.423-.149-1.281-.227.035-.418.184-.59.337a6.734 6.734 0 00-1.291 1.563c-.107.178-.205.407-.095.583.081.13.255.178.406.152zm4.416-44.952c-.12.06-.189.234-.098.33.041.044.102.06.16.076a37.44 37.44 0 004.95.943c.115.014.239.026.34-.032a.507.507 0 00.06-.04c.331-.257-.387-.53-.552-.558l-4.466-.736c-.132-.022-.274-.042-.394.017zm25.224 9.5l1.075-2.15c.091-.184.558-1.514-.019-1.244a.67.67 0 00-.066.035c-.113.067-.187.182-.256.294a14.25 14.25 0 00-1.353 2.86c-.094.273-.18.568-.1.845.34.016.567-.335.719-.64zm-22.539-1.037a.863.863 0 00.355-.03c.112-.041.21-.146.206-.265a14.102 14.102 0 00-4.898-.258c0 .596 3.774.52 4.337.553zm38.241-2.977c-.378-.563-1.252-.92-1.892-1.091-.201-.053-.488-.045-.532.158-.037.167.135.299.284.383.549.311 1.509.89 2.14.55zm-20.529 2.089c-.303.221-.363.702-.123.986.206.243.63.303.885.124.305-.214.358-.684.111-.986a.655.655 0 00-.873-.124zm-5.603 4.869a.6.6 0 00-.845-.23c-.338.219-.429.632-.218.986a.545.545 0 00.732.203c.369-.204.506-.6.331-.959zm9.223-8.462a.609.609 0 00-.863-.12.62.62 0 00-.13.864.621.621 0 00.993-.744zm1.744-8.35a.651.651 0 00.876.115.639.639 0 00.133-.873c-.193-.256-.619-.312-.878-.115-.266.201-.328.616-.131.873zm-.609-3.491c.19-.182.221-.55.065-.769-.196-.274-.607-.34-.861-.136a.602.602 0 10.796.905zm-3.183 4.117c-.127.19-.135.462-.226.817.368.015.636.095.849.019.297-.107.326-.57.099-.811-.191-.203-.572-.249-.722-.025zm-1.632 6.605a.508.508 0 00.194-.7c-.15-.242-.505-.362-.7-.167-.159.158-.203.431-.268.582.206.354.522.43.774.285zm11.174-13.691c-.045-.266-.433-.412-.683-.313-.252.1-.379.468-.247.713.133.245.479.34.841.138.024-.126.122-.344.089-.538zM139.922 74.39c-.314.227-.374.598-.154.783.148.124.409.214.59.177.276-.056.337-.594.079-.805-.146-.12-.389-.12-.515-.154zm6.809 20.011c.018.172.22.485.351.594.028.022.598.361.56.131-.083-.517-.37-.899-.76-1.242-.098-.086-.156.474-.151.517zm-6.98-17.304c-.114.148-.104.392-.173.703.328-.005.557.047.735-.026.254-.105.271-.525.053-.697-.203-.161-.463-.176-.615.02zm11.966-16.165c.163.098.398.077.533.099.286-.264.287-.617.061-.798-.192-.154-.414-.19-.619-.014-.209.18-.217.566.025.713zm-.624-3.21c-.106-.258-.488-.34-.704-.111-.134.142-.163.383-.287.702.342 0 .572.054.758-.013.239-.087.338-.319.233-.578zm-3.3 11.853c.339-.048.572-.021.715-.122.091-.064.119-.358.051-.478-.118-.206-.384-.297-.567-.1-.117.125-.111.365-.199.7zm9.421-21.583c-.087-.206-.226-.39-.431-.734-.407.622-.193 1.027-.059 1.4.401 1.118 1.01 2.122 1.773 3.03a125.35 125.35 0 001.654 1.928c.806.92 1.616 1.835 2.437 2.74.104.115.243.312.53.072-.039-.13-.045-.325-.142-.45-1.036-1.338-2.064-2.684-3.141-3.99-1.022-1.24-1.991-2.503-2.621-3.996zm13.349 1.071c1.35.545 2.665 1.154 3.829 2.047.182.14.393.259.609.33.092.03.249-.064.343-.143.051-.041.071-.194.034-.253-.148-.234-.28-.511-.496-.664-.685-.484-1.355-1.04-2.12-1.35-1.776-.723-3.603-1.323-5.414-1.957-.198-.069-.431-.034-.692-.05.015.446.265.564.521.668 1.128.46 2.257.915 3.386 1.372zm2.322 2.187a3.325 3.325 0 00-.65-.246c-.07-.02-.225.037-.238.086-.029.114-.002.244.016.366.006.04.051.08.087.106 1.249.912 2.515 1.797 3.943 2.414.834.36 1.716.456 2.614.356.156-.017.299-.153.623-.33-.414-.175-.643-.33-.889-.364-1.323-.19-2.51-.726-3.658-1.377a68.063 68.063 0 00-1.848-1.011zm-25.745-7.01c.329.07.455.025.464-.077.018-.222-.523-.713-.742-.858-.532-.353-1.14-.578-1.72-.838-2.864-1.283-5.223-3.445-7.623-5.467-.554-.468-1.206-.958-1.925-.863 1.63 1.748 3.283 3.49 5.171 4.955 1.889 1.465 4.037 2.651 6.375 3.148zm-3.302-3.967c-.149-.602-.972-1.13-1.505-1.362-.136-.06-.284-.11-.43-.083-.146.028-.281.165-.255.31.013.08.068.145.123.203.461.488 1.366 1.062 2.067.932zm-1.73-2.307c-.309-.597-.77-.948-1.546-.982.313.758.912.898 1.546.982zm11.745 2.244c.072.195.228.424.429.37.201-.055.22-.33.197-.537-.139-1.217-.157-2.494-.631-3.637-.472-1.14-1.262-2.13-2.17-2.954-1.157-1.05-2.511-1.854-3.858-2.647.156 1.072 1.198 1.742 2.072 2.383 1.48 1.086 2.766 2.534 3.298 4.292.271.897.339 1.85.663 2.73zm-1.845-1.268a.227.227 0 00.202-.052.15.15 0 00.033-.048.298.298 0 00.016-.126c-.019-.698-.311-1.369-.774-1.888-.09-.101-.204-.203-.339-.195-.142.01-.249.146-.272.286-.023.14.018.282.063.417.179.538.427 1.07.838 1.46a.514.514 0 00.233.146zm18.093-2.517c.299-.423.564-.87.828-1.316l.709-1.198c.09-.152.181-.308.21-.482.011-.072.01-.15-.029-.21-.061-.096-.2-.115-.305-.073a.693.693 0 00-.258.216c-.714.843-1.241 1.86-1.699 2.859-.111.24-.207.55-.028.746.245-.104.419-.324.572-.541zM67.052 88.479a77.27 77.27 0 00-9.632-3.382c-.482-.134-1.152-.452-1.65-.44.029-.001-1.106.098-.794.33l.02.013c1.018.649 2.175 1.037 3.32 1.416 2.82.933 5.646 1.847 8.478 2.742.248.078.602.11.69-.135.087-.242-.196-.444-.432-.544zm13.413-1.782c-.79-.627-3.016-.984-2.486.74.163.53.629.907 1.099 1.203.432.272.89.505 1.365.693.26.103.535.194.813.171.278-.023.563-.185.65-.45a.58.58 0 00.02-.08c.046-.26-.089-.531-.228-.765-.334-.562-.72-1.105-1.233-1.512zm-12.902-4.945c-.79-.627-3.017-.984-2.486.739.163.53.628.908 1.098 1.204a8.3 8.3 0 001.366.692c.26.103.534.194.813.172.278-.023.562-.185.65-.45a.577.577 0 00.02-.08c.046-.261-.09-.532-.228-.765-.335-.562-.721-1.105-1.234-1.512zm26.483 9.693c-.199-.327-.435-.64-.746-.864-.765-.553-1.872-.236-1.909.81-.016.487.217.95.505 1.343.403.55.925 1.013 1.52 1.347.273.153.6.281.89.165.24-.097.393-.347.435-.603a1.17 1.17 0 00.015-.229 2.276 2.276 0 00-.093-.537 5.68 5.68 0 00-.617-1.431zm-17.213.759a392.944 392.944 0 00-5.481-2.323c-.23-.094-.508-.087-.764-.092-.08-.002-.217.1-.23.172-.024.136-.025.325.053.419.127.155.308.295.495.367a350.65 350.65 0 005.426 2.042c.217.08.488.011.988.011-.296-.37-.366-.543-.487-.596zm23.743-42.929c.322-1.19.337-3.837.076-4.864-.057-.225-.106-.52-.503-.528-.065.106-.212.232-.203.347.111 1.502.241 3.002.38 4.502.013.14.121.27.25.543zm-.452 3.705c-.195 1.364-.124 3.608.122 4.452.454-.582.454-.582.518-1.972.104-2.28.104-2.28-.38-3.03-.107.22-.235.378-.26.55z"/><path d="M104.232 41.918c-.876-4.63-2.453-8.998-5.008-12.984-2.704-4.217-6.297-7.392-10.896-9.444a41.296 41.296 0 00-4.292-1.634 39.102 39.102 0 00-9.652-2.449 32.215 32.215 0 0117.035-9.28c-.222-.142.168-.315-1.247-1.203-1.384-.868-3.066-1.141-4.686-1.348-1.83-.234-3.716-.228-5.489.283-1.504.434-2.833 1.213-4.115 2.089a80.94 80.94 0 00-2.994 2.147c-.86.647-1.63 1.29-2.713 1.507-1.24.248-2.498.385-3.74.63-2.095.414-4.405 1.714-4.979 3.599a33.87 33.87 0 00-.418-.857 79.573 79.573 0 01-.97-1.976c-.816-1.735-1.24-3.557-1.2-5.482.018-.838.034-1.678 0-2.516a4.048 4.048 0 00-.236-1.22.92.92 0 00-.15-.264.372.372 0 00-.233-.364c-.207-.089-.573-.12-.713.002a6.874 6.874 0 00-1.153 1.267c-1.755 2.565-3.8 4.872-6.021 7.041a62.078 62.078 0 00-3.766 4.011c-1.054 1.232-1.903 2.558-2.487 3.995a13.675 13.675 0 00-2.309-4.996c-.84-1.135-1.712-2.273-2.722-3.251-1.43-1.383-2.97-2.659-4.52-3.908-1.635-1.318-3.276-2.623-4.717-4.16A6.103 6.103 0 0029.03.41c-.71-.525-1.319-.568-2.017-.01-.817.654-1.6 1.362-2.317 2.123-.73.775-.741 1.562-.081 2.415a9.311 9.311 0 001.418 1.466c1.455 1.203 2.945 2.365 4.425 3.538 1.645 1.302 3.332 2.556 4.937 3.906 2.293 1.927 4.223 4.13 5.702 6.67a13.773 13.773 0 00-2.778-1.823 47.815 47.815 0 00-4.169-1.835c-1.516-.582-3.078-1.04-4.615-1.567-2.61-.895-5.237-2.081-7.396-3.88-.5-.415-1.663-2.179-2.048-1.134-.243.662.029 1.663.098 2.347.175 1.72.27 3.459.602 5.15 1.207 6.125 4.519 10.864 9.713 14.294.118.078.238.154.359.228-1.884-.132-3.77-.162-5.65.088-1.35.18-2.7.394-4.035.66-3.335.663-6.67.721-10.005.064-2.17-.428-4.274-.29-6.325.569-1.02.427-2.087.689-3.191.809a3.9 3.9 0 00-1.05.29c-.358.148-.594.444-.606.848-.012.411.224.687.585.853.19.088.385.174.588.219 2.083.458 3.921 1.458 5.713 2.563 1.384.854 2.765 1.713 4.16 2.548 1.579.945 3.23 1.746 4.972 2.344 2.102.721 4.263 1.13 6.488 1.043 1.133-.044 2.271-.122 3.416-.47.017.297.045.596.09.898a16.53 16.53 0 001.216 4.212c.107.247.41.509.089.833-.12.12-.694-.452-.797-.513a.89.89 0 00-.55-.135.13.13 0 00-.069.024.133.133 0 00-.035.063c-.082.252-.052.529.032.78.294.877.928 1.753 1.54 2.436a7.498 7.498 0 001.83 1.491c-.052.437-.027 1.158 0 1.45.103 1.146.182 2.305.411 3.43 1.801 8.84 6.145 16.219 12.93 22.142 4.466 3.898 9.479 6.943 15.025 9.04C61.26 92.25 64.938 93.5 68.63 94.69c4.443 1.433 8.863 2.919 13.2 4.653 1.698.679 3.492 1.12 5.244 1.66.249.077.516.147.77.134l.022-.004c1.901.644 3.838.938 5.767.422 2.89-.773 5.057-3.285 6.184-6.056 1.126-2.77 1.373-5.808 1.607-8.79l.022-.285c.609-4.598.949-9.22 1.27-13.846.16-2.3.393-4.599.668-6.89.393-3.278.909-6.543 1.275-9.824.519-4.663.448-9.323-.427-13.946zM73.549 20.595c-1.216-.911-2.57-1.624-4.037-2.009-2.333-.613-4.962-.318-6.916 1.097.027-.726.709-1.258 1.39-1.51 3.232-1.193 6.67-1.792 10.053-.785 2.587.77 4.935 2.488 6.213 4.866 1.035 1.927 1.331 4.153 2.035 6.223.445 1.306 1.051 2.55 1.657 3.79-1.648.582-3.501.11-5.035-.725-1.954-1.063-3.547-2.67-5.094-4.268-1.547-1.598-3.105-3.23-5.019-4.364-1.913-1.134-4.266-1.723-6.39-1.063-.263-.575.317-1.175.867-1.487a7.838 7.838 0 013.07-.978c2.78-.281 5.537.961 7.677 2.755 2.14 1.795 3.767 4.11 5.396 6.38l.323-.238c-1.223-2.08-2.523-4.135-4.182-5.886a15.962 15.962 0 00-2.008-1.798zm-7.862-8.6c1.892-.641 3.956-.653 5.834-1.332 2.536-.917 4.496-2.955 6.87-4.237a12.305 12.305 0 012.382-.975c1.26-.23 2.565-.228 3.845-.108 1.165.11 2.317.312 3.469.516-4.535.576-8.88 2.603-12.224 5.721-1.343 1.253-2.567 2.701-4.216 3.509-.3.146-.61.27-.928.376-2.068-.043-4.098.414-6.08 1.325-.567.262-1.129.536-1.841.875-.134-.346-.24-.531-.277-.729-.152-.82-.413-1.6-.731-2.357a9.232 9.232 0 013.898-2.584zm-19.952 6.643c.06-.108.12-.215.182-.321.838-1.42 1.957-2.65 3.072-3.864 2.464-2.683 4.964-5.366 6.988-8.406.228-.343 1.042-2.168 1.384-2.243.407-.089.318 1.964.353 2.341.173 1.855.606 3.691 1.358 5.399.894 2.028 2.242 3.922 2.5 6.124.196 1.68-.271 3.369-.897 4.94-.169.424-.354.85-.651 1.197-.299.346-.695.594-1.104.799-1.665.833-3.578 1.012-5.44 1.034 1.061-2.13 1.534-4.514 1.67-6.889.138-2.375-.05-4.755-.251-7.126-.428.41-.503 1.057-.552 1.648l-.436 5.236c-.119 1.429-.241 2.874-.697 4.233-.456 1.359-1.287 2.645-2.528 3.363-.69.399-1.472.605-2.244.808l-1.887.495a.486.486 0 01-.223.023c-.144-.031-.226-.18-.29-.313-.621-1.308-1.251-2.651-1.371-4.094-.127-1.52.331-3.04 1.064-4.384zm-1.269 9.18c.033-.188.104-.37.197-.694.263.227.463.42.66.58.09.114.186.223.288.326a9.766 9.766 0 00-1.476 1.122c.138-.422.25-.867.331-1.333zm-6.274-12.88a35.763 35.763 0 00-2.168-2.036c-2.952-2.56-6.227-4.721-9.242-7.206-.434-.357-.866-.726-1.204-1.175-.165-.219-.311-.479-.281-.751.024-.218.158-.407.296-.577.394-.49.858-.923 1.373-1.283.214-.15.523-.417.787-.46.316-.05.506.255.709.458a61.134 61.134 0 003.216 3c1.923 1.668 3.95 3.216 5.808 4.956 1.857 1.741 3.557 3.7 4.668 5.989.948 1.952 1.445 4.22.854 6.308-1.019-2.736-2.766-5.124-4.816-7.224zM22.83 20.675a20.909 20.909 0 01-1.28-3.53 19.75 19.75 0 01-.54-2.916 18.806 18.806 0 01-.1-1.48c-.01-.348-.171-1.122.359-.827.832.465 1.596 1.082 2.425 1.563a37.35 37.35 0 002.552 1.35c1.757.847 3.57 1.572 5.405 2.232 2.038.734 4.118 1.396 6.018 2.436 1.901 1.04 3.642 2.508 4.588 4.457.947 1.95.971 4.428-.303 6.18a36.941 36.941 0 01-16.393-12.688c-.633-.877-1.232-1.786-1.978-2.57-.124-.13-.304-.267-.467-.19-.22.104-.13.435-.006.644 2.045 3.439 4.794 6.417 7.801 9.055 3.008 2.638 6.282 4.952 9.55 7.26-1.267.927-2.958 1.135-4.499.84-1.54-.295-2.957-1.047-4.274-1.901-3.173-2.058-5.933-4.787-7.865-8.038a21.395 21.395 0 01-.993-1.877zm9.717 12.984c.276-.055.555-.096.834-.138.61.221 1.239.4 1.886.534.916.19 1.8.242 2.633.167-.39.379-.767.77-1.13 1.174-.285.32-.566.65-.92.892-.418.285-.915.428-1.387.61-1.024.395-1.959.986-2.886 1.574-.37.234-.751.799-.373 1.02a100.287 100.287 0 003.687-1.976l-.367.67a22.791 22.791 0 01-3.85 3.045 7.259 7.259 0 01-1.071-4.092c.07-2.005.968-3.09 2.944-3.48zm.106 7.945l-.68 1.24-.048.092a37.26 37.26 0 01-.423-.535c.393-.256.777-.52 1.15-.797zm-6.696 1.631c-.359.045-.687.087-1.012.146-1.93.349-3.855.325-5.79.008-2.199-.36-4.268-1.093-6.217-2.145-1.43-.772-2.818-1.622-4.204-2.471-1.79-1.097-3.572-2.202-5.554-2.936-.172-.063-.427-.122-.285-.512 1.037-.331 2.114-.746 3.227-1.005.754-.176 1.56-.194 2.34-.173.73.02 1.458.162 2.18.288 2.285.401 4.58.609 6.89.298a52.474 52.474 0 004.027-.698c2.73-.586 5.48-.907 8.273-.889.304.002.608-.007.912-.022-1.297.715-2.357 1.907-2.631 3.292l-.019.088c-2.832 1.001-5.864 1.354-8.868 1.31-2.03-.028-4.055-.234-6.063-.526-.984-.143-4.386-1.229-4.193.842.016.165.095.352.257.384.238.046.372-.251.536-.429a.834.834 0 01.498-.245 2.54 2.54 0 01.665.005c2.962.321 5.91.82 8.888.928 2.7.096 5.46-.145 7.98-1.1-.274.887-.63 1.735-1.015 2.584a9.579 9.579 0 00-.822 2.978zm.97 1.11a10.528 10.528 0 01-.002-.612c.028-1.056.217-3.059 1.128-3.726 1.194 2.098 2.198 4.133 3.834 5.958.612.683 1.275 1.34 1.706 2.15.431.809.597 1.826.168 2.637-.495.936-1.638 1.348-2.697 1.392-.439.019-.894-.015-1.286-.214-.465-.236-.79-.675-1.057-1.123-.578-.973-.957-2.051-1.256-3.143-.295-1.08-.503-2.197-.538-3.318zm2.314 9.484a5.334 5.334 0 01-1.12-.96c-.106-.121-.397-.515-.301-.575.028-.017.088-.007.194.046.318.16.64.301.982.406.65.198 1.338.279 2.017.231.827-.058 1.628-.3 2.446-.436-.408.858-1.113 1.651-2.046 1.832-.75.145-1.528-.13-2.172-.544zm71.704 15.918c-.57 7.228-.68 14.518-2.019 21.643-.557 2.966-1.562 6.214-4.2 7.679-3.558 1.975-7.856-.304-11.48-2.156-11.851-6.058-25.822-7.9-36.522-15.816-8.226-6.086-13.832-15.591-15.209-25.728.618-.087 1.203-.388 1.727-.908 1.758-1.745 2.502-3.823 1.852-6.303-.366-1.398-1.048-2.619-1.95-3.732-.025-.03-.05-.06-.073-.09.287-.29.433-.69.58-1.073 1.462-3.819 4.03-7.107 7.068-9.875a6.868 6.868 0 002.13-1.801c.157-.124.315-.247.473-.368 1.945-1.486 4.059-2.835 6.433-3.43 2.043-.511 4.186-.442 6.265-.784 2.079-.342 4.238-1.222 5.31-3.035a1.47 1.47 0 00.186-.569c.336-.317.752-.474 1.228-.593a5.941 5.941 0 012.493-.075c2.128.37 3.987 1.283 5.522 2.802.782.774 1.505 1.607 2.244 2.423 1.165 1.285 2.386 2.507 3.847 3.463 1.889 1.237 3.94 1.948 6.217 1.907a4.86 4.86 0 001.234-.183c.435-.124.654-.566.56-.995a2.858 2.858 0 00-.192-.598c-.851-1.814-1.32-3.752-1.872-5.666-.347-1.206-.728-2.417-1.25-3.554-.797-1.732-1.883-3.144-3.242-4.232.26.073.519.148.776.225 3.325.988 6.62 2.187 9.569 4.014 4.725 2.926 8.413 7.42 10.614 12.522 4.665 10.81 2.607 23.15 1.681 34.886z"/><path d="M93.893 29.303c-2.27-2.939-5.126-5.449-8.422-7.158-.297-.154-1.47-.846-1.778-.505a.315.315 0 00-.046.068c-.189.369.575.898.804 1.04A32.703 32.703 0 0197.03 37.225c.526 1.192 1.013 2.464 1.993 3.323.32-.382.185-.954.025-1.425-1.191-3.518-2.885-6.88-5.155-9.82zM39.987 69.999a32.87 32.87 0 01-5.099-12.265c-.07-.369-.31-1.578-.894-1.496-.55.078-.425 1.122-.36 1.463a32.624 32.624 0 008.876 16.722l-.017-.06c-.482-1.614-1.558-2.972-2.506-4.364zM26.876 17.566c1.69.78 3.551 1.108 5.304 1.738 3.436 1.234 6.435 3.677 8.289 6.822a3.59 3.59 0 00.003-.056c.064-1.074-.437-2.114-1.088-2.974-1.685-2.228-4.325-3.513-6.949-4.472a45.449 45.449 0 00-4.959-1.499c-.17-.041-1.296-.405-.943.186.074.124.211.194.343.255zm8.5-8.687c-1.492-1.269-3.063-2.44-4.587-3.668a57.519 57.519 0 01-1.185-.979c-.201-.171-.8-.899-1.043-.917a.345.345 0 00-.206.032c-.33.202.48 1.212.684 1.43 3.03 3.234 7.287 5.23 9.916 8.798.628.852 1.15 1.779 1.808 2.608.061.077.14.16.238.15.18-.022.163-.291.089-.457-1.244-2.77-3.401-5.03-5.714-6.997zM70.445 28.05c.18.149.363.302.582.384.21.078.462.078.642-.05a.534.534 0 00.025-.019 14.344 14.344 0 00-3.407-3.165c-1.536-1.02-4.845-2.61-6.486-.991.6.485 1.448.443 2.216.512 2.442.22 4.546 1.757 6.428 3.328zm-7.769-12.32c.124.06.277.018.388-.064.111-.081.191-.197.275-.306.654-.851 1.66-1.365 2.685-1.682 1.026-.318 2.096-.466 3.132-.743 1.59-.424 3.085-1.145 4.539-1.916.33-.174.681-.377.824-.722-1.161.052-2.145.738-3.179 1.187-1.124.488-2.348.641-3.551.816-1.007.147-2.022.317-2.956.721-.933.404-1.79 1.068-2.234 1.982-.12.245-.17.61.077.727zm-3.283 1.228c.517 2.316.43 4.962-1.1 6.776.037.02.075.035.112.044.287.066.598-.197.785-.455 1.308-1.806 1.351-4.25.884-6.43-.467-2.179-1.382-4.243-1.835-6.425-.148-.716-1.099-1.553-.856-.331.464 2.326 1.494 4.506 2.01 6.821zm-9.27 19.475c.065-.179.08-.368.064-.558a2.62 2.62 0 00-.112-.543 4.929 4.929 0 00-.747-1.485c-.355-.48-.864-.922-1.46-.91-.465.011-.907.33-1.063.767-.18.502.008 1.064.283 1.52.408.676 2.465 2.789 3.035 1.209zM93.502 62.24c.408.676 2.465 2.788 3.035 1.208.065-.178.08-.367.064-.557a2.627 2.627 0 00-.112-.543 4.927 4.927 0 00-.747-1.485c-.355-.48-.864-.923-1.46-.91-.465.01-.907.33-1.063.767-.18.502.008 1.063.283 1.52zM31.05 50.371c-.055-.291-.18-.573-.173-.87a.332.332 0 01.05-.193c.097-.13.297-.096.453-.053.353.097.713.167 1.076.21.197.023.468-.02.48-.218.01-.138-.124-.237-.246-.302a4.28 4.28 0 00-1.787-.497c-.221-.012-.46-.011-.638-.143-.127-.093-.202-.239-.273-.38-.457-.908-.897-1.825-1.359-2.73-.227-.446-.46-.89-.702-1.327-.08-.143-.18-.301-.34-.332-.192-.037-.372.14-.41.33-.04.192.022.388.086.572a25.04 25.04 0 003.553 6.74c.245-.166.285-.515.23-.807zM62.152 71.54c-.789-.626-3.016-.983-2.485.74.163.53.628.908 1.098 1.204.433.272.89.504 1.366.693.26.102.534.193.813.17.278-.022.562-.184.65-.45a.562.562 0 00.02-.08c.046-.26-.09-.53-.228-.764-.335-.562-.721-1.105-1.234-1.512zm8.834-21.107c.24-.097.393-.347.435-.602.013-.076.017-.153.015-.229a2.27 2.27 0 00-.094-.537 5.684 5.684 0 00-.616-1.432c-.199-.328-.436-.64-.746-.865-.766-.553-1.872-.235-1.909.811-.017.487.217.95.505 1.342.403.55.925 1.013 1.52 1.348.272.153.6.28.89.164zm24.234-.703c.273.153.601.28.891.164.24-.097.393-.347.435-.602a1.18 1.18 0 00.015-.23 2.27 2.27 0 00-.094-.536 5.687 5.687 0 00-.616-1.432c-.199-.328-.436-.64-.746-.865-.766-.553-1.872-.235-1.909.811-.017.487.217.95.505 1.342.403.55.925 1.013 1.52 1.348zm-38.422 9.357c-.017.487.216.949.504 1.342.403.55.926 1.013 1.52 1.347.273.153.6.282.89.165.24-.097.393-.347.436-.602.012-.076.016-.153.014-.23a2.276 2.276 0 00-.093-.536 5.69 5.69 0 00-.617-1.432c-.198-.328-.435-.64-.746-.865-.765-.553-1.872-.235-1.908.81zm27.849-2.865c.272.153.6.28.89.164.24-.097.393-.347.435-.602.012-.076.017-.152.015-.229a2.276 2.276 0 00-.094-.537 5.691 5.691 0 00-.617-1.432c-.198-.328-.435-.64-.746-.865-.765-.553-1.872-.235-1.908.811-.017.487.217.95.504 1.342.404.55.926 1.014 1.52 1.348zM38.98 47.55c-.766-.553-1.872-.236-1.909.81-.017.487.217.95.505 1.342.403.55.925 1.014 1.52 1.348.272.153.6.281.89.164.24-.096.393-.346.435-.602a1.17 1.17 0 00.015-.229 2.276 2.276 0 00-.093-.537 5.688 5.688 0 00-.617-1.432c-.199-.328-.436-.64-.746-.865zm9.267-.759a4.042 4.042 0 00-.663-1.86c-.634-.945-2.363-1.309-2.453.255-.03.533.233 1.043.567 1.461a4.4 4.4 0 001.341 1.124c.212.115.455.215.688.156.22-.055.388-.247.465-.461.061-.17.073-.35.065-.53a2.988 2.988 0 00-.01-.145z"/><path d="M91.468 31.974a4.042 4.042 0 00-.673-2.004c-.633-.945-2.363-1.309-2.453.255-.03.533.233 1.043.567 1.461a4.4 4.4 0 001.341 1.124c.212.115.455.215.688.156.22-.055.388-.247.465-.461.061-.169.073-.35.065-.53zm-2.362 51.005a4.042 4.042 0 00-.662-1.86c-.634-.946-2.363-1.31-2.453.254-.03.534.233 1.044.566 1.462.366.459.825.844 1.342 1.124.212.115.454.215.688.156.22-.056.388-.248.465-.462.06-.169.072-.35.064-.53a2.865 2.865 0 00-.01-.144zM83.62 42.295c.425.279 1.356.645 1.539-.11.042-.174.017-.358-.02-.534a4.47 4.47 0 00-1.025-2.052c-.213-.24-.458-.462-.754-.586a1.242 1.242 0 00-.399-.096.958.958 0 00-.531.11c-.36.199-.529.647-.491 1.056.037.409.248.783.497 1.11.328.431.73.806 1.183 1.102zm-22.206-4.876c.275.207.643.39.951.236.376-.19.377-.723.282-1.133-.198-.854-.582-1.67-1.156-2.333-.528-.608-1.657-.912-1.841.18-.015.088-.02.176-.016.263.011.269.099.536.206.786.34.787.888 1.484 1.574 2zm23.362 28.895c-.528-.608-1.656-.912-1.841.18-.015.088-.02.176-.016.263.011.269.099.536.207.786.34.787.888 1.484 1.573 2 .276.208.643.392.951.236.376-.189.377-.722.282-1.132-.198-.854-.582-1.67-1.156-2.333zM39.397 37.508c.11-.173.197-.447-.07-.512-.186-.044-.417.285-.522.391a22.103 22.103 0 00-2.942 3.768c-.573.924-1.088 1.928-1.164 3.012a.615.615 0 00.093-.007c.347-.05.6-.39.796-.697l3.809-5.956zm25.165-8.878c.548-.002.702-.33.648-.776-.104-.87-.991-2.19-1.298-2.46-.312-.272-.733-.503-1.127-.372-.334.113-.542.471-.564.824-.022.352.11.696.28 1.006a4.362 4.362 0 001.37 1.51c.207.141.44.269.691.268zM47.078 56.635c-.59-.936-2.3-1.416-2.542.086-.077.483.118.981.436 1.353.318.371.748.63 1.19.838.328.154.728.279 1.038.09.26-.158.352-.475.357-.79a1.88 1.88 0 00-.01-.23 3.173 3.173 0 00-.47-1.347zM71.31 35.198c-.257.142-.386.454-.38.748.006.293.124.573.26.834a6.17 6.17 0 001.588 1.951c.18.146.384.288.616.288a.567.567 0 00.5-.317c.37-.78-.788-2.432-1.252-2.982-.167-.197-.353-.388-.585-.503a.977.977 0 00-.285-.09.73.73 0 00-.461.071zm24.113 38.914c-.242-.02-.487.07-.72.315-.263.278-.33.704-.239 1.077.091.372.32.697.583.977.4.426.891.767 1.43.994.2.085.426.154.63.081.22-.078.358-.31.387-.54.03-.232-.032-.465-.106-.686-.211-.628-1.078-2.147-1.965-2.218zM56.441 47.414c.375.45 1.912 1.849 2.252.625a.95.95 0 00.032-.266 1.837 1.837 0 00-.054-.39 3.876 3.876 0 00-.857-1.67c-.355-.406-.908-.754-1.408-.552-.407.165-.607.657-.554 1.094.054.436.308.821.59 1.159zm-2.439 30.079c-.355-.405-.909-.753-1.408-.551-.408.165-.608.658-.554 1.094.053.436.307.822.589 1.16.375.45 1.912 1.848 2.251.624a.95.95 0 00.032-.265 1.835 1.835 0 00-.054-.39 3.88 3.88 0 00-.856-1.672zm20.885-.93c.375.45 1.912 1.848 2.25.624a.952.952 0 00.033-.265 1.836 1.836 0 00-.054-.39 3.878 3.878 0 00-.856-1.671c-.355-.406-.91-.754-1.408-.552-.408.165-.608.658-.554 1.094.053.436.307.822.589 1.16zM72.273 63.84c.128.052.266.101.402.078.24-.04.395-.294.405-.536a.87.87 0 00-.011-.172 1.956 1.956 0 00-.187-.521c-.25-.527-.532-1.047-.923-1.48-.506-.558-2.14-1.453-2.166.006-.007.382.196.736.427 1.04a5 5 0 002.053 1.584zM42.82 66.282c-.251-.526-.532-1.046-.923-1.478-.506-.56-2.14-1.454-2.166.005-.007.382.195.736.426 1.04a5 5 0 002.053 1.584c.128.053.266.102.403.079.239-.04.395-.294.404-.537a.877.877 0 00-.01-.171 1.957 1.957 0 00-.187-.522zm-18.189-31.34c.945-.114 1.935-.187 2.747-.684-.151.092-.775-.052-.967-.057-.355-.01-.71-.007-1.066.007-.652.026-1.301.1-1.95.174a80.875 80.875 0 00-4.314.615 3.655 3.655 0 00-1.569.673l-.016.012c2.39.18 4.756-.452 7.135-.74zM50.01 67.198c-.763-.582-1.987-.035-1.713 1.007.143.54.646.917 1.175 1.093.238.079.494.126.74.081.247-.044.484-.194.587-.423a.649.649 0 00.03-.077c.09-.3-.043-.636-.2-.915-.162-.288-.356-.565-.619-.766zm2.262-45.4c.03-.276-.147-.528-.315-.75-.675-.888-2.338-3.393-3.633-3.219a.293.293 0 00.027.241c.842 1.618 2.412 2.706 3.921 3.728zM77.941 7.84a12.572 12.572 0 013.715-1.191c.567-.09 1.129-.215 1.689-.341.196-.045.405-.127.221-.495-1.872.288-3.778.525-5.55 1.34-.41.189-.902.304-1.063.835.397.35.7-.004.988-.149zM52.433 17.6c.16.131.374.263.559.17l-.003-.007a10.47 10.47 0 00-2.087-3.27c-.194-.207-.51-.416-.732-.239-.223.18-.081.538.08.776.627.923 1.32 1.853 2.183 2.57zm-6.116 4.08l3.493 2.992c.187.16.48.319.65.142.114-.118-1.955-2.067-2.156-2.241a17.38 17.38 0 00-1.326-1.041c-.09-.064-.546-.398-.79-.435-.128-.02-.197.044-.122.272.042.128.149.223.251.31zM21.95 39.166c-.118.032-.205.19-.291.268-.269.242-.51.525-.76.786-.481.502-.96 1.007-1.436 1.515-.1.108-.208.235-.197.383.017.197.254.313.448.276.194-.038.349-.181.488-.321a12.27 12.27 0 002.124-2.859c-.017.031-.319-.064-.377-.048zm3.798-.484c-.156.024-.41.253-.52.372-.28.301-.541.62-.789.95-.496.662-.934 1.364-1.372 2.066-.095.153-.186.367-.06.496.082.084.224.08.327.024a.811.811 0 00.245-.25c.704-.965 1.394-1.939 2.071-2.923.085-.122.17-.249.204-.394.062-.278.001-.358-.106-.341zm8.28-10.42a.188.188 0 00-.03-.11c-.076-.123-.25-.121-.393-.105-.901.099-1.779.207-2.62.57-.18.076-.382.201-.383.396-.002.147.122.27.26.316.14.046.29.03.435.01a8.224 8.224 0 002.403-.719c.151-.072.32-.213.328-.358zm52.963-1.823c-.003-.052.015-.121-.011-.153-.775-.923-1.777-1.544-2.835-2.079-.088-.045-.319.046-.383.142-.066.098-.071.343.003.414.861.828 1.84 1.477 2.993 1.83.056.017.154-.1.233-.154zm-55.442-.122a.123.123 0 00.01-.013c.05-.07.02-.177-.046-.235a.499.499 0 00-.259-.095c-.953-.15-2.163-.095-3.05.325-.221.105-.463.303-.407.541 1.205.261 2.448-.1 3.627-.46a.268.268 0 00.125-.063zm-8.097-6.215a.348.348 0 00.003.104.51.51 0 00.264.34c.161.089.35.11.532.129l1.316.138c.32.033.743 0 .824-.31.034-.13-2.83-1.299-2.94-.401zM18.5 39.36c-.249-.008-.795.516-.922.628a15.5 15.5 0 00-1.137 1.127c-.183.196-.377.462-.27.708a.267.267 0 00.187.162c.118.022.23-.059.323-.135.683-.556 1.364-1.144 1.81-1.904a.854.854 0 00.13-.333c.02-.18-.031-.25-.12-.254zm15.473-8.764c.791-.274 1.733-.2 2.467-1.032-.352-.035-.562-.11-.742-.066-.9.225-1.792.477-2.682.735-.062.018-.086.166-.157.315.357.306.75.174 1.114.048zm4.275 10.963c.015-.47-.721.345-.796.44a8.384 8.384 0 00-1.004 1.64c-.074.16-.119.394.026.48a.185.185 0 00.018.01c.155.07.31-.094.402-.238.441-.697.867-1.404 1.276-2.121a.47.47 0 00.078-.211zM14.86 38.953c-.152.021-.35.232-.471.32a29.02 29.02 0 00-1.05.799.911.911 0 00-.233.239c-.056.097-.074.224-.015.319.063.1.196.14.313.123a.864.864 0 00.325-.14c.625-.39 1.212-.883 1.55-1.537.002-.017-.367-.13-.42-.123zm61.433-17.141c.857.507 1.516.525 2.648-.03-1.707-.32-1.805-.317-2.648.03zM32.698 37.053a.858.858 0 00.362-.088c.594-.248 1.154-.624 1.505-1.162l.01-.016c.023-.034-.758.002-.867.039-.353.117-.7.332-1.01.532-.177.115-.373.305-.3.504.044.117.175.185.3.19zm-3.562 6.663c.067.004.21-.125.205-.184-.05-.663-.58-.931-1.059-1.237a.312.312 0 00-.15-.037c-.052-.002-.104.015-.206.032-.055.1-.13.223-.189.354-.017.04.001.112.029.151.335.487.74.88 1.37.921zm52.272-16.724c-.736-.648-1.324-.824-1.941-.882-.133-.013-.286.187-.49.332.707.596 1.383.747 2.43.55zM28.915 45.363v.002c.343.194.69.387 1.062.517.37.129.775.194 1.163.124-.01.002-.396-.467-.45-.512a2.35 2.35 0 00-.616-.373c-.408-.168-.972-.294-1.159.242zM80.322 24.39c-1.17-.604-1.216-.612-2.494-.418.205.17.336.368.496.395.627.104 1.266.318 1.998.024zM30.027 46.883c.218.379.611.636 1.031.758.42.121.867.119 1.3.07-.073.008-.854-.689-1.05-.76a2.083 2.083 0 00-1.28-.068zm43.657-27.239c.298.427.586.34.873.27.908-.226.908-.225 1.274-.759-.99-.066-.991-.07-2.147.489zm-2.946-1.309c1.008.18 1.303.062 1.838-.75-.73.063-1.337.147-1.838.75zM11.773 38.444c-.17.088-.588.748-.636.755.24-.036.476-.094.706-.173a.634.634 0 00.248-.134c.344-.34.097-.662-.318-.448zM69.43 17.438l-.344.512c.13.05.277.162.388.134.117-.03.244-.18.279-.303.017-.06-.161-.178-.324-.343z"/></g></svg>