<svg width="123" height="120" fill="none" xmlns="http://www.w3.org/2000/svg"><g opacity=".1" fill="#fff"><path d="M15.595 34.281l-.159.164c-.008.036-.012.075-.018.113.027-.016.05-.034.08-.05l.097-.227zM29.5 103.843l.046.045.588.771-.532-.839c-.035.01-.068.015-.102.023zM14.85 35.906c-.021.008-.035.019-.058.025l-.026.138c.028-.029.059-.056.086-.085-.002-.026-.001-.052-.002-.078z"/><path d="M64.197 0C39.937 1.177 21.11 11.226 8.65 32.16c-18.494 31.074-6.207 69.533 26.14 83.134 29.498 12.402 64.978-.511 80.496-29.298 11.358-21.07 9.368-46.205-5.415-63.941C97.711 7.464 81.543 1.555 64.197 0zM30.19 104.779l-.044-.07-.588-.771-.046-.045c-1.025.223-1.644-.589-2.348-1.102C7.405 88.381 1.382 58.489 13.9 36.977c.206-.355.55-.624.849-.92l.026-.139c.023-.006.037-.017.058-.024-.023-.542.119-1 .595-1.288.006-.038.01-.077.019-.114l.159-.163-.098.227c-.029.015-.052.033-.08.05-.075.491.022 1.07-.595 1.288.001.026 0 .05.002.077-.028.029-.058.056-.087.085-.952 5.105-2.682 10.004-3.074 15.28-1.508 20.281 3.004 38.273 17.84 52.556.033-.007.067-.013.102-.022l.531.838.038.05.139.122-.133-.101zm64.93-2.919c-12.91 9.542-27.209 13.347-42.95 11.363-3.882-.489-7.455-1.99-10.745-4.054-15.282-9.586-24.147-23.529-26.572-41.925-1.443-10.956-.81-21.619 3.454-31.836 6.709-16.07 19.101-24.677 35.197-28.321 4.46-1.01 8.97-1.451 13.526-1.484 27.315-.95 46.272 20.095 50.283 40.53 3.99 20.326-4.742 42.827-22.194 55.727z"/><path d="M100.802 27.87c-1.298.528-1.653 1.755-1.26 3.003.466 1.48 1.158 2.89 1.83 4.29.461.96.999 2.155 2.267 1.804 1.249-.346 1.09-1.676 1.202-2.74-.346-1.642-.044-3.397-.86-4.953-.704-1.342-1.756-1.983-3.179-1.404zm-11.024 7.498c-1.853-.24-2.59 1.322-2.665 3.05-.099 2.28 2.029 4.896 3.83 4.824 1.609-.065 1.827-1.15 1.67-2.727-.482-1.83.248-4.746-2.835-5.147zM63.882 94.447c-1.557.068-2.218 1.057-2.27 2.576-.08 2.292 2.103 5.52 3.7 5.399 1.46-.11 1.843-1.194 1.876-1.993.07-3.565-1.425-6.064-3.306-5.982zM20.324 68.476c-1.724-.124-2.48 1.31-2.17 2.907.44 2.263 1.407 4.472 3.817 4.984 1.56.33 1.639-1.231 1.639-2.495-.624-2.11.007-5.158-3.286-5.396zM36.988 26.19c-1.435.072-2.271 1.074-1.964 2.405.526 2.273.754 5.013 3.313 5.908 1.287.45 1.597-.996 1.62-2.157.089-3.69-1.124-6.249-2.969-6.156zm-5.11 45.47c-1.46-.074-2.406 1.104-2.286 2.604.18 2.244.98 4.335 3.401 4.824 1.452.292 2.017-.833 1.925-2.16-.54-2.148.24-5.102-3.04-5.269zm49.54-1.587c-1.694-.077-2.52 1.258-2.28 2.866.296 1.979.727 4.281 3.176 4.44 1.98.13 1.763-1.736 1.82-3.257-.098-1.852-.211-3.934-2.716-4.049zM42.836 56.086c-1.73-.123-2.486 1.18-2.3 2.827.239 2.135 1.18 4.043 3.388 4.396 1.79.287 1.809-1.368 1.845-2.841-.3-1.864-.265-4.192-2.933-4.382zm7.268 29.082c-1.365-.178-2.078.853-2.161 2.247-.121 2.017 1.899 5.13 3.234 4.933 1.59-.233 1.491-1.556 1.528-2.904-.256-1.728-.108-3.95-2.601-4.276zm26.66-54.758c-1.531-.188-2.326 1.063-2.16 2.555.21 1.896.58 4.053 2.869 4.27 1.458.138 1.543-1.44 1.651-2.73-.36-1.588-.023-3.81-2.36-4.096zm-50.22 1.64c-1.405-.066-2.168.995-1.992 2.366.245 1.907.704 4.106 2.925 4.293 1.886.159 1.291-1.824 1.507-2.926-.068-1.847-.233-3.63-2.44-3.733zM40.92 95.303c-1.363-.134-2.314.708-2.245 2.123.101 2.043 1.379 3.287 3.27 3.627 1.226.22 1.935-.558 2.01-1.9-.501-1.708-.836-3.635-3.035-3.85zm15.73-81.628c-1.08-.168-1.765.834-1.581 1.901.32 1.855.461 4.166 2.523 4.74 1.446.402 1.187-1.343 1.358-2.46-.487-1.503.112-3.807-2.3-4.181zm38.404 44.919c-1.355-.016-2.08 1.054-2.001 2.402.112 1.929.905 3.602 2.99 3.68 1.511.055 1.619-1.381 1.638-2.62-.071-1.817-.526-3.438-2.627-3.462zM21.83 46.215c-1.444-.221-2.168.92-1.997 2.266.214 1.68.787 3.443 2.642 3.805 1.404.274 1.603-1.003 1.606-2.255-.2-1.561-.134-3.492-2.25-3.816zm28.047.73c-1.276-.105-2.009.906-1.804 2.117.297 1.752.694 3.814 2.768 4.1 1.442.198 1.226-1.404 1.4-2.383-.213-1.697-.109-3.648-2.364-3.834zm52.566 27.305c-1.593-.036-2.347 1.079-2.151 2.606.199 1.547.59 3.347 2.571 3.23 1.74-.103 1.532-1.793 1.666-3.031-.024-1.517-.458-2.766-2.086-2.804zM32.521 50.848c-1.39-.133-2.184.853-2.083 2.21.119 1.581.705 3.174 2.46 3.396 1.68.213 1.572-1.293 1.65-2.394.008-1.599-.252-3.042-2.027-3.212zm76.357 3.105c-1.423-.106-2.216.835-2.116 2.235.116 1.611.679 3.295 2.512 3.342 1.536.039 1.496-1.517 1.571-2.719.001-1.442-.316-2.734-1.967-2.858zM72.604 90.305c-1.39-.03-2.162.903-2.046 2.321.146 1.772 1.414 2.401 2.925 2.425 1.195.019 1.951-.651 1.913-2.018-.382-1.517-1.166-2.693-2.792-2.728zm-7.942-16.483c-1.258-.053-1.831.962-1.757 2.15.099 1.586.544 3.302 2.276 3.512 1.632.199 1.397-1.47 1.556-2.55-.031-1.551-.24-3.033-2.075-3.112zm-9.616-8.353c-1.16.272-1.922.976-1.646 2.242.348 1.591 1.237 2.89 2.96 2.989 1.262.072 1.43-.979 1.277-2-.236-1.58-.663-3.05-2.59-3.231zm34.533 22.148c-1.155.286-1.815 1.101-1.668 2.31.175 1.444.594 3.072 2.31 3.094 1.514.02 1.623-1.431 1.587-2.676-.042-1.472-.616-2.528-2.23-2.728zm-6.384-68.942c-1.285-.199-2 .731-1.775 1.994.24 1.35.322 3.135 2.022 3.377 1.514.215 1.309-1.287 1.45-2.241-.012-1.422-.059-2.875-1.697-3.13zm-8.042 26.797c-1.268-.065-1.922.823-1.783 2.056.174 1.546 1.034 2.705 2.632 2.74 1.26.028 1.236-1.125 1.278-2.068-.107-1.432-.55-2.647-2.127-2.728zM47.546 27.43c-1.035.33-1.452 1.155-1.237 2.195.273 1.327.823 2.714 2.398 2.57 1.218-.113 1.147-1.353.962-2.301-.23-1.18-.55-2.385-2.123-2.464zM69.71 16.634c-.8.271-1.064.989-.797 1.706.59 1.587.948 3.411 3.07 4.247.56-2.079-.235-3.685-.832-5.28a1.138 1.138 0 00-1.44-.673zm-6.971 19.594c-.951.037-1.195.993-1.067 1.881.159 1.094.583 2.242 1.768 2.25 1.002.008.954-1.11 1.002-2.117-.123-.93-.407-2.064-1.703-2.014zm21.957 19.345c-.773.1-1.184.672-1.196 1.46-.016 1.13.65 1.78 1.656 1.837 1.009.059 1.28-.769 1.344-1.663-.188-1.037-.661-1.781-1.804-1.634zM44.475 75.94c-.818-.043-1.26.547-1.223 1.377.043.93.577 1.612 1.428 1.799.791.173 1.29-.326 1.39-1.234-.165-.936-.446-1.882-1.595-1.942z"/></g></svg>