<svg width="77" height="120" fill="none" xmlns="http://www.w3.org/2000/svg"><g opacity=".15" fill-rule="evenodd" clip-rule="evenodd" fill="#fff"><path d="M41.128 22.108c-2.665-1.932-5.442-3.064-8.73-3.567-4.32-.66-8.756-.021-13.19.836-4.242.82-8.482 1.84-12.616 1.98-.104-.006-.884-.047-1.184.022-.446.103-.71.365-.847.603-.304.532-.279 1.36.626 2.098 1.38 1.126 5.722 2.712 7.325 3.107 2.226.548 4.548 1.572 6.866 1.533.42-.007 1.102-.117 1.913-.275a15.36 15.36 0 00-.76.637c-1.536.676-6.217 2.639-7.683 3.72C5.102 38.514.488 50.316.058 59.57c-.426 9.149 1.639 18.372 2.248 27.47.235 3.502.359 14.786 1.352 22.354.263 2.012.59 3.769.992 5.071.312 1.016.69 1.783 1.088 2.254 2.397 2.834 6.37 3.62 10.704 3.157 6.087-.651 12.872-3.715 16.33-6.028 4.635-3.102 8.884-6.774 13.418-10.023 6.368-4.563 13.452-9.495 18.828-15.493 5.515-6.155 9.244-13.424 8.739-22.518-.189-3.388-1.186-7.49-3.269-11.289a9.023 9.023 0 002.832-1.256c.32-.213.447-.475.505-.71a1.15 1.15 0 00-.035-.673 1.31 1.31 0 00-.388-.55 5.758 5.758 0 00-.515-.344 43.382 43.382 0 01-1.208-1.26c-1.37-1.486-2.044-3.355-3.14-5.022-2.032-3.093-5.095-5.717-8.265-7.693 2.164.447 4.37.687 6.707.606.95-.032 5.44-1.076 7.714-2.47.759-.464 1.294-.993 1.546-1.501.273-.55.3-1.109.056-1.67-.175-.403-.59-.72-.981-.86-2.676-.967-6.17-.838-8.983-1.419-4.39-.907-8.58-2.615-12.876-3.85-1.02-.294-2.335-.297-3.617-.31-.762-.007-1.512-.004-2.131-.141.029-.092.065-.19.104-.27.42-.858 1.291-1.928 2.396-3.112 3.706-3.972 9.973-9.03 12.445-11.37.496-.47.853-.849 1.044-1.104a1.78 1.78 0 00.318-.632c.118-.494.064-1.128-.144-1.807-.34-1.105-1.098-2.402-1.386-3.126-.198-.497-.403-1.307-.691-2.004-.268-.65-.62-1.208-1.024-1.54-.42-.347-.956-.503-1.608-.411-.578.082-1.31.402-2.124.958-4.364 2.98-12.196 13.256-13.32 15.194-.816 1.408-1.582 2.877-2.11 4.421-.17.501-.332 1.002-.481 1.509zm-24.96 11.34c-.845.415-1.576.812-2.01 1.132-7.25 5.346-11.492 16.43-11.894 25.092-.422 9.066 1.642 18.204 2.246 27.22.233 3.48.351 14.694 1.337 22.215.246 1.868.542 3.5.913 4.708.203.658.406 1.173.664 1.478 1.955 2.31 5.249 2.765 8.784 2.387 5.716-.612 12.088-3.495 15.336-5.668 4.615-3.088 8.844-6.748 13.36-9.983 6.242-4.473 13.2-9.29 18.469-15.171 5.13-5.724 8.648-12.464 8.178-20.922-.185-3.337-1.229-7.43-3.443-11.122-1.367.005-2.767-.247-4.155-.694-4.559-1.463-8.999-5.032-11.574-7.856-1.301-1.427-2.595-2.793-3.648-4.36.022 1.495.015 2.979-.07 3.836-.494 4.987-3.003 9.702-4.761 14.327-.71 1.866-1.257 3.804-1.998 5.656-.068.169-.24.554-.443.761a1.232 1.232 0 01-1.122.378c-.356-.06-.706-.239-1.014-.585-.349-.393-.682-1.123-.916-2.126-1.052-4.51-.733-15.51-.292-17.621l.026-.123c-.242.36-.49.715-.746 1.066-4.081 5.604-11.121 8.683-16.517 12.857-.183.142-1.298 1.094-1.904 1.32-.638.239-1.132.05-1.423-.214-.265-.241-.49-.635-.498-1.229-.008-.554.216-1.48.677-2.651 1.934-4.926 8.02-15.095 11.733-19.884-.62.27-1.236.551-1.847.851-3.491 1.715-7.518 1.928-11.216 3.027-1.039.309-2.053.681-2.985 1.244-.076.045-.815.528-1.222.706a1.55 1.55 0 01-.803.138 1.115 1.115 0 01-.668-.343 1.096 1.096 0 01-.314-.788c0-1.048.77-2.7 2.035-4.5 1.032-1.468 2.374-3.074 3.725-4.56zM59.453 2.226c.183.212.295.56.42.902.22.61.393 1.249.56 1.669.24.602.82 1.61 1.188 2.562.13.336.267.652.262.91a36.33 36.33 0 01-1.82 1.757C57.125 12.644 51.87 17 48.592 20.514c-1.531 1.641-2.634 3.137-3.004 4.22-.26.764-.214 1.41.036 1.908.134.269.345.464.612.587.763.352 1.774.478 2.86.51 1.288.038 2.702-.065 3.75.236 4.35 1.25 8.593 2.973 13.04 3.89 2.493.516 5.546.422 8.028 1.126a3.3 3.3 0 01-.373.28c-1.96 1.199-5.82 2.117-6.637 2.145-4.43.153-8.345-.946-12.473-2.367-.14-.048-.894-.39-1.271-.463-.524-.102-.896.083-1.077.228-.236.188-.82.905-.08 1.675.245.255 1.782 1.295 1.89 1.362 1.333.824 2.707 1.586 4.07 2.36 3.296 1.872 6.624 4.508 8.73 7.712 1.161 1.768 1.909 3.73 3.36 5.305.266.29.536.575.81.856-1.95.792-4.11.616-6.236-.066-4.188-1.345-8.251-4.648-10.616-7.242-1.72-1.886-3.461-3.628-4.505-6.002a12.277 12.277 0 01-.566-1.648c-.011-.041-.12-.485-.21-.714a1.443 1.443 0 00-.285-.46c-.452-.47-.934-.422-1.315-.231-.18.09-.37.239-.518.495-.11.192-.236.615-.266 1.223-.088 1.78.311 6.109.116 8.083-.475 4.796-2.937 9.313-4.627 13.76-.495 1.3-.91 2.637-1.368 3.954a20.285 20.285 0 01-.214-1.383c-.606-4.897-.343-13.117.023-14.872.395-1.894.988-3.732 1.554-5.58.014-.045.168-.5.215-.763a1.5 1.5 0 00.006-.529 1.075 1.075 0 00-.753-.868 1.185 1.185 0 00-1.107.189c-.24.176-.589.696-.658.795-1.357 1.95-2.524 4.026-3.924 5.948-3.9 5.354-10.633 8.267-15.836 12.22l.011-.03c2.18-5.552 9.803-18.029 12.873-21.03.091-.088.725-.61 1.162-1.032.292-.282.51-.551.597-.712.24-.436.169-.804.079-1.03a1.08 1.08 0 00-.786-.678 1.317 1.317 0 00-.58 0c-.198.042-.534.181-.58.198-2.01.74-3.984 1.517-5.907 2.462-3.381 1.66-7.292 1.828-10.873 2.893a17.97 17.97 0 00-2.139.769c.188-.3.396-.609.619-.926 2.49-3.54 6.875-7.944 8.477-9.151 1.233-.929 2.606-1.591 4.043-2.136.465-.176.93-.355 1.406-.499.146-.044.473-.076.633-.122.277-.08.457-.218.553-.312.333-.327.392-.696.31-1.055-.046-.203-.155-.544-.625-.778a2.179 2.179 0 00-.829-.2c-.462-.029-1.15.035-1.956.165-2.297.373-5.72 1.303-6.92 1.323-2.132.035-4.253-.965-6.301-1.47-.926-.228-2.869-.887-4.472-1.597 3.64-.328 7.35-1.183 11.059-1.9 4.181-.808 8.361-1.443 12.435-.82 2.936.449 5.414 1.458 7.791 3.187.285.207.745.426 1.441.69V24.6c.117.056.243.088.374.1.1.011.76.08 1.109-.622.06-.123.316-.811.33-.86a31.61 31.61 0 01.592-1.907c.48-1.407 1.186-2.743 1.93-4.027.94-1.622 6.791-9.354 11.035-13.173.843-.76 1.612-1.36 2.26-1.693.171-.088.415-.162.528-.193z"/><path d="M12.371 69.882c-.182 1.562-.315 3.841-.473 5.761a1.105 1.105 0 002.202.18c.155-1.894.285-4.143.464-5.684a1.105 1.105 0 00-2.193-.257zM21.38 80.78c-.427 1.588-.906 3.158-1.363 4.737a1.105 1.105 0 002.12.615c.463-1.594.945-3.178 1.375-4.78a1.105 1.105 0 00-2.133-.573zm11.882-9.488c-.451 1.763-.952 3.414-1.428 5.121a1.104 1.104 0 002.127.594c.48-1.723.985-3.389 1.44-5.168a1.105 1.105 0 00-2.139-.547zm14.831 6.853c-.536.8-1.9 2.679-2.85 4.018a1.105 1.105 0 001.8 1.278c.962-1.355 2.342-3.257 2.884-4.066a1.105 1.105 0 00-1.834-1.23zm11.199-10.451c-.311.44-1.295 1.704-1.942 2.557a1.105 1.105 0 001.759 1.335c.662-.873 1.669-2.168 1.987-2.618a1.105 1.105 0 00-1.804-1.274zM39.781 95.097c-1.169 1.035-2.513 2.3-3.77 3.449a1.105 1.105 0 001.49 1.63c1.248-1.142 2.583-2.398 3.743-3.425a1.104 1.104 0 00-1.463-1.654zM20.304 98.16c-1.345 2.111-1.965 3.08-2.947 4.62a1.105 1.105 0 001.862 1.188c.982-1.541 1.602-2.51 2.947-4.622a1.105 1.105 0 00-1.862-1.187z"/></g></svg>