<svg width="181" height="150" fill="none" xmlns="http://www.w3.org/2000/svg"><g opacity=".25" fill="#006766"><path d="M107.878 130.673l-7.403 2.386-49.599-25.42-2.325-7.217a1.251 1.251 0 00-2.381.767l2.484 7.71c.102.316.325.578.62.729l50.52 25.894a1.255 1.255 0 00.955.077l7.896-2.545a1.25 1.25 0 00-.767-2.381zM64.511 24.833c.56.4 1.344.269 1.743-.295C81.27 3.398 110.023-3.61 133.137 8.236c23.102 11.841 34.206 39.264 25.827 63.79a1.252 1.252 0 002.368.808c8.776-25.692-2.854-54.42-27.054-66.824C110.065-6.398 79.945.943 64.216 23.09a1.25 1.25 0 00.295 1.743zm104.467 104.516a1.244 1.244 0 00-1.36 1.132c-.534 5.85-2.057 11.42-4.531 16.579l-14.769-7.57a1.25 1.25 0 00-1.142 2.226l15.897 8.148a1.262 1.262 0 00.955.078c.315-.102.578-.325.729-.62 2.949-5.755 4.75-12.017 5.353-18.613a1.253 1.253 0 00-1.132-1.36z"/><path d="M132.723 131.494L2.949 64.981c16.873-30.892 65.438-37.934 109.079-15.566 17.318 8.876 31.793 21.25 41.859 35.787a1.25 1.25 0 002.057-1.424c-6.824-9.854-15.629-18.724-25.93-26.23.961-3.397 1.012-6.853.252-10.093l7.606-2.451a6.404 6.404 0 002.698 2.608 6.424 6.424 0 004.921.399 6.405 6.405 0 003.76-3.197 6.404 6.404 0 00.399-4.92 6.404 6.404 0 00-3.196-3.761c-3.163-1.622-7.058-.368-8.682 2.797a6.416 6.416 0 00-.667 3.693l-7.567 2.44a20.049 20.049 0 00-9.699-10.886 20.052 20.052 0 00-14.5-1.517l-2.444-7.581a6.398 6.398 0 002.613-2.684 6.409 6.409 0 00.399-4.92 6.403 6.403 0 00-3.197-3.762 6.41 6.41 0 00-4.92-.399 6.406 6.406 0 00-3.761 3.197 6.409 6.409 0 00-.399 4.92 6.407 6.407 0 003.197 3.761c.938.482 1.941.71 2.93.71.255 0 .508-.022.759-.052l2.455 7.616c-3.077 1.275-5.855 3.338-8.052 6.106C54.925 26.488 14.832 36.278.138 64.946A1.25 1.25 0 00.68 66.63l130.902 67.091a1.25 1.25 0 001.684-.543 1.25 1.25 0 00-.543-1.683zm7.275-91.423a3.952 3.952 0 015.315-1.713 3.932 3.932 0 011.958 2.303 3.926 3.926 0 01-.245 3.012 3.924 3.924 0 01-2.303 1.957 3.921 3.921 0 01-3.012-.245 3.922 3.922 0 01-1.957-2.302 3.92 3.92 0 01.244-3.012zM97.967 22.966a3.928 3.928 0 01-1.958-2.302 3.923 3.923 0 01.245-3.013 3.92 3.92 0 012.303-1.956 3.926 3.926 0 013.011.244 3.923 3.923 0 011.958 2.302 3.92 3.92 0 01-.244 3.012 3.954 3.954 0 01-5.315 1.713zm6.825 12.481c.041-.009.083-.006.125-.02a1.28 1.28 0 00.252-.115c4.329-1.42 9.176-1.14 13.528 1.09 4.354 2.231 7.412 6.004 8.787 10.348.008.09.024.18.053.27.013.04.039.071.055.109.823 2.819.947 5.861.254 8.874a127.443 127.443 0 00-14.676-8.813 126.258 126.258 0 00-15.73-6.763 17.55 17.55 0 017.352-4.98z"/><path d="M54.39 50.96a8.344 8.344 0 00-6.407-.52 8.342 8.342 0 00-4.898 4.163 8.344 8.344 0 00-.52 6.407 8.346 8.346 0 004.163 4.897 8.344 8.344 0 003.817.923 8.409 8.409 0 007.488-4.566c2.112-4.12.477-9.192-3.644-11.304zm1.417 10.163a5.905 5.905 0 01-7.937 2.558 5.858 5.858 0 01-2.924-3.438 5.86 5.86 0 01.365-4.5 5.858 5.858 0 013.439-2.922 5.87 5.87 0 014.498.365 5.905 5.905 0 012.56 7.937zM93.04 73.534a8.342 8.342 0 00-4.898 4.163c-2.112 4.12-.477 9.192 3.643 11.304a8.363 8.363 0 006.407.52 8.344 8.344 0 004.898-4.164c2.112-4.12.477-9.192-3.643-11.304a8.35 8.35 0 00-6.408-.52zm7.824 10.683a5.854 5.854 0 01-3.44 2.923 5.856 5.856 0 01-4.498-.365 5.904 5.904 0 01-2.558-7.938 5.857 5.857 0 013.44-2.923 5.87 5.87 0 014.498.365 5.905 5.905 0 012.558 7.938zm78.604 39.095c-13.667-7.005-19.087-23.824-12.083-37.49a1.253 1.253 0 00-.542-1.683 1.25 1.25 0 00-1.684.541c-3.394 6.62-9.161 11.524-16.242 13.807-7.08 2.281-14.627 1.67-21.248-1.724a1.25 1.25 0 10-1.141 2.226c13.667 7.005 19.087 23.823 12.083 37.491a1.249 1.249 0 001.112 1.821 1.25 1.25 0 001.114-.68c3.394-6.621 9.161-11.524 16.243-13.806 7.081-2.283 14.627-1.671 21.247 1.723a1.25 1.25 0 001.821-1.112 1.25 1.25 0 00-.68-1.114zm-23.156-1.878c-4.888 1.575-9.201 4.295-12.647 7.913 1.87-10.045-1.486-20.457-8.869-27.519 4.909.924 10 .614 14.887-.961 4.888-1.576 9.202-4.296 12.647-7.913-1.87 10.044 1.486 20.456 8.869 27.518-4.911-.923-10-.613-14.887.962z"/></g></svg>