<svg width="183" height="152" fill="none" xmlns="http://www.w3.org/2000/svg"><path opacity=".36" d="M2.131 150.349c.21-13.492 8.36-27.906 23.227-30.025 11.378-1.621 25.401 1.779 34.444 7.73 4.539 2.986 10.826 10.017 4.539 14.57-8.651 6.266-23.983-4.694-28.137-16.587-6.172-17.671-.798-35.903 11.741-49.48 15.556-16.842 43.124-32.992 66.241-23.342 10.779 4.5 16.365 11.25 20.064 22.031 2.945 8.583 4.953 19.444-1.924 27.096-11.319 12.593-26.598 2.091-33.758-9.076-14.509-22.628-6.688-56.09 16.112-70.112 19.999-12.3 43.711-17.684 66.715-20.759" stroke="#8E56FF" stroke-width="3" stroke-linecap="round"/></svg>