<svg width="135" height="136" fill="none" xmlns="http://www.w3.org/2000/svg"><path d="M60.794 13.149c-.138.01-.278.004-.418-.018a.539.539 0 01-.336-.217c-.084-.123-.136-.327-.156-.615-.02-.276.003-.476.07-.598a.539.539 0 01.302-.262c.135-.053.267-.083.394-.092l3.974-.282c.139-.01.273.002.404.036a.48.48 0 01.32.217c.093.111.15.31.17.598.02.276-.008.482-.084.615a.481.481 0 01-.286.261 1.708 1.708 0 01-.412.078l-3.942.279zM41.063 23.08c-.266.134-.483.19-.65.167a.533.533 0 01-.387-.2 2.366 2.366 0 01-.267-.42l-4.157-8.244c-.163-.324-.214-.579-.153-.765.071-.19.278-.373.621-.546l5.573-2.807c.162-.081.314-.134.457-.158a.533.533 0 01.43.07c.134.076.27.252.41.528.134.267.19.483.167.65a.533.533 0 01-.2.387 2.174 2.174 0 01-.406.26l-4.73 2.382 1.21 2.4 3.258-1.641c.162-.082.31-.133.443-.152a.492.492 0 01.373.063c.12.072.241.23.366.479.12.238.176.43.167.579a.496.496 0 01-.185.343 3.167 3.167 0 01-.414.245l-3.23 1.627 1.297 2.571 4.744-2.39c.162-.081.315-.134.458-.158a.533.533 0 01.43.07c.138.085.275.261.41.528.134.267.19.484.166.65a.533.533 0 01-.2.387 1.602 1.602 0 01-.4.274l-5.6 2.821zm-11.157 8.627c-.221.201-.412.317-.572.347a.612.612 0 01-.426-.088 2.514 2.514 0 01-.37-.334l-6.218-6.824a1.573 1.573 0 01-.265-.386.611.611 0 01-.048-.432c.038-.164.167-.347.388-.548l2.532-2.305c.363-.33.76-.583 1.192-.76a3.334 3.334 0 011.361-.287 3.21 3.21 0 011.413.315c.474.204.923.538 1.347 1.003.28.308.513.658.698 1.052.179.386.292.795.34 1.227a3.4 3.4 0 01-.106 1.286c-.119.44-.346.863-.682 1.27l-2.32 2.111 1.81 1.987c.116.126.208.259.277.398a.533.533 0 01.048.432c-.038.15-.17.328-.4.536zm4.879-4.765c-.085.366-.22.597-.406.694-.178.09-.435.093-.771.01l-4.726-1.195 1.404-1.667 3.75.957c.255.057.444.13.568.219.124.089.198.21.221.361.023.152.01.36-.04.621zm-7.908-.007l2-1.82a1.67 1.67 0 00.35-.448 1.47 1.47 0 00.152-.593 1.75 1.75 0 00-.128-.663 2.19 2.19 0 00-.454-.712c-.259-.283-.533-.474-.823-.57a1.448 1.448 0 00-.893-.03c-.298.069-.59.232-.873.49l-1.799 1.638 2.468 2.708zm-2.535 8.905c.229.014.411.062.548.145a.549.549 0 01.275.317c.042.138.054.333.038.585-.04.375-.143.625-.306.75-.158.116-.425.154-.8.113l-8.295-.864 4.595 6.947c.2.309.277.562.232.759-.036.203-.207.411-.512.625-.202.127-.38.206-.536.236a.573.573 0 01-.422-.107 1.952 1.952 0 01-.412-.493l-5.549-8.52a.952.952 0 01-.15-.521.983.983 0 01.375-.802.853.853 0 01.314-.147 1.06 1.06 0 01.398-.038l10.207 1.015zm-5.575 6.18l-1.01-1.513 2.17-3.567 1.808.199-2.968 4.88zm-1.586 11.96a5.853 5.853 0 01-.616 1.477 6.23 6.23 0 01-1.068 1.31 5.93 5.93 0 01-1.46.975 5.79 5.79 0 01-1.79.461 5.98 5.98 0 01-2.067-.19c-.712-.185-1.324-.46-1.836-.824a5.368 5.368 0 01-1.292-1.262 5.593 5.593 0 01-.757-1.536 6.114 6.114 0 01-.264-1.655 6.144 6.144 0 01.16-1.629c.137-.526.312-.966.525-1.318.213-.353.417-.63.613-.833.186-.205.315-.342.388-.411.147-.139.306-.262.478-.372a.64.64 0 01.529-.127.764.764 0 01.328.135c.082.065.166.148.25.247.143.17.24.327.29.472.05.145.06.28.028.404a.644.644 0 01-.178.3 26.88 26.88 0 00-.325.297 3.763 3.763 0 00-.274.292c-.134.13-.271.32-.413.57-.14.24-.258.545-.355.917-.115.444-.15.897-.106 1.36.045.464.178.907.399 1.328.213.408.521.77.925 1.083.392.312.878.543 1.456.693.578.15 1.12.186 1.625.108a3.54 3.54 0 001.336-.495 3.849 3.849 0 001.55-2.21c.092-.35.139-.658.141-.922a3.419 3.419 0 00-.078-.714l-.124-.479a15.332 15.332 0 01-.116-.377.645.645 0 01-.009-.35.618.618 0 01.217-.324c.115-.102.28-.186.495-.251a2.05 2.05 0 01.37-.086.717.717 0 01.337.038.69.69 0 01.416.373c.086.177.154.36.204.549.03.096.081.28.154.552.065.26.099.594.103 1.002.014.412-.049.886-.189 1.423zM12.77 78.427c.02.137.025.277.014.419a.54.54 0 01-.19.352c-.116.092-.317.16-.602.202-.274.04-.475.033-.602-.024a.54.54 0 01-.284-.281 1.358 1.358 0 01-.122-.386l-.586-3.941a1.258 1.258 0 01.004-.405.482.482 0 01.193-.336c.103-.102.298-.174.582-.216.275-.04.482-.028.62.037a.48.48 0 01.283.266c.05.122.086.256.108.404l.582 3.91zm9.768 15.881c.244.413.415.82.515 1.219.094.39.139.76.135 1.11a4.74 4.74 0 01-.109.917c-.062.272-.138.49-.227.654a1.72 1.72 0 01-.303.495.604.604 0 01-.388.191c-.167.012-.367-.024-.603-.108-.245-.08-.407-.187-.489-.325a.728.728 0 01-.12-.487c.01-.192.06-.4.15-.627.164-.393.229-.766.195-1.117a2.396 2.396 0 00-.309-.933 3.338 3.338 0 00-.69-.855 1.585 1.585 0 00-.808-.36c-.285-.043-.58.025-.882.204a.957.957 0 00-.469.592c-.078.244-.1.523-.063.836.027.319.086.661.179 1.028.078.362.15.735.214 1.118.057.263.1.535.129.815.02.286.017.566-.007.84a3.108 3.108 0 01-.19.78 2.87 2.87 0 01-.465.721c-.2.229-.465.441-.796.636-.523.309-1.059.451-1.606.427a3.07 3.07 0 01-1.585-.514c-.51-.319-.939-.772-1.286-1.36a4.824 4.824 0 01-.483-1.07 3.522 3.522 0 01-.194-.927 3.004 3.004 0 010-.724 2.04 2.04 0 01.075-.471c.086-.336.198-.556.334-.661.122-.11.359-.138.712-.086.362.047.61.154.747.322.12.163.164.404.129.722-.07.24-.107.46-.112.66-.014.207.01.416.072.626.057.202.162.431.314.689.108.183.241.346.4.488.143.138.3.237.472.297.162.066.334.094.515.086.176-.016.351-.076.526-.18.239-.14.398-.321.479-.542.066-.224.081-.481.047-.77a9.72 9.72 0 00-.194-.926 51.538 51.538 0 01-.25-1.023 9.595 9.595 0 01-.17-1.106 3.58 3.58 0 01.06-1.095c.066-.349.215-.684.446-1.006.222-.316.553-.605.994-.865.505-.298 1.003-.461 1.494-.49.49-.03.953.05 1.387.24.434.19.826.455 1.175.794.358.334.659.707.903 1.12zm11.134 13.535c.2.193.317.371.35.537a.594.594 0 01-.048.442 1.746 1.746 0 01-.287.39l-6.419 6.658a2.078 2.078 0 01-.356.301.598.598 0 01-.44.065c-.167-.027-.358-.144-.573-.352l-2.156-2.097a5.6 5.6 0 01-1.267-1.775 4.955 4.955 0 01-.445-2.006 4.977 4.977 0 01.426-2.032c.275-.669.693-1.295 1.256-1.879.577-.599 1.203-1.056 1.876-1.37a5.325 5.325 0 012.05-.513 5.043 5.043 0 012.044.346c.654.259 1.27.666 1.845 1.221l2.144 2.064zm-2.046.717l-1.476-1.42c-.492-.474-1.025-.78-1.602-.92a3.118 3.118 0 00-1.74.1c-.586.192-1.13.549-1.634 1.071-.51.53-.85 1.091-1.02 1.682a2.962 2.962 0 00-.025 1.754c.154.578.477 1.103.97 1.577l1.463 1.409 5.064-5.253zm8.449 3.691c.255.156.417.31.486.464a.53.53 0 01.035.434c-.05.144-.122.294-.217.448l-4.803 7.885a2.326 2.326 0 01-.29.385.612.612 0 01-.403.167c-.162.001-.376-.079-.64-.24-.255-.155-.415-.302-.48-.442a.53.53 0 01-.036-.433c.041-.15.11-.302.203-.457l4.803-7.885c.095-.154.2-.284.313-.39a.53.53 0 01.394-.154c.168-.01.38.063.635.218zm12.294 5.516c.282.1.472.218.57.355a.532.532 0 01.124.417c-.02.152-.058.308-.116.469l-3.092 8.715c-.06.171-.13.317-.206.437a.615.615 0 01-.359.246c-.159.034-.384-.001-.676-.104-.281-.1-.468-.211-.56-.335a.53.53 0 01-.124-.417c.01-.155.045-.318.106-.489l1.107-3.121-5.172 2.377c-.222.114-.409.178-.56.192a.549.549 0 01-.413-.13c-.127-.09-.242-.244-.346-.461-.172-.344-.224-.612-.157-.803.065-.181.255-.351.572-.51l5.303-2.314-2.7-5.166c-.166-.331-.21-.59-.132-.777.078-.187.29-.355.638-.504.248-.093.45-.135.604-.125a.477.477 0 01.382.169c.099.103.194.267.284.491l2.553 5.148 1.13-3.181c.056-.161.13-.305.22-.431.08-.13.2-.212.359-.246.15-.038.37-.005.661.098zm19.833 5.203a1.84 1.84 0 01.418.026c.13.026.24.1.332.223.081.124.13.33.144.618.014.277-.013.476-.081.597a.542.542 0 01-.308.256 1.33 1.33 0 01-.396.084l-3.979.205a1.26 1.26 0 01-.402-.043.48.48 0 01-.316-.224c-.091-.113-.145-.313-.16-.601-.014-.277.019-.481.097-.613a.483.483 0 01.291-.256c.127-.038.264-.061.413-.069l3.947-.203zm16.308-7.729c.278-.108.499-.142.663-.103.16.03.282.108.366.236.084.128.159.276.224.445l3.337 8.608c.132.338.158.597.078.776-.089.183-.312.344-.67.483l-5.82 2.253a1.61 1.61 0 01-.47.114.532.532 0 01-.42-.112c-.127-.088-.246-.277-.357-.565-.108-.279-.143-.5-.103-.664a.534.534 0 01.235-.366c.118-.079.262-.152.43-.218l4.94-1.912-.972-2.506-3.402 1.317c-.17.065-.321.101-.456.108a.496.496 0 01-.364-.099c-.113-.083-.219-.253-.319-.512-.096-.248-.133-.446-.11-.592a.499.499 0 01.218-.325c.121-.069.267-.137.436-.203l3.372-1.305-1.041-2.686-4.954 1.919a1.639 1.639 0 01-.47.113.535.535 0 01-.421-.111c-.13-.099-.249-.287-.357-.566-.108-.278-.142-.499-.103-.663a.531.531 0 01.236-.366c.114-.09.255-.168.424-.233l5.85-2.265zm11.996-7.575c.239-.179.443-.271.611-.278a.536.536 0 01.417.129c.115.1.227.223.335.368l5.535 7.389c.218.29.313.532.285.726-.037.201-.209.416-.516.646l-4.997 3.738a1.628 1.628 0 01-.422.236.528.528 0 01-.423-.003c-.145-.052-.31-.201-.496-.449-.179-.239-.271-.442-.278-.611a.534.534 0 01.129-.416c.092-.108.21-.217.355-.326l4.228-3.163-1.612-2.151-2.908 2.176a1.48 1.48 0 01-.41.227.435.435 0 01-.387-.01c-.13-.05-.278-.185-.445-.407-.153-.205-.238-.381-.255-.528a.497.497 0 01.122-.371c.09-.094.207-.195.352-.304l2.895-2.166-2.311-3.086a1.816 1.816 0 01-.247-.435.532.532 0 01.004-.423c.053-.16.2-.329.439-.508zm5.597-5.619c.196-.225.376-.359.539-.4a.535.535 0 01.434.038c.134.074.269.171.406.29l6.96 6.064c.129.112.239.23.331.352.084.13.117.271.097.424-.027.161-.142.357-.345.59-.197.226-.369.358-.518.399a.533.533 0 01-.433-.039 1.782 1.782 0 01-.416-.277l-6.961-6.065a1.758 1.758 0 01-.332-.374.525.525 0 01-.085-.413c.019-.168.126-.364.323-.589zm7.275-10.698c.153-.27.305-.44.457-.514a.594.594 0 01.44-.063c.146.046.293.111.442.195l8.032 4.551c.158.09.294.185.408.286a.61.61 0 01.18.397c.006.162-.068.378-.22.647-.148.26-.29.424-.428.494a.531.531 0 01-.432.049 1.805 1.805 0 01-.463-.189l-7.378-4.18-2.408 4.244c-.079.14-.164.257-.255.352a.427.427 0 01-.345.154c-.139.007-.324-.055-.556-.186-.232-.132-.386-.261-.46-.39a.495.495 0 01-.045-.374c.026-.133.078-.268.157-.408l2.874-5.065zm8.158-14.329a1.92 1.92 0 01.132-.397.542.542 0 01.301-.264c.14-.047.352-.041.634.018.271.057.457.134.556.23.108.11.164.231.169.363.014.145.007.28-.019.405l-.816 3.9a1.273 1.273 0 01-.145.377.478.478 0 01-.297.249c-.132.06-.339.06-.621 0-.272-.056-.461-.14-.569-.249a.481.481 0 01-.173-.347c-.005-.131.008-.27.038-.417l.81-3.868zm8.478-12c-.176.332-.358.525-.545.579-.187.053-.418.005-.693-.146l-5.767-2.924-3.417.395c-.18.021-.347.019-.5-.006a.525.525 0 01-.363-.216c-.112-.127-.185-.338-.219-.635-.036-.307-.014-.535.066-.684a.61.61 0 01.32-.295 2.45 2.45 0 01.503-.106l3.385-.392 4.928-4.178c.243-.222.462-.322.658-.302.197.031.413.183.649.456.173.195.284.365.333.51.05.155.04.301-.03.438s-.194.275-.371.413l-4.198 3.385 4.866 2.385c.206.105.352.211.44.32a.55.55 0 01.129.42c-.002.16-.06.355-.174.583zm-16.073-19.283c-.113-.276-.156-.495-.129-.655a.531.531 0 01.229-.37c.136-.09.283-.168.441-.232l8.548-3.486c.158-.065.308-.108.448-.131a.597.597 0 01.429.119c.141.092.268.276.381.553l1.282 3.14c.178.434.277.89.298 1.364a3.5 3.5 0 01-.213 1.383 3.29 3.29 0 01-.775 1.233c-.354.374-.823.68-1.405.918-.573.234-1.117.34-1.633.32a3.338 3.338 0 01-1.402-.344 3.71 3.71 0 01-1.126-.854 3.954 3.954 0 01-.742-1.183l-.914-2.237-2.459 1.003a1.739 1.739 0 01-.469.122.531.531 0 01-.422-.104c-.128-.086-.25-.272-.367-.559zm5.525-1.199l.919 2.252c.125.306.297.558.517.757.233.204.505.335.817.392.321.053.674.002 1.059-.156.346-.14.612-.335.799-.584.2-.243.317-.521.35-.834.038-.304-.014-.628-.155-.974l-.914-2.236-3.392 1.383zM106.434 34.2c-.182-.237-.281-.436-.297-.598a.528.528 0 01.124-.417c.107-.123.229-.236.364-.34l7.332-5.61c.135-.104.268-.185.398-.244a.595.595 0 01.445.002c.16.052.331.196.513.433l2.063 2.693c.285.372.501.785.646 1.238.146.453.198.916.158 1.39a3.293 3.293 0 01-.424 1.393c-.243.454-.615.873-1.115 1.255-.491.376-.988.622-1.49.738-.488.118-.969.13-1.444.037a3.718 3.718 0 01-1.311-.528 3.974 3.974 0 01-1.027-.947l-1.47-1.917-2.109 1.614a1.76 1.76 0 01-.42.24.533.533 0 01-.435.011c-.146-.05-.313-.197-.501-.443zm5.015-2.609l1.48 1.931c.201.263.433.46.697.595.279.135.576.19.892.164.324-.034.651-.176.981-.43.297-.226.502-.484.617-.773.129-.287.169-.586.119-.897-.044-.303-.179-.602-.406-.898l-1.47-1.918-2.91 2.227zm-8.598-3.243c-.035.227-.099.404-.194.533a.548.548 0 01-.34.247c-.141.029-.336.024-.586-.014-.37-.074-.61-.197-.721-.371-.101-.168-.115-.436-.042-.806l1.594-8.182-7.33 3.964c-.325.171-.584.226-.776.163-.2-.053-.392-.241-.578-.564a1.633 1.633 0 01-.188-.555.573.573 0 01.144-.41 1.95 1.95 0 01.528-.367l8.981-4.775a.953.953 0 01.533-.104.986.986 0 01.521.184.928.928 0 01.245.26.84.84 0 01.118.325c.027.125.028.259.004.4l-1.913 10.072zm-5.666-6.093l1.595-.872 3.365 2.474-.359 1.782-4.602-3.384zm-9.589-1.941c-.282-.1-.474-.213-.576-.34a.533.533 0 01-.124-.416 2.5 2.5 0 01.12-.484l3.076-8.705a2.31 2.31 0 01.206-.436.612.612 0 01.358-.247c.16-.034.385 0 .677.103.281.1.468.211.56.334a.533.533 0 01.125.417c-.01.155-.045.318-.105.49l-3.077 8.703c-.057.161-.13.305-.22.432-.08.13-.2.212-.359.246-.16.035-.38.002-.661-.097zm-6.609-2.333c-.281-.1-.473-.213-.575-.34a.611.611 0 01-.125-.416c.024-.162.064-.323.12-.484l3.077-8.704a2.28 2.28 0 01.205-.437.595.595 0 01.374-.241c.16-.034.38-.002.661.098.292.102.484.215.576.339a.532.532 0 01.124.417 2.43 2.43 0 01-.12.483l-3.076 8.705a1.74 1.74 0 01-.22.43.53.53 0 01-.36.247c-.148.038-.369.006-.66-.097zm2.043-4.387l.576-1.629 5.507 1.944-.591 1.624-5.492-1.938z" fill="#000"/></svg>