<svg width="30" height="31" fill="none" xmlns="http://www.w3.org/2000/svg"><g clip-path="url(#clip0_34_2727)"><path fill-rule="evenodd" clip-rule="evenodd" d="M8.55 19.28c1.19.634 2.378 1.27 3.553 1.93l2.643 1.484c-.918.693-1.853 1.364-2.752 2.08-.343.274-.662.577-.973.887a8.847 8.847 0 00-1.212 1.491c-.448.704-.915 1.892-.338 2.67.564.768 1.51.932 2.394 1.052.78.106 1.68-.07 2.463-.193 1.606-.252 3.205-.63 4.777-1.043a22.25 22.25 0 003.16-1.091c.482-.208 1.167-.659 1.046-1.285-.091-.457-.488-.758-.86-.991-.475-.3-.96-.585-1.442-.87l-1.984-1.171c1.204-.817 2.42-1.618 3.613-2.451.95-.664 1.85-1.378 2.692-2.174.791-.748 1.578-1.858 1.456-3.004-.143-1.353-1.545-2.209-2.673-2.705-.52-.229-1.022-.5-1.558-.685l-3.611-1.254c0-.686.02-1.372 0-2.058a63.7 63.7 0 00-.15-3.052 27.139 27.139 0 00-.25-2.111c-.21-1.336-.53-3.55-2.215-3.79C15.3.8 14.3 1.44 13.582 2.116a76.534 76.534 0 00-2.219 2.168C9.472 6.21 7.8 8.463 6.138 10.605c-.593.765-1.128 1.575-1.678 2.372-.37.537-.677 1.148-.972 1.74-.177.353-.307.77-.282 1.17.015.236.219.456.381.613.317.307.701.533 1.08.754L8.55 19.28zM11.98 8.5c.672-.698 1.346-1.394 2.03-2.08.217-.216.73-.797 1.08-.6.49.274.446 1.361.5 1.84.046.411.08.823.117 1.234l.204 2.19-2.44-.562-2.277-.375-.552-.042-.18-.005c.507-.533 1.008-1.071 1.518-1.6zm-1.519 3.028c.015-.012.04-.008.058-.003l.085.024c.177.068.347.144.521.218l2.327.994 1.542.656 1.016.433.09.04c.054.803.121 1.605.164 2.408.033.627.046 1.256.062 1.884.006.27-.01.666-.284.812-.53.284-1.227-.367-1.556-.718a11.677 11.677 0 01-.512-.578c-.294-.36-.6-.713-.86-1.1-.356-.532-.722-1.058-1.069-1.596-.207-.322-.42-.642-.592-.984l-.714-1.415c-.102-.2-.169-.418-.238-.632a3.303 3.303 0 01-.062-.288s-.017-.122.022-.155zm8.647 13.766c.67.426 1.36.857 1.973 1.375.08.066.153.138.223.214.057.062.107.13.158.198.014.018 0 .056-.015.07-.03.029-.079.034-.119.036-1.03.077-2.06.148-3.09.229l-4.02.316-.126.007.058-.062.253-.224c.521-.387 1.026-.798 1.563-1.162l2.278-1.544.864.547zm3.097-7.912c-.043.18-.205.333-.336.453-.168.153-.334.31-.52.442-.64.453-1.271.916-1.918 1.358-.446.305-.905.59-1.36.881l-2.642 1.696-1.122-.643-4.785-2.733c-1.08-.645-2.168-1.28-3.241-1.936-.203-.124-.393-.267-.586-.405-.193-.138-.458-.326-.496-.582-.03-.222.118-.433.246-.6.066-.086.138-.168.214-.246.618-.636 1.246-1.262 1.867-1.895L9.2 11.464l.08.276.203.485.014.03c.443.767.859 1.55 1.329 2.3a65.49 65.49 0 001.698 2.539c.272.392.556.776.855 1.148.26.324.529.643.82.938.258.26.538.498.823.727.423.339.949.597 1.5.598.19.001.381-.034.557-.107.555-.23.891-.83 1.07-1.373.189-.577.379-1.217.443-1.834l.217-2.086c.495.23 1 .44 1.485.692.473.246.925.53 1.384.803.233.139.554.407.536.714a.37.37 0 01-.01.068z" fill="#00001B"/></g><defs><clipPath id="clip0_34_2727"><path fill="#fff" transform="translate(0 .926)" d="M0 0h30v29.981H0z"/></clipPath></defs></svg>