<svg width="116" height="116" fill="none" xmlns="http://www.w3.org/2000/svg"><g opacity=".3" clip-path="url(#clip0_34_2917)" fill="#FF9B24"><path d="M10.645 111.15l1.548-6.183-4.27-1.686-2.932 4.833s1.617 4.385-.178 7.891c0 0 2.248-3.827 5.832-4.855zm-2.868-2.837a1.037 1.037 0 011.348.546 1.01 1.01 0 01-.556 1.326 1.038 1.038 0 01-1.348-.547 1.003 1.003 0 01.556-1.325zM55.44 39.435C43.145 49.517 27.05 70.287 13.401 94.549l-.008-.01-2.386 4.21 2.544.98 1.344-3.542c7.282-13.126 27.037-47.404 63.158-70.179 0 0 13.448-8.01 26.697-19.086-3.225 2.696-9.59 6.076-13.04 8.257-9.056 5.722-20.232 11.1-36.272 24.256z"/><path d="M11.623 75.4c-2.795 9.88-2.635 17.406-1.553 19.474h1.69c4.67-9.671 27.159-44.705 41.157-55.672C67.418 27.84 78.606 21.23 88.014 16.407c3.304-1.693 6.694-3.986 9.75-6.284 3.711-2.927 7.474-6.058 10.768-9.121l-9.55 6.263 4.259-6.513-8.13 8.266L100.402 0C87.888 1.13 76.274 7.39 76.274 7.39c-4.646 5.511-8.388 14.278-8.388 14.278-.13-4.383 2.84-11.021 2.84-11.021-2.195 1.001-10.53 5.762-10.53 5.762-4.076 3.382-5.343 12.275-5.343 12.275-.775-3.508 1.935-10.27 1.935-10.27C45.044 25.178 36.656 36.7 36.656 36.7c-5.806 11.397-1.032 20.29-2.84 18.16-1.806-2.128-1.418-9.893-1.418-9.893C20.138 56.74 18.85 62.375 18.85 62.375c-2.065 5.01-3.872 18.412-3.872 18.412-1.161-1.253 0-8.266 0-8.266C12.01 78.784 13.43 84.67 13.43 84.67c-1.418-.503-1.807-9.27-1.807-9.27z"/><path d="M108.531 4.977s-4.72 4.574-10.768 9.12c-9.481 7.479-18.61 13.591-18.61 13.591C43.389 48.821 23.46 83.31 16.875 95.134h3.502c1.237-.992 3.096-1.74 10.858-3.987 9.807-2.84 15.656-8.767 15.656-8.767s-8.946 5.01-13.162 4.51c-4.216-.502-9.88 1.084-9.88 1.084s-2.164-1.001 8.504-2.588C43.02 83.8 60.57 71.861 60.57 71.861s-6.71 2.755-9.807 2.504c-3.096-.252-10.753 0-10.753 0 5.075-1.17 9.806-.501 17.55-3.424 7.742-2.923 7.311-2.672 7.311-2.672 8.775-2.923 12.42-12.023 12.42-12.023-1.518.585-13.109 2.003-17.917.585-4.808-1.419-13 0-13 0 7.742-2.588 9.464-1.419 11.355-1.503 1.892-.083 8.002.417 20.132-3.757 12.13-4.173 15.57-9.351 15.57-9.351l-8.18 1.093c5.341-.899 11.362-4.433 11.362-4.433-3.7 1.002-9.464 1.502-9.464 1.502 6.797-1.502 10.582-3.59 10.582-3.59 6.366-4.842 7.829-12.023 7.829-12.023-9.034 3.089-16.173 1.67-16.173 1.67 12.389-.834 15.83-4.008 17.549-4.758 1.722-.752 2.43-3.862 2.43-3.862-6.259 2.255-13.356 2.63-13.356 2.63 7.677-1.19 14.256-5.073 14.256-5.073v-3.887c-2.968 1.69-8.192 3.006-8.192 3.006l8.129-5.26c.457-2.63-1.672-4.258-1.672-4.258zM8.246 101.726l4.835 1.937.9-2.141-4.834-1.936-.9 2.14zm53.729-1.788c-15.975 7.68-31.321 12.914-51.73 13.6-1.905.065-1.914 1.969 0 1.904 18.257-.613 33.45-4.538 48.1-11.405 16.321-7.65 31.312-14.062 51.755-16.24 1.886-.203 1.084-2.036-.788-1.837-18.105 1.932-32.816 6.997-47.337 13.978z"/></g><defs><clipPath id="clip0_34_2917"><path fill="#fff" d="M0 0h116v116H0z"/></clipPath></defs></svg>