<svg width="36" height="35" fill="none" xmlns="http://www.w3.org/2000/svg"><path d="M23.408 24.657l-.3-.004-.145.264-4.777 8.74h0l-.006.011a1.369 1.369 0 01-.637.641c-.29.14-.573.184-.859.147a1.964 1.964 0 01-.858-.328c-.223-.151-.394-.38-.502-.724 0 0 0 0 0 0l-2.944-9.51-.09-.288-.297-.055-9.811-1.801c-.362-.075-.623-.224-.813-.431l-.002-.002a1.527 1.527 0 01-.392-.784 1.699 1.699 0 01.049-.86c.075-.225.248-.471.57-.73l8.16-5.785.245-.174-.039-.298-1.283-9.829v-.002c-.046-.34.011-.626.16-.883h0c.167-.291.374-.5.617-.642.244-.143.527-.221.864-.225.295-.004.573.087.847.294h.002l7.942 5.931.241.18.272-.128 9.04-4.283c.382-.154.681-.184.915-.14a1.7 1.7 0 01.773.38c.236.194.398.433.494.725.087.269.088.57-.024.921l-3.232 9.437-.098.287.208.22 6.85 7.222s0 0 0 0c.247.262.363.523.386.791.027.32-.018.62-.134.91a1.492 1.492 0 01-.549.677c-.24.17-.524.254-.87.241h0-.013l-9.96-.113z" stroke="#fff"/></svg>