<svg width="142" height="24" fill="none" xmlns="http://www.w3.org/2000/svg"><path d="M138.932 22.69a2 2 0 102.136-3.38l-2.136 3.38zm-30.561-4.227l-.15 1.994.15-1.994zM69.308 14.53l.206-1.99-.206 1.99zM0 12l19.933 11.662L20.066.57 0 12zm141.068 7.31c-.274-.174-.543-.252-.624-.276a4.634 4.634 0 00-.371-.09 12.93 12.93 0 00-.782-.126 57.87 57.87 0 00-2.205-.242 277.327 277.327 0 00-6.22-.496c-4.426-.312-9.012-.576-9.597-.576v4l.076.002.205.008c.171.007.398.018.675.032.554.029 1.297.07 2.166.122 1.737.103 3.97.245 6.194.402 2.227.157 4.434.328 6.123.488.848.08 1.546.156 2.043.224.252.034.426.063.531.084.053.01.062.014.041.008a1.712 1.712 0 01-.391-.183l2.136-3.382zm-19.799-1.806c-4.212 0-8.221-.697-12.749-1.036l-.299 3.99c3.988.298 8.69 1.046 13.048 1.046v-4zm-12.749-1.036c-12.976-.97-26.002-2.58-39.006-3.927l-.413 3.978c12.898 1.337 26.07 2.962 39.12 3.938l.299-3.989zm-39.006-3.927c-15.471-1.604-34.246-2.221-51.488-2.437l-.05 4c17.21.215 35.84.831 51.125 2.415l.413-3.978z" fill="#FEF0D5"/></svg>