<svg width="45" height="43" fill="none" xmlns="http://www.w3.org/2000/svg"><path d="M20.082 13.866l-.659-.308-.228-.108c-.14-.066-.264-.126-.395-.183h0c-3.62-1.597-7.304-1.592-11.075.27h0c-1.474.726-2.75 1.738-3.834 2.974C.176 20.747-.27 26.664 3.3 31.105l-.39.313.39-.313c1.393 1.733 3.207 2.97 5.36 3.812l-.182.466.182-.466c1.869.732 3.869 1.053 5.95 1.203.518.038 1.038.073 1.56.107 1.857.124 3.733.25 5.586.5l-.067.495.067-.495c5.27.712 10.099 2.418 14.417 5.262 0 0 0 0 0 0l-16.09-28.123zm0 0l.052-.725m-.052.725l.052-.725m0 0c.044-.61.12-1.184.239-1.752l-.49-.103m.25 1.855l-.25-1.855m0 0l.49.103c.66-3.14 2.249-5.774 4.935-7.808m-5.424 7.705l5.424-7.705m0 0c4.985-3.775 11.888-3.393 15.83.766m-15.83-.766l15.83.766m0 0a11.192 11.192 0 011.806 2.495m-1.806-2.495l1.806 2.495m0 0c1.09 2.075 1.47 4.33 1.272 6.74m-1.272-6.74l1.272 6.74m0 0c-.17 2.059-.807 4.04-1.731 5.979m1.73-5.98l-1.73 5.98m0 0c-.39.82-.796 1.635-1.203 2.455m1.203-2.455l-1.203 2.455m0 0l-.05.1m.05-.1l-.05.1m0 0a150.8 150.8 0 00-1.256 2.573m1.257-2.573l-1.257 2.573m0 0c-1.682 3.556-2.94 7.23-3.488 11.076m3.488-11.076l-3.488 11.076m0 0a33.149 33.149 0 00-.3 6.06l.3-6.06zm-.294 6.202l.002.035-.002-.035z" stroke="#8E56FF"/></svg>