<svg width="36" height="36" fill="none" xmlns="http://www.w3.org/2000/svg"><path d="M1.042 18.91c.329 5.643 3.969 11.252 9.427 13.906-1.334-.205-2.616-.255-4.081-.189-.672.03-.85.965-.245 1.26 1.247.607 4.801 1.07 6.205 1.157a32 32 0 007.568-.43c1.08-.19 2.329-.368 3.377-.775 3.914-.995 7.696-3.895 9.744-6.932 3.532-5.238 2.599-13.897-1.268-19.081-2.197-2.947-5.866-5.536-11.027-5.95C10.933.107.374 7.575 1.041 18.91zM29.948 8.47c3.936 5.175 4.151 12.846.512 18.237-3.668 5.43-10.965 8.015-17.112 6.327-6.42-1.769-11.118-7.868-11.486-14.173C.973 3.754 20.785-3.58 29.948 8.47z" fill="#00001B"/><path d="M.993 7.255L3 8.262a.411.411 0 00.368-.735L1.36 6.52a.412.412 0 00-.368.735zm4.199-2.318a8.597 8.597 0 00-1.918-2.301.411.411 0 00-.53.628 7.76 7.76 0 011.735 2.082.411.411 0 00.713-.409zm2.173-.939a.41.41 0 00.34-.47L7.34 1.245a.41.41 0 10-.812.13l.366 2.282a.41.41 0 00.47.341zm6.865 8.662c.686-.392 1.075-1.05 1.538-1.546 1.533-1.636 4.51-1.704 5.337.454.206.54.187 1.085-.053 1.535-1.195 2.232-5.761 1.282-6.499 6.197-.185 1.229-.045 2.453.09 3.637.052.456.13 1.145.622 1.615.596.57 1.896.515 2.06-.324.346-1.765-.654-3.642.07-5.036.856-1.652 3.514-1.883 5.192-2.962 2.286-1.473 3.023-4.68 1.608-7.003-1.34-2.2-4.418-3.387-7.159-2.766-2.63.598-4.792 2.73-5.38 5.304-.255 1.114 1.68 1.408 2.574.896zm2.988-5.397c2.414-.55 5.11.479 6.275 2.39 1.189 1.953.57 4.648-1.352 5.885-1.694 1.092-4.409 1.216-5.476 3.275-.889 1.713.166 3.628-.144 5.246-.095.074-.513.066-.688-.101-.256-.245-.32-.65-.373-1.114-.13-1.131-.263-2.3-.094-3.422.665-4.43 4.983-3.263 6.41-5.932.355-.663.39-1.45.096-2.216-1.035-2.703-4.716-2.844-6.704-.722-.483.517-.817 1.092-1.348 1.396-.385.222-1.246.134-1.363 0 .52-2.273 2.433-4.156 4.761-4.685zm-.405 18.889c-.451-.464-2.123.461-2.065 1.906.04 1 .921 1.862 1.926 1.862 1.537 0 2.587-1.873 1.39-3.16a1.872 1.872 0 00-1.252-.608zm-.156 2.946c-.547-.01-1.066-.52-1.088-1.073-.021-.526.397-1.048.913-1.164.07.066.164.108.268.111.538.017 1.032.553 1.01 1.095-.022.54-.575 1.044-1.103 1.03z" fill="#00001B"/></svg>