<svg width="54" height="54" fill="none" xmlns="http://www.w3.org/2000/svg"><g opacity=".5" clip-path="url(#clip0_34_3547)" fill="#FF9B24"><path d="M16.328 36.25a.625.625 0 00-.756.384l-.916 2.489a.625.625 0 00.37.802l7.466 2.748a.624.624 0 00.68-.168l2.554-2.833 3.27 7.083 1.134-.524-3.67-7.944a.626.626 0 00-1.031-.156l-2.904 3.223-6.48-2.386.5-1.359 4.99 1.413a.625.625 0 00.66-.212l2.25-2.815a1.89 1.89 0 01.675-.53l3.807-1.76.8 5.63a.625.625 0 00.267.427l3.012 2.05a.624.624 0 00.973-.448l.392-3.623a.624.624 0 00-.154-.48L30.453 33l3.81-1.76c.264-.122.553-.18.844-.172l3.6.116a.624.624 0 00.59-.366l2.158-4.715 1.356.5-2.387 6.482-4.33.12a.625.625 0 00-.554.888l3.67 7.943 1.134-.524-3.272-7.083 3.807-.106a.624.624 0 00.568-.408l2.748-7.466a.625.625 0 00-.37-.802l-2.49-.916a.625.625 0 00-.783.326l-2.228 4.863-3.175-.102a3.143 3.143 0 00-1.41.288l-2.616 1.208a4.063 4.063 0 10-3.916 1.808l-2.61 1.206c-.44.204-.827.507-1.13.885l-1.993 2.492-5.145-1.457zM33.1 37.88l-.25 2.313-1.923-1.31-.587-4.123 2.76 3.12zm-7.929-7.604a2.813 2.813 0 115.107-2.358 2.813 2.813 0 01-5.107 2.358zm-6.23-20.186a3.125 3.125 0 112.621 5.673.625.625 0 00-.305.83l1.572 3.404 1.135-.524-1.329-2.877a4.375 4.375 0 10-6.355-1.835l1.135-.524a3.128 3.128 0 011.526-4.148zm4.519 11.27l1.136-.524.629 1.362-1.135.524-.63-1.362zm12.551-5.69a3.536 3.536 0 10-2.701-4.702l1.175.43a2.34 2.34 0 012.933-1.354 2.285 2.285 0 011.355 2.933 2.339 2.339 0 01-2.933 1.355.625.625 0 00-.802.37l-1.008 2.732 1.17.432.811-2.195zm-2.788 3.948l.402-1.092 1.173.431-.402 1.093-1.173-.432zM8.285 27.062a2.283 2.283 0 01-1.355-2.934 2.34 2.34 0 012.933-1.355 2.286 2.286 0 011.355 2.934.625.625 0 00.37.802l2.732 1 .431-1.172-2.195-.808a3.535 3.535 0 10-4.702 2.702l.43-1.17zm7.125.853l.432-1.173 1.092.402-.432 1.173-1.092-.402z"/></g><defs><clipPath id="clip0_34_3547"><path fill="#fff" transform="rotate(-24.794 38.157 8.387)" d="M0 0h40v40H0z"/></clipPath></defs></svg>