<svg width="40" height="40" fill="none" xmlns="http://www.w3.org/2000/svg"><g clip-path="url(#clip0_34_3116)" fill="#fff"><path d="M39.999 7.633c-.04-3.395-1.778-5.265-4.893-5.265-1.205 0-2.367.28-3.126.515a46.21 46.21 0 00.076-2.287V.002H7.945v.594c0 .02.002.89.079 2.288-.76-.235-1.923-.516-3.13-.516-3.114 0-4.852 1.87-4.892 5.265-.039 3.34.723 6.313 2.264 8.836a14.296 14.296 0 004.804 4.787c2.172 1.307 4.343 1.582 5.782 1.582a9.96 9.96 0 001.016-.05l.061-.007c.696.75 1.446 1.35 2.247 1.795a2.34 2.34 0 011.142 1.561 1.96 1.96 0 00-1.376 1.869 1.96 1.96 0 001.43 1.884v2.493h-3.214v2.602h-3.172v5.013h18.03v-5.013h-3.172v-2.602H22.63V29.89a1.96 1.96 0 001.43-1.884 1.96 1.96 0 00-1.376-1.869 2.339 2.339 0 011.143-1.56 9.19 9.19 0 002.248-1.796 9.61 9.61 0 001.075.057c1.44 0 3.61-.275 5.782-1.582a14.296 14.296 0 004.804-4.787c1.541-2.523 2.303-5.496 2.264-8.836zm-9.14-6.443c-.006.217-.014.49-.027.81H9.171a53.27 53.27 0 01-.028-.81h21.716zm.808 5.454c.805-.268 1.848-.538 2.782-.538.784 0 1.348.192 1.677.57.378.433.5 1.162.362 2.166-.574 4.181-2.387 7.446-5.105 9.191-.947.608-1.967.86-2.822.948 1.808-3.799 2.683-8.566 3.106-12.337zM8.945 10.782c.584 3.134 1.391 5.825 2.398 7.999l.094.2c-.854-.09-1.873-.34-2.82-.948-2.717-1.745-4.53-5.01-5.105-9.191-.138-1.004-.016-1.733.362-2.167.33-.377.894-.569 1.677-.569.935 0 1.98.271 2.784.539a57.25 57.25 0 00.61 4.137zm3.906 10.868c-1.289 0-3.231-.245-5.17-1.412C5.7 19.045 1.099 15.43 1.19 7.647c.033-2.753 1.244-4.09 3.705-4.09 1.315 0 2.615.396 3.209.605.03.399.063.798.1 1.196-.808-.237-1.76-.44-2.652-.44-1.142 0-2.007.329-2.572.976-.614.704-.83 1.75-.644 3.11.32 2.328.988 4.386 1.987 6.116.953 1.651 2.182 2.968 3.654 3.913 1.437.922 2.991 1.155 4.1 1.177l.011.02a15.673 15.673 0 00.422.698c.022.036.046.07.068.105a14.831 14.831 0 00.365.536l.056.08h-.147zm14.976 14.523v2.637H12.173v-2.637h15.654zm-5.198-2.602h2.026v1.414h-9.31v-1.414h7.284zm-4.07-1.188v-2.42h2.882v2.42H18.56zm4.313-4.377a.77.77 0 01-.77.769h-4.204a.77.77 0 010-1.538h4.205a.77.77 0 01.769.769zm2.971-6.791l-.02.026c-.058.075-.117.149-.176.222l-.044.053c-.065.08-.13.157-.196.232l-.01.01c-.662.757-1.385 1.355-2.149 1.78a3.532 3.532 0 00-1.758 2.511h-2.98a3.532 3.532 0 00-1.757-2.51 8.046 8.046 0 01-2.005-1.614l-.145-.166c-.59-.674-1.147-1.49-1.655-2.425l-.155-.287c-2.555-4.936-3.327-12.07-3.56-15.859h21.54l-.034.512-.001.025-.042.576-.002.017a60.91 60.91 0 01-.168 1.825l-.038.366c-.432 3.869-1.344 8.798-3.266 12.512l-.17.313a14.196 14.196 0 01-1.209 1.881zm6.476-.977c-1.939 1.167-3.881 1.412-5.17 1.412l-.147-.001.002-.004c.077-.106.153-.214.228-.324.01-.013.018-.027.027-.04a15.04 15.04 0 00.436-.68l.031-.052c.054-.09.108-.182.16-.274l.038-.064c1.109-.023 2.663-.255 4.1-1.178 1.472-.945 2.701-2.262 3.655-3.913.998-1.73 1.667-3.788 1.986-6.116.187-1.36-.03-2.406-.643-3.11-.565-.647-1.43-.976-2.573-.976-.892 0-1.844.203-2.65.44.037-.405.069-.795.096-1.165l.003-.03c.594-.21 1.893-.607 3.209-.607 2.46 0 3.672 1.338 3.704 4.09.091 7.784-4.51 11.4-6.492 12.592z"/><path d="M15.027 19.237l-.992.654c.339.514.703.982 1.082 1.389l.87-.81a9.398 9.398 0 01-.96-1.233zm-2.548-6.587l-1.159.264c.57 2.498 1.33 4.594 2.26 6.231l1.034-.587c-.873-1.536-1.591-3.524-2.135-5.908zm22.182 13.405v-1.188l-1.003.001-.001-1.003h-1.188v1.004h-1.002v1.189l1.004-.001v1.003l1.188-.001v-1.003h1.002zm-25.849 6.17l-.001-1.188h-.842v-.841l-1.189.001.001.842H5.94l.002 1.188h.841l.001.841h1.188v-.843h.841zm-3.875-9.712h-1.12V23.7h1.12v-1.188zm7.203 3.515h-1.12v1.188h1.12v-1.188zm18.063 3.574h-1.121v1.188h1.12v-1.188z"/></g><defs><clipPath id="clip0_34_3116"><path fill="#fff" d="M0 0h40v40H0z"/></clipPath></defs></svg>