<svg width="40" height="40" fill="none" xmlns="http://www.w3.org/2000/svg"><g opacity=".9" fill="#fff"><path d="M36.875 15.04v-1.25a1.924 1.924 0 00-.587-1.388 1.945 1.945 0 00-1.413-.531 46.478 46.478 0 00-6.875.7l-.825.162a7.225 7.225 0 00-14.338-.318v.325a46.11 46.11 0 00-7.712-.87 1.944 1.944 0 00-2 1.938v1.25a3.125 3.125 0 00-2.5 3.063v17.5a3.125 3.125 0 003.125 3.125h32.5a3.125 3.125 0 003.125-3.125v-17.5a3.125 3.125 0 00-2.5-3.081zm-22.788-2.45a6.005 6.005 0 015.232-5.057c.226-.025.453-.037.681-.037a5.906 5.906 0 013.975 1.525 5.974 5.974 0 01-.35 9.2 4.25 4.25 0 00-1.719 3.387.893.893 0 01-.887.888h-.394V18.12a.625.625 0 00-.144-.4l-2.275-2.725h3.407l-1.12 1.119a.626.626 0 00.882.88l2.188-2.187a.625.625 0 00-.438-1.062h-6.25a.624.624 0 00-.481 1.025l2.981 3.575v4.15h-.394a.894.894 0 01-.894-.9 4.269 4.269 0 00-1.724-3.381 5.943 5.943 0 01-2.275-5.625zm-9.712 1.218a.694.694 0 01.719-.687c2.591.072 5.172.369 7.712.887a7.139 7.139 0 002.819 5.194 3.033 3.033 0 011.25 2.4 2.144 2.144 0 002.106 2.144h2.038a2.152 2.152 0 002.144-2.163 3.006 3.006 0 011.25-2.375 7.162 7.162 0 002.8-5.2l1.037-.206a45.254 45.254 0 016.656-.681.657.657 0 01.507.2.68.68 0 01.206.494v19.868a.688.688 0 01-.657.688 41.376 41.376 0 00-14.337 2.769V26.246h.625a.625.625 0 000-1.25h-2.5a.624.624 0 100 1.25h.625v10.9A41.248 41.248 0 005.037 34.37a.688.688 0 01-.662-.688V13.808zm-2.5 21.813v-17.5a1.875 1.875 0 011.25-1.763v17.325A1.95 1.95 0 005 35.621c3.924.093 7.816.724 11.569 1.875H3.75a1.875 1.875 0 01-1.875-1.875zm36.25 0a1.875 1.875 0 01-1.875 1.875H23.425A42.92 42.92 0 0135 35.62a1.95 1.95 0 001.875-1.938V16.34a1.875 1.875 0 011.25 1.78v17.5z"/><path d="M6.83 16.875c.824.056 1.656.131 2.468.231h.075a.626.626 0 10.075-1.25c-.831-.1-1.687-.181-2.531-.238a.626.626 0 10-.081 1.25l-.007.007zm0 2.583c1.524.099 3.043.276 4.55.53h.106a.628.628 0 10.106-1.25 46.22 46.22 0 00-4.675-.55.626.626 0 00-.081 1.25l-.007.02zm-.579 3.71a.625.625 0 00.581.663 42.18 42.18 0 019.85 1.794.625.625 0 00.376-1.194 43.493 43.493 0 00-10.144-1.875.624.624 0 00-.663.612zm10.809 4.333a43.503 43.503 0 00-10.143-1.875.628.628 0 00-.666.585.626.626 0 00.585.665 42.19 42.19 0 019.85 1.8.625.625 0 00.375-1.175zm0 3.125a43.493 43.493 0 00-10.143-1.875.626.626 0 00-.081 1.25 42.19 42.19 0 019.843 1.875.654.654 0 10.382-1.25zm6.064-4.966c.062.01.126.01.188 0a42.184 42.184 0 019.85-1.8.627.627 0 00-.082-1.25c-3.443.221-6.848.85-10.143 1.876a.634.634 0 00-.532.718.632.632 0 00.72.532v-.075zm0 3.048a.658.658 0 00.188 0c3.199-1 6.505-1.615 9.85-1.832a.626.626 0 10-.082-1.25c-3.443.22-6.848.85-10.143 1.875a.632.632 0 00.187 1.25v-.043zm0 3.172a.62.62 0 00.188 0 42.19 42.19 0 019.85-1.8.626.626 0 10-.082-1.25 43.5 43.5 0 00-10.143 1.8.632.632 0 00.187 1.25zM20 4.375a.625.625 0 00.625-.625v-2.5a.625.625 0 10-1.25 0v2.5a.625.625 0 00.625.625zm4.418 1.833a.624.624 0 00.443-.181l1.77-1.769a.625.625 0 00-.882-.881l-1.775 1.762a.625.625 0 00.444 1.07zm-9.278-.183a.625.625 0 00.88-.881l-1.762-1.775a.625.625 0 00-.881.881l1.762 1.775z"/></g></svg>