<svg width="43" height="142" fill="none" xmlns="http://www.w3.org/2000/svg"><path d="M.753 4.28a.96.96 0 00-.517 1.29l3.678 8.217c.226.504.824.744 1.335.536a.96.96 0 00.517-1.29l-3.27-7.305L9.902 2.71a.96.96 0 00.517-1.29A1.042 1.042 0 009.084.884L.753 4.279zM11.93 66.3l-.357.916.357-.916zm-2.052 73.063a.97.97 0 00-.033 1.396 1.031 1.031 0 001.431.066l-1.398-1.462zm24.362-99.61l1.008-.07-1.008.07zm-21.954 25.63c-1.222-.477-1.963-1.127-2.385-1.813-.424-.688-.578-1.494-.482-2.363.196-1.771 1.429-3.687 3.188-4.872L11.43 54.7c-2.152 1.45-3.756 3.834-4.023 6.249-.135 1.225.073 2.483.767 3.61.695 1.13 1.83 2.043 3.399 2.657l.713-1.832zm.32-9.048c1.494-1.007 3.483-1.302 5.801-.953 2.317.349 4.878 1.333 7.391 2.77 5.05 2.888 9.669 7.467 11.589 11.883l1.86-.735c-2.143-4.928-7.14-9.805-12.457-12.847-2.67-1.527-5.48-2.626-8.122-3.024-2.64-.398-5.198-.104-7.238 1.271l1.177 1.635zm24.78 13.7c6.838 15.725.148 32.954-8.516 46.46-4.311 6.72-9.063 12.442-12.74 16.486a122.765 122.765 0 01-4.511 4.713 78.861 78.861 0 01-1.628 1.566l-.086.079-.02.019-.006.004v.001l.698.731.7.73.002-.002a.043.043 0 00.006-.006l.025-.022.092-.086a83.472 83.472 0 001.673-1.608 125.188 125.188 0 004.582-4.787c3.725-4.097 8.55-9.905 12.935-16.741 8.729-13.606 15.908-31.59 8.655-48.272l-1.86.735zM1.162 5.192l-.365.913.003.001.015.006a13.196 13.196 0 01.31.13c.22.093.547.234.964.422.835.376 2.034.94 3.482 1.685 2.897 1.492 6.778 3.707 10.722 6.602 7.928 5.82 15.899 14.23 16.942 24.873l2.015-.142c-1.128-11.508-9.697-20.377-17.766-26.3-4.056-2.977-8.037-5.249-11.003-6.776A76.722 76.722 0 002.9 4.874a50.638 50.638 0 00-1.346-.583l-.02-.008-.004-.002h-.002s-.001-.001-.367.911zm32.073 34.632c.738 7.526-2.098 14.943-6.397 19.967-4.341 5.073-9.878 7.42-14.55 5.593l-.713 1.832c5.886 2.301 12.271-.811 16.829-6.137 4.6-5.374 7.64-13.294 6.846-21.397l-2.015.142z" fill="#FACC15"/></svg>