<svg width="277" height="241" fill="none" xmlns="http://www.w3.org/2000/svg"><g opacity=".75"><mask id="a" style="mask-type:alpha" maskUnits="userSpaceOnUse" x="0" y="0" width="277" height="241"><path d="M124.221 1.248a.748.748 0 11-1.495 0 .748.748 0 011.495 0zm15.027 0a.747.747 0 11-1.494.001.747.747 0 011.494-.001zm15.028 0a.748.748 0 11-1.495 0 .748.748 0 011.495 0zm15.027 0a.748.748 0 11-1.495 0 .748.748 0 011.495 0zm-167.308 0a.747.747 0 11-1.495 0 .747.747 0 011.495 0zm183.336 0a.749.749 0 01-1.481.146.743.743 0 01.318-.768.746.746 0 011.163.622zm-168.309 0a.748.748 0 11-1.496 0 .748.748 0 011.496 0zm183.34 0a.748.748 0 11-1.496 0 .748.748 0 011.496 0zm-168.312 0a.747.747 0 11-1.496 0 .747.747 0 011.495 0zm183.339 0a.748.748 0 11-1.495 0 .748.748 0 011.495 0zm-167.309 0a.747.747 0 11-1.494 0 .747.747 0 011.495 0zm182.336 0a.747.747 0 11-1.494.001.747.747 0 011.494-.001zm-167.308 0a.747.747 0 11-1.495 0 .747.747 0 011.495 0zm183.336 0a.748.748 0 11-1.495 0 .748.748 0 011.495 0zm-168.309 0a.747.747 0 11-1.495 0 .747.747 0 011.495 0zm183.336 0a.748.748 0 11-1.495 0 .748.748 0 011.495 0zm-168.308 0a.747.747 0 11-1.495 0 .747.747 0 011.495 0zm183.335 0a.747.747 0 11-1.494.001.747.747 0 011.494-.001zm-167.304 0a.748.748 0 11-1.495 0 .748.748 0 011.495 0zm15.027 17.031a.748.748 0 11-1.495 0 .748.748 0 011.495 0zm15.027 0a.747.747 0 11-1.494.001.747.747 0 011.494-.001zm15.028 0a.748.748 0 11-1.495 0 .748.748 0 011.495 0zm15.027 0a.748.748 0 11-1.495 0 .748.748 0 011.495 0zm-167.308 0a.747.747 0 11-1.495 0 .747.747 0 011.495 0zm183.336 0a.749.749 0 01-1.276.529.746.746 0 01.528-1.277.75.75 0 01.748.748zm-168.309 0a.748.748 0 11-1.496 0 .748.748 0 011.496 0zm183.34 0a.748.748 0 11-1.496 0 .748.748 0 011.496 0zm-168.312 0a.747.747 0 11-1.496 0 .747.747 0 011.495 0zm183.339 0a.748.748 0 11-1.495 0 .748.748 0 011.495 0zm-167.309 0a.747.747 0 11-1.494 0 .747.747 0 011.495 0zm182.336 0a.747.747 0 11-1.494.001.747.747 0 011.494-.001zm-167.308 0a.747.747 0 11-1.495 0 .747.747 0 011.495 0zm183.336 0a.748.748 0 11-1.495 0 .748.748 0 011.495 0zm-168.309 0a.747.747 0 11-1.495 0 .747.747 0 011.495 0zm183.336 0a.748.748 0 11-1.495 0 .748.748 0 011.495 0zm-168.308 0a.747.747 0 11-1.495 0 .747.747 0 011.495 0zm183.335 0a.747.747 0 11-1.494.001.747.747 0 011.494-.001zm-167.304 0a.748.748 0 11-1.495 0 .748.748 0 011.495 0zm15.027 17.039a.748.748 0 11-1.495 0 .748.748 0 011.495 0zm15.027 0a.747.747 0 11-1.494.001.747.747 0 011.494-.001zm15.028 0a.748.748 0 11-1.495 0 .748.748 0 011.495 0zm15.027 0a.748.748 0 11-1.495 0 .748.748 0 011.495 0zm-167.308 0a.747.747 0 11-1.495 0 .747.747 0 011.495 0zm183.336 0a.75.75 0 01-.894.733.747.747 0 11.894-.733zm-168.309 0a.748.748 0 11-1.497 0 .748.748 0 011.497 0zm183.34 0a.748.748 0 11-1.496 0 .748.748 0 011.496 0zm-168.312 0a.747.747 0 11-1.496 0 .747.747 0 011.495 0zm183.339 0a.748.748 0 11-1.495 0 .748.748 0 011.495 0zm-167.309 0a.747.747 0 11-1.494 0 .747.747 0 011.495 0zm182.336 0a.747.747 0 11-1.494.001.747.747 0 011.494-.001zm-167.308 0a.747.747 0 11-1.495 0 .747.747 0 011.495 0zm183.336 0a.748.748 0 11-1.495 0 .748.748 0 011.495 0zm-168.309 0a.747.747 0 11-1.495 0 .747.747 0 011.495 0zm183.336 0a.748.748 0 11-1.495 0 .748.748 0 011.495 0zm-168.308 0a.747.747 0 11-1.495 0 .747.747 0 011.495 0zm183.335 0a.747.747 0 11-1.494.001.747.747 0 011.494-.001zm-167.304 0a.748.748 0 11-1.495 0 .748.748 0 011.495 0zm15.027 17.039a.748.748 0 11-1.495 0 .748.748 0 011.495 0zm15.027 0a.747.747 0 11-1.494.001.747.747 0 011.494-.001zm15.028 0a.748.748 0 11-1.495 0 .748.748 0 011.495 0zm15.027 0a.748.748 0 11-1.495 0 .748.748 0 011.495 0zm-167.308 0a.747.747 0 11-1.495 0 .747.747 0 011.495 0zm183.336 0a.749.749 0 01-1.481.146.743.743 0 01.318-.768.746.746 0 011.163.622zm-168.309 0a.748.748 0 11-1.496 0 .748.748 0 011.496 0zm183.34 0a.748.748 0 11-1.496 0 .748.748 0 011.496 0zm-168.312 0a.747.747 0 11-1.496 0 .747.747 0 011.495 0zm183.339 0a.748.748 0 11-1.495 0 .748.748 0 011.495 0zm-167.309 0a.747.747 0 11-1.494 0 .747.747 0 011.495 0zm182.336 0a.747.747 0 11-1.494.001.747.747 0 011.494-.001zm-167.308 0a.747.747 0 11-1.495 0 .747.747 0 011.495 0zm183.336 0a.748.748 0 11-1.495 0 .748.748 0 011.495 0zm-168.309 0a.747.747 0 11-1.495 0 .747.747 0 011.495 0zm183.336 0a.748.748 0 11-1.495 0 .748.748 0 011.495 0zm-168.308 0a.747.747 0 11-1.495 0 .747.747 0 011.495 0zm183.335 0a.747.747 0 11-1.494.001.747.747 0 011.494-.001zm-167.304 0a.748.748 0 11-1.495 0 .748.748 0 011.495 0zm15.027 17.039a.748.748 0 11-1.495 0 .748.748 0 011.495 0zm15.027 0a.747.747 0 11-1.494.001.747.747 0 011.494 0zm15.028 0a.748.748 0 11-1.495 0 .748.748 0 011.495 0zm15.027 0a.748.748 0 11-1.495 0 .748.748 0 011.495 0zm-167.308 0a.747.747 0 11-1.495 0 .747.747 0 011.495 0zm183.336 0a.749.749 0 01-1.276.529.746.746 0 01.528-1.277.75.75 0 01.748.748zm-168.309 0a.748.748 0 11-1.496 0 .748.748 0 011.496 0zm183.34 0a.748.748 0 11-1.496 0 .748.748 0 011.496 0zm-168.312 0a.747.747 0 11-1.496 0 .747.747 0 011.495 0zm183.339 0a.748.748 0 11-1.495 0 .748.748 0 011.495 0zm-167.309 0a.747.747 0 11-1.494 0 .747.747 0 011.495 0zm182.336 0a.747.747 0 11-1.494.001.747.747 0 011.494 0zm-167.308 0a.747.747 0 11-1.495 0 .747.747 0 011.495 0zm183.336 0a.748.748 0 11-1.495 0 .748.748 0 011.495 0zm-168.309 0a.747.747 0 11-1.495 0 .747.747 0 011.495 0zm183.336 0a.748.748 0 11-1.495 0 .748.748 0 011.495 0zm-168.308 0a.747.747 0 11-1.495 0 .747.747 0 011.495 0zm183.335 0a.747.747 0 11-1.494.001.747.747 0 011.494 0zm-167.304 0a.748.748 0 11-1.495 0 .748.748 0 011.495 0zm15.027 17.031a.748.748 0 11-1.495 0 .748.748 0 011.495 0zm15.027 0a.747.747 0 11-1.494.002.747.747 0 011.494-.002zm15.028 0a.748.748 0 11-1.495 0 .748.748 0 011.495 0zm15.027 0a.748.748 0 11-1.495 0 .748.748 0 011.495 0zm-167.308 0a.747.747 0 11-1.495 0 .747.747 0 011.495 0zm183.336 0a.749.749 0 01-1.481.146.743.743 0 01.318-.767.746.746 0 011.163.621zm-168.309 0a.748.748 0 11-1.496 0 .748.748 0 011.496 0zm183.34 0a.748.748 0 11-1.496 0 .748.748 0 011.496 0zm-168.312 0a.747.747 0 11-1.496 0 .747.747 0 011.495 0zm183.339 0a.748.748 0 11-1.495 0 .748.748 0 011.495 0zm-167.309 0a.747.747 0 11-1.494 0 .747.747 0 011.495 0zm182.336 0a.747.747 0 11-1.494.002.747.747 0 011.494-.002zm-167.308 0a.747.747 0 11-1.495 0 .747.747 0 011.495 0zm183.336 0a.748.748 0 11-1.495 0 .748.748 0 011.495 0zm-168.309 0a.747.747 0 11-1.495 0 .747.747 0 011.495 0zm183.336 0a.748.748 0 11-1.495 0 .748.748 0 011.495 0zm-168.308 0a.747.747 0 11-1.495 0 .747.747 0 011.495 0zm183.335 0a.747.747 0 11-1.494.002.747.747 0 011.494-.002zm-167.304 0a.748.748 0 11-1.495 0 .748.748 0 011.495 0zm15.027 17.032a.747.747 0 11-1.494 0 .747.747 0 011.494 0zm15.027 0a.746.746 0 11-1.493.001.746.746 0 011.493-.001zm15.028 0a.747.747 0 11-1.494 0 .747.747 0 011.494 0zm15.027 0a.747.747 0 11-1.494 0 .747.747 0 011.494 0zm-167.308 0a.747.747 0 11-1.494 0 .747.747 0 011.494 0zm183.336 0a.75.75 0 01-.894.733.746.746 0 01-.587-.588.744.744 0 01.318-.767.747.747 0 011.163.622zm-168.309 0a.749.749 0 01-.893.733.745.745 0 01-.587-.588.75.75 0 01.733-.893.748.748 0 01.747.748zm183.34 0a.747.747 0 11-1.495 0 .747.747 0 011.495 0zm-168.312 0a.747.747 0 11-1.495 0 .747.747 0 011.494 0zm183.339 0a.747.747 0 11-1.494 0 .747.747 0 011.494 0zm-167.309 0a.747.747 0 11-1.493 0 .747.747 0 011.493 0zm182.336 0a.746.746 0 11-1.493.001.746.746 0 011.493-.001zm-167.308 0a.747.747 0 11-1.494 0 .747.747 0 011.494 0zm183.336 0a.747.747 0 11-1.494 0 .747.747 0 011.494 0zm-168.309 0a.747.747 0 11-1.494 0 .747.747 0 011.494 0zm183.336 0a.747.747 0 11-1.494 0 .747.747 0 011.494 0zm-168.308 0a.747.747 0 11-1.494 0 .747.747 0 011.494 0zm183.335 0a.746.746 0 11-1.493.001.746.746 0 011.493-.001zm-167.304 0a.747.747 0 11-1.494 0 .747.747 0 011.494 0zm15.027 17.046a.748.748 0 11-1.496 0 .748.748 0 011.496 0zm15.027 0a.747.747 0 11-1.495.001.747.747 0 011.495-.001zm15.028 0a.748.748 0 11-1.496 0 .748.748 0 011.496 0zm15.027 0a.748.748 0 11-1.496 0 .748.748 0 011.496 0zm-167.308 0a.748.748 0 11-1.496 0 .748.748 0 011.496 0zm183.336 0a.75.75 0 01-.462.691.743.743 0 01-.814-.162.745.745 0 01.113-1.15.747.747 0 011.163.621zm-168.309 0a.75.75 0 01-.893.734.745.745 0 01-.587-.588.75.75 0 01.733-.893.748.748 0 01.747.747zm183.34 0a.748.748 0 11-1.496 0 .748.748 0 011.496 0zm-168.312 0a.748.748 0 11-1.496 0 .748.748 0 011.495 0zm183.339 0a.748.748 0 11-1.496 0 .748.748 0 011.496 0zm-167.309 0a.748.748 0 11-1.495 0 .748.748 0 011.495 0zm182.336 0a.747.747 0 11-1.495.001.747.747 0 011.495-.001zm-167.308 0a.748.748 0 11-1.496 0 .748.748 0 011.496 0zm183.336 0a.748.748 0 11-1.496 0 .748.748 0 011.496 0zm-168.309 0a.748.748 0 11-1.495 0 .748.748 0 011.495 0zm183.336 0a.748.748 0 11-1.496 0 .748.748 0 011.496 0zm-168.308 0a.748.748 0 11-1.496 0 .748.748 0 011.496 0zm183.335 0a.747.747 0 11-1.495.001.747.747 0 011.495-.001zm-167.304 0a.748.748 0 11-1.496 0 .748.748 0 011.496 0zm15.027 17.032a.747.747 0 11-1.494 0 .747.747 0 011.494 0zm15.027 0a.746.746 0 11-1.493.001.746.746 0 011.493-.001zm15.028 0a.747.747 0 11-1.494 0 .747.747 0 011.494 0zm15.027 0a.747.747 0 11-1.494 0 .747.747 0 011.494 0zm-167.308 0a.747.747 0 11-1.494 0 .747.747 0 011.494 0zm183.336 0a.747.747 0 11-1.495 0 .747.747 0 011.495 0zm-168.309 0a.747.747 0 11-1.493 0 .747.747 0 011.493 0zm183.34 0a.747.747 0 11-1.495 0 .747.747 0 011.495 0zm-168.312 0a.747.747 0 11-1.495 0 .747.747 0 011.494 0zm183.339 0a.747.747 0 11-1.494 0 .747.747 0 011.494 0zm-167.309 0a.747.747 0 11-1.493 0 .747.747 0 011.493 0zm182.336 0a.746.746 0 11-1.493.001.746.746 0 011.493-.001zm-167.308 0a.747.747 0 11-1.494 0 .747.747 0 011.494 0zm183.336 0a.747.747 0 11-1.494 0 .747.747 0 011.494 0zm-168.309 0a.747.747 0 11-1.494 0 .747.747 0 011.494 0zm183.336 0a.747.747 0 11-1.494 0 .747.747 0 011.494 0zm-168.308 0a.747.747 0 11-1.494 0 .747.747 0 011.494 0zm183.335 0a.746.746 0 11-1.493.001.746.746 0 011.493-.001zm-167.304 0a.747.747 0 11-1.494 0 .747.747 0 011.494 0zm15.027 17.031a.748.748 0 11-1.496 0 .748.748 0 011.496 0zm15.027 0a.747.747 0 11-1.495.001.747.747 0 011.495-.001zm15.028 0a.748.748 0 11-1.496 0 .748.748 0 011.496 0zm15.027 0a.748.748 0 11-1.496 0 .748.748 0 011.496 0zm-167.308 0a.748.748 0 11-1.496 0 .748.748 0 011.496 0zm183.336 0a.747.747 0 11-1.495 0 .747.747 0 011.495 0zm-168.309 0a.747.747 0 11-1.493 0 .747.747 0 011.493 0zm183.34 0a.748.748 0 11-1.496 0 .748.748 0 011.496 0zm-168.312 0a.748.748 0 11-1.496 0 .748.748 0 011.495 0zm183.339 0a.748.748 0 11-1.496 0 .748.748 0 011.496 0zm-167.309 0a.748.748 0 11-1.495 0 .748.748 0 011.495 0zm182.336 0a.747.747 0 11-1.495.001.747.747 0 011.495-.001zm-167.308 0a.748.748 0 11-1.496 0 .748.748 0 011.496 0zm183.336 0a.748.748 0 11-1.496 0 .748.748 0 011.496 0zm-168.309 0a.748.748 0 11-1.495 0 .748.748 0 011.495 0zm183.336 0a.748.748 0 11-1.496 0 .748.748 0 011.496 0zm-168.308 0a.748.748 0 11-1.496 0 .748.748 0 011.496 0zm183.335 0a.747.747 0 11-1.495.001.747.747 0 011.495-.001zm-167.304 0a.748.748 0 11-1.496 0 .748.748 0 011.496 0zm15.027 17.039a.748.748 0 11-1.496 0 .748.748 0 011.496 0zm15.027 0a.747.747 0 11-1.495.001.747.747 0 011.495-.001zm15.028 0a.748.748 0 11-1.496 0 .748.748 0 011.496 0zm15.027 0a.748.748 0 11-1.496 0 .748.748 0 011.496 0zm-167.308 0a.748.748 0 11-1.496 0 .748.748 0 011.496 0zm183.336 0a.747.747 0 11-1.495 0 .747.747 0 011.495 0zm-168.309 0a.747.747 0 11-1.493 0 .747.747 0 011.493 0zm183.34 0a.748.748 0 11-1.496 0 .748.748 0 011.496 0zm-168.312 0a.748.748 0 11-1.496 0 .748.748 0 011.495 0zm183.339 0a.748.748 0 11-1.496 0 .748.748 0 011.496 0zm-167.309 0a.748.748 0 11-1.495 0 .748.748 0 011.495 0zm182.336 0a.747.747 0 11-1.495.001.747.747 0 011.495-.001zm-167.308 0a.748.748 0 11-1.496 0 .748.748 0 011.496 0zm183.336 0a.748.748 0 11-1.496 0 .748.748 0 011.496 0zm-168.309 0a.748.748 0 11-1.495 0 .748.748 0 011.495 0zm183.336 0a.748.748 0 11-1.496 0 .748.748 0 011.496 0zm-168.308 0a.748.748 0 11-1.496 0 .748.748 0 011.496 0zm183.335 0a.747.747 0 11-1.495.001.747.747 0 011.495-.001zm-167.304 0a.748.748 0 11-1.496 0 .748.748 0 011.496 0zm15.027 17.039a.748.748 0 11-1.496 0 .748.748 0 011.496 0zm15.027 0a.747.747 0 11-1.495.001.747.747 0 011.495-.001zm15.028 0a.748.748 0 11-1.496 0 .748.748 0 011.496 0zm15.027 0a.748.748 0 11-1.496 0 .748.748 0 011.496 0zm-167.308 0a.748.748 0 11-1.496 0 .748.748 0 011.496 0zm183.336 0a.745.745 0 01-.462.691.75.75 0 01-1.019-.545.744.744 0 01.318-.768.747.747 0 011.163.622zm-168.309 0a.744.744 0 01-.461.691.75.75 0 01-1.02-.545.75.75 0 01.734-.894.748.748 0 01.747.748zm183.34 0a.748.748 0 11-1.496 0 .748.748 0 011.496 0zm-168.312 0a.748.748 0 11-1.496 0 .748.748 0 011.495 0zm183.339 0a.748.748 0 11-1.496 0 .748.748 0 011.496 0zm-167.309 0a.748.748 0 11-1.495 0 .748.748 0 011.495 0zm182.336 0a.747.747 0 11-1.495.001.747.747 0 011.495-.001zm-167.308 0a.748.748 0 11-1.496 0 .748.748 0 011.496 0zm183.336 0a.748.748 0 11-1.496 0 .748.748 0 011.496 0zm-168.309 0a.748.748 0 11-1.495 0 .748.748 0 011.495 0zm183.336 0a.748.748 0 11-1.496 0 .748.748 0 011.496 0zm-168.308 0a.748.748 0 11-1.496 0 .748.748 0 011.496 0zm183.335 0a.747.747 0 11-1.495.001.747.747 0 011.495-.001zm-167.304 0a.748.748 0 11-1.496 0 .748.748 0 011.496 0zm15.027 17.039a.748.748 0 11-1.496 0 .748.748 0 011.496 0zm15.027 0a.747.747 0 11-1.495.001.747.747 0 011.495-.001zm15.028 0a.748.748 0 11-1.496 0 .748.748 0 011.496 0zm15.027 0a.748.748 0 11-1.496 0 .748.748 0 011.496 0zm-167.308 0a.748.748 0 11-1.496 0 .748.748 0 011.496 0zm183.336 0a.75.75 0 01-.462.691.75.75 0 01-1.019-.545.744.744 0 01.318-.768.747.747 0 01.944.093c.14.141.219.331.219.529zm-168.309 0a.75.75 0 01-.461.691.75.75 0 01-1.02-.545.75.75 0 01.734-.893.747.747 0 01.747.747zm183.34 0a.748.748 0 11-1.496 0 .748.748 0 011.496 0zm-168.312 0a.748.748 0 11-1.496 0 .748.748 0 011.495 0zm183.339 0a.748.748 0 11-1.496 0 .748.748 0 011.496 0zm-167.309 0a.748.748 0 11-1.495 0 .748.748 0 011.495 0zm182.336 0a.747.747 0 11-1.495.001.747.747 0 011.495-.001zm-167.308 0a.748.748 0 11-1.496 0 .748.748 0 011.496 0zm183.336 0a.748.748 0 11-1.496 0 .748.748 0 011.496 0zm-168.309 0a.748.748 0 11-1.495 0 .748.748 0 011.495 0zm183.336 0a.748.748 0 11-1.496 0 .748.748 0 011.496 0zm-168.308 0a.748.748 0 11-1.496 0 .748.748 0 011.496 0zm183.335 0a.747.747 0 11-1.495.001.747.747 0 011.495-.001zm-167.304 0a.748.748 0 11-1.496 0 .748.748 0 011.496 0zm15.027 17.031a.748.748 0 11-1.496 0 .748.748 0 011.496 0zm15.027 0a.747.747 0 11-1.495.001.747.747 0 011.495-.001zm15.028 0a.748.748 0 11-1.496 0 .748.748 0 011.496 0zm15.027 0a.748.748 0 11-1.496 0 .748.748 0 011.496 0zm-167.308 0a.748.748 0 11-1.496 0 .748.748 0 011.496 0zm183.336 0a.75.75 0 01-.462.691.742.742 0 01-.814-.162.749.749 0 111.276-.529zm-168.309 0a.75.75 0 01-.461.691.744.744 0 01-1.019-.545.75.75 0 01.733-.893.747.747 0 01.747.747zm183.34 0a.748.748 0 11-1.496 0 .748.748 0 011.496 0zm-168.312 0a.748.748 0 11-1.496 0 .748.748 0 011.495 0zm183.339 0a.748.748 0 11-1.496 0 .748.748 0 011.496 0zm-167.309 0a.748.748 0 11-1.495 0 .748.748 0 011.495 0zm182.336 0a.747.747 0 11-1.495.001.747.747 0 011.495-.001zm-167.308 0a.748.748 0 11-1.496 0 .748.748 0 011.496 0zm183.336 0a.748.748 0 11-1.496 0 .748.748 0 011.496 0zm-168.309 0a.748.748 0 11-1.495 0 .748.748 0 011.495 0zm183.336 0a.748.748 0 11-1.496 0 .748.748 0 011.496 0zm-168.308 0a.748.748 0 11-1.496 0 .748.748 0 011.496 0zm183.335 0a.747.747 0 11-1.495.001.747.747 0 011.495-.001zm-167.304 0a.748.748 0 11-1.496 0 .748.748 0 011.496 0zm15.027 17.032a.747.747 0 11-1.494 0 .747.747 0 011.494 0zm15.027 0a.746.746 0 11-1.493.001.746.746 0 011.493-.001zm15.028 0a.747.747 0 11-1.494 0 .747.747 0 011.494 0zm15.027 0a.747.747 0 11-1.494 0 .747.747 0 011.494 0zm-167.308 0a.747.747 0 11-1.494 0 .747.747 0 011.494 0zm183.336 0a.747.747 0 11-1.495 0 .747.747 0 011.495 0zm-168.309 0a.747.747 0 11-1.493 0 .747.747 0 011.493 0zm183.34 0a.747.747 0 11-1.495 0 .747.747 0 011.495 0zm-168.312 0a.747.747 0 11-1.495 0 .747.747 0 011.494 0zm183.339 0a.747.747 0 11-1.494 0 .747.747 0 011.494 0zm-167.309 0a.747.747 0 11-1.493 0 .747.747 0 011.493 0zm182.336 0a.746.746 0 11-1.493.001.746.746 0 011.493-.001zm-167.308 0a.747.747 0 11-1.494 0 .747.747 0 011.494 0zm183.336 0a.747.747 0 11-1.494 0 .747.747 0 011.494 0zm-168.309 0a.747.747 0 11-1.494 0 .747.747 0 011.494 0zm183.336 0a.747.747 0 11-1.494 0 .747.747 0 011.494 0zm-168.308 0a.747.747 0 11-1.494 0 .747.747 0 011.494 0zm183.335 0a.746.746 0 11-1.493.001.746.746 0 011.493-.001zm-167.304 0a.747.747 0 11-1.494 0 .747.747 0 011.494 0z" fill="#7900FF" stroke="#6440FB"/></mask><g mask="url(#a)"><path d="M247.957 121.257c0 60.604-49.116 109.733-109.703 109.733S28.551 181.861 28.551 121.257c0-60.605 49.116-109.734 109.703-109.734s109.703 49.13 109.703 109.734z" fill="#006766" stroke="#006766"/></g></g></svg>