<svg width="150" height="120" fill="none" xmlns="http://www.w3.org/2000/svg"><path d="M147.901 15.634l.351-.009c-.257.309-.985.532-1.354.712l-3.017 1.568c-6.412 3.446-12.49 8.126-17.581 13.33-.155.163-.866.865-.901 1.063-.017.077.138.531.172.634.206.771.48 1.586.488 2.383-.188.24-.36.403-.642.54-.815.42-1.741.686-2.589 1.029a42.705 42.705 0 00-4.346 2.057l-.403-3.026c-6.446 3.172-12.635 6.995-18.233 11.486l-2.409 1.98c.06-.462.07-1.028.206-1.474.24-.763 1.055-1.706 1.517-2.357 3.549-5.049 7.775-9.446 12.593-13.295 1.731-1.38 3.557-2.58 5.4-3.798 7.158-4.74 15.001-8.512 23.239-10.963 2.452-.729 4.997-1.423 7.509-1.86zM66.782.585c1.877-.42 3.96-.48 5.872-.549C80.17-.238 87.38 1.04 94.4 3.706c3.112 1.182 6.266 2.64 9.078 4.422 5.28 3.352 9.952 7.201 13.912 12.061.806.995 1.654 1.98 2.314 3.086l-6.471 3.995c-2.281-3.18-4.835-6.172-7.792-8.744-6.275-5.486-14.487-9.24-22.7-10.578-4.002-.651-7.988-.745-12.026-.454-5.983.369-12.258 2.255-17.632 4.895-8.375 4.114-15.37 10.672-20.093 18.721-1.346 2.306-2.615 4.809-3.472 7.346l-6.917-3.034c1.843-4.74 4.363-9.13 7.431-13.184C38.734 10.76 52.493 2.557 66.782.585z" fill="#00001B"/><path d="M54.529 29.542l-3.283-1.552-.052.395c-.206 3.394-.051 6.9-.051 10.303v2.16c0 .232-.052.6.026.806.085.223.445.523.617.694l1.285 1.406c-.745 1.012-1.86 1.929-2.785 2.778-.54-.249-1.063-.832-1.51-1.235-.496-.445-1.08-.9-1.516-1.397a1.28 1.28 0 01-.146-.197c.009-.034.317-.317.351-.352l1.518-1.542c.077-.078.394-.343.42-.43.06-.205.008-.676.017-.908l-.009-13.2c-.386-.404-1.38-.695-1.911-.926-1.775-.755-3.67-1.423-5.375-2.332l32.488-13.99c2.529.798 5.058 2.066 7.51 3.112l15.36 6.695 5.015 2.169c1.011.428 2.177.788 3.103 1.38.283.18.454.385.514.711-.814.557-1.929.917-2.829 1.346l-8.177 3.883-15.404 7.286-3.078 1.483c-.642.317-1.268.686-1.954.917l-20.144-9.463z" fill="#00001B"/><path d="M54.538 29.534l20.144 9.48c.686-.23 1.311-.6 1.954-.917l3.078-1.483 15.403-7.286v3.266l-.128 19.253C86.245 60.025 79.345 70.002 76.91 81.9c-.574 2.795-.814 5.684-.917 8.538-.068 1.92-.025 3.866.3 5.76.215-1.98.317-3.951.729-5.906 1.149-5.443 3.497-10.612 6.377-15.352.566-.934 1.14-1.972 1.835-2.82l.017-.069c.3-.626.849-1.26 1.252-1.834l3.351-4.56c5.555-7.141 12.601-13.364 20.204-18.259 7.167-4.62 14.95-8.23 22.888-11.28l7.543-2.727c1.56-.531 3.12-1.114 4.723-1.526l3.909-1.242c-.214.402-1.937 2.751-2.237 2.905-1.766 2.615-3.96 5.075-6.078 7.415-3.043 3.369-6.197 6.626-9.695 9.515-2.486 2.057-5.211 3.9-7.946 5.615-2.769 1.74-5.632 3.403-8.589 4.817l-15.447 6.472 34.065-25.81c-.84.197-1.654.78-2.408 1.191l-2.898 1.509-14.229 7.69-8.984 5.674c-3.214 2.126-6.334 4.234-9.317 6.686-1.946 1.594-3.84 3.274-5.607 5.066l-2.228 2.477c-.266.309-.635.935-.943 1.132-3.875 5.212-6.567 10.843-8.212 17.135-.352 1.346-.746 2.743-.858 4.132-.017.24-.034.463-.008.703.069-.429.12-.857.24-1.277.429-1.432.831-2.803 1.449-4.166 2.948-6.48 8.117-11.461 14.306-14.864 3.532-1.937 7.252-3.206 10.964-4.706a119.497 119.497 0 0010.681-4.955c1.783-.934 3.686-1.851 5.237-3.154-1.886 13.732-9.952 26.17-20.924 34.45l-6.995 4.449c1.432-.3 3.018-1.174 4.346-1.791 7.784-3.609 14.307-9.086 19.03-16.261 3.506-5.323 6.163-11.735 7.381-18.001.145-.746.54-4.458.805-4.827.095-.128.532-.342.669-.437l2.392-1.585c1.662-1.123 3.197-2.34 4.706-3.66.471 14.237-5.204 29.598-14.941 40.005-3.721 3.977-7.844 7.509-12.498 10.355-2.452 1.509-5.204 2.7-7.775 3.994l-10.81 5.624-6.994 3.677c-1.32.712-2.786 1.706-4.192 2.186l-4.706-2.795-16.536-8.52c-3.531-1.809-7.157-3.515-10.492-5.666C31.18 95.487 23.078 83.435 19.71 70.037c-1.285-5.1-1.928-10.45-1.808-15.713l7.929 5.64c1.097 12.19 7.029 24.654 16.484 32.549 3.454 2.88 7.132 5.211 11.255 7.029 2.074.917 4.106 1.714 6.335 2.203-.712-.343-1.466-.566-2.186-.875a39.174 39.174 0 01-4.5-2.237c-10.081-5.89-17.505-15.704-21.302-26.625-1.114-3.197-1.715-6.6-2.349-9.909l13.038 6.472 8.847 3.806c6.634 3.12 12.626 7.157 16.818 13.278 1.123 1.637 2.126 3.437 2.846 5.297.3.78.488 1.775.883 2.495.094-.463-.206-1.312-.326-1.766-.849-3.326-2.075-6.832-3.583-9.926l-1.535-2.983c-.18-.318-.763-1.123-.788-1.415-.84-.934-1.466-2.254-2.203-3.291-1.415-1.98-3.009-3.79-4.655-5.572-.06 0-.017 0-.094-.069L53.86 64.08c-3.043-2.434-6.249-4.603-9.54-6.695L21.072 44.21l-2.914-1.611c-.429-.24-1.003-.643-1.492-.686.343.334.857.6 1.252.891l2.906 2.126 12.643 9.387 11.29 8.606 5.606 4.38c-.72-.231-1.423-.643-2.117-.951l-3.206-1.32c-6.704-2.632-13.27-5.375-19.424-9.173-3.335-2.057-6.447-4.474-9.378-7.08-1.397-1.243-2.906-2.494-4.15-3.892-1.208-.934-2.34-2.254-3.368-3.394C5.686 38.114 2.745 34.446.285 30.64c.394.034.875.274 1.243.394l2.452.814 18.19 6.858c2.811 1.106 5.528 2.417 8.22 3.772 6.55 3.291 12.747 7.106 18.327 11.88 2.375 2.032 4.517 4.218 6.66 6.48l3.746 4.261c.515.643 1.132 1.346 1.552 2.057l.026.06 4.252 6.052c.677 1.046 1.465 2.186 1.962 3.318l.01.008c2.768 4.723 5.014 9.987 5.93 15.404.19 1.123.232 2.297.31 3.438l.11.008.18-3.72c.018-8.238-2.228-16.613-6.197-23.839-3.171-5.778-7.329-10.878-11.966-15.541-.215-.223-.763-.669-.883-.943-.06-.129-.009-.557-.009-.729l-.008-2.64.017-15.464.129-3.034z" fill="#00001B"/><path d="M54.541 29.534l20.144 9.48c.686-.23 1.312-.6 1.955-.917l3.077-1.483 15.404-7.286v3.266c-.797.54-1.723.926-2.589 1.346l-3.806 1.86-14.066 6.943L54.6 32.637l-.171-.069.111-3.034z" fill="#fff"/></svg>