<svg width="91" height="120" fill="none" xmlns="http://www.w3.org/2000/svg"><path d="M17.332 87.365l28.093 15.263 30.537-16.597v17.37l-30.537 16.597-30.538-16.597v-17.37l2.445 1.334zm27.31 18.587L18.2 91.578v9.865l27.225 14.797 27.235-14.797v-9.865l-27.235 14.808-.783-.434z" fill="#006766"/><path d="M3.234 73.049l26.4-14.354 2.423 2.435L7.47 74.499l37.957 20.63 37.957-20.63-24.59-13.369 2.424-2.424 29.066 15.793a59130.312 59130.312 0 00-44.858 24.377L.566 74.5l2.668-1.45z" fill="#006766"/><path d="M44.636 75.933a1.643 1.643 0 01-.667-2.233 1.664 1.664 0 012.244-.656l21.562 11.728v28.495a3.155 3.155 0 011.524 2.699 3.178 3.178 0 01-3.175 3.175 3.169 3.169 0 01-3.166-3.175c0-1.144.604-2.149 1.514-2.699V86.719L44.636 75.933z" fill="#006766"/><path fill-rule="evenodd" clip-rule="evenodd" d="M24.966 8.438c-11.252 11.252-11.252 29.67 0 40.922l20.462 20.46 20.46-20.46c11.252-11.252 11.252-29.67 0-40.922-11.252-11.25-29.67-11.25-40.922 0zm9.347 9.347c-6.15 6.14-6.15 16.1 0 22.24 6.139 6.139 16.1 6.139 22.239 0 6.14-6.14 6.14-16.1 0-22.24-6.14-6.15-16.1-6.15-22.239 0z" fill="#006766"/></svg>