<svg width="130" height="40" fill="none" xmlns="http://www.w3.org/2000/svg"><mask id="a" style="mask-type:alpha" maskUnits="userSpaceOnUse" x="0" y="0" width="130" height="40"><path d="M110 0H20C8.954 0 0 8.954 0 20s8.954 20 20 20h90c11.046 0 20-8.954 20-20s-8.954-20-20-20z" fill="#fff"/></mask><g mask="url(#a)"><path d="M110 0H20C8.954 0 0 8.954 0 20s8.954 20 20 20h90c11.046 0 20-8.954 20-20s-8.954-20-20-20z" fill="#fff"/><path d="M96.445 16.311v5.605a2.882 2.882 0 002.882 2.882h8.368c.592 0 1.079-.487 1.079-1.079V18.1a2.88 2.88 0 00-2.881-2.881h-8.369c-.592 0-1.079.473-1.079 1.052v.04zm13.287 6.234l2.316 2.027a.912.912 0 001.276-.079.922.922 0 00.224-.593v-7.789c0-.5-.408-.895-.895-.908a.872.872 0 00-.592.224l-2.329 2.039a.898.898 0 00-.302.684v3.724c0 .25.118.5.302.671z" fill="#00001B"/><mask id="b" style="mask-type:luminance" maskUnits="userSpaceOnUse" x="50" y="5" width="30" height="30"><path d="M80 5H50v30h30V5z" fill="#fff"/></mask><g mask="url(#b)"><path d="M65 35c8.284 0 15-6.716 15-15 0-8.284-6.716-15-15-15-8.284 0-15 6.716-15 15 0 8.284 6.716 15 15 15z" fill="#006766"/><path d="M70.333 22.205c-1.15 0-2.248-.25-3.26-.745a.678.678 0 00-.51-.031.675.675 0 00-.383.34l-.48.994a9.392 9.392 0 01-3.463-3.463l.995-.48a.669.669 0 00.309-.893 7.336 7.336 0 01-.746-3.26.667.667 0 00-.667-.667h-2.461a.667.667 0 00-.667.667C59 20.916 64.084 26 70.333 26a.667.667 0 00.667-.667v-2.461a.667.667 0 00-.667-.667z" fill="#FAFAFA"/></g><mask id="c" style="mask-type:luminance" maskUnits="userSpaceOnUse" x="15" y="10" width="20" height="20"><path d="M35 10H15v20h20V10z" fill="#fff"/></mask><g mask="url(#c)" fill="#00001B"><path d="M30.365 21.173a.587.587 0 00-1.175 0c0 2.267-1.923 4.111-4.19 4.111-2.266 0-4.19-1.844-4.19-4.111a.587.587 0 10-1.173 0c0 2.714 2.14 4.93 4.776 5.227v1.234h-1.84a.587.587 0 100 1.174h4.855a.587.587 0 100-1.174h-1.84V26.4c2.636-.297 4.777-2.513 4.777-5.227z"/><path d="M25 11.188c-1.62 0-3.016 1.317-3.016 2.936v7.048c0 1.619 1.396 2.936 3.015 2.936 1.62 0 3.015-1.317 3.015-2.936v-7.048c0-1.619-1.396-2.936-3.015-2.936zm8.108.89a.587.587 0 00-.83.831 5.25 5.25 0 011.548 3.737c0 1.412-.55 2.74-1.548 3.738a.585.585 0 000 .83c.229.23.601.23.83 0a6.414 6.414 0 001.893-4.568 6.414 6.414 0 00-1.893-4.568z"/><path d="M31.448 13.742a.588.588 0 00-.83.831c.555.555.861 1.292.861 2.075 0 .783-.306 1.52-.862 2.076a.587.587 0 00.831.83 4.08 4.08 0 001.205-2.906 4.083 4.083 0 00-1.205-2.906zm-1.664 1.664a.588.588 0 00-.831.831.58.58 0 010 .83.587.587 0 00.831.83 1.75 1.75 0 00.517-1.245c0-.47-.184-.912-.517-1.246zm-13.609 1.24a5.25 5.25 0 011.548-3.737.587.587 0 10-.83-.831A6.414 6.414 0 0015 16.646c0 1.726.672 3.348 1.893 4.568.229.23.601.23.83 0a.585.585 0 000-.83 5.253 5.253 0 01-1.548-3.738z"/><path d="M18.526 16.648c0-.783.306-1.52.862-2.075a.588.588 0 00-.831-.831 4.083 4.083 0 00-1.205 2.906 4.08 4.08 0 001.205 2.906.588.588 0 00.83-.83 2.917 2.917 0 01-.861-2.076zm2.348.004c0-.156.061-.304.172-.415a.587.587 0 10-.83-.831 1.754 1.754 0 00-.517 1.246c0 .47.184.912.517 1.245.23.23.601.23.83 0a.585.585 0 000-.83.584.584 0 01-.172-.415z"/></g></g></svg>