<svg width="99" height="100" fill="none" xmlns="http://www.w3.org/2000/svg"><path fill-rule="evenodd" clip-rule="evenodd" d="M13.39 59.562a38.31 38.31 0 008.565 13.042l27.388 27.392 27.388-27.392a38.347 38.347 0 008.573-13.042c-5.042-3.153-11.469-4.6-17.597-4.036A21.159 21.159 0 0164.23 60.1c-8.22 8.222-21.552 8.222-29.772 0a20.867 20.867 0 01-3.47-4.574c-6.136-.565-12.555.883-17.596 4.036z" fill="#fff"/><path fill-rule="evenodd" clip-rule="evenodd" d="M52.681 57.379c9.703-7.674 24.898-7.48 35.22-.654A94.984 94.984 0 0198.097 10.33a28.644 28.644 0 00-11.531-.9c-.176.856-.354 1.721-.512 2.587a33.142 33.142 0 015.289.291 103.269 103.269 0 00-6.508 37.926c-10.851-3.24-24.262-.962-32.155 7.145zm-3.337-40.32c-.98 15.038-.98 23.683 0 38.721.988-15.038.988-23.683 0-38.72zm-3.338 40.32c-9.703-7.674-24.898-7.48-35.22-.654A94.983 94.983 0 00.599 10.33a28.631 28.631 0 0111.53-.9c.177.856.345 1.721.512 2.587a33.084 33.084 0 00-5.288.291 103.443 103.443 0 016.507 37.926c10.842-3.24 24.254-.962 32.147 7.145zm2.19 2.225a28.632 28.632 0 00-31.14-12.601A137.525 137.525 0 0012.578.838a28.638 28.638 0 0131.14 12.601 32.744 32.744 0 00-25.586-9.872 152.39 152.39 0 013.99 38.359 30.356 30.356 0 0126.073 17.678zM22.123 9.694a19.558 19.558 0 0122.055 8.513 28.255 28.255 0 00-22.055-8.512zm2.86 29.459a19.558 19.558 0 0122.056 8.512 28.255 28.255 0 00-22.055-8.512zm-.714-7.364A19.558 19.558 0 0146.324 40.3a28.256 28.256 0 00-22.055-8.513zm-.716-7.365a19.558 19.558 0 0122.055 8.512 28.255 28.255 0 00-22.055-8.512zm-.715-7.365a19.559 19.559 0 0122.056 8.513 28.256 28.256 0 00-22.056-8.513zm27.653 42.545a28.638 28.638 0 0131.14-12.601A137.53 137.53 0 0186.117.838a28.633 28.633 0 00-31.141 12.601 32.724 32.724 0 0125.578-9.872 153.167 153.167 0 00-3.991 38.359A30.379 30.379 0 0050.49 59.604zm26.081-49.91a19.575 19.575 0 00-22.064 8.513 28.274 28.274 0 0122.064-8.512zm-2.86 29.459a19.575 19.575 0 00-22.064 8.512 28.273 28.273 0 0122.064-8.512zm.715-7.364A19.575 19.575 0 0052.363 40.3a28.274 28.274 0 0122.064-8.513zm.715-7.365a19.574 19.574 0 00-22.064 8.512 28.273 28.273 0 0122.064-8.512zm.715-7.365a19.576 19.576 0 00-22.064 8.513 28.275 28.275 0 0122.064-8.513z" fill="#fff"/></svg>