<svg width="82" height="100" fill="none" xmlns="http://www.w3.org/2000/svg"><path fill-rule="evenodd" clip-rule="evenodd" d="M41.06 95.734l17.609-17.612c4.843-4.834 7.256-11.223 7.256-17.603 0-3.561-.75-7.121-2.25-10.41-.262.162-.534.316-.813.46l-1.392.768v5.196a2.483 2.483 0 01-1.508 4.455 2.483 2.483 0 01-1.51-4.455v-3.56l-2.728 1.482a15.777 15.777 0 011.201 6.064c0 4.048-1.554 8.114-4.644 11.205a15.777 15.777 0 01-11.221 4.654v19.356zm0-38.911V50l17.392-9.452v9l-8.764 4.772c-3.081 1.671-5.864 2.502-8.629 2.502zm.008-15.742V26.07l-1.608-.877a3.348 3.348 0 01-1.337-4.545 3.353 3.353 0 012.945-1.753V3.425L75.7 22.248l-15.74 8.567-18.18-9.886a1.507 1.507 0 00-2.041.605 1.496 1.496 0 00.605 2.033l16.463 8.956-15.74 8.557zm25.055 7.147a28.101 28.101 0 012.829 12.29c0 7.149-2.72 14.305-8.15 19.737L41.059 100 21.326 80.255c-5.43-5.431-8.15-12.588-8.15-19.736 0-4.22.949-8.431 2.828-12.29a9.41 9.41 0 01-1.391-1.79c-.985-1.671-1.42-3.623-1.42-6.127V31.43l2.233 1.21L41.06 46.576l17.392-9.443v-2.079L41.06 44.506.129 22.248l2.43-1.32L41.06 0 82 22.248l-20.53 11.16v2.08l7.464-4.058v8.883c0 2.503-.434 4.455-1.419 6.127a9.43 9.43 0 01-1.392 1.788zM53.058 55.91l-1.933 1.048c-3.543 1.925-6.795 2.883-10.066 2.883-3.262 0-6.514-.958-10.057-2.883l-1.933-1.057a12.866 12.866 0 00-.85 4.618A12.834 12.834 0 0041.06 73.36a12.84 12.84 0 009.09-3.76 12.81 12.81 0 003.759-9.081c0-1.564-.29-3.127-.85-4.609zm8.412-16.998v9c1.635-.904 2.765-1.843 3.452-3.009.695-1.166.993-2.639.993-4.59V36.49l-4.445 2.422z" fill="#fff"/></svg>