<svg width="153" height="100" fill="none" xmlns="http://www.w3.org/2000/svg"><path fill-rule="evenodd" clip-rule="evenodd" d="M73.395 25.54v8.157c-5.615.624-11.051 3.075-15.33 7.354-10.041 10.042-10.041 26.459 0 36.487l8.57 8.587a62.743 62.743 0 00-55.02-11.38V1.548c17.054-4.546 61.78.193 61.78 23.993zM73.127 100c-16.8-21.378-39.11-25.939-66.636-18.6V7.802C4.055 8.07 1.857 8.456 0 8.947v81.99c24.42-10.621 51.826-7.13 73.127 9.063zm6.343 0c16.8-21.378 39.11-25.939 66.636-18.6V7.802c2.435.268 4.634.654 6.506 1.145v81.99c-24.42-10.621-51.856-7.13-73.142 9.063zm-.268-74.46v8.157a25.68 25.68 0 0115.345 7.354c10.026 10.042 10.026 26.459 0 36.487l-8.601 8.587c15.404-12.167 35.814-16.505 55.035-11.38V1.548c-17.053-4.546-61.779.193-61.779 23.993zm-3.104 47.778c8.17.12 14.141-6.387 14.215-14.023-.074-7.89-6.342-14.04-14.067-14.01-7.961.015-13.888 6.447-13.962 14.01.074 7.665 6.075 13.904 13.814 14.023z" fill="#fff"/></svg>