<svg width="101" height="100" fill="none" xmlns="http://www.w3.org/2000/svg"><path fill-rule="evenodd" clip-rule="evenodd" d="M14.957 89.83h-.384c-.397 0-.706.167-.927.505-.106.16-.157.52-.157 1.084v4.14c0 .942-.075 1.66-.227 2.153a3.138 3.138 0 01-1.272 1.677c-.598.407-1.41.61-2.434.61-1.991 0-3.246-.713-3.768-2.138-.162-.44-.242-1.28-.242-2.514v-3.99c0-.52-.057-.886-.167-1.092-.162-.291-.477-.435-.943-.435h-.39v-.294h4.436v.294h-.397c-.425 0-.729.134-.911.399-.127.18-.19.559-.19 1.13v4.457c0 1.205.17 2.06.507 2.563.437.657 1.156.987 2.155.987.605 0 1.166-.126 1.68-.376.589-.284.993-.678 1.21-1.185.193-.451.288-1.221.288-2.306v-4.14c0-.638-.07-1.037-.211-1.197-.196-.222-.487-.332-.873-.332h-.384v-.294h3.6v.294zm11.113 0h-.363c-.433 0-.742.13-.922.391-.111.162-.168.528-.168 1.1v8.617h-.272L17.587 91.7v6.285c0 .63.066 1.022.203 1.172.188.212.482.317.886.317h.363v.294h-3.554v-.294h.355c.438 0 .75-.131.93-.391.11-.16.167-.526.167-1.098v-7.094c-.265-.311-.464-.517-.595-.617a2.297 2.297 0 00-.752-.377c-.139-.043-.36-.066-.662-.066v-.295h2.782l6.258 7.673v-5.888c0-.629-.07-1.02-.21-1.175-.189-.211-.482-.316-.887-.316h-.355v-.294h3.554v.294zm4.994 9.937h-4.389v-.294h.364c.425 0 .731-.123.924-.368.12-.154.18-.54.18-1.159v-6.589c0-.518-.033-.857-.097-1.022a.64.64 0 00-.312-.325 1.403 1.403 0 00-.696-.18h-.363v-.294h4.389v.294h-.373c-.42 0-.727.123-.92.368-.126.16-.19.546-.19 1.16v6.588c0 .518.033.858.098 1.023.138.337.476.505 1.012.505h.373v.293zm11.343-9.937c-.368.064-.642.18-.824.347-.26.234-.497.61-.709 1.129L37.3 99.999h-.278l-3.827-8.807c-.195-.455-.335-.731-.414-.826-.25-.312-.652-.49-1.206-.536v-.294h4.173v.294c-.752.069-1.128.299-1.128.685 0 .25.115.641.348 1.174l2.6 5.984 2.414-5.909c.237-.577.355-.981.355-1.213 0-.36-.317-.593-.953-.698l-.129-.023v-.294h3.152v.294zm9.274 7.372l-.88 2.565h-7.882v-.294h.363c.237 0 .466-.056.688-.172.209-.106.337-.304.386-.595.02-.106.031-.355.031-.752v-6.628c0-.651-.064-1.05-.196-1.194-.177-.202-.479-.302-.909-.302h-.363v-.294h7.876l.114 2.241h-.294c-.085-.438-.17-.747-.258-.93a1.23 1.23 0 00-.662-.641c-.187-.075-.54-.113-1.063-.113h-2.808v4.049h2.254c.585 0 .974-.088 1.172-.263.263-.232.407-.638.438-1.22h.294v3.554h-.294c-.07-.505-.142-.826-.212-.963-.193-.379-.658-.567-1.398-.567h-2.254v3.38c0 .353.003.546.008.582.03.237.118.395.263.477.1.06.294.09.574.09h1.734c.497 0 .857-.025 1.084-.075.353-.082.662-.255.927-.523.307-.306.626-.778.958-1.411h.309v-.001zm10.799 2.565h-2.743l-3.462-4.791a16.8 16.8 0 01-.628.015 7.24 7.24 0 01-.446-.015v2.967c0 .639.07 1.038.212 1.198.196.221.481.333.857.333h.4v.293h-4.374v-.293h.384c.433 0 .742-.142.927-.422.106-.16.157-.529.157-1.105v-6.59c0-.64-.07-1.04-.21-1.194-.197-.222-.488-.332-.874-.332h-.384v-.295h3.724c.91 0 1.577.046 2.004.137.724.154 1.293.479 1.71.971.359.425.536.933.536 1.52 0 1.37-.839 2.24-2.519 2.611l2.113 2.934c.427.598.79 1.005 1.089 1.221.396.296.903.48 1.527.544v.293zm-3.894-7.5c0-.65-.201-1.172-.606-1.566-.404-.395-.934-.593-1.589-.593-.293 0-.69.046-1.19.14v4.265h.425c.822 0 1.497-.165 2.022-.495.627-.392.938-.976.938-1.752zm11.512 4.888c0 .85-.327 1.545-.984 2.089-.618.502-1.36.755-2.225.755-.29 0-.569-.023-.834-.067-.152-.026-.477-.124-.979-.294-.44-.147-.747-.219-.917-.219-.25 0-.404.194-.458.58h-.293V96.49h.293c.116.66.263 1.156.446 1.494.234.448.6.804 1.097 1.064.453.242.95.363 1.491.363.544 0 1.007-.142 1.394-.422a1.46 1.46 0 00.641-1.252c0-.554-.283-1.046-.852-1.479-.348-.268-.923-.618-1.723-1.053-.804-.434-1.386-.796-1.75-1.082-.754-.593-1.13-1.3-1.13-2.128 0-.793.304-1.447.912-1.96.577-.487 1.27-.731 2.076-.731.548 0 1.122.134 1.723.399.288.126.484.188.595.188.263 0 .435-.196.52-.587h.294v3.539h-.294c-.17-1.273-.665-2.133-1.481-2.581a2.73 2.73 0 00-1.337-.356 1.93 1.93 0 00-1.23.423c-.382.307-.573.688-.573 1.146 0 .307.108.59.325.853.314.376 1.053.88 2.218 1.51.806.43 1.32.725 1.547.88.577.391.981.814 1.21 1.267.186.373.278.762.278 1.169zm5.612 2.612h-4.388v-.294h.363c.425 0 .731-.123.924-.368.122-.154.18-.54.18-1.159v-6.589c0-.518-.033-.857-.098-1.022a.637.637 0 00-.312-.325 1.402 1.402 0 00-.695-.18h-.363v-.294h4.388v.294h-.373c-.42 0-.727.123-.92.368-.125.16-.19.546-.19 1.16v6.588c0 .518.033.858.098 1.023.139.337.476.505 1.012.505h.373v.293zm9.432-7.836h-.283c-.057-.423-.132-.726-.227-.906-.304-.57-.853-.856-1.651-.856h-1.445v7.81c0 .634.069 1.028.206 1.178.188.211.484.317.888.317h.359v.293H78.63v-.293h.368c.438 0 .747-.132.933-.392.11-.162.167-.528.167-1.102v-7.81h-1.234c-.484 0-.824.036-1.02.105-.605.217-.942.77-1.007 1.656h-.29l.12-2.395h8.36l.114 2.395zm11.303-2.101h-.196c-.411 0-.832.224-1.259.67-.18.19-.435.54-.762 1.053l-2.465 3.874v2.557c0 .626.07 1.018.211 1.173.193.211.495.317.91.317h.331v.293h-4.342v-.293h.363c.433 0 .742-.132.922-.392.111-.16.168-.525.168-1.097v-2.416l-2.805-4.271c-.306-.47-.499-.747-.579-.837-.18-.19-.459-.376-.83-.556a1.066 1.066 0 00-.437-.075v-.294h4.358v.294h-.227c-.24 0-.448.049-.624.149-.216.12-.324.29-.324.512 0 .18.154.508.461.979l2.138 3.29 2.004-3.146c.3-.474.45-.824.45-1.056 0-.296-.139-.508-.417-.639-.134-.059-.335-.09-.603-.09v-.293h3.554v.294zm-72.632-7.117l5.088-.325 5.087-.326v1.3l-5.087-.324-5.088-.325zm52.863 0l-5.088-.325-5.088-.326v1.3l5.088-.324 5.088-.325z" fill="#fff"/><path d="M40.078 83.178c-.33.646-.702.987-1.298.987-.925 0-1.59-.782-1.59-1.95 0-.944.534-1.813 1.534-1.813.59 0 1.043.242 1.23.963l.217-.044c-.038-.379-.08-.658-.143-1.012-.168-.031-.634-.168-1.155-.168-1.497 0-2.521.888-2.521 2.199 0 1.005.707 2.093 2.372 2.093.447 0 1.024-.125 1.192-.168.112-.211.28-.695.366-1l-.204-.087zm2.881-3.037c-1.41 0-2.223 1.062-2.223 2.167 0 1.218.913 2.124 2.149 2.124 1.198 0 2.192-.832 2.192-2.192 0-1.255-.975-2.1-2.112-2.1h-.006zm-.118.254c.79 0 1.391.727 1.391 2.012 0 1.187-.565 1.777-1.223 1.777-.863 0-1.428-.889-1.428-2.013 0-1.142.577-1.776 1.254-1.776h.006zm5.67 2.845c-.118.31-.23.515-.348.646-.142.161-.372.198-.683.198-.223 0-.416-.006-.527-.062-.125-.062-.156-.174-.156-.49V81.06c0-.547.062-.578.553-.615v-.211h-1.832v.21c.503.038.56.075.56.616v2.453c0 .54-.063.578-.616.628v.198h3.025c.055-.18.186-.801.23-1.043l-.206-.056zm3.478 0c-.118.31-.23.515-.348.646-.143.161-.372.198-.683.198-.224 0-.416-.006-.528-.062-.124-.062-.155-.174-.155-.49V81.06c0-.547.062-.578.552-.615v-.211h-1.832v.21c.504.038.56.075.56.616v2.453c0 .54-.063.578-.615.628v.198h3.024c.056-.18.186-.801.23-1.043l-.205-.056zm3.62.025a2.19 2.19 0 01-.342.614c-.149.162-.36.206-.751.206-.267 0-.496-.006-.608-.069-.124-.068-.156-.217-.156-.515v-1.13h.503c.547 0 .615.03.696.484h.211v-1.249h-.211c-.08.436-.143.478-.696.478h-.503V80.7c0-.194.019-.212.236-.212h.392c.397 0 .565.043.67.169.1.13.174.305.236.55l.212-.032c-.025-.368-.05-.805-.056-.941h-2.944v.205c.472.043.528.068.528.63v2.45c0 .528-.056.572-.621.622v.198h3.192c.05-.192.18-.776.223-1.03l-.211-.044zm4.794-.864h-1.795v.205c.658.056.696.1.696.553v.56c0 .217-.062.31-.174.372a.92.92 0 01-.447.1c-1.143 0-1.652-1.032-1.652-1.963 0-1.143.689-1.832 1.552-1.832.615 0 1.105.26 1.255 1l.217-.044c-.05-.472-.08-.814-.1-1.031-.223-.05-.726-.18-1.254-.18-1.31 0-2.509.739-2.509 2.18 0 1.267.957 2.111 2.416 2.111.521 0 1.068-.136 1.459-.23a2.877 2.877 0 01-.044-.596v-.51c0-.403.037-.434.38-.49V82.4zm3.527.864a2.19 2.19 0 01-.341.614c-.15.162-.36.206-.752.206-.267 0-.497-.006-.608-.069-.124-.068-.155-.217-.155-.515v-1.13h.503c.546 0 .615.03.695.484h.212v-1.249h-.212c-.08.436-.143.478-.695.478h-.503V80.7c0-.194.018-.212.236-.212h.391c.397 0 .565.043.67.169.1.13.175.305.237.55l.211-.032c-.025-.368-.05-.805-.056-.941H60.82v.205c.472.043.527.068.527.63v2.45c0 .528-.055.572-.62.622v.198h3.191c.05-.192.18-.776.224-1.03l-.212-.044z" fill="#fff"/><path fill-rule="evenodd" clip-rule="evenodd" d="M50.248 67.094a2.443 2.443 0 110 4.885 2.443 2.443 0 010-4.885zM67.18 58.21c.346 7.293-.15 7.387-4.542 9.694-1.33-4.09-.878-5.24 4.542-9.693zm5.475 13.18c-4.296-4.748-4.663-4.5-8.82-3.216 1.703 3.365 2.696 3.8 8.82 3.215zm.928-14.43c.03 6.321-.402 6.384-4.286 8.217-1-3.586-.566-4.565 4.286-8.216zm6.256 11.445c-4.297-4.747-4.663-4.499-8.82-3.215 1.704 3.365 2.697 3.8 8.82 3.215zm-1.224-14.671c1.255 6.195.842 6.341-2.612 8.892-1.677-3.324-1.441-4.368 2.612-8.892zm8.192 10.014c-5.135-3.824-5.447-3.51-9.276-1.444 2.324 2.971 3.382 3.206 9.276 1.444zm-4.309-13.732c2.56 5.457 2.211 5.685-.415 8.828-2.303-2.702-2.32-3.723.415-8.828zm9.833 7.519c-5.62-2.386-5.839-2.024-8.92.754 2.822 2.23 3.855 2.207 8.92-.755zm-6.165-12.097c3.072 4.919 2.765 5.177.617 8.481-2.51-2.317-2.644-3.29-.617-8.481zm9.957 6.365c-5.644-1.633-5.81-1.262-8.436 1.745 2.953 1.805 3.938 1.666 8.436-1.745zm-7.126-10.201c3.333 4.041 3.089 4.309 1.557 7.522-2.523-1.778-2.758-2.633-1.557-7.522zm9.726 4.576c-5.247-.795-5.353-.442-7.348 2.562 2.858 1.267 3.724 1.026 7.348-2.562zm-7.269-8.662c3.069 3.721 2.843 3.967 1.433 6.926-2.323-1.637-2.54-2.425-1.433-6.926zm8.953 4.211c-4.832-.732-4.93-.407-6.766 2.359 2.631 1.166 3.428.944 6.766-2.36zm-3.004-7.196c.668 4.777.347 4.87-2.403 6.653-1.123-2.61-.895-3.395 2.403-6.653zM61.46 59.984c-1.551 7.134-2.055 7.097-6.894 8.189-.227-4.294.507-5.288 6.895-8.189zm2.937 14.603c-3.131-6.104-3.58-5.948-8.237-5.772.83 3.955 1.737 4.681 8.237 5.772zM33.312 58.21c-.346 7.293.15 7.387 4.542 9.694 1.33-4.09.878-5.24-4.542-9.693zm-5.48 13.18c4.297-4.748 4.663-4.5 8.82-3.216-1.703 3.365-2.696 3.8-8.82 3.215zm-.924-14.43c-.03 6.321.402 6.384 4.286 8.217 1-3.586.566-4.565-4.286-8.216zm-6.252 11.445c4.296-4.747 4.663-4.499 8.82-3.215-1.704 3.365-2.697 3.8-8.82 3.215zm1.211-14.671c-1.255 6.195-.843 6.341 2.612 8.892 1.676-3.324 1.44-4.368-2.612-8.892zm-8.191 10.014c5.135-3.824 5.446-3.51 9.275-1.444-2.323 2.971-3.381 3.206-9.275 1.444zm4.306-13.732c-2.56 5.457-2.21 5.685.415 8.828 2.303-2.702 2.32-3.723-.415-8.828zm-9.826 7.519c5.621-2.386 5.84-2.024 8.921.754-2.822 2.23-3.856 2.207-8.92-.755zm6.167-12.097c-3.073 4.919-2.765 5.177-.618 8.481 2.51-2.317 2.644-3.29.618-8.481zm-9.956 6.365c5.644-1.633 5.81-1.262 8.435 1.745-2.952 1.805-3.937 1.666-8.435-1.745zm7.122-10.201c-3.334 4.041-3.09 4.309-1.557 7.522 2.522-1.778 2.757-2.633 1.557-7.522zm-9.723 4.576c5.247-.795 5.352-.442 7.347 2.562-2.858 1.267-3.723 1.026-7.347-2.562zm7.271-8.662c-3.07 3.721-2.844 3.967-1.433 6.926 2.322-1.637 2.538-2.425 1.433-6.926zM.082 41.727c4.832-.732 4.929-.407 6.766 2.359-2.631 1.166-3.429.944-6.766-2.36zm3.004-7.196c-.668 4.777-.347 4.87 2.403 6.653 1.123-2.61.895-3.395-2.403-6.653zm35.945 25.453c1.552 7.134 2.056 7.097 6.895 8.189.227-4.294-.508-5.288-6.895-8.189zm-2.937 14.603c3.131-6.104 3.58-5.948 8.237-5.772-.83 3.955-1.737 4.681-8.237 5.772zm9.184-18.105h-.567v-3.608a2.92 2.92 0 01-.536.39c-.222.13-.421.228-.597.292v-.547c.317-.148.594-.328.83-.54.238-.212.406-.417.505-.617h.365v4.63zm1.54-1.069l.541-.045c.047.256.134.44.264.555.13.115.296.173.5.173a.86.86 0 00.458-.12.95.95 0 00.322-.32 1.91 1.91 0 00.21-.54 2.83 2.83 0 00.081-.806c-.112.18-.267.328-.462.44a1.25 1.25 0 01-.635.168c-.381 0-.703-.139-.967-.416-.263-.276-.395-.64-.395-1.094 0-.468.137-.843.413-1.129a1.38 1.38 0 011.034-.427 1.479 1.479 0 011.386.933c.129.299.193.731.193 1.297 0 .59-.064 1.058-.19 1.407-.129.35-.32.615-.572.797a1.472 1.472 0 01-.886.274c-.36 0-.655-.1-.883-.3-.229-.201-.366-.484-.412-.847zm2.312-2.034c0-.324-.086-.582-.258-.772a.808.808 0 00-.624-.285.854.854 0 00-.656.307c-.186.205-.278.47-.278.797 0 .293.088.531.263.714a.873.873 0 00.655.274.835.835 0 00.645-.274c.17-.182.252-.436.252-.76zm2.058.603a1.067 1.067 0 01-.523-.368.97.97 0 01-.17-.573c0-.336.12-.617.36-.846.242-.229.562-.343.963-.343.4 0 .725.117.97.35.244.235.367.519.367.855 0 .214-.056.4-.167.558a1.045 1.045 0 01-.51.367c.282.093.496.24.643.447.147.204.221.45.221.735 0 .394-.14.724-.417.993-.28.268-.645.402-1.1.402-.453 0-.82-.134-1.099-.403a1.348 1.348 0 01-.417-1.008c0-.3.076-.55.229-.753a1.14 1.14 0 01.65-.413zm-.113-.962c0 .22.07.397.208.536.14.138.322.208.548.208.22 0 .398-.068.537-.206a.684.684 0 00.207-.505.726.726 0 00-.75-.738.739.739 0 00-.539.208.678.678 0 00-.21.497zm-.187 2.132c0 .162.038.318.113.47.076.15.19.267.341.349.151.082.315.125.487.125a.911.911 0 00.671-.261.895.895 0 00.262-.664.914.914 0 00-.95-.943.891.891 0 00-.663.264.906.906 0 00-.26.66zm3.008.106l.567-.077c.066.322.175.554.33.696a.82.82 0 00.574.212.915.915 0 00.677-.277.937.937 0 00.273-.685.87.87 0 00-.255-.644.88.88 0 00-.648-.254c-.107 0-.24.022-.4.064l.063-.496a1.174 1.174 0 00.744-.182c.193-.126.29-.32.29-.58a.688.688 0 00-.211-.515.75.75 0 00-.544-.204.768.768 0 00-.552.21c-.146.14-.241.348-.283.627l-.566-.103c.07-.38.226-.675.472-.884.244-.21.55-.313.915-.313.251 0 .483.053.694.162a1.154 1.154 0 01.654 1.033c0 .199-.053.38-.16.542a1.108 1.108 0 01-.475.39c.273.062.484.193.636.392.15.197.225.446.225.744 0 .402-.147.745-.44 1.025-.294.28-.665.42-1.114.42-.404 0-.74-.122-1.008-.364a1.404 1.404 0 01-.458-.939zM36.73 54.53l2.601-.421 2.601-.422v1.685l-2.6-.421-2.602-.421zm27.026 0l-2.6-.421-2.601-.422v1.685l2.6-.421 2.6-.421zm6.475-28.827V39.33l-19.987 9.995-19.986-9.995V25.703l19.986 9.995 19.987-9.995z" fill="#fff"/><path fill-rule="evenodd" clip-rule="evenodd" d="M50.244 0l34.189 17.097-34.19 17.097-34.188-17.097L50.244 0z" fill="#fff"/><path fill-rule="evenodd" clip-rule="evenodd" d="M50.491 16.797H25.77a2.143 2.143 0 00-2.137 2.137v1.947l.846.424v-2.37c0-.71.581-1.291 1.29-1.291h24.726c.772 0 .774-.847-.004-.847z" fill="#fff"/><path fill-rule="evenodd" clip-rule="evenodd" d="M50.184 16.352h-24.72a2.143 2.143 0 00-2.138 2.137v12.963a1.692 1.692 0 00-.832 2.764h-.013l-.567 4.897c1.092.515 2.592.515 3.684 0l-.567-4.897h-.014a1.692 1.692 0 00-.844-2.767V18.49c0-.71.581-1.29 1.29-1.29h24.725c.772 0 .775-.847-.004-.847z" fill="#fff"/></svg>