<svg width="125" height="100" fill="none" xmlns="http://www.w3.org/2000/svg"><path d="M123.129 13.03l.293-.007c-.215.258-.822.443-1.129.593l-2.514 1.308c-5.342 2.871-10.406 6.771-14.649 11.107-.128.136-.721.722-.75.886-.014.064.114.443.143.529.171.643.4 1.321.407 1.986-.157.2-.3.335-.536.45-.678.35-1.449.571-2.156.857a35.637 35.637 0 00-3.622 1.714l-.335-2.521c-5.371 2.643-10.528 5.829-15.192 9.572l-2.007 1.65c.05-.386.057-.857.171-1.229.2-.636.879-1.421 1.265-1.964 2.957-4.208 6.478-7.872 10.492-11.08 1.442-1.15 2.964-2.15 4.5-3.164 5.963-3.95 12.498-7.093 19.362-9.136 2.043-.607 4.164-1.186 6.257-1.55zM55.546.488c1.564-.35 3.3-.4 4.892-.458 6.264-.228 12.27.836 18.12 3.058 2.593.986 5.221 2.2 7.564 3.686 4.4 2.793 8.292 6 11.592 10.05.671.829 1.378 1.65 1.928 2.572l-5.392 3.329c-1.9-2.65-4.028-5.144-6.493-7.287-5.228-4.571-12.07-7.7-18.912-8.814-3.336-.543-6.657-.622-10.02-.379-4.986.307-10.214 1.879-14.693 4.079-6.978 3.429-12.806 8.893-16.741 15.6-1.121 1.922-2.179 4.008-2.893 6.123l-5.764-2.53c1.536-3.95 3.636-7.607 6.193-10.985C32.177 8.967 43.64 2.13 55.546.488z" fill="#fff"/><path d="M45.335 24.609l-2.736-1.293-.042.329c-.172 2.828-.043 5.75-.043 8.586v1.8c0 .193-.043.5.021.672.072.185.372.435.514.578l1.072 1.172c-.622.842-1.55 1.607-2.322 2.314-.45-.207-.885-.693-1.257-1.029-.414-.371-.9-.75-1.264-1.164a1.073 1.073 0 01-.121-.164c.007-.029.264-.264.293-.293l1.264-1.286c.064-.064.328-.286.35-.357.05-.171.007-.564.014-.757l-.007-11c-.322-.337-1.15-.58-1.593-.772C38 21.316 36.421 20.759 35 20.002L62.07 8.344c2.106.664 4.213 1.721 6.256 2.593l12.799 5.579 4.178 1.807c.843.357 1.814.657 2.586 1.15.235.15.378.322.428.593-.678.464-1.607.764-2.357 1.121l-6.813 3.236-12.835 6.072-2.564 1.236c-.536.264-1.057.571-1.629.764L45.335 24.61z" fill="#fff"/><path d="M45.336 24.609l16.785 7.9c.571-.192 1.093-.5 1.628-.764l2.564-1.236 12.835-6.072v2.722l-.107 16.044c-7.285 6.815-13.035 15.13-15.063 25.044-.479 2.33-.679 4.736-.764 7.115-.058 1.6-.022 3.222.25 4.8.178-1.65.264-3.293.607-4.921.957-4.536 2.914-8.844 5.314-12.794.47-.779.95-1.643 1.528-2.35l.014-.057c.25-.522.707-1.05 1.043-1.529l2.793-3.8c4.628-5.95 10.499-11.137 16.834-15.215 5.971-3.85 12.456-6.858 19.07-9.401l6.285-2.272c1.3-.442 2.6-.928 3.936-1.271l3.256-1.036c-.178.336-1.614 2.293-1.864 2.422-1.471 2.178-3.299 4.229-5.064 6.179-2.535 2.807-5.163 5.521-8.077 7.929-2.072 1.714-4.343 3.25-6.621 4.679-2.307 1.45-4.693 2.835-7.157 4.014l-12.87 5.393 28.383-21.508c-.7.164-1.378.65-2.007.993l-2.414 1.257-11.856 6.407-7.485 4.73c-2.679 1.77-5.278 3.528-7.764 5.571-1.621 1.329-3.2 2.729-4.671 4.222l-1.857 2.064c-.221.257-.529.779-.786.943-3.228 4.343-5.47 9.036-6.842 14.28-.293 1.121-.621 2.285-.714 3.443-.014.2-.029.385-.007.585.057-.357.1-.714.2-1.064.357-1.193.692-2.336 1.207-3.472 2.457-5.4 6.763-9.55 11.92-12.386 2.943-1.614 6.043-2.672 9.135-3.922a99.43 99.43 0 008.9-4.128c1.485-.78 3.07-1.544 4.363-2.63-1.57 11.444-8.292 21.81-17.434 28.71l-5.828 3.707c1.193-.25 2.514-.979 3.621-1.493 6.485-3.007 11.92-7.572 15.856-13.55 2.921-4.437 5.135-9.78 6.149-15.002.122-.621.45-3.714.672-4.021.078-.108.443-.286.557-.365l1.993-1.321a39.52 39.52 0 003.921-3.05c.393 11.865-4.336 24.666-12.45 33.337-3.099 3.315-6.534 6.258-10.413 8.63-2.042 1.257-4.335 2.25-6.478 3.328l-9.006 4.686-5.828 3.065c-1.1.593-2.322 1.421-3.493 1.821l-3.921-2.328-13.777-7.1c-2.943-1.508-5.964-2.93-8.743-4.723-9.72-6.278-16.47-16.322-19.277-27.487-1.071-4.25-1.607-8.708-1.507-13.094l6.607 4.7c.914 10.158 5.856 20.545 13.734 27.124 2.879 2.4 5.943 4.343 9.378 5.857 1.729.765 3.421 1.429 5.278 1.836-.592-.286-1.22-.471-1.82-.729a32.721 32.721 0 01-3.75-1.864c-8.4-4.907-14.585-13.086-17.75-22.187-.928-2.664-1.428-5.5-1.956-8.258l10.863 5.393 7.371 3.172c5.528 2.6 10.52 5.965 14.013 11.065.936 1.364 1.772 2.865 2.372 4.415.25.65.407 1.478.735 2.078.079-.385-.171-1.093-.271-1.471-.707-2.772-1.729-5.693-2.986-8.272L55.35 65.64c-.15-.264-.636-.936-.657-1.179-.7-.778-1.221-1.878-1.836-2.743-1.178-1.65-2.507-3.157-3.878-4.643-.05 0-.014 0-.079-.057l-4.128-3.622c-2.535-2.028-5.207-3.836-7.95-5.578l-19.37-10.98-2.428-1.343c-.357-.2-.835-.535-1.242-.571.285.279.714.5 1.043.743l2.42 1.771 10.536 7.822 9.406 7.172 4.671 3.65c-.6-.193-1.185-.535-1.764-.793l-2.671-1.1c-5.586-2.193-11.057-4.478-16.185-7.643-2.778-1.714-5.37-3.729-7.813-5.9-1.165-1.036-2.422-2.08-3.457-3.243-1.007-.779-1.95-1.88-2.807-2.83-2.529-2.813-4.978-5.87-7.028-9.043.328.029.728.229 1.035.329l2.043.679 15.156 5.714c2.343.922 4.607 2.015 6.85 3.143 5.456 2.743 10.62 5.922 15.27 9.9 1.978 1.694 3.764 3.515 5.55 5.401l3.12 3.55c.43.536.943 1.122 1.293 1.715l.022.05 3.542 5.043c.564.871 1.222 1.822 1.636 2.764l.007.008c2.307 3.936 4.178 8.322 4.943 12.836.157.936.192 1.915.257 2.865l.093.007.15-3.1c.014-6.865-1.858-13.844-5.164-19.866-2.643-4.814-6.107-9.065-9.971-12.95-.179-.187-.636-.558-.736-.787-.05-.107-.007-.464-.007-.607l-.007-2.2.014-12.886.107-2.53z" fill="#fff"/><path d="M45.339 24.609l16.784 7.9c.572-.192 1.093-.5 1.629-.764l2.564-1.236 12.835-6.072v2.722c-.665.45-1.436.772-2.157 1.122l-3.172 1.55-11.72 5.786-16.713-8.422-.143-.057.093-2.53z" fill="#fff"/></svg>