<svg width="76" height="100" fill="none" xmlns="http://www.w3.org/2000/svg"><path d="M14.358 72.806l23.407 12.72 25.445-13.83V86.17l-25.445 13.831-25.445-13.83V71.695l2.038 1.112zm22.755 15.49L15.081 76.317v8.221L37.765 96.87 60.46 84.538v-8.22l-22.694 12.34-.652-.362z" fill="#fff"/><path d="M2.614 60.875l21.996-11.96 2.02 2.028-20.488 11.14 31.627 17.193 31.627-17.192-20.489-11.141 2.02-2.02 24.219 13.16a49425.276 49425.276 0 00-37.377 20.315L.39 62.084l2.223-1.209z" fill="#fff"/><path d="M37.113 63.278a1.37 1.37 0 01-.556-1.861c.37-.662 1.2-.909 1.87-.547l17.965 9.773V94.39a2.63 2.63 0 011.27 2.25 2.641 2.641 0 11-5.283 0c0-.954.503-1.791 1.262-2.25V72.266l-16.528-8.988z" fill="#fff"/><path fill-rule="evenodd" clip-rule="evenodd" d="M20.723 7.032c-9.375 9.377-9.375 24.725 0 34.102l17.049 17.05 17.048-17.05c9.375-9.377 9.375-24.725 0-34.102-9.376-9.376-24.721-9.376-34.097 0zm7.788 7.79c-5.125 5.116-5.125 13.416 0 18.532 5.115 5.116 13.414 5.116 18.53 0 5.115-5.116 5.115-13.416 0-18.533-5.116-5.125-13.415-5.125-18.53 0z" fill="#fff"/></svg>