<svg width="39" height="39" fill="none" xmlns="http://www.w3.org/2000/svg"><g clip-path="url(#clip0_34_15211)" filter="url(#filter0_d_34_15211)"><path d="M21.04 32.111l-.683.513.683.513v.198c0 .778-.63 1.408-1.408 1.408h-4.263c-.777 0-1.408-.63-1.408-1.408v-.198l.684-.513-.684-.513v-2.298h7.08v2.298z" fill="#D8ECFE"/><path d="M17.397 34.744h-2.028c-.777 0-1.408-.63-1.408-1.408v-.198l.684-.513-.684-.513v-2.3h2.051v3.524c0 .77.618 1.396 1.385 1.408z" fill="#B3DAFE"/><path d="M19.271 20.946a1.77 1.77 0 01-1.77 1.77v5.833h-3.539v-1.72c0-.678-.387-1.3-1-1.59a10.62 10.62 0 01-6.08-9.602v-.012h3.54v.012a1.77 1.77 0 003.54 0v-.012h3.54v3.551c.978 0 1.77.793 1.77 1.77z" fill="#AEE69C"/><path d="M15.33 26.83v1.72h-1.368v-1.72a1.76 1.76 0 00-1-1.592 10.62 10.62 0 01-6.08-9.6v-.013H8.25v.012a10.62 10.62 0 006.08 9.601c.613.29 1 .913 1 1.591z" fill="#89DAA4"/><path d="M28.12 15.633v.012a10.62 10.62 0 01-6.076 9.6 1.762 1.762 0 00-1.004 1.593v1.72H17.5v-5.834a1.77 1.77 0 100-3.54v-3.55h3.54a1.77 1.77 0 013.54 0h3.54z" fill="#8AC9FE"/><path d="M28.119 15.63h-3.54a1.77 1.77 0 00-3.54 0H17.5v-3.527a1.77 1.77 0 110-3.54v-3.54c5.86 0 10.613 4.748 10.619 10.608z" fill="#FFB930"/><path d="M15.732 10.333c0 .977.792 1.77 1.77 1.77v3.528h-3.54v.011a1.77 1.77 0 01-3.54 0v-.011h-3.54a10.599 10.599 0 0110.62-10.608v3.54a1.77 1.77 0 00-1.77 1.77z" fill="#FE646F"/><path d="M17.502 5.023v.087A10.597 10.597 0 008.25 15.63H6.883A10.599 10.599 0 0117.502 5.024z" fill="#FD4755"/><path d="M13.96 32.117h7.08v1.026h-7.08v-1.026z" fill="#EAF6FF"/><path d="M13.96 32.117h2.052v1.026h-2.051v-1.026z" fill="#D8ECFE"/><path d="M17.497 3.4a.513.513 0 01-.513-.513V.763a.513.513 0 111.026 0v2.124c0 .283-.23.512-.513.512zm7.433 1.996a.513.513 0 01-.444-.77L25.55 2.79a.513.513 0 11.888.513L25.375 5.14a.512.512 0 01-.445.256zm5.443 5.434a.512.512 0 01-.257-.957l1.84-1.062a.513.513 0 11.512.888l-1.84 1.062a.512.512 0 01-.255.069zM2.787 26.76a.512.512 0 01-.257-.957l1.84-1.062a.513.513 0 11.512.888l-1.84 1.062a.51.51 0 01-.255.069zm7.28-21.364a.512.512 0 01-.444-.256L8.56 3.3a.513.513 0 11.888-.512l1.062 1.84a.513.513 0 01-.444.768zM4.625 10.83a.51.51 0 01-.256-.069L2.53 9.7a.513.513 0 01.514-.888l1.839 1.062a.513.513 0 01-.257.957zm27.586 15.93a.51.51 0 01-.256-.07l-1.84-1.061a.513.513 0 01.514-.888l1.839 1.062a.513.513 0 01-.257.957zm-29.574-8.5H.513a.513.513 0 010-1.026h2.124a.513.513 0 010 1.026zm31.851 0h-2.124a.513.513 0 010-1.026h2.124a.513.513 0 110 1.026z" fill="#FFB930"/><path d="M21.749 30.499h-8.496a1.062 1.062 0 010-2.124h8.496a1.062 1.062 0 110 2.124z" fill="#EAF6FF"/><path d="M15.301 30.499H13.25a1.062 1.062 0 110-2.124h2.051a1.06 1.06 0 00-1.062 1.062c0 .586.476 1.062 1.062 1.062z" fill="#D8ECFE"/></g><defs><clipPath id="clip0_34_15211"><path fill="#fff" d="M0 0h35v35H0z"/></clipPath><filter id="filter0_d_34_15211" x="0" y="0" width="39" height="39" filterUnits="userSpaceOnUse" color-interpolation-filters="sRGB"><feFlood flood-opacity="0" result="BackgroundImageFix"/><feColorMatrix in="SourceAlpha" values="0 0 0 0 0 0 0 0 0 0 0 0 0 0 0 0 0 0 127 0" result="hardAlpha"/><feOffset dx="4" dy="4"/><feComposite in2="hardAlpha" operator="out"/><feColorMatrix values="0 0 0 0 1 0 0 0 0 1 0 0 0 0 1 0 0 0 0.1 0"/><feBlend in2="BackgroundImageFix" result="effect1_dropShadow_34_15211"/><feBlend in="SourceGraphic" in2="effect1_dropShadow_34_15211" result="shape"/></filter></defs></svg>