<svg width="30" height="30" fill="none" xmlns="http://www.w3.org/2000/svg"><path d="M3.753 7.031c-1.63 0-2.475.853-2.883 1.668-.407.815-.401 1.616-.401 1.616v8.903s-.006.801.401 1.616c.408.815 1.259 1.668 2.883 1.668h4v-.938h-4c-1.186 0-1.746-.557-2.042-1.148a3.093 3.093 0 01-.305-1.198v-8.903s.01-.606.305-1.197c.296-.592.863-1.149 2.042-1.149h10.311c1.187 0 1.746.557 2.042 1.149.295.591.3 1.197.3 1.197v.938h.938v-.938s.006-.801-.4-1.616c-.408-.815-1.252-1.668-2.88-1.668H3.753z" fill="#00001B"/><path d="M8.914.46c-2.83 0-5.152 2.328-5.153 5.157l-.003 1.875h.938l.003-1.875c0-2.316 1.898-4.218 4.215-4.218 2.316 0 4.219 1.9 4.218 4.218v1.875h.937V5.617C14.07 2.787 11.743.46 8.914.46z" fill="#00001B"/><path d="M8.909 3.273c-1.368 0-2.342 1.034-2.343 2.346v1.876h.938V5.619c0-.857.608-1.408 1.405-1.408.79 0 1.409.552 1.408 1.408l-.003 1.876h.938l.003-1.876c0-1.312-.976-2.346-2.346-2.346zm5.154 7.508a.468.468 0 00-.46.377l-.18.893a8.397 8.397 0 00-2.222.934l-.775-.512a.47.47 0 00-.592.06l-1.99 1.989a.469.469 0 00-.058.588l.508.761a8.4 8.4 0 00-.92 2.24l-.903.179a.469.469 0 00-.377.46v2.81a.469.469 0 00.377.46l.893.177c.204.784.52 1.534.937 2.228l-.515.775a.469.469 0 00.059.592l1.99 1.986a.469.469 0 00.591.059l.758-.505a8.424 8.424 0 002.242.92l.176.9a.469.469 0 00.46.377h2.814a.468.468 0 00.46-.377l.177-.89a8.405 8.405 0 002.26-.916l.74.49a.469.469 0 00.591-.058l1.99-1.986a.469.469 0 00.059-.592l-.495-.744a8.403 8.403 0 00.92-2.26l.89-.176a.47.47 0 00.377-.46v-2.81a.469.469 0 00-.377-.46l-.872-.173a8.407 8.407 0 00-.948-2.246l.505-.761a.468.468 0 00-.059-.588l-1.99-1.99a.47.47 0 00-.591-.059l-.751.502a8.405 8.405 0 00-2.25-.924l-.176-.893a.468.468 0 00-.46-.377h-2.813zm.384.938h2.045l.152.754a.468.468 0 00.363.367c.911.188 1.78.546 2.561 1.052a.468.468 0 00.512-.003l.633-.423 1.447 1.447-.43.64a.468.468 0 000 .519 7.49 7.49 0 011.08 2.554.468.468 0 00.367.36l.73.148v2.042l-.75.152a.469.469 0 00-.367.367 7.496 7.496 0 01-1.049 2.57.47.47 0 00.004.513l.415.62-1.447 1.446-.619-.412a.468.468 0 00-.516-.003 7.493 7.493 0 01-2.57 1.045.469.469 0 00-.367.37l-.15.747h-2.044l-.152-.758a.469.469 0 00-.364-.366 7.5 7.5 0 01-2.55-1.052.469.469 0 00-.516.003l-.64.426-1.446-1.447.436-.654a.469.469 0 00.003-.519 7.49 7.49 0 01-1.069-2.536.47.47 0 00-.367-.36l-.75-.152v-2.042l.76-.152a.469.469 0 00.368-.363 7.5 7.5 0 011.051-2.55.469.469 0 00-.003-.516l-.43-.64 1.447-1.447.654.436a.469.469 0 00.52 0 7.507 7.507 0 012.54-1.069.47.47 0 00.359-.367l.149-.747z" fill="#00001B"/><path d="M15.469 14.063a6.1 6.1 0 00-6.094 6.093 6.1 6.1 0 006.094 6.094 6.1 6.1 0 006.093-6.094 6.1 6.1 0 00-6.094-6.093zm0 .937a5.151 5.151 0 015.159 5.156 5.151 5.151 0 01-5.16 5.156 5.148 5.148 0 01-5.155-5.156A5.148 5.148 0 0115.468 15z" fill="#00001B"/><path d="M15.468 15.938a2.349 2.349 0 00-2.343 2.342 2.352 2.352 0 002.343 2.346 2.355 2.355 0 002.346-2.346 2.352 2.352 0 00-2.346-2.343zm0 .937a1.4 1.4 0 011.408 1.405c0 .782-.626 1.408-1.408 1.408a1.4 1.4 0 01-1.405-1.408c0-.782.622-1.405 1.405-1.405zm-.002 4.219a3.756 3.756 0 00-3.747 3.616l.938.034a2.806 2.806 0 012.81-2.712c1.52 0 2.76 1.193 2.812 2.712l.935-.03a3.757 3.757 0 00-3.748-3.62z" fill="#00001B"/></svg>