<svg width="30" height="30" fill="none" xmlns="http://www.w3.org/2000/svg"><path d="M4.757 23.169a.19.19 0 01-.012-.268c.274-.297.582-.568.917-.804a.19.19 0 01.219.31 5.389 5.389 0 00-.856.75.19.19 0 01-.268.012zm1.698-1.337a.19.19 0 01.07-.26c.156-.09.31-.176.465-.26a.19.19 0 01.182.333c-.152.083-.304.167-.458.256a.19.19 0 01-.259-.07zm20.15.392a.19.19 0 10-.315.212c.105.157.193.296.267.428a.19.19 0 10.33-.187 6.838 6.838 0 00-.282-.453zm1.083 4.309a.19.19 0 00.189-.191c-.004-.319-.013-.92-.015-.935a8.01 8.01 0 00-.529-1.822.19.19 0 10-.35.148c.235.553.404 1.132.502 1.721-.009-.011.005.582.014.896a.189.189 0 00.189.183z" fill="#00001B"/><path d="M26.665 25.6a6.872 6.872 0 00-3.217-4.743c-2.268-1.381-4.667-2.312-5.22-2.52V16.89c1.211-1.086 1.98-2.681 2.019-4.465a1.503 1.503 0 00.7-2.838c.045-.288.1-.569.153-.844.23-1.168.469-2.376-.281-3.934-.2-.535-.534-.805-1.02-.827-.082-.004-.15-.079-.172-.185-.323-1.633-1.396-2.82-3.191-3.53-.006-.002-.012-.005-.02-.006-1.483-.4-2.944-.115-4.594.89-.685.397-1.732.649-3.196.772-.14.03-.64-.096-.98.43a1.173 1.173 0 00-.097 1.066c.172.428.374.856.649 1.272-.037.137-.676 1.481-.605 3.558l.052 1.464a1.501 1.501 0 00.898 2.712c.023.11-.136 2.603 2.02 4.493v1.42c-.549.207-2.95 1.137-5.219 2.52A6.87 6.87 0 002.128 25.6c-.006.028-.001-.162-.003 3.2 0 .613.498 1.11 1.11 1.11h22.322a1.11 1.11 0 001.11-1.11c0-3.39.003-3.172-.002-3.2zM20.25 9.893c.118.034.444.099.557.049a1.123 1.123 0 01-.557 2.102v-2.15zm-11.706 2.15a1.125 1.125 0 01-.581-2.09 1.7 1.7 0 00.58-.14v2.23zm.38.407V9.59c.383-.293.667-.74.769-1.266l.367-1.921c.385.221.827.426 1.342.608 2.337.803 4.815.832 7.368.084.026-.008.052.04.055.079l.121 1.176c.062.607.422 1.115.924 1.388v2.55c0 3.052-2.288 5.547-5.209 5.682-3.132.15-5.738-2.358-5.738-5.52zm3.418 9.771a.27.27 0 01-.43-.14l-.849-3.188 3.01 1.937-1.73 1.392zm2.379-1.391l3.008-1.938-.848 3.188a.27.27 0 01-.431.142l-1.73-1.392zm-.325-.243l-3.453-2.224v-1.142a5.766 5.766 0 003.735 1.129 5.663 5.663 0 003.17-1.15v1.163l-3.452 2.224zM3.235 29.53a.732.732 0 01-.73-.731v-3.154a6.492 6.492 0 013.037-4.465c2.161-1.317 4.439-2.216 5.082-2.46l.92 3.459a.65.65 0 001.037.34l.229-.186.426.717a.46.46 0 01.063.291l-.671 6.19H3.235zm23.052-.731a.732.732 0 01-.73.731h-9.393l-.67-6.189a.48.48 0 01.062-.293l.428-.715.229.186a.65.65 0 001.035-.34l.92-3.46c.646.245 2.922 1.145 5.082 2.46a6.492 6.492 0 013.037 4.466v3.154z" fill="#00001B"/><path d="M6.492 4.045a.19.19 0 01.349-.148c.127.302.253.564.384.8a.187.187 0 01-.075.257.187.187 0 01-.256-.074 8.637 8.637 0 01-.402-.835zm-.059-1.148a.19.19 0 00.21-.166c.091-.773.647-1.473 1.446-1.612a.19.19 0 10-.065-.374c-.964.168-1.647 1-1.757 1.942a.19.19 0 00.166.21z" fill="#00001B"/></svg>