<svg width="53" height="53" fill="none" xmlns="http://www.w3.org/2000/svg"><g filter="url(#filter0_d_34_14963)" fill="#00001B"><path d="M18.125 7.498a10.577 10.577 0 00-5.42 1.488.625.625 0 00.64 1.073A9.298 9.298 0 0117.5 8.79v3.084a.625.625 0 00.625.625h1.25a.625.625 0 110 1.25h-1.25a.623.623 0 00-.625.625v3.125H15v-.625a1.875 1.875 0 10-3.75 0v.625l-2.458.002a9.298 9.298 0 011.27-4.157.625.625 0 00-1.073-.64A10.609 10.609 0 0012.5 27.125v.997a.625.625 0 00.625.625h.625V30h-.625a.625.625 0 100 1.25h.625v1.875a.625.625 0 00.625.625h.688a3.125 3.125 0 006.124 0h.688a.626.626 0 00.625-.625V31.25h.625a.625.625 0 000-1.25H22.5v-1.252h.625a.626.626 0 00.625-.625v-.997a10.618 10.618 0 00-5.625-19.628zm0 27.502a1.879 1.879 0 01-1.768-1.25h3.536A1.878 1.878 0 0118.125 35zm3.125-2.5H15v-1.25h6.25v1.25zM15 30v-1.25h6.25V30H15zm3.75-15.002h.625a1.875 1.875 0 000-3.75h-.625V8.779a9.373 9.373 0 018.718 8.72l-3.092-.001a.626.626 0 00-.626.625v1.25a.625.625 0 11-1.25 0v-1.25a.625.625 0 00-.625-.625H18.75v-2.5zM8.792 18.75l3.084-.002a.625.625 0 00.624-.625v-1.25a.625.625 0 011.25 0v1.25a.625.625 0 00.625.625H17.5v2.5h-.625a1.875 1.875 0 100 3.75h.625v2.5h-3.75v-.725a.624.624 0 00-.313-.542 9.381 9.381 0 01-4.645-7.481zm14.02 7.481a.626.626 0 00-.312.542v.725h-3.75v-3.125a.625.625 0 00-.625-.625h-1.25a.625.625 0 010-1.25h1.25a.626.626 0 00.625-.625v-3.125h2.5v.625a1.875 1.875 0 003.75 0v-.625l2.458.002a9.38 9.38 0 01-4.645 7.481zM5 18.123a.625.625 0 00-.625-.625H.625a.625.625 0 100 1.25h3.75A.625.625 0 005 18.123zm1.529-7.417L3.281 8.831a.625.625 0 00-.625 1.083l3.248 1.875a.625.625 0 00.625-1.083zm4.18-4.179a.626.626 0 001.082-.625L9.916 2.654a.625.625 0 10-1.082.625l1.875 3.248zm7.416-1.529a.624.624 0 00.625-.625V.623a.625.625 0 10-1.25 0v3.75a.625.625 0 00.625.625zm6.563 1.758a.626.626 0 00.854-.23l1.874-3.247a.625.625 0 10-1.082-.625l-1.875 3.248a.626.626 0 00.229.854zm5.344 5.117c.11 0 .217-.029.312-.084l3.248-1.875a.625.625 0 10-.625-1.083l-3.248 1.875a.625.625 0 00.313 1.167zm5.593 5.625h-3.75a.625.625 0 100 1.25h3.75a.625.625 0 000-1.25zm-2.033 8.833l-3.248-1.875a.626.626 0 00-.625 1.083l3.248 1.875a.625.625 0 00.625-1.083zM5.904 24.456l-3.248 1.875a.625.625 0 00.625 1.083L6.53 25.54a.626.626 0 00-.625-1.083z"/><path d="M10.613 10.61a.625.625 0 10.883.884.625.625 0 00-.883-.883z"/></g><defs><filter id="filter0_d_34_14963" x="0" y="-.002" width="52.25" height="52.253" filterUnits="userSpaceOnUse" color-interpolation-filters="sRGB"><feFlood flood-opacity="0" result="BackgroundImageFix"/><feColorMatrix in="SourceAlpha" values="0 0 0 0 0 0 0 0 0 0 0 0 0 0 0 0 0 0 127 0" result="hardAlpha"/><feOffset dx="16" dy="16"/><feComposite in2="hardAlpha" operator="out"/><feColorMatrix values="0 0 0 0 0 0 0 0 0 0 0 0 0 0 0 0 0 0 0.25 0"/><feBlend in2="BackgroundImageFix" result="effect1_dropShadow_34_14963"/><feBlend in="SourceGraphic" in2="effect1_dropShadow_34_14963" result="shape"/></filter></defs></svg>