<svg width="172" height="173" fill="none" xmlns="http://www.w3.org/2000/svg"><g opacity=".53" clip-path="url(#clip0_34_15810)"><path d="M129.849 69.68a14.818 14.818 0 10-25.996-14.227 14.822 14.822 0 0011.02 21.526 25.008 25.008 0 00-4.875 6.98 35.128 35.128 0 00-15.015-.725 20.36 20.36 0 10-17.772 8.662 35.131 35.131 0 00-8.68 12.273 25.007 25.007 0 00-8.502-.462 14.829 14.829 0 10-26.01-14.241 14.83 14.83 0 0011.034 21.54 25.209 25.209 0 00-4.75 28.691 2 2 0 103.595-1.752 21.17 21.17 0 0123.266-29.984 35 35 0 002.1 25.353 2 2 0 103.595-1.752 31.17 31.17 0 0156.03-27.307 2.002 2.002 0 003.689-.225 2.001 2.001 0 00-.093-1.528 35 35 0 00-18.676-17.274 21.174 21.174 0 0119.025-11.721 21.17 21.17 0 0118.935 11.865 2.003 2.003 0 002.674.922 2 2 0 00.922-2.674 25.208 25.208 0 00-25.516-13.94zm-92.427 31.374a10.833 10.833 0 017.012-15.197 10.83 10.83 0 017.48 20.214 10.839 10.839 0 01-14.492-5.017zm26.157-22.338a16.36 16.36 0 1121.892 7.575 16.38 16.38 0 01-21.874-7.54l-.018-.035zm43.653-11.686a10.829 10.829 0 0113.264-14.983 10.831 10.831 0 011.216 19.974 10.84 10.84 0 01-14.48-4.99z" fill="#EBECED"/></g><defs><clipPath id="clip0_34_15810"><path fill="#fff" transform="rotate(-25.983 123.529 28.5)" d="M0 0h128v128H0z"/></clipPath></defs></svg>