<svg width="128" height="128" fill="none" xmlns="http://www.w3.org/2000/svg"><g opacity=".53" clip-path="url(#clip0_34_15812)" fill="#EBECED"><path d="M63.776 16.265a2.518 2.518 0 002.517-2.518V2.517a2.518 2.518 0 10-5.035 0v11.23a2.518 2.518 0 002.518 2.518zm61.543 70.232l-4.448-4.435a8.345 8.345 0 00-5.938-2.451 8.377 8.377 0 00-4.038 1.027l-8.381-8.371.408-.408c3.4-3.407 3.399-8.943 0-12.339a8.645 8.645 0 00-4.383-2.37 8.792 8.792 0 00.347-2.45 8.648 8.648 0 00-2.553-6.169 8.644 8.644 0 00-4.383-2.37 8.791 8.791 0 00.348-2.45 8.649 8.649 0 00-2.556-6.171 8.683 8.683 0 00-4.38-2.364 8.753 8.753 0 00-2.204-8.628 8.74 8.74 0 00-7.108-2.492l-16.608-3.144c-2.533-.48-5.697-.798-7.693 1.023a4.54 4.54 0 00-.381.395c-3.096-1.129-6.707-.457-9.187 2.02a8.662 8.662 0 00-2.55 6.172c0 .842.119 1.664.346 2.45a8.63 8.63 0 00-4.375 2.364 8.65 8.65 0 00-2.558 6.166 8.78 8.78 0 00.347 2.456 8.649 8.649 0 00-4.38 2.363 8.67 8.67 0 00-2.556 6.175 8.67 8.67 0 001.524 4.935 8.677 8.677 0 00-3.353 2.087c-3.403 3.398-3.404 8.934.002 12.346l.407.405-8.383 8.367c-3.115-1.466-6.953-.917-9.524 1.65l-4.45 4.439a8.335 8.335 0 00-2.455 5.938c0 2.249.871 4.358 2.454 5.939l5.555 5.547a2.517 2.517 0 103.558-3.562L6.236 95.04a3.333 3.333 0 01-.978-2.377c0-.902.347-1.746.976-2.374l4.451-4.438a3.371 3.371 0 014.107-.504 2.507 2.507 0 001.04.89l25.523 25.487a2.49 2.49 0 001.214 1.226c.54.61.838 1.39.838 2.221a3.33 3.33 0 01-.978 2.376l-4.446 4.441a3.382 3.382 0 01-4.76.004l-5.555-5.554a2.517 2.517 0 10-3.56 3.56l5.558 5.559A8.383 8.383 0 0035.6 128c2.15 0 4.3-.815 5.939-2.446l4.449-4.444a8.334 8.334 0 002.455-5.939 8.35 8.35 0 00-1.276-4.458l9.434-9.423.03-.031c1.08-1.116 4.088-.907 6.998-.705 2.067.143 4.371.303 6.623.044l10.33 10.318a8.362 8.362 0 00-1.026 4.033 8.33 8.33 0 002.455 5.935l4.45 4.444a8.344 8.344 0 005.937 2.45c2.247 0 4.355-.87 5.938-2.45l26.985-26.953a8.334 8.334 0 002.455-5.938 8.338 8.338 0 00-2.457-5.94zM58.504 25.859l10.922 2.068-6.537 6.535c-1.012-.487-2.398-1.393-3.918-2.848-2.081-1.99-3.57-4.29-3.706-5.723v-.003a2.224 2.224 0 01-.011-.248c.33-.08 1.204-.169 3.25.22zM45.74 27.912a3.714 3.714 0 014.698-.445c.817 3.425 3.738 6.528 5.052 7.786.974.932 4.1 3.726 7.254 4.494a3.67 3.67 0 01.659 2.11c0 .992-.381 1.919-1.076 2.612a3.665 3.665 0 01-2.614 1.076 3.668 3.668 0 01-2.618-1.079l-.001-.001L45.739 33.13a3.66 3.66 0 01-1.073-2.61c0-.99.381-1.917 1.074-2.609zM39.16 38.9a3.662 3.662 0 012.612-1.076 3.68 3.68 0 012.62 1.08l9.143 9.124a3.705 3.705 0 01.005 5.226 3.69 3.69 0 01-2.622 1.075 3.687 3.687 0 01-2.62-1.072L41.36 46.32l-.033-.032-2.17-2.169a3.665 3.665 0 01-1.079-2.614 3.653 3.653 0 011.082-2.607zm-6.59 10.984a3.675 3.675 0 012.616-1.073c.986 0 1.908.376 2.598 1.056l6.957 6.954a3.651 3.651 0 011.076 2.607 3.671 3.671 0 01-3.693 3.682 3.687 3.687 0 01-2.619-1.073l-2.522-2.519-.002-.002-4.412-4.406a3.666 3.666 0 01-1.078-2.613c0-.99.383-1.918 1.078-2.613zM28.183 63.08a3.68 3.68 0 012.62-1.078 3.68 3.68 0 012.62 1.077l2.525 2.523a3.65 3.65 0 011.076 2.607c0 .99-.382 1.915-1.081 2.612a3.666 3.666 0 01-2.614 1.076 3.669 3.669 0 01-2.62-1.081l-.316-.315-.011-.013-.015-.013-2.181-2.173a3.697 3.697 0 01-.003-5.222zm51.309 28.615a2.518 2.518 0 00-3.56-.003l-2.24 2.238c-2.13 2.128-5.986 1.86-9.716 1.601-4.05-.281-8.238-.572-10.949 2.21l-9.273 9.263-23.191-23.157 8.207-8.192a8.69 8.69 0 004.56 1.278c2.34 0 4.533-.908 6.172-2.55a8.652 8.652 0 002.558-6.174l-.001-.065.065.001a8.672 8.672 0 006.17-2.543 8.653 8.653 0 002.558-6.175l-.001-.065.066.002a8.698 8.698 0 008.728-8.784l.068.001c2.34 0 4.533-.907 6.175-2.551a8.662 8.662 0 002.55-6.172 8.684 8.684 0 00-1.273-4.552l7.193-7.19a3.693 3.693 0 011.89-1.007c.075-.008.15-.02.222-.035a3.704 3.704 0 013.13 1.037 3.706 3.706 0 01.004 5.226l-2.19 2.181-.023.021-2.523 2.52a2.517 2.517 0 103.558 3.562l2.2-2.197.001-.001.333-.331a3.708 3.708 0 015.225.013 3.65 3.65 0 011.076 2.606c0 .99-.382 1.916-1.082 2.612l-2.203 2.208v.001l-2.524 2.513a2.517 2.517 0 103.554 3.567l2.534-2.524a3.665 3.665 0 012.614-1.076 3.67 3.67 0 012.62 1.081A3.651 3.651 0 0193.85 54.7a3.65 3.65 0 01-1.08 2.61l-4.393 4.395a2.518 2.518 0 103.561 3.56l2.153-2.154.038-.034a3.665 3.665 0 012.614-1.076c.993 0 1.921.382 2.616 1.079a3.697 3.697 0 010 5.218l-2.188 2.186-.003.003-.002.002-3.474 3.47a2.518 2.518 0 003.558 3.563l1.7-1.697 8.144 8.135-23.189 23.16-8.308-8.299a9.898 9.898 0 001.653-1.33l2.24-2.236a2.517 2.517 0 00.002-3.56zm42.269 3.118l-26.985 26.952a3.344 3.344 0 01-2.38.978 3.345 3.345 0 01-2.379-.978l-4.45-4.444a3.328 3.328 0 01-.977-2.372c0-.9.347-1.743.978-2.373l26.985-26.952a3.342 3.342 0 012.38-.978 3.34 3.34 0 012.381.98l4.447 4.435a3.33 3.33 0 01.978 2.375 3.33 3.33 0 01-.978 2.376zM30.343 14.144a2.51 2.51 0 001.779.735 2.518 2.518 0 001.779-4.3l-9.175-9.156a2.517 2.517 0 10-3.557 3.564l9.174 9.157zm65.089.736a2.51 2.51 0 001.779-.737l9.168-9.157a2.519 2.519 0 00-3.559-3.562l-9.167 9.156a2.518 2.518 0 001.779 4.3z"/><path d="M15.707 108.3a2.517 2.517 0 00.03 3.56l.007.007a2.515 2.515 0 003.557-.034 2.522 2.522 0 00-.034-3.564 2.517 2.517 0 00-3.56.031zM85.65 88.069a2.52 2.52 0 002.25-3.653 2.518 2.518 0 00-3.382-1.114l-.014.006a2.511 2.511 0 00-1.107 3.379 2.518 2.518 0 002.252 1.382z"/></g><defs><clipPath id="clip0_34_15812"><path fill="#fff" d="M0 0h128v128H0z"/></clipPath></defs></svg>