<svg width="60" height="60" fill="none" xmlns="http://www.w3.org/2000/svg"><g opacity=".8" fill="#EBECED"><path d="M55.856 23.828a3.76 3.76 0 00-2.823-2.513l-13.17-2.657-6.595-11.701A3.754 3.754 0 0030 5.047a3.754 3.754 0 00-3.266 1.909l-6.597 11.702-13.171 2.658a3.762 3.762 0 00-2.823 2.52 3.76 3.76 0 00.807 3.694l9.091 9.89L12.5 50.77a3.76 3.76 0 001.523 3.461c1.067.774 2.55.925 3.763.376L30 49.014l12.22 5.594a3.75 3.75 0 001.36.332l.225.006.064-.001c2.022-.045 3.666-1.727 3.666-3.75 0-.23-.022-.464-.065-.693L45.96 37.42l9.094-9.893a3.762 3.762 0 00.803-3.699zm-1.838 2.747l-9.53 10.367 1.59 13.747.008.053a2.356 2.356 0 01-2.243 2.796l-.049.001-.154-.004a2.32 2.32 0 01-.836-.207L30 47.468l-12.798 5.858a2.405 2.405 0 01-2.354-.233 2.352 2.352 0 01-.952-2.164l1.616-13.987-9.527-10.364a2.35 2.35 0 01-.505-2.308 2.355 2.355 0 011.765-1.576l13.801-2.784L27.96 7.646A2.346 2.346 0 0130 6.453c.845 0 1.628.458 2.042 1.194l6.913 12.263 13.799 2.783a2.35 2.35 0 011.764 1.57 2.35 2.35 0 01-.5 2.312z"/><path d="M30 11.656l-6.53 11.585-13.036 2.631 9 9.791-1.526 13.212L30 43.34l12.092 5.534-1.526-13.21 9-9.792-13.036-2.63L30 11.655z"/></g></svg>