<svg width="87" height="113" fill="none" xmlns="http://www.w3.org/2000/svg"><path d="M25.691 111.917s-32.72-18.064-23.302-29.21c8.819-10.436 33.476 10.165 33.476 10.165S5.831 76.996 14.506 67.298c8.088-9.042 29.353 10.168 29.353 10.168S16.91 60.708 25.775 52.617c8.291-7.567 25.838 12.596 25.838 12.596S29.115 45.82 38.378 39.149C46.594 33.23 54.642 57.462 61.79 50.29c7.367-7.393-21.235-15.306-13.96-22.79 7.144-7.35 15.047 16.847 23.533 11.627 8.486-5.22-18.697-16.847-11.05-23.52 7.493-6.538 13.157 16.617 22.2 12.477 11.12-5.09-10.926-18.222-16.025-26.91" stroke="#6440FB"/></svg>