<svg width="36" height="37" fill="none" xmlns="http://www.w3.org/2000/svg"><g clip-path="url(#clip0_34_2899)" fill="#000"><path d="M18 36.012a17.258 17.258 0 01-9.584-2.905A17.23 17.23 0 015.802 6.583a17.253 17.253 0 0118.8-3.737 17.232 17.232 0 015.596 28.117A17.255 17.255 0 0118 36.012zm0-32.98A15.757 15.757 0 003.449 12.75a15.731 15.731 0 003.414 17.154 15.754 15.754 0 0024.233-2.386 15.733 15.733 0 00-1.96-19.874A15.755 15.755 0 0018 3.033z"/><path d="M22.33 27.018h-8.656a.751.751 0 01-.652-.375l-4.328-7.495a.749.749 0 010-.75l4.328-7.495a.75.75 0 01.652-.375h8.655a.75.75 0 01.653.375l4.327 7.495a.749.749 0 010 .75l-4.327 7.495a.749.749 0 01-.653.375zm-8.25-1.5h7.822l3.892-6.745-3.892-6.746h-7.8l-3.893 6.746 3.87 6.745z"/><path d="M13.5 12.03a.752.752 0 01-.533-.217l-5.25-5.247a.752.752 0 111.065-1.064l5.25 5.246a.749.749 0 01-.533 1.282zm9 0a.752.752 0 01-.696-1.038.749.749 0 01.164-.244l5.25-5.246a.754.754 0 011.065 1.064l-5.25 5.247a.748.748 0 01-.533.217zM8.25 32.267a.75.75 0 01-.532-1.281l5.25-5.247a.753.753 0 011.065 1.064l-5.25 5.247a.75.75 0 01-.533.217zm19.5 0a.75.75 0 01-.533-.217l-5.25-5.247a.752.752 0 111.065-1.064l5.25 5.247a.749.749 0 01-.533 1.281zm6.75-12.744H27a.75.75 0 010-1.5h7.5a.75.75 0 110 1.5zm-25.5 0H1.5a.75.75 0 010-1.5H9a.75.75 0 110 1.5z"/></g><defs><clipPath id="clip0_34_2899"><path fill="#fff" transform="translate(0 .784)" d="M0 0h36v35.977H0z"/></clipPath></defs></svg>