<svg width="188" height="189" fill="none" xmlns="http://www.w3.org/2000/svg"><g opacity=".8" clip-path="url(#clip0_34_2712)"><path d="M123.588 19.31c-8.001 4.013-14.613 10.057-19.652 17.965-3.992 6.266-7.003 13.702-8.948 22.103-2.092 9.031-2.498 17.142-2.506 21.99a6.896 6.896 0 00-2.351-.243c-2.056-9.707.416-17.464.443-17.547a2.19 2.19 0 00-4.162-1.375c-.107.32-2.063 6.37-1.333 14.733-6.272-5.583-12.295-7.631-12.616-7.738a2.19 2.19 0 10-1.38 4.159c.082.027 7.748 2.635 14.338 10.13a6.883 6.883 0 00-1.21 2.026c-3.895-2.89-10.644-7.413-19.137-11.134-7.903-3.462-15.668-5.494-23.08-6.04-9.356-.688-18.157.997-26.157 5.01-5.44 2.728-7.145 7.431-4.56 12.58 1.24 2.47 3.728 5.11 7.392 7.849 5.734 4.285 9.443 10.261 12.716 15.534 3.783 6.095 7.05 11.359 12.419 12.021 1.686.209 4.659-.121 11.732-3.668l.595-.302c-2.325 4.335-4.293 9.877-3.14 15.03 2.084 9.308 13.119 14.606 15.863 15.792 4.28 5.544 9.532 6.564 11.617 6.745 4.577 3.529 9.53 1.784 12.068-.004 1.185-.082 2.437-.358 3.643-.963 2.665-1.337 5.105-4.278 6.094-10.262.465-2.814 1.371-3.816 2.421-4.976 1.088-1.204 2.443-2.701 2.925-5.784.406-2.592.135-7.525-.768-12.647 3.57 3.785 7.365 6.95 9.687 8.174 2.761 1.456 4.773 1.266 6.389 1.113 1.558-.148 2.903-.275 5.439 1.034 5.391 2.784 9.209 2.588 11.874 1.251 1.206-.605 2.176-1.443 2.95-2.344 2.951-.964 7.312-3.89 7.216-9.667 1.1-1.778 3.421-6.596 1.532-13.339.688-2.907 3.033-14.915-3.189-22.148-3.445-4.004-9.068-5.74-13.934-6.467l.597-.296c7.072-3.547 9.114-5.733 9.955-7.208 2.677-4.697.407-10.462-2.222-17.136-2.274-5.773-4.852-12.318-4.863-19.472-.006-4.573-.638-8.144-1.878-10.613-2.588-5.149-7.379-6.594-12.819-3.865zM19.073 88.479c-1.865-1.63-3.212-3.189-3.877-4.513-1.007-2.006-1.62-4.58 2.607-6.7a43.923 43.923 0 015.306-2.236 16.777 16.777 0 00-2.433 3.823c-1.478 3.21-1.829 6.63-1.603 9.626zm25.268 28.507c-3.286-.406-6.04-4.844-9.23-9.983-2.7-4.35-5.94-9.568-10.521-13.939-.975-2.13-2.133-7.598.07-12.38 1.821-3.956 5.564-6.666 11.121-8.057a49.501 49.501 0 015.826.08c6.901.499 14.168 2.397 21.6 5.64 8.99 3.923 16.065 8.9 19.505 11.537-14.348-.483-30.265-2.947-30.442-2.974a2.191 2.191 0 10-.677 4.329c.188.029 17.898 2.772 33.044 3.08-3.397 2.378-9.683 6.702-16.38 10.929-18.062 11.402-22.872 11.867-23.916 11.738zm53.57 26.231c-.371 2.22-1.383 7.349-6.154 7.356a2.151 2.151 0 00-1.403.511c-.406.334-4.068 3.181-7.596.055a2.144 2.144 0 00-1.506-.55c-.212.003-5.243.011-9.228-5.481a2.195 2.195 0 00-.978-.755c-.03-.012-3.05-1.201-6.315-3.471-2.889-2.008-6.528-5.276-7.462-9.445-.932-4.162 1.074-9.02 2.92-12.361a43.506 43.506 0 014.361-6.41 270.319 270.319 0 006.063-3.724c7.153-4.516 13.84-9.139 17.11-11.435l.943 1.879c7.64 15.822 9.112 41.206 9.246 43.831zm1.369-33.115c3.294 6.56 4.589 18.464 4.01 22.164-.252 1.613-.783 2.332-1.575 3.221-.806-8.142-2.65-21.235-6.705-32.3.254-.007.51-.029.765-.065l3.505 6.98zm-3.35-11.557a2.488 2.488 0 01-3.335-1.105l-4.18-8.324-.008-.015-.007-.015a2.485 2.485 0 011.1-3.33l.004-.002h.002l.002-.002a2.488 2.488 0 013.333 1.106l4.195 8.355a2.485 2.485 0 01-1.107 3.332zm22.656 26.05c-3.314-1.748-12.09-9.9-15.384-16.46l-3.506-6.981c.181-.183.351-.375.509-.575 6.454 9.863 15.857 19.166 21.906 24.679-1.186.103-2.08.099-3.525-.663zm26.84-37.37c5.439 6.324 2.161 18.637 2.128 18.758a2.19 2.19 0 00.021 1.235c2.025 6.475-.989 10.501-1.106 10.654-.35.438-.518.993-.47 1.551.398 4.695-4.074 5.928-4.571 6.05a2.194 2.194 0 00-1.263.823c-2.856 3.817-7.576 1.563-9.579.535-2.026-1.675-21.52-18.033-29.644-33.614-.008-.016-.018-.03-.027-.045l-.914-1.822c3.794-1.247 11.502-3.843 19.403-6.876 2.43-.933 4.624-1.809 6.617-2.635 4.147-.267 14.944.201 19.405 5.387zm-6.36-32.358c2.217 5.628 4.131 10.488 2.493 13.363-.521.913-3.769 4.489-23.71 12.147-7.394 2.84-14.62 5.291-18.557 6.593 8.804-12.32 17.188-28.15 17.277-28.318a2.192 2.192 0 00-3.877-2.044c-.084.157-7.62 14.384-15.808 26.169-.059-4.333.176-12.976 2.401-22.524 1.84-7.893 4.661-14.85 8.384-20.678a49.558 49.558 0 013.419-4.715c4.437-3.622 8.848-5 13.111-4.096 5.153 1.093 8.847 5.29 9.974 7.343.768 6.284 3.018 11.998 4.893 16.76zm-5.275-23.92c-2.268-1.972-5.222-3.735-8.681-4.47a16.807 16.807 0 00-4.521-.335 43.99 43.99 0 014.965-2.915c2.221-1.113 5.016-1.902 6.933 1.916.665 1.324 1.111 3.335 1.304 5.804z" fill="#8E56FF"/></g><defs><clipPath id="clip0_34_2712"><path fill="#fff" transform="rotate(-26.634 134.075 31.736) skewX(.029)" d="M0 0h139.982v139.93H0z"/></clipPath></defs></svg>