<svg width="174" height="174" fill="none" xmlns="http://www.w3.org/2000/svg"><path opacity=".49" d="M172.9 86.916c0-1.13-.022-2.256-.065-3.376l-.9.035a85.237 85.237 0 00-.517-6.653l.894-.105a85.77 85.77 0 00-1.048-6.66l-.883.175a84.67 84.67 0 00-1.554-6.49l.866-.245a84.804 84.804 0 00-2.084-6.411l-.844.312a84.283 84.283 0 00-2.559-6.164l.817-.378a85.803 85.803 0 00-3.068-6.005l-.785.44a84.829 84.829 0 00-3.494-5.683l.748-.501a85.861 85.861 0 00-3.971-5.451l-.706.558a85.206 85.206 0 00-4.338-5.07l.66-.611a86.11 86.11 0 00-4.77-4.766l-.611.66a85.125 85.125 0 00-5.074-4.333l.558-.706a86.17 86.17 0 00-5.455-3.966l-.5.748a85.15 85.15 0 00-5.687-3.49l.44-.784a85.589 85.589 0 00-6.007-3.064l-.377.817a84.562 84.562 0 00-6.166-2.554l.311-.845a85.339 85.339 0 00-6.412-2.08l-.244.866a84.492 84.492 0 00-6.491-1.551l.174-.883a85.746 85.746 0 00-6.66-1.046l-.104.894a85.663 85.663 0 00-6.653-.517l.035-.899a87.453 87.453 0 00-6.752 0l.035.9c-2.24.086-4.46.26-6.653.516l-.104-.894a85.777 85.777 0 00-6.66 1.046l.174.883c-2.195.434-4.36.952-6.491 1.551l-.244-.866a85.279 85.279 0 00-6.412 2.08l.311.845a84.463 84.463 0 00-6.166 2.554l-.377-.817a85.589 85.589 0 00-6.007 3.064l.44.785a85.078 85.078 0 00-5.687 3.489l-.5-.748a86.144 86.144 0 00-5.455 3.966l.557.706a85.466 85.466 0 00-5.073 4.334l-.611-.661a86.428 86.428 0 00-4.77 4.766l.66.611a85.396 85.396 0 00-4.338 5.07l-.706-.558a86.172 86.172 0 00-3.97 5.45l.747.502a84.993 84.993 0 00-3.494 5.684l-.785-.44a85.588 85.588 0 00-3.068 6.004l.817.377a84.363 84.363 0 00-2.559 6.165l-.844-.312a85.138 85.138 0 00-2.084 6.411l.866.245c-.6 2.13-1.12 4.295-1.554 6.49l-.883-.175a85.624 85.624 0 00-1.048 6.66l.894.105a85.51 85.51 0 00-.517 6.653l-.9-.035a87.297 87.297 0 000 6.751l.9-.034a85.5 85.5 0 00.517 6.652l-.894.105a85.607 85.607 0 001.048 6.66l.883-.175c.435 2.195.954 4.36 1.554 6.491l-.866.244a85.22 85.22 0 002.084 6.411l.844-.312a84.472 84.472 0 002.559 6.165l-.817.377a85.347 85.347 0 003.068 6.005l.785-.441a84.809 84.809 0 003.494 5.684l-.748.501a85.832 85.832 0 003.97 5.451l.707-.558a85.368 85.368 0 004.338 5.07l-.66.612a86.411 86.411 0 004.77 4.765l.61-.661a85.624 85.624 0 005.075 4.334l-.558.706a86.227 86.227 0 005.454 3.966l.5-.748a84.828 84.828 0 005.688 3.489l-.44.785a85.359 85.359 0 006.007 3.064l.377-.817a84.282 84.282 0 006.166 2.554l-.311.845c2.1.774 4.239 1.469 6.412 2.08l.244-.866a84.683 84.683 0 006.491 1.551l-.174.883c2.191.433 4.412.783 6.66 1.046l.104-.894c2.193.257 4.412.43 6.653.517l-.035.899a87.98 87.98 0 006.752 0l-.035-.899c2.24-.087 4.46-.26 6.653-.517l.104.894a85.756 85.756 0 006.66-1.046l-.174-.883a84.696 84.696 0 006.491-1.551l.244.866a85.332 85.332 0 006.412-2.08l-.311-.845a84.371 84.371 0 006.166-2.554l.377.817a85.359 85.359 0 006.007-3.064l-.44-.785a84.9 84.9 0 005.687-3.489l.5.748a86.212 86.212 0 005.455-3.966l-.558-.706a85.245 85.245 0 005.074-4.334l.611.661a86.094 86.094 0 004.77-4.765l-.66-.612a85.178 85.178 0 004.338-5.07l.706.558a85.524 85.524 0 003.971-5.451l-.748-.501a84.645 84.645 0 003.494-5.684l.785.441a85.565 85.565 0 003.068-6.005l-.817-.377a84.391 84.391 0 002.559-6.165l.844.312a84.88 84.88 0 002.084-6.411l-.866-.244a84.708 84.708 0 001.554-6.491l.883.175a85.77 85.77 0 001.048-6.66l-.894-.105c.257-2.193.431-4.412.517-6.653l.9.035a87.98 87.98 0 00.065-3.375z" stroke="#00001B" stroke-width="1.8" stroke-dasharray="7 7"/></svg>