<svg width="36" height="37" fill="none" xmlns="http://www.w3.org/2000/svg"><g clip-path="url(#clip0_34_2850)" fill="#00001B"><path d="M8.4 24.4a3.603 3.603 0 00-3.6 3.597 3.602 3.602 0 003.6 3.598c1.986 0 3.6-1.614 3.6-3.598a3.603 3.603 0 00-3.6-3.598zm0 5.995A2.402 2.402 0 016 27.997a2.402 2.402 0 012.4-2.398 2.4 2.4 0 012.4 2.398 2.402 2.402 0 01-2.4 2.398zM28.8 24.4a3.603 3.603 0 00-3.6 3.597 3.602 3.602 0 003.6 3.598c1.985 0 3.6-1.614 3.6-3.598a3.603 3.603 0 00-3.6-3.598zm0 5.995a2.402 2.402 0 01-2.4-2.398 2.402 2.402 0 012.4-2.398c1.323 0 2.4 1.075 2.4 2.398a2.402 2.402 0 01-2.4 2.398z"/><path d="M35.905 21.077l-5.4-8.395a.6.6 0 00-.504-.275h-6.6a.6.6 0 00-.6.6v14.99a.6.6 0 00.6.6h2.4v-1.2H24V13.606h5.672l5.128 7.971v5.82h-3v1.2h3.6a.6.6 0 00.6-.6v-6.596a.597.597 0 00-.096-.324z"/><path d="M26.4 20.2v-4.197h4.8v-1.2h-5.4a.6.6 0 00-.6.6V20.8a.6.6 0 00.6.6h9v-1.2h-8.4zm-3-11.994H.6a.6.6 0 00-.6.6v19.188a.6.6 0 00.6.6h4.8v-1.2H1.2V9.406h21.6v17.988H11.4v1.2h12a.6.6 0 00.6-.6V8.806a.6.6 0 00-.6-.6z"/><path d="M4.202 24.993h-3.6v1.2h3.6v-1.2zm18.6 0h-10.2v1.2h10.2v-1.2zm12.598 0H33v1.2h2.4v-1.2zm-12.002-14.39h-21v1.2h21v-1.2zM9 27.397H7.8v1.2H9v-1.2zm20.4 0h-1.2v1.2h1.2v-1.2zM10.799 5.81h-8.4v1.2h8.4v-1.2zm-9.599 0H0v1.2h1.2v-1.2z"/></g><defs><clipPath id="clip0_34_2850"><path fill="#fff" transform="translate(0 .711)" d="M0 0h36v35.977H0z"/></clipPath></defs></svg>