<svg width="36" height="37" fill="none" xmlns="http://www.w3.org/2000/svg"><g clip-path="url(#clip0_34_2839)"><path d="M34.957 6.524L28.86 1.457a.492.492 0 00-.694.064l-1.75 2.108a2.066 2.066 0 00-.113-.034l-.01-.003-1.723-.437a.487.487 0 00-.03-.007c-1.442-.27-2.613.507-2.915 1.933a189.9 189.9 0 00-.135.643c-.363 1.746-.91 4.37-1.459 5.592-1.307 1.574-2.105 2.496-2.383 2.754-.244.028-.453.049-.64.067-.602.06-.966.096-1.385.263-.94.374-2.36 1.466-3.613 2.43-.406.311-.79.606-1.1.831a2.096 2.096 0 00-.529 2.847c.377.576.864.797 1.371.833L4.37 30.188a.492.492 0 00.063.694l6.092 5.06a.492.492 0 00.693-.064l1.867-2.248c.336.303.765.47 1.218.47h.002c.461 0 .897-.173 1.235-.486.04.05.081.097.126.143.35.362.812.562 1.297.562h.002a1.825 1.825 0 001.817-1.705c.257.134.543.205.84.205h.002c.485 0 .942-.19 1.287-.535.344-.345.534-.802.534-1.287v-.879c.255.133.54.204.835.204h.002c.485 0 .942-.19 1.287-.536.345-.345.535-.802.534-1.284l.04-8.183.925-1.115.17.146a1.801 1.801 0 002.56-.214c.32-.414.454-.891.41-1.345a1.8 1.8 0 001.297-.646c.321-.414.456-.892.412-1.347.017 0 .033 0 .05-.002a1.792 1.792 0 001.247-.641c.317-.41.45-.89.41-1.345a1.8 1.8 0 001.282-.626 1.804 1.804 0 00-.194-2.543l-.312-.267 2.623-3.158a.492.492 0 00-.065-.692zm-12.504-.6l.134-.64c.064-.304.344-1.207 1.381-1.207.115 0 .24.01.375.035l1.702.432c.278.078.51.26.655.514.145.255.182.55.105.83-.16.581-.764.924-1.346.764l-1.003-.277a.493.493 0 00-.511.16l-.61.749c-.59.725-1.134 1.393-1.635 2.004.29-1.144.55-2.387.753-3.363zM10.774 34.872L5.441 30.44l7.04-8.438V32.28c0 .16.02.315.06.465l-1.767 2.127zm16.25-16.347a.814.814 0 01-.551.273.815.815 0 01-.596-.194l-1.38-1.183c-.404-.346-.332-.832-.081-1.164a.821.821 0 011.146-.081l1.382 1.184c.404.347.332.832.08 1.165zm1.709-1.99a.821.821 0 01-1.148.079l-1.934-1.658c-.404-.346-.332-.832-.08-1.165a.821.821 0 011.147-.08l1.934 1.659c.404.346.332.832.081 1.164zm1.708-1.991a.814.814 0 01-.551.273.814.814 0 01-.597-.194l-1.934-1.658c-.404-.346-.332-.832-.08-1.164a.821.821 0 011.146-.08h.002l1.934 1.658.002.002.003.003c.385.32.33.823.075 1.16zm1.717-2a.814.814 0 01-.56.282.813.813 0 01-.596-.193l-1.935-1.659c-.403-.345-.332-.831-.08-1.164a.814.814 0 01.552-.273.815.815 0 01.596.194l1.934 1.658a.83.83 0 01.089 1.155zm-.507-2.81l-.875-.75a1.793 1.793 0 00-1.313-.427 1.792 1.792 0 00-1.247.641c-.32.414-.455.892-.412 1.346a1.8 1.8 0 00-1.297.645c-.32.414-.455.891-.411 1.345a1.8 1.8 0 00-1.297.645c-.452.585-.535 1.295-.268 1.889a1.793 1.793 0 00-.886.577c-.631.816-.543 1.877.21 2.523l.464.397-1.048 1.262a.493.493 0 00-.114.312l-.04 8.362a.83.83 0 01-.246.591.832.832 0 01-1.182 0 .83.83 0 01-.247-.575l-.002-2.166a.492.492 0 00-.984 0l.003 4.648a.83.83 0 01-.246.59.832.832 0 01-1.183.002.83.83 0 01-.246-.571l-.003-4.245a.492.492 0 00-.984 0l.003 5.723a.839.839 0 01-.838.838c-.37 0-.697-.28-.81-.623-.047-.147-.027-.284-.027-.435l-.004-5.32a.492.492 0 00-.984 0l.003 5.32a.838.838 0 01-1.675.002V20.656a.493.493 0 00-.647-.479c-1.12.373-1.403.115-1.614-.207a1.113 1.113 0 01.283-1.513c.322-.233.71-.532 1.122-.848 1.143-.879 2.565-1.972 3.378-2.296.29-.115.566-.143 1.117-.197.223-.022.476-.047.785-.084.25-.03.364-.043 2.755-2.914 1.239-1.487 3.752-4.579 3.86-4.71l.694.192a2.08 2.08 0 002.556-1.451 2.061 2.061 0 00-.198-1.577 2.097 2.097 0 00-.305-.41l1.357-1.634 5.342 4.438-2.299 2.768zM4.85 20.93c.271 0 .492-.22.492-.492a3 3 0 012.998-2.996.492.492 0 100-.984 3 3 0 01-2.998-2.996.492.492 0 00-.985 0 3 3 0 01-2.998 2.996.492.492 0 100 .984 3 3 0 012.998 2.996c0 .271.22.492.493.492zm-1.574-3.98a4.011 4.011 0 001.574-1.573 4.01 4.01 0 001.573 1.573 4.01 4.01 0 00-1.573 1.572 4.01 4.01 0 00-1.574-1.572zM1.359 5.815a3 3 0 012.998 2.996.492.492 0 00.985 0A3 3 0 018.34 5.815a.492.492 0 100-.984 3 3 0 01-2.998-2.996.492.492 0 00-.984 0 3 3 0 01-2.999 2.996.492.492 0 100 .984zM4.85 3.75a4.011 4.011 0 001.574 1.573A4.011 4.011 0 004.85 6.896a4.011 4.011 0 00-1.574-1.573A4.01 4.01 0 004.85 3.75zm2.691 7.488c0 .271.22.491.493.491a3 3 0 012.998 2.997.492.492 0 00.984 0 3 3 0 012.998-2.997.492.492 0 100-.983 3 3 0 01-2.998-2.996.492.492 0 00-.984 0 3 3 0 01-2.998 2.996.492.492 0 00-.493.492zm3.983-1.573a4.01 4.01 0 001.574 1.573 4.01 4.01 0 00-1.574 1.572 4.012 4.012 0 00-1.574-1.572 4.011 4.011 0 001.574-1.573z" fill="#00001B"/></g><defs><clipPath id="clip0_34_2839"><path fill="#fff" transform="translate(0 .711)" d="M0 0h36v35.977H0z"/></clipPath></defs></svg>