<svg width="36" height="37" fill="none" xmlns="http://www.w3.org/2000/svg"><g clip-path="url(#clip0_34_2808)" fill="#00001B"><path d="M27.875 35.5l-3.777-3.774a.703.703 0 00-.497-.206l-2.027.003h-.013a9.416 9.416 0 01-3.287-.598l1.215-.814c.498-.334.833-.842.943-1.43a2.193 2.193 0 00-.363-1.674 2.215 2.215 0 00-1.85-.94l2.8-2.8a2.18 2.18 0 00-.71-3.554c.195-.33.299-.707.299-1.101a2.16 2.16 0 00-.639-1.54 2.166 2.166 0 00-1.54-.638c-.394 0-.772.104-1.102.299a2.176 2.176 0 00-.475-.71 2.165 2.165 0 00-1.541-.638c-.582 0-1.13.226-1.541.638l-1.006 1.005a2.178 2.178 0 00-1.985-1.279c-.582 0-1.13.227-1.541.638l-.446.445-1.812-1.8a1.35 1.35 0 011.805-2.002l1.755 1.754a.701.701 0 00.995 0 .703.703 0 000-.994l-3.028-3.025a1.35 1.35 0 011.91-1.908l5.304 5.31a.701.701 0 00.994 0 .702.702 0 000-.993l-4.032-4.04a1.35 1.35 0 012.003-1.804l1.477 1.477a.703.703 0 00.995-.994L15.68 6.337a2.76 2.76 0 00-3.898 0 2.736 2.736 0 00-.713 1.237 2.737 2.737 0 00-1.608-.518 2.74 2.74 0 00-1.95.807 2.757 2.757 0 00-.288 3.555c-.454.12-.883.357-1.238.712a2.757 2.757 0 00-.171 3.708 2.738 2.738 0 00-1.21.705 2.757 2.757 0 000 3.895l.313.314a7.867 7.867 0 00-1.829 5.076l.002 1.164-2.885 2.883a.702.702 0 10.994.994l3.092-3.09a.702.702 0 00.206-.497l-.003-1.456a6.48 6.48 0 011.913-4.623l3.49-3.488.334-.334a.768.768 0 01.547-.227c.206 0 .4.08.546.227a.767.767 0 01.058 1.027l-.93.93a.702.702 0 000 .993l.002.002.002.002a.701.701 0 00.994 0l3.313-3.318a.768.768 0 01.546-.227.773.773 0 01.604 1.254l-3.373 3.38a.702.702 0 10.994.993l4.347-4.351a.768.768 0 01.546-.226.773.773 0 01.547 1.319l-4.354 4.343a.702.702 0 10.994.994l3.382-3.372a.773.773 0 011.028 1.15l-4.748 4.744a.91.91 0 00-.073 1.219.91.91 0 001.202.219l1.434-.87a.807.807 0 011.209.837.8.8 0 01-.343.52l-3.318 2.224a6.51 6.51 0 01-3.637 1.106h-.009l-2.254-.003a.703.703 0 00-.498.206L5.9 35.566a.702.702 0 10.994.993l2.885-2.883 1.962.002h.011c1.58 0 3.108-.464 4.42-1.343l.71-.477c1.452.7 3.068 1.07 4.68 1.07h.015l1.734-.002 3.57 3.568a.701.701 0 00.995 0 .702.702 0 000-.993zM7.337 18.287l-1.449 1.448-.29-.29a1.35 1.35 0 011.806-2l.389.387-.456.455zm28.457 9.296a.705.705 0 00-.994 0 .707.707 0 00-.206.497.707.707 0 00.703.703.708.708 0 00.497-.206.71.71 0 00.206-.497.707.707 0 00-.206-.497zm-1.891-1.893l-1.68-1.679.004-2.84a10.715 10.715 0 00-1.824-6.007l-3.094-4.612a2.78 2.78 0 00-1.813-1.193c-.746-.14-1.5.023-2.121.458a2.808 2.808 0 00-1.064 3.14l-1.837-1.837a.704.704 0 00-.995.994l3.948 3.945a.995.995 0 001.332.08.993.993 0 00.24-1.312l-1.21-1.993a1.397 1.397 0 011.449-2.094c.372.07.692.28.903.594l3.094 4.613a9.315 9.315 0 011.586 5.221l-.004 3.133a.7.7 0 00.206.498l1.885 1.884a.702.702 0 10.995-.993z"/><path d="M18.821 9.47a.706.706 0 00-.994 0 .708.708 0 00-.206.496.707.707 0 00.704.703.707.707 0 00.703-.703.706.706 0 00-.207-.497zm6.527 10.908a.702.702 0 10-.994-.993l-.307.306a3.368 3.368 0 000 4.76.701.701 0 00.995 0 .702.702 0 000-.994 1.962 1.962 0 010-2.772l.306-.307zM33.56 4.579c-.446 0-.883.126-1.26.358a2.416 2.416 0 00-1.262-.358c-1.346 0-2.44 1.114-2.44 2.483 0 .775.558 1.707 1.706 2.848a17.883 17.883 0 001.568 1.378.702.702 0 00.854 0c.032-.024.795-.61 1.568-1.378 1.149-1.14 1.707-2.073 1.707-2.848 0-1.37-1.095-2.483-2.44-2.483zM32.3 9.83c-1.175-.975-2.295-2.22-2.295-2.77 0-.594.464-1.077 1.034-1.077.283 0 .548.117.744.33a.703.703 0 001.034 0c.197-.213.461-.33.745-.33.57 0 1.034.483 1.034 1.078 0 .548-1.12 1.793-2.296 2.769zM4.963.784a2.41 2.41 0 00-1.261.359A2.416 2.416 0 002.44.784C1.095.784 0 1.898 0 3.267c0 .776.558 1.708 1.707 2.85a17.93 17.93 0 001.568 1.377.702.702 0 00.854 0c.032-.025.794-.61 1.568-1.378 1.148-1.141 1.706-2.073 1.706-2.849 0-1.369-1.094-2.483-2.44-2.483zM3.701 6.037c-1.175-.976-2.295-2.22-2.295-2.77 0-.594.464-1.077 1.034-1.077.283 0 .548.117.745.33a.703.703 0 001.033 0c.197-.213.462-.33.745-.33.57 0 1.034.483 1.034 1.077 0 .548-1.12 1.793-2.296 2.77z"/></g><defs><clipPath id="clip0_34_2808"><path fill="#fff" transform="translate(0 .784)" d="M0 0h36v35.977H0z"/></clipPath></defs></svg>