<svg width="87" height="80" fill="none" xmlns="http://www.w3.org/2000/svg"><path opacity=".39" d="M84.669 41.913c.816 1.846 1.39 3.717 1.687 5.604l-.494.078c.149.946.225 1.895.225 2.846 0 1.046-.052 2.003-.152 2.878l.497.057c-.268 2.347-.876 4.145-1.767 5.485l-.416-.277c-1.067 1.607-2.566 2.509-4.419 2.89l.1.49c-1.697.35-3.651.278-5.783-.086l.084-.493c-1.743-.298-3.615-.796-5.575-1.426l-.153.476a97.91 97.91 0 01-5.479-1.973l.182-.465a329.429 329.429 0 01-5.398-2.175l-.19.463-.144-.06c-1.766-.723-3.527-1.445-5.257-2.121l.182-.466c-1.88-.735-3.728-1.418-5.505-1.992l-.154.476c-1.991-.643-3.89-1.145-5.645-1.428l.08-.493a18.817 18.817 0 00-2.972-.26c-.957 0-1.928.17-2.905.475l.15.477c-1.612.505-3.274 1.41-4.959 2.598l-.288-.409c-1.453 1.025-2.916 2.252-4.372 3.605l.34.366a82.194 82.194 0 00-3.965 3.979l-.365-.342a164.677 164.677 0 00-3.77 4.183l.376.329c-1.016 1.16-2.014 2.322-2.987 3.454l-.68.791-.379-.326a230.231 230.231 0 01-3.697 4.222l.37.335c-1.412 1.562-2.734 2.934-3.936 3.996l-.331-.374c-.991.876-1.871 1.513-2.63 1.871-.763.36-1.325.404-1.743.23l-.191.463c-1.062-.44-1.765-1.97-2.02-4.96l.498-.043a33.15 33.15 0 01-.106-2.8c0-1.043-.004-2.115-.01-3.213l-.5.003c-.01-1.875-.026-3.825-.043-5.83l-.005-.608.5-.004C.537 60.312.52 58.16.51 55.97l-.5.002c-.01-2.12-.014-4.273-.004-6.44l.5.003c.009-2.137.03-4.287.071-6.43l-.5-.01c.04-2.158.1-4.31.185-6.437l.5.02c.086-2.174.198-4.32.343-6.416l-.499-.034c.152-2.198.34-4.343.572-6.41l.497.056c.248-2.217.546-4.343.902-6.346l-.492-.088c.401-2.252.877-4.354 1.44-6.264l.48.141c.668-2.262 1.455-4.234 2.378-5.853l-.434-.248c1.216-2.132 2.676-3.69 4.428-4.524l.215.451A6.664 6.664 0 0113.495.5c.824 0 1.776.069 2.843.205l.063-.495c1.681.215 3.622.593 5.763 1.121l-.12.486c1.75.431 3.636.964 5.627 1.592l.15-.477a125.36 125.36 0 015.56 1.904l-.172.469c1.774.653 3.598 1.366 5.453 2.134l.192-.462c1.773.735 3.575 1.52 5.388 2.354l-.209.454c1.753.806 3.517 1.655 5.277 2.546l.226-.446a147.2 147.2 0 015.188 2.756l-.244.437a133.37 133.37 0 015.051 2.96l.263-.426a116.688 116.688 0 014.92 3.204l-.283.412a97.39 97.39 0 014.72 3.456l.308-.394a78.811 78.811 0 014.499 3.781l-.337.37a60.13 60.13 0 014.125 4.113l.37-.335a44.504 44.504 0 013.661 4.59l-.412.284c1.14 1.653 2.098 3.33 2.846 5.022l.458-.202z" stroke="#00001B" stroke-dasharray="6 6"/></svg>