<svg width="142" height="24" fill="none" xmlns="http://www.w3.org/2000/svg"><path d="M3.068 1.31A2 2 0 10.932 4.69l2.136-3.38zM33.63 5.536l.149-1.994-.15 1.994zM72.691 9.47l-.206 1.99.206-1.99zM142 12L122.067.338l-.133 23.093L142 12zM.932 4.69c.274.174.543.252.624.276.13.038.26.067.371.09.227.045.496.087.782.126.579.078 1.34.16 2.205.242 1.738.165 3.982.338 6.22.496 4.426.312 9.012.576 9.597.576v-4l-.076-.002-.205-.008c-.17-.007-.398-.018-.675-.032a292.37 292.37 0 01-2.165-.122c-1.738-.103-3.97-.245-6.195-.402a273.699 273.699 0 01-6.123-.488 54.162 54.162 0 01-2.043-.224 9.137 9.137 0 01-.53-.084c-.054-.01-.063-.014-.042-.008a1.728 1.728 0 01.391.183L.932 4.691zM20.73 6.497c4.212 0 8.221.697 12.75 1.035l.298-3.988c-3.988-.299-8.69-1.047-13.048-1.047v4zM33.48 7.53c12.975.971 26 2.58 39.005 3.928l.413-3.978C60 6.144 46.829 4.519 33.779 3.543L33.48 7.53zm39.005 3.928c15.471 1.604 34.246 2.221 51.488 2.437l.05-4c-17.211-.215-35.84-.831-51.125-2.415l-.413 3.978z" fill="#FEF0D5"/></svg>