<svg width="98" height="91" fill="none" xmlns="http://www.w3.org/2000/svg"><path opacity=".36" d="M1.694 88.652c-.257-8.359 3.817-17.07 11.914-17.973 6.197-.691 13.984 1.803 19.109 5.741 2.572 1.977 6.215 6.509 2.892 9.158-4.573 3.646-13.286-3.571-15.893-11.058-3.874-11.125-1.429-22.28 5.076-30.35 8.07-10.012 22.747-19.264 35.695-12.644 6.037 3.087 9.288 7.425 11.615 14.21 1.852 5.402 3.253 12.19-.308 16.745-5.862 7.494-14.534.563-18.77-6.558-8.584-14.427-5.216-34.955 6.905-43.02C70.56 5.83 83.42 3.147 95.955 1.875" stroke="#8E56FF" stroke-width="3" stroke-linecap="round"/></svg>