<svg width="64" height="64" fill="none" xmlns="http://www.w3.org/2000/svg"><path d="M42.748 9.56l-21.09 6.876c-1.832.58-3.93 2.612-4.565 4.424L9.225 42.041c-.55 1.49-.037 2.35.322 2.72.359.37 1.16.868 2.707.406l1.751-.58 6.377 6.582c-.461 1.005-.279 2.263.518 3.086a2.844 2.844 0 003.028.655l3.848 7.676 5.183-5.022-7.55-4.089c.461-1.005.237-2.224-.56-3.046-.837-.864-2.05-1.045-3.069-.616l-5.699-5.881 3.216-1.043 8.29 8.555c.12.123.28.207.482.25.445.048 9.332 1.565 17.147-6.007 7.815-7.573 6.539-16.544 6.504-16.91a.924.924 0 00-.235-.49l-8.25-8.513 2.541-7.089c.55-1.49.037-2.349-.321-2.719-.4-.33-1.2-.91-2.707-.407zm7.221 19.798c.14 1.46.428 8.836-5.988 15.054-6.417 6.217-13.78 5.696-15.236 5.511l-7.532-7.774 12.46-4.178c.896-.31 1.878-.942 2.7-1.74.864-.836 1.527-1.798 1.825-2.725l4.278-11.881 7.493 7.733zM44.085 12.09L41.5 19.3c-.205.2-.29.44-.213.685l-4.74 12.967c-.426 1.29-2.112 2.924-3.456 3.348l-16.083 5.377L28.2 27.962c.33-.4.259-.968-.101-1.258-.4-.33-.968-.258-1.258.102L13.872 42.722l-2.158.736c-.53.194-.811.068-.811.068-.04-.041-.117-.285.094-.809l7.827-21.222c.253-.644.75-1.365 1.368-1.963.658-.637 1.436-1.152 2.046-1.345l21.09-6.877c.53-.194.77-.11.85-.027 0 0 .076.325-.093.808z" fill="#fff"/></svg>