<svg width="114" height="118" fill="none" xmlns="http://www.w3.org/2000/svg"><circle cx="72.5" cy="76.5" r="41" fill="#fff" stroke="#FF9B24"/><path d="M69.841 72.149a.5.5 0 00-.44-.553l-4.471-.51a.5.5 0 00-.113.993l3.974.453-.454 3.975a.5.5 0 10.994.113l.51-4.471zm1.682 11.13l.086-.493-.086.493zm-7.26-17.319l-.24-.438.24.438zm-4.358 11.19l.483-.132-.483.131zm26.866 6.853l.48.144-.48-.144zM77.695 57.3l.274-.418-.274.418zM51.889 78.906l-.484.127.484-.127zM62.5 94.5l.318-.386-.318.386zm6.533-22.799c-1.652 1.313-2.832 3.982-2.739 6.472.048 1.26.421 2.51 1.26 3.527.84 1.021 2.116 1.766 3.884 2.072l.17-.986c-1.571-.272-2.617-.913-3.283-1.722-.67-.813-.99-1.837-1.031-2.928-.083-2.212.988-4.56 2.362-5.652l-.623-.783zm2.405 12.07c4.21.728 7.001.393 8.706-.703 1.757-1.13 2.236-2.975 2.043-4.891l-.995.1c.17 1.692-.258 3.094-1.588 3.95-1.382.888-3.855 1.275-7.995.56l-.17.984zm10.749-5.594c-.175-1.734-.183-3.903-.646-5.926-.472-2.065-1.43-4.082-3.553-5.616l-.586.81c1.871 1.353 2.729 3.125 3.164 5.03.445 1.946.437 3.927.626 5.802l.995-.1zm-4.2-11.542c-4.124-2.982-9.078-3.788-13.965-1.113l.48.877c4.497-2.462 9.037-1.746 12.9 1.047l.586-.81zm-13.965-1.113c-2.749 1.504-4.483 2.65-5.191 4.396-.356.878-.437 1.865-.319 3.048.119 1.178.438 2.584.911 4.315l.965-.263c-.47-1.721-.771-3.06-.88-4.152-.11-1.087-.025-1.896.25-2.572.553-1.364 1.94-2.36 4.744-3.895l-.48-.877zM59.423 77.28c2.14 7.842 4.788 11.27 7.658 12.663 1.43.694 2.869.86 4.234.858.68 0 1.351-.043 1.991-.084.645-.04 1.257-.08 1.847-.08v-1c-.628 0-1.273.042-1.91.082a29.59 29.59 0 01-1.929.082c-1.284.001-2.555-.155-3.796-.758-2.471-1.2-5.012-4.266-7.13-12.026l-.965.263zm15.73 13.357c2.147 0 4.681.005 6.91-.797 2.275-.817 4.218-2.467 5.187-5.694l-.958-.288c-.873 2.907-2.574 4.325-4.566 5.041-2.037.732-4.39.738-6.573.738v1zm12.097-6.491c.974-3.243 2.176-6.468 2.662-9.524.492-3.089.272-6.096-1.636-8.941l-.83.557c1.721 2.567 1.945 5.292 1.479 8.227-.472 2.968-1.63 6.058-2.633 9.393l.958.288zm1.026-18.465c-3.704-5.522-7.129-6.72-10.307-8.8l-.548.837c3.302 2.16 6.467 3.216 10.024 8.52l.83-.557zm-10.307-8.8c-.642-.42-1.92-.941-3.513-1.41a33.217 33.217 0 00-5.651-1.13c-2.065-.225-4.237-.244-6.23.122-1.99.366-3.836 1.124-5.202 2.481l.706.71c1.175-1.17 2.808-1.864 4.677-2.207 1.868-.344 3.937-.33 5.94-.112a32.22 32.22 0 015.478 1.096c1.574.463 2.734.95 3.247 1.287l.548-.837zm-20.595.063c-2.582 2.566-4.736 5.587-5.912 9.23-1.177 3.645-1.363 7.882-.057 12.858l.967-.254c-1.262-4.81-1.071-8.85.042-12.298 1.114-3.451 3.163-6.34 5.664-8.827l-.705-.709zm-5.969 22.088c.809 3.08 1.378 5.202 1.902 6.745.525 1.547 1.017 2.551 1.69 3.38.668.82 1.492 1.44 2.606 2.245 1.122.81 2.578 1.835 4.58 3.483l.635-.772c-2.03-1.672-3.512-2.714-4.63-3.521-1.124-.813-1.842-1.362-2.414-2.066-.566-.697-1.012-1.575-1.52-3.071-.51-1.502-1.07-3.585-1.882-6.677l-.967.254zm10.777 15.853c4.443 3.659 8.361 4.677 11.842 4.517 3.44-.157 6.426-1.472 8.922-2.358l-.335-.942c-2.586.918-5.383 2.153-8.633 2.302-3.21.146-6.89-.775-11.16-4.291l-.636.772zm20.764 2.159c2.522-.895 4.926-1.706 6.827-2.704 1.902-1 3.403-2.237 4.008-4.044l-.948-.318c-.483 1.443-1.706 2.521-3.525 3.476-1.821.957-4.137 1.739-6.697 2.648l.335.942zm10.835-6.749c.553-1.648 1.46-5.202 2.358-8.806.903-3.622 1.8-7.31 2.343-9.264l-.964-.267c-.547 1.971-1.45 5.682-2.35 9.289-.903 3.623-1.798 7.13-2.335 8.73l.948.319z" fill="#FF9B24"/><path d="M10.043 36.475c7.998 3.685 16.307 6.446 24.44 9.76M5.493 12.307C15.89 22.244 27.532 31.2 39.29 39.442m-9.9-34.69c3.077 9.378 11.449 21.145 16.859 29.81" stroke="#00001B" stroke-width="4.76" stroke-miterlimit="1.5" stroke-linecap="round" stroke-linejoin="round"/></svg>