<svg width="40" height="40" fill="none" xmlns="http://www.w3.org/2000/svg"><g clip-path="url(#clip0_34_3068)" fill="#fff"><path d="M7.37 25.421a5.396 5.396 0 110-10.791 5.396 5.396 0 010 10.791zm0-8.684a3.29 3.29 0 100 6.58 3.29 3.29 0 000-6.58zm6.314 21.053a1.052 1.052 0 01-1.052-1.053v-2.105a5.263 5.263 0 10-10.527 0v2.105a1.053 1.053 0 11-2.105 0v-2.105a7.369 7.369 0 0114.737 0v2.105a1.053 1.053 0 01-1.053 1.053z"/><path d="M13.683 36.443a1.053 1.053 0 01-.807-1.729l14.737-17.6a1.053 1.053 0 011.613 1.351l-14.737 17.6a1.052 1.052 0 01-.806.378zM5.262 12.526a1.053 1.053 0 01-1.053-1.052V3.053a1.053 1.053 0 012.105 0v8.42a1.053 1.053 0 01-1.052 1.053z"/><path d="M38.946 4.105H3.156a1.053 1.053 0 110-2.105h35.79a1.053 1.053 0 110 2.105z"/><path d="M36.842 27.264a1.053 1.053 0 01-1.053-1.053V3.053a1.053 1.053 0 112.105 0V26.21a1.052 1.052 0 01-1.052 1.053z"/><path d="M38.948 27.264H26.316a1.053 1.053 0 110-2.106h12.632a1.053 1.053 0 010 2.105zm-8.42-16.843H17.896a1.053 1.053 0 110-2.105h12.632a1.053 1.053 0 110 2.105zm-.002 4.211H13.683a1.053 1.053 0 110-2.105h16.843a1.053 1.053 0 110 2.105z"/></g><defs><clipPath id="clip0_34_3068"><path fill="#fff" d="M0 0h40v40H0z"/></clipPath></defs></svg>