<svg width="40" height="40" fill="none" xmlns="http://www.w3.org/2000/svg"><g clip-path="url(#clip0_34_3153)" fill="#fff"><path d="M37.375 20.005c.842-1.678 1.504-3.365 1.964-5.027 1.442-5.207.744-9.568-1.966-12.278-2.71-2.71-7.07-3.408-12.278-1.966a27.766 27.766 0 00-5.027 1.964C17.981 1.65 15.89.884 13.876.442 9.198-.583 5.255.219 2.773 2.7 1.18 4.293.257 6.53.103 9.172c-.14 2.376.342 5.103 1.391 7.912a3.711 3.711 0 000 5.832c-1.05 2.81-1.53 5.536-1.392 7.912.155 2.641 1.078 4.88 2.671 6.472 1.779 1.779 4.274 2.696 7.288 2.696.605 0 1.232-.037 1.877-.112 2.585-.298 5.347-1.178 8.134-2.58 1.677.84 3.362 1.503 5.023 1.962 1.772.491 3.446.734 4.99.734 2.994 0 5.5-.912 7.288-2.7 2.482-2.481 3.284-6.425 2.258-11.103-.441-2.014-1.208-4.105-2.256-6.192zM25.408 1.865C30.19.541 34.145 1.132 36.543 3.53c2.398 2.398 2.99 6.353 1.665 11.135-.37 1.34-.88 2.698-1.514 4.055a38.438 38.438 0 00-4.149-5.977 3.699 3.699 0 00.792-2.29 3.68 3.68 0 00-.781-2.281l-.927.72c.35.45.535.99.535 1.56a2.546 2.546 0 01-2.544 2.544 2.546 2.546 0 01-2.543-2.543 2.546 2.546 0 013.841-2.188l.6-1.01a3.716 3.716 0 00-4.187.273 38.477 38.477 0 00-5.978-4.15 26.06 26.06 0 014.055-1.513zM3.603 3.53C6.777.357 12.596.475 18.788 3.375c-3.023 1.686-5.988 3.943-8.693 6.648a41.088 41.088 0 00-5.253 6.408 3.75 3.75 0 00-2.311.074C.497 10.962.878 6.255 3.603 3.53zm6.489 35.288c-2.655 0-4.913-.772-6.49-2.348-2.723-2.725-3.104-7.431-1.07-12.974a3.698 3.698 0 002.31.07 41.063 41.063 0 005.254 6.412c2.704 2.703 5.668 4.96 8.69 6.646-3.104 1.452-6.09 2.194-8.693 2.194zm9.978-2.833c-3.17-1.666-6.302-3.995-9.144-6.838a39.96 39.96 0 01-5.016-6.092 3.715 3.715 0 001.588-3.386l-1.17.104a2.546 2.546 0 01-2.533 2.77A2.546 2.546 0 011.252 20a2.546 2.546 0 012.543-2.543c.97 0 1.841.538 2.276 1.404l1.049-.526a3.721 3.721 0 00-1.208-1.394 39.982 39.982 0 015.014-6.088c2.843-2.844 5.975-5.174 9.146-6.84 2.159 1.137 4.343 2.602 6.459 4.376-.397.59-.628 1.3-.628 2.064a3.722 3.722 0 003.717 3.717c.764 0 1.473-.232 2.064-.628 1.774 2.116 3.239 4.3 4.375 6.458-1.665 3.172-3.996 6.304-6.839 9.147a41.46 41.46 0 01-.959.928 3.7 3.7 0 00-2.397-.88c-.835 0-1.623.27-2.28.782l.72.926a2.546 2.546 0 014.103 2.009 2.546 2.546 0 01-2.543 2.544 2.546 2.546 0 01-2.188-3.841l-1.009-.6a3.715 3.715 0 00-.137 3.538 34.051 34.051 0 01-2.46 1.432zm16.473.485c-2.398 2.398-6.353 2.99-11.135 1.665a26.047 26.047 0 01-4.052-1.512 36.096 36.096 0 001.854-1.111 3.706 3.706 0 002.654 1.118 3.722 3.722 0 003.717-3.717c0-.714-.202-1.381-.552-1.948.346-.324.688-.655 1.021-.988 2.705-2.705 4.962-5.67 6.648-8.692 2.9 6.192 3.018 12.011-.155 15.185z"/><path d="M29.698 26.065h-1.213v-2.957c0-1.308-.879-2.47-2.137-2.825l-.44-.124-.318 1.13.439.124c.755.213 1.282.91 1.282 1.695v2.957h-2.113v-1.604h-1.173v1.604h-5.283v1.174h10.956v-1.174z"/><path d="M22.014 20.28l2.446.69.32-1.13-2.399-.676v-1.558a4.108 4.108 0 001.8-3.397v-1.722a4.113 4.113 0 00-4.108-4.108 4.113 4.113 0 00-4.109 4.108v1.722a4.11 4.11 0 001.8 3.397v1.558l-3.966 1.119a2.946 2.946 0 00-2.138 2.825v2.957h-1.213v1.174h7.122v-1.174H16.12v-1.604h-1.174v1.604h-2.113v-2.957c0-.785.528-1.482 1.283-1.695l4.015-1.132c.494.54 1.192.854 1.94.854a2.62 2.62 0 001.942-.855zM20.073 9.553a2.938 2.938 0 012.934 2.934v.654l-1.233-1.632h-4.468a2.94 2.94 0 012.767-1.956zm-2.935 4.656v-1.526h4.051l1.721 2.276a2.94 2.94 0 01-2.837 2.185 2.938 2.938 0 01-2.935-2.935zm1.8 5.21v-1.262a4.082 4.082 0 002.27 0v1.262c-.276.342-.69.542-1.135.542-.446 0-.86-.2-1.135-.542z"/><path d="M23.173 23.047l-1.653-.467.318-1.13 1.654.467-.319 1.13zm2.577-.495l-.32 1.13-1.13-.319.32-1.13 1.13.319zm3.283-12.686h1.174v1.174h-1.174V9.866zm-3.756 22.46h1.174v1.173h-1.174v-1.173zM3.209 19.413h1.174v1.174H3.209v-1.174z"/></g><defs><clipPath id="clip0_34_3153"><path fill="#fff" d="M0 0h40v40H0z"/></clipPath></defs></svg>