<svg width="73" height="130" fill="none" xmlns="http://www.w3.org/2000/svg"><path d="M15.478 129.201a.748.748 0 001.054.109.75.75 0 00.074-1.058l-1.128.949zM35.495 69.63l.56-.48-.56.48zM72.363 5.454a.77.77 0 00-.286-1.033L66.207.915a.73.73 0 00-1.017.255.77.77 0 00.287 1.033l5.217 3.116-2.924 5.15a.77.77 0 00.287 1.034.73.73 0 001.017-.254l3.29-5.795zM3.123 82.518l-.691-.31.69.31zM34.935 70.11c.888 1.037 1.263 2.015 1.316 2.886.053.873-.214 1.712-.737 2.47-1.06 1.54-3.132 2.68-5.314 2.9l.198 1.498c2.535-.256 5.018-1.572 6.354-3.512.676-.981 1.068-2.139.991-3.398-.077-1.263-.62-2.555-1.689-3.804l-1.119.96zM30.2 78.366c-1.886.19-3.853-.525-5.775-1.956-1.922-1.431-3.746-3.542-5.304-6.022-3.125-4.977-5.07-11.267-4.67-16.148l-1.49-.173c-.434 5.3 1.656 11.921 4.904 17.095 1.63 2.594 3.578 4.869 5.697 6.447 2.118 1.578 4.46 2.494 6.836 2.255l-.197-1.498zM14.45 54.24c1.413-17.264 15.618-29.374 29.72-37.21 7.025-3.905 13.965-6.715 19.153-8.55 2.592-.917 4.744-1.59 6.246-2.032a83.006 83.006 0 012.308-.644l.029-.007.006-.001h.002l-.203-.731c-.203-.731-.203-.731-.204-.73h-.002c-.002 0-.005 0-.008.002l-.032.008a26.183 26.183 0 00-.59.156c-.41.11-1.008.277-1.77.502a126.38 126.38 0 00-6.32 2.055c-5.237 1.853-12.256 4.694-19.371 8.648-14.179 7.88-28.977 20.315-30.454 38.361l1.49.173zm1.592 74.487l.564-.475v-.001l-.003-.002-.01-.013-.044-.052-.173-.213a49.274 49.274 0 01-.657-.834 75.682 75.682 0 01-2.294-3.149c-1.866-2.699-4.263-6.507-6.392-10.949-4.275-8.918-7.387-20.212-3.22-30.21l-1.381-.622c-4.42 10.603-1.073 22.413 3.259 31.449 2.174 4.536 4.617 8.417 6.516 11.163a76.81 76.81 0 002.343 3.216 52.366 52.366 0 00.862 1.086l.048.059.013.015.003.004.001.001.565-.473zM3.813 82.828c2.946-7.066 9.032-12.321 15.281-14.745 6.295-2.441 12.459-1.927 15.841 2.027l1.12-.96c-4.018-4.696-11.011-5.005-17.538-2.474-6.572 2.549-12.972 8.063-16.085 15.531l1.381.621z" fill="#FACC15"/></svg>