<svg width="60" height="48" fill="none" xmlns="http://www.w3.org/2000/svg"><path d="M55.834.825c-3.837 0-7.532 1.046-10.983 3.108-2.735 1.634-5.318 3.906-7.68 6.752a43.036 43.036 0 00-5.188 7.946 2.952 2.952 0 00-.855-.544c1.08-4.116 3.519-6.614 3.545-6.64a.94.94 0 00-1.33-1.328c-.102.103-2.015 2.045-3.344 5.39-1.328-3.345-3.242-5.287-3.344-5.39a.94.94 0 00-1.329 1.329c.026.026 2.461 2.5 3.544 6.638a2.952 2.952 0 00-.853.544 43.05 43.05 0 00-5.19-7.945c-2.36-2.847-4.944-5.118-7.678-6.752C11.698 1.87 8.003.825 4.166.825 1.558.825 0 2.3 0 4.771c0 1.185.445 2.675 1.322 4.428 1.372 2.745 1.643 5.749 1.883 8.399.276 3.063.515 5.709 2.444 6.995.606.404 1.808.849 5.2.849.093 0 .19 0 .286-.002C9.41 26.655 7.59 28.4 7.04 30.599c-.992 3.968 2.216 8.12 3.039 9.102.573 2.947 2.389 4.348 3.152 4.818 1.075 2.233 3.308 2.516 4.624 2.318.47.197 1.002.331 1.58.331 1.278 0 2.779-.658 4.308-2.762.72-.989 1.26-1.199 1.885-1.441.648-.252 1.455-.566 2.233-1.655.654-.915 1.499-2.858 2.138-4.995.64 2.137 1.485 4.08 2.139 4.995.777 1.089 1.584 1.403 2.233 1.655.625.242 1.165.452 1.884 1.442 1.53 2.103 3.03 2.761 4.308 2.761.578 0 1.11-.134 1.58-.33 1.317.197 3.55-.086 4.624-2.319.764-.47 2.58-1.87 3.153-4.818.822-.982 4.03-5.134 3.038-9.102-.55-2.197-2.37-3.943-4.093-5.157h.285c3.391 0 4.594-.444 5.2-.848 1.929-1.286 2.168-3.932 2.445-6.995.24-2.65.51-5.654 1.883-8.398C59.556 7.446 60 5.956 60 4.77 60 2.3 58.442.826 55.834.826zM2.495 7.246c-.401-.983-.617-1.84-.617-2.475 0-.962.26-2.067 2.287-2.067.828 0 1.65.056 2.462.163a7.196 7.196 0 00-1.667.998c-1.183.946-1.975 2.19-2.465 3.381zM6.69 23.029c-1.18-.787-1.382-3.017-1.615-5.6-.198-2.187-.435-4.81-1.35-7.365.037-1.004.645-3.322 2.409-4.732 1.459-1.166 3.414-1.485 5.81-.95.749.334 1.489.716 2.216 1.15 2.548 1.518 4.966 3.642 7.189 6.314 2.689 3.232 4.441 6.5 5.252 8.171-5.403-2.943-11.026-6.947-11.088-6.992a.94.94 0 00-1.092 1.53c.066.047 6.322 4.503 12.064 7.532a185.5 185.5 0 01-8.376 1.04c-9.112.899-11.043.152-11.419-.098zM22.166 43.38c-.57.78-1.944 2.551-3.772 1.637a.922.922 0 00-.636-.074c-.22.05-2.17.437-2.92-1.439a.92.92 0 00-.471-.5c-.082-.04-2.011-1.004-2.481-3.875a.94.94 0 00-.23-.477 14.74 14.74 0 01-1.75-2.544c-.721-1.325-1.486-3.277-1.042-5.055.444-1.774 2.146-3.25 3.496-4.176a18.667 18.667 0 012.903-1.619c.922-.066 1.93-.152 3.039-.262a188.59 188.59 0 008.753-1.094v.902c-.117 7.533-4.435 17.545-4.889 18.576zm6.893-12.429c0 3.148-1.793 7.96-2.726 9.266-.407.57-.75.744-1.223.932 1.257-3.276 3.069-8.648 3.644-13.67.099.047.201.088.305.123v3.35zm.94-5.073a1.066 1.066 0 01-1.065-1.065v-4.008c0-.587.477-1.064 1.063-1.065h.005a1.066 1.066 0 011.062 1.065v4.008c0 .587-.478 1.065-1.065 1.065zm3.668 14.34c-.933-1.308-2.727-6.12-2.727-9.267v-3.35a3 3 0 00.306-.122c.575 5.021 2.387 10.394 3.644 13.67-.474-.188-.816-.362-1.223-.932zm17.469-9.165c.867 3.47-2.757 7.559-2.793 7.599-.12.134-.2.3-.23.477-.47 2.871-2.398 3.835-2.472 3.871a.94.94 0 00-.479.504c-.75 1.876-2.7 1.49-2.914 1.44a.939.939 0 00-.642.073c-1.829.914-3.203-.857-3.773-1.636-.453-1.032-4.774-11.048-4.889-18.582l-.002-.023v-.874c1.694.252 5.146.739 8.755 1.095 1.11.11 2.12.195 3.042.262 1.64.695 5.685 2.95 6.397 5.794zm3.788-13.624c-.234 2.583-.435 4.813-1.616 5.6-.375.25-2.307.996-11.418.098a185.463 185.463 0 01-8.377-1.04c5.742-3.03 11.999-7.485 12.065-7.533a.94.94 0 00-1.092-1.529c-.062.045-5.685 4.05-11.088 6.992.81-1.672 2.563-4.94 5.252-8.171 2.223-2.672 4.641-4.796 7.189-6.314a21.237 21.237 0 012.216-1.15c2.396-.535 4.35-.216 5.81.95 1.764 1.41 2.371 3.728 2.408 4.732-.915 2.556-1.152 5.179-1.35 7.365zm2.58-10.183c-.49-1.192-1.282-2.435-2.466-3.382a7.196 7.196 0 00-1.667-.997 18.816 18.816 0 012.462-.163c1.065 0 2.288.235 2.288 2.067 0 .635-.216 1.492-.617 2.475z" fill="#00001B"/></svg>