<svg width="60" height="60" fill="none" xmlns="http://www.w3.org/2000/svg"><g opacity=".47" clip-path="url(#clip0_34_2662)" fill="#00001B"><path d="M4.97 22.413a.938.938 0 00.876-1.269c-.513-1.356.005-2.054.228-2.353a1.645 1.645 0 011.461-.755.937.937 0 000-1.874 3.489 3.489 0 00-2.967 1.512 4.111 4.111 0 00-.475 4.134.937.937 0 00.877.605zm47.498-4.377a1.646 1.646 0 011.462.756c.222.298.74.996.227 2.352a.937.937 0 001.753.664 4.112 4.112 0 00-.474-4.133 3.49 3.49 0 00-2.968-1.513.937.937 0 000 1.874z"/><path d="M9.22 30.677a9.922 9.922 0 00-5.283 5.208 8.33 8.33 0 001.113 8.338 7.578 7.578 0 007.292 3.267c2.787-.372 5.306-2.167 6.922-4.828 1.343 6.597 5.18 11.504 9.8 12.095v.553a.938.938 0 001.875 0v-.553c4.62-.59 8.457-5.498 9.799-12.095 1.616 2.66 4.136 4.456 6.923 4.828a7.66 7.66 0 001.015.068 7.773 7.773 0 006.276-3.335 8.33 8.33 0 001.113-8.338 9.936 9.936 0 00-5.278-5.21c3.978-1.162 7.303-4.035 8.63-7.537a7.85 7.85 0 00-.971-7.696 7.304 7.304 0 00-6.796-2.986c-3.941.379-7.945 3.468-9.965 7.685-.99 2.069-2.138 4.202-3.155 6.062l-.028-.053a.855.855 0 00-.252-.426 14.788 14.788 0 00-1.85-2.481 5.576 5.576 0 002.128-2.024 5.76 5.76 0 00.19-5.69l-.008-.015a9.648 9.648 0 00-5.888-4.88c.074-3.806 3-5.02 3.141-5.075a.937.937 0 00-.67-1.75 7.312 7.312 0 00-4.334 6.474c-.316-.03-.634-.05-.958-.05-.324 0-.642.02-.958.05a7.313 7.313 0 00-4.334-6.475.937.937 0 00-.671 1.75c.131.052 3.068 1.263 3.142 5.076a9.647 9.647 0 00-5.887 4.88l-.009.015a5.761 5.761 0 00.19 5.69 5.576 5.576 0 002.128 2.024 14.85 14.85 0 00-1.892 2.552.859.859 0 00-.244.396c-1.016-1.857-2.16-3.986-3.149-6.05-2.02-4.217-6.024-7.306-9.964-7.685a7.305 7.305 0 00-6.797 2.986 7.849 7.849 0 00-.97 7.696c1.33 3.512 4.67 6.391 8.633 7.539zM30 52.947c-2.664 0-5.07-1.846-6.779-4.8a12.622 12.622 0 006.661 2.002 13.22 13.22 0 006.966-2.12C35.136 51.052 32.7 52.947 30 52.947zm8.308-8.311c-8.333 7.168-14.7 1.852-16.457.047a.928.928 0 00-.189-.145 22.81 22.81 0 01-.895-4.394 15.541 15.541 0 009.126 3.142c2.76 0 5.926-.817 9.34-3.148a22.767 22.767 0 01-.925 4.498zm1.252-16.414c1.157-2.107 2.598-4.73 3.815-7.272 1.746-3.646 5.144-6.31 8.453-6.629a5.439 5.439 0 015.112 2.238 5.991 5.991 0 01.722 5.915c-1.2 3.169-4.533 5.83-8.33 6.633l-2.537.645a.937.937 0 00.057 1.83l.838.157c3.024.43 5.57 2.295 6.644 4.867a6.416 6.416 0 01-.888 6.5c-1.423 1.916-3.387 2.813-5.538 2.526-2.688-.358-5.186-2.532-6.364-5.538-.113-.288-.233-.577-.351-.865a27.24 27.24 0 00.057-1.745 24.472 24.472 0 00-1.726-9.197l.036-.065zm-16.485-7.977a3.901 3.901 0 01-.134-3.84l.008-.015a7.946 7.946 0 0114.102 0l.008.014a3.902 3.902 0 01-.134 3.841 3.619 3.619 0 01-3.101 1.776h-7.647a3.619 3.619 0 01-3.102-1.776zm13.203 5.77c-5.205 2.502-9.59 1.568-12.608.082a11.307 11.307 0 011.91-2.24c.198.024.397.037.597.039h7.647c.2-.002.398-.015.596-.039a11.225 11.225 0 011.858 2.158zm-13.54 1.71a16.025 16.025 0 007.113 1.7 16.675 16.675 0 007.37-1.79 19.353 19.353 0 011.464 4.035c-8.232 5.45-14.813 1.91-17.374.02.33-1.37.809-2.7 1.427-3.966zm-1.825 5.972a16.292 16.292 0 008.929 2.777c2.731 0 5.857-.742 9.236-2.829.197 1.27.297 2.554.297 3.84 0 .075-.003.15-.004.225-10.437 8.177-18.223.42-18.744-.12l-.001-.106c0-1.267.096-2.533.288-3.787zM3.061 16.56a5.36 5.36 0 014.472-2.27c.223 0 .437.013.64.032 3.31.319 6.707 2.983 8.453 6.629 1.217 2.542 2.658 5.165 3.816 7.272l.035.065a24.473 24.473 0 00-1.725 9.197c0 .59.019 1.17.057 1.745-.118.288-.24.577-.352.865-1.178 3.006-3.676 5.18-6.364 5.538-2.149.288-4.115-.61-5.538-2.526a6.416 6.416 0 01-.887-6.5c1.074-2.572 3.62-4.437 6.685-4.874l.796-.15a.937.937 0 00.058-1.83l-2.575-.653c-3.76-.794-7.092-3.456-8.293-6.625a5.991 5.991 0 01.722-5.915z"/><path d="M27.527 14.997a.937.937 0 100-1.875.937.937 0 000 1.875zm5.157 0a.937.937 0 100-1.875.937.937 0 000 1.875z"/></g><defs><clipPath id="clip0_34_2662"><path fill="#fff" transform="translate(0 -.003)" d="M0 0h60v60H0z"/></clipPath></defs></svg>