<svg width="32" height="32" fill="none" xmlns="http://www.w3.org/2000/svg"><path d="M31.964 17.999c-.104-1.472-.668-2.584-1.673-3.305-1.29-.923-3.024-.998-4.276-.896a27.533 27.533 0 012.573-1.493c1.344-.836.26-2.708-1.11-5.078a94.27 94.27 0 01-.73-1.279c-.444-.8-.852-1.649-1.243-2.472-.887-1.855-1.417-2.916-2.021-3.15-.526-.207-1.341-.276-2.225.568-2.444 2.333-3.986 10.65-3.987 14.08a1.59 1.59 0 00-.307-.106c.006-.908-.024-2.486-.263-3.57a.228.228 0 00.1-.223l-.06-.448c-.037-.283-.468-.18-.431.102l.06.448c.014.104.08.154.157.164.23 1.047.262 2.592.258 3.497a.81.81 0 00-.426.072.708.708 0 00-.224.166c-.82-.478-2.125-1.316-3.042-2.292a.212.212 0 00-.026-.25l-.34-.392c-.187-.217-.511.085-.324.301l.339.392a.193.193 0 00.217.062c.929.991 2.245 1.839 3.076 2.325a1.228 1.228 0 00-.124.601c-3.143-1.375-11.381-3.296-14.5-1.993-1.126.472-1.39 1.246-1.411 1.81-.027.646.73 1.558 2.075 3.112.596.69 1.212 1.403 1.766 2.132.304.399.597.799.879 1.183 1.622 2.206 2.902 3.948 4.208 3.053.67-.559 1.5-1.167 2.399-1.759-.596 1.104-1.223 2.725-.894 4.275.257 1.211 1.049 2.173 2.356 2.857 4.624 2.429 7.358.819 8.256.291l.157-.091a.622.622 0 00.27-.313c.183-.418.2-1.23.195-2.767-.004-.896-.007-2.188.12-3.028.416.439.854.475 1.022.202.21-.125.286-.474.114-.919.82.218 2.016.744 2.838 1.107 1.404.621 2.157.931 2.613.931.165 0 .292-.04.396-.121.039-.03.087-.065.146-.107.848-.609 3.418-2.47 3.047-7.679zm-2.546.111c-.532.842-1.565 1.034-2.481 1.15-.532.061-1.062.148-1.581.236-1.32.447-4.238.28-4.238.147 0-.133 3.427-1.033 5.007-1.875.414-.223.856-.354 1.256-.592.397-.235.724-.502 1.093-.769.989-.735 1.342 1.083.944 1.703zm-10.282-.696c.004-1.591.82-3.833 1.036-4.872.354-1.536.295-3.131.532-4.667.177-1.359 1.595-2.6 2.48-.827.705 1.358-2.231 9.268-3.375 11.477a187.68 187.68 0 00-.673-1.111zm6.117-8.772c3.072.886-1.3 6.381-2.776 5.317 0 .001 1.003-5.789 2.776-5.317zm1.005 6.365c.354.045 1.078.281 1.123.68.103.9-1.33 1.507-1.98 1.803-.427.191-.87.31-1.283.531-.443.251-.856.53-1.314.724-.428.162-1.905.679-1.935.429 0 0 1.535-1.173 1.758-1.537.22-.362.827-.797 1.195-1.255.354-.429.665-.665 1.167-.916.41-.207.796-.517 1.269-.459zm1.528-4.489c.044.643-.066.93-.643 1.308-.408.259-1.386.77-1.696.931-.057.045-.1.071-.1.051l.1-.051c.132-.104.356-.316.434-.378.244-.199.377-.421.51-.687.266-.51.155-1.107.42-1.573.399-.753.953-.177.975.399zm-1.683-3.302c.244.487.842 1.189 1.064 1.678.177.354-.09.627-.465.737-.178.066-.4-.959-.843-1.151-.442-.192-.621-.178-.731-.288-.177-.222.044-.531.155-.731.266-.465.465-.93.82-.245zm-1-1.55a5.668 5.668 0 01-.62 1.817c-.242.398-.574 1.499-.95 1.787 0 0 .154-2.488.266-2.954.089-.398.288-1.248.576-1.536.553-.532.774.51.729.886zm-2.545-4.077c.819-.066 1.905 1.529 1.55 2.26-.221.466-.31.79-.51 1.3-.087.244-.161 1.494-.25 1.604l-1.255-2.838c-.222-.576-.4-2.258.465-2.326zm-2.112 3.298c.066-.199.573-2.057.816-1.99.222.044 1.117 2.042.91 2.511-.103.235-.43.293-.73.539-.3.246-.575.68-.642.779a1.2 1.2 0 01-.421-.62c-.11-.399-.043-.841.067-1.219zm-1.244 3.819c.117-.532.06-1.891.826-1.949.945-.06.354 1.181.236 1.654-.591 2.362-.648 4.785-1.536 7.029 0 0 .295-5.553.474-6.734zm-1.808 9.8l.749 1.065c-2.485.16-10.903-.32-11.865-1.51-1.268-1.522.437-2.324 1.752-1.941 1.502.398 2.939 1.093 4.489 1.384 1.039.219 3.417.37 4.875 1.002zM7.276 15.053c.362-.68 1.583-.081 2.117.024 1.154.312 6.359 2.267 6.359 2.267-2.412-.088-4.654-1.005-7.056-1.41-.48-.082-1.851-.038-1.42-.881zm-1.88-.366c.39.05.823.166 1.144.428a1.2 1.2 0 01.399.634c-.118.021-.626.101-.971.275-.347.178-.53.453-.787.454-.513.001-1.983-1.62-1.935-1.841.038-.249 1.942.032 2.15.05zm-2.417 2.94c-.812.031-1.838-1.604-1.448-2.327.407-.765 1.879.072 2.317.508l2.095 2.287c-.137.036-1.312-.396-1.57-.413-.546-.023-.878-.072-1.394-.055zm1.265 1.641c-.363-.111-1.228-.731-.52-1.025.38-.148 1.238.01 1.639.088.47.085 2.813.941 2.813.941-.416.229-1.556.093-2.02.155a5.693 5.693 0 01-1.912-.159zm2.13 3.181c-.357-.397-.76-1.229-1.11-1.646-.486-.6.02-.596.553-.652.227-.021.6-.101.73.15.058.146-.026.303-.028.785-.002.483.85 1.099.718 1.233-.253.301-.611.435-.863.13zm4.228-.026c-.272.221-1.132.911-1.533 1.182-.576.377-.884.361-1.455.063-.52-.251-.825-.989.025-1.053.533-.058 1.037.283 1.61.245.297-.017.553-.049.833-.192.087-.045.373-.165.52-.245l.086-.069c.019.008-.022.036-.086.069zM6.91 20.595c.277-1.812 5.984-.411 5.984-.411.38 1.779-6.404 3.582-5.984.411zm5.428 3.473c.136-.457.574-.685.928-.98.432-.358.773-.548 1.307-.702.567-.153 1.208-.534 1.629-.592.422-.058 2.112-.995 2.112-.995.219.128-.848 1.274-1.168 1.603-.36.343-.782.607-1.19.914-.37.29-.655.647-1.002.964-.532.478-1.66 1.547-2.445 1.091-.345-.202-.273-.96-.171-1.303zm.397 2.593c.392-.232.766-.424 1.142-.694.376-.27.676-.623 1.045-.913 1.404-1.109 3.604-3.889 3.725-3.835.122.055-.896 2.794-1.834 3.824-.29.438-.583.891-.851 1.354-.476.792-1.065 1.662-2.05 1.812-.727.115-2.25-.939-1.177-1.548zm1.628 3.496c-.405-.285-1.193-.438-1.51-1.188-.315-.75 2.017-.26 2.206-.261.378-.001.403 1.24.403 1.24s-.693.494-1.1.209zm3.052-.74c-.15.451-.532.735-1.043.688-.891-.101-.734-1.418-.566-2.022.118-.415.338-.771.536-1.149.193-.367.332-.759.51-1.132.192-.398.453-.736.692-1.101.22-.355.366-.727.565-1.074.34-.593.462-2.248.734-2.08.27.166.28 1.235.222 1.628-.135.716-.305 1.398-.474 2.114-.221.983-.446 2.014-.767 2.969l-.41 1.159zm2.803-1.95c-.114.627.175 2.253-.59 2.563-.934.365-1.154-1.634-1.11-2.179.075-.87.229-1.852.565-2.654.216-.567.35-1.169.47-1.776.087-.382-.272-1.261-.058-1.154.826.543 1.055 1.752 1.088 2.522.048.924-.191 1.803-.365 2.678zm8.579-3.39c-.591.575-1.965-.34-2.585-.487-.871-.191-1.772-.324-2.601-.737-.693-.342-1.71-1.034-1.875-2.011-.011-.237.649.444 1.034.519.605.133 1.21.251 1.817.28.87.015 1.83.267 2.659.547.517.176 2.26 1.18 1.55 1.889zm1.374-2.954c-.163.487-.576.725-1.05.68-.413-.028-.812-.06-1.226-.089-1.004-.089-2.038-.295-3.027-.486-.725-.134-1.418-.252-2.127-.414-.385-.104-1.358-.54-1.403-.856-.044-.314 1.52.236 2.2.163.399-.045.798-.03 1.212-.089.428-.074.842-.178 1.285-.192.414-.015.826.016 1.24-.015.429-.029.843-.089 1.27-.029.62.085 1.892.47 1.626 1.327zm.22-.896s-1.125-.521-.974-.866c.077-.174.562-2.508 1.123-1.916.56.591.385 1.374.482 1.857.1.488-.63.925-.63.925z" fill="#00001B"/></svg>