<svg width="45" height="43" fill="none" xmlns="http://www.w3.org/2000/svg"><path d="M20.082 14.042l-.659-.308a41.575 41.575 0 01-.228-.107 15.24 15.24 0 00-.395-.184h0c-3.62-1.597-7.304-1.592-11.075.27h0c-1.474.727-2.75 1.739-3.834 2.975C.176 20.924-.27 26.84 3.3 31.28l-.39.313.39-.313c1.393 1.734 3.207 2.97 5.36 3.813l-.182.466.182-.466c1.869.731 3.869 1.053 5.95 1.203.518.037 1.038.072 1.56.107 1.857.124 3.733.249 5.586.5l-.067.495.067-.496c5.27.712 10.099 2.419 14.417 5.262 0 0 0 0 0 0l-16.09-28.122zm0 0l.052-.725m-.052.725l.052-.725m0 0c.044-.61.12-1.184.239-1.752l-.49-.103m.25 1.855l-.25-1.855m0 0l.49.103c.66-3.14 2.249-5.773 4.935-7.808m-5.424 7.705l5.424-7.705m0 0c4.985-3.774 11.888-3.392 15.83.767m-15.83-.767l15.83.767m0 0a11.192 11.192 0 011.806 2.494m-1.806-2.494l1.806 2.494m0 0c1.09 2.075 1.47 4.33 1.272 6.74m-1.272-6.74l1.272 6.74m0 0c-.17 2.06-.807 4.04-1.731 5.98m1.73-5.98l-1.73 5.98m0 0c-.39.82-.796 1.635-1.203 2.454m1.203-2.455l-1.203 2.455m0 0l-.05.1m.05-.1l-.05.1m0 0a150.8 150.8 0 00-1.256 2.573m1.257-2.572l-1.257 2.572m0 0c-1.682 3.556-2.94 7.23-3.488 11.077m3.488-11.077l-3.488 11.077m0 0a33.149 33.149 0 00-.3 6.06l.3-6.06zm-.294 6.201l.002.036-.002-.036z" stroke="#8E56FF"/></svg>