<svg width="66" height="81" fill="none" xmlns="http://www.w3.org/2000/svg"><path d="M52.685.78l-2.626 7.383a1.184 1.184 0 01-.616.694l-6.56 2.955c-.927.418-.927 1.894 0 2.312l6.56 2.956c.28.126.503.377.616.693l2.626 7.384c.37 1.043 1.683 1.043 2.054 0l2.626-7.384a1.18 1.18 0 01.615-.693l6.56-2.956c.927-.418.927-1.894 0-2.312l-6.56-2.955a1.186 1.186 0 01-.615-.694L54.739.78c-.371-1.043-1.683-1.043-2.054 0zm-19.98 60.57l-1.948 5.478a.879.879 0 01-.457.514l-4.866 2.192c-.688.31-.688 1.405 0 1.715l4.866 2.193c.208.094.373.28.457.514l1.948 5.477c.275.774 1.248.774 1.523 0l1.948-5.477a.879.879 0 01.457-.514l4.866-2.193c.687-.31.687-1.405 0-1.715l-4.866-2.192a.879.879 0 01-.457-.514l-1.948-5.478c-.275-.773-1.248-.773-1.523 0zM0 14.59a5.734 5.734 0 1011.468 0A5.734 5.734 0 000 14.59zm33.456 27.765a2.398 2.398 0 100-4.796 2.398 2.398 0 000 4.796z" opacity=".42" fill="#00001B"/></svg>