<svg width="23" height="22" fill="none" xmlns="http://www.w3.org/2000/svg"><path d="M17.95 21.2c.04.026.08.053.124.071l.15-.489.041.026.007.004s-.002 0-.003-.002c0 0 0 0 0 0a.21.21 0 00-.054-.012l-.073.11.087-.004-.087.003-.1.153-.092.14zm0 0l.092-.14-.092.14zM9.606 7.002l.658.308.052-.725c.021-.295.058-.571.115-.842l-.49-.103.49.103c.318-1.514 1.08-2.777 2.374-3.756 2.402-1.82 5.709-1.621 7.583.355.345.364.635.76.862 1.192.52.99.705 2.069.609 3.233-.082.992-.39 1.952-.842 2.903-.195.408-.396.814-.6 1.225l-.025.049c-.211.426-.424.856-.63 1.29l.452.214-.452-.214c-.849 1.795-1.487 3.656-1.765 5.61a16.78 16.78 0 00-.165 2.688c-2.092-1.295-4.41-2.08-6.92-2.42-.936-.126-1.885-.19-2.815-.251l-.774-.053c-1.027-.075-2-.232-2.902-.585h0c-1.042-.408-1.91-1.003-2.576-1.83h0c-1.701-2.116-1.497-4.94.288-6.976a5.933 5.933 0 011.84-1.428h0c1.818-.897 3.583-.9 5.326-.13h0c.063.027.12.055.187.087l.12.056z" stroke="#8E56FF"/></svg>