<svg width="300" height="279" fill="none" xmlns="http://www.w3.org/2000/svg"><path d="M6.168 113.622l-.004.014.004-.014zm0 0c.27-1.004.545-2 .824-2.986l-.722-.205c.56-1.98 1.14-3.925 1.736-5.837l.716.224a212.682 212.682 0 011.868-5.703l-.709-.243a203.103 203.103 0 012.074-5.758l.701.265a192.013 192.013 0 012.199-5.564l-.693-.287c.792-1.915 1.604-3.79 2.435-5.624l.683.31c.836-1.844 1.69-3.648 2.565-5.411l-.672-.333a165.832 165.832 0 012.815-5.431l.66.357a157.645 157.645 0 012.962-5.226l-.645-.383c1.05-1.77 2.12-3.495 3.208-5.175l.63.408a144.784 144.784 0 013.387-4.995l-.612-.434a140.16 140.16 0 013.603-4.857l.592.46a134.75 134.75 0 013.824-4.706l-.57-.486a132.016 132.016 0 014.014-4.507l.549.512a127.855 127.855 0 014.233-4.328l-.523-.537a126.28 126.28 0 014.45-4.134l.497.561a123.95 123.95 0 014.59-3.87l-.469-.584a123.622 123.622 0 014.843-3.694l.44.607a123.174 123.174 0 014.975-3.421l-.41-.628a124.638 124.638 0 015.15-3.183l.379.647a125.105 125.105 0 015.281-2.921l-.347-.665a128.055 128.055 0 015.457-2.686l.315.68a129.834 129.834 0 015.533-2.406l-.283-.694a133.96 133.96 0 015.66-2.16l.25.707a137.078 137.078 0 015.733-1.9l-.22-.716a142.23 142.23 0 015.852-1.66l.189.726c1.972-.515 3.933-.981 5.879-1.404l-.159-.733c2.002-.434 3.989-.823 5.956-1.168l.13.739c2.009-.353 3.998-.66 5.962-.928l-.101-.743c2.035-.277 4.042-.51 6.019-.704l.073.747c2.042-.2 4.051-.36 6.021-.48l-.046-.749a171.68 171.68 0 016.071-.266l.02.75c2.071-.054 4.089-.07 6.044-.053l.007-.75c2.092.018 4.114.073 6.057.156l-.032.75c2.121.09 4.147.215 6.067.364l.058-.748c2.163.168 4.193.365 6.073.578l-.085.745c2.194.248 4.182.517 5.938.783l.113-.741c2.502.378 4.537.75 6.029 1.049l-.147.735a83.196 83.196 0 012.689.582l.137.033.033.008.008.002h.002l.033.01M6.168 113.621L180.014 4.312m0 0l.034.005h.002l.008.001.033.005.134.023c.119.02.298.05.534.093.472.086 1.171.218 2.074.405l.152-.734c1.432.296 3.37.729 5.727 1.328l-.185.726c1.673.426 3.559.935 5.625 1.54l.211-.72c1.735.508 3.596 1.083 5.564 1.731l-.235.713c1.758.578 3.601 1.216 5.517 1.917l.257-.705a180.91 180.91 0 015.446 2.092l-.28.696c1.749.704 3.542 1.459 5.371 2.266l.303-.686c1.744.77 3.52 1.587 5.321 2.454l-.326.676c1.717.826 3.456 1.699 5.211 2.62l.348-.665a166.53 166.53 0 015.125 2.804l-.371.651a161.9 161.9 0 015.002 2.972l.395-.637a156.047 156.047 0 014.913 3.17l-.418.622a150.786 150.786 0 014.766 3.339l.442-.606a145.223 145.223 0 014.654 3.542l-.466.588a140.559 140.559 0 014.483 3.71l.49-.568a136.733 136.733 0 014.346 3.916l-.514.547a131.335 131.335 0 014.149 4.078l.538-.523a129.273 129.273 0 013.98 4.277l-.56.499a126.68 126.68 0 013.759 4.428l.583-.472c1.215 1.5 2.406 3.042 3.571 4.625l-.605.445a122.732 122.732 0 013.33 4.76l.624-.415a122.478 122.478 0 013.12 4.945l-.644.385a120.114 120.114 0 012.865 5.062l.662-.354a123.749 123.749 0 012.639 5.232l-.677.321c.821 1.729 1.61 3.494 2.366 5.298l.692-.29a126.904 126.904 0 012.129 5.434l-.705.257a121.628 121.628 0 011.888 5.581l.716-.222a123.856 123.856 0 011.635 5.757l-.727.188c.493 1.91.943 3.841 1.351 5.792l.734-.153c.405 1.94.767 3.898 1.088 5.873l-.741.12c.316 1.947.59 3.911.823 5.889l.744-.088c.232 1.973.423 3.96.571 5.958l-.748.055c.147 1.971.252 3.952.317 5.942l.75-.024c.064 1.984.088 3.976.071 5.974l-.75-.006c-.017 1.976-.074 3.96-.172 5.947l.749.037a148.55 148.55 0 01-.413 5.971l-.748-.067a150.565 150.565 0 01-.647 5.912l.743.096a149.75 149.75 0 01-.887 5.912l-.739-.126a150.008 150.008 0 01-1.117 5.846l.733.155c-.412 1.947-.864 3.89-1.356 5.827l-.727-.185a149.371 149.371 0 01-1.579 5.733l.718.213a145.978 145.978 0 01-1.82 5.697l-.709-.243a144.47 144.47 0 01-2.042 5.591l.699.272c-.72 1.854-1.48 3.696-2.28 5.525l-.687-.301a142.11 142.11 0 01-2.496 5.398l.674.329a141.25 141.25 0 01-2.739 5.318l-.66-.358a135.576 135.576 0 01-2.947 5.165l.643.386a137.193 137.193 0 01-3.186 5.056l-.625-.414a135.294 135.294 0 01-3.391 4.888l.607.441a132.609 132.609 0 01-3.626 4.756l-.586-.468a129.964 129.964 0 01-3.811 4.556l.564.494a129.706 129.706 0 01-4.044 4.407l-.541-.52a126.47 126.47 0 01-4.22 4.193l.516.544a127.359 127.359 0 01-4.425 4.006l-.49-.567a126.523 126.523 0 01-4.591 3.782l.464.59a128.888 128.888 0 01-4.789 3.586l-.436-.611a129.047 129.047 0 01-4.908 3.332l.407.63a129.752 129.752 0 01-5.106 3.133l-.377-.648a130.93 130.93 0 01-5.197 2.873l.348.664c-1.75.916-3.533 1.801-5.349 2.651l-.319-.679c-1.789.838-3.61 1.644-5.465 2.415l.288.693c-1.814.755-3.66 1.477-5.536 2.167l-.259-.704a143.547 143.547 0 01-5.639 1.938l.23.714a148.268 148.268 0 01-5.72 1.708l-.2-.722c-1.891.523-3.81 1.015-5.758 1.474l.172.73c-1.926.454-3.88.875-5.862 1.263l-.144-.736c-1.918.376-3.863.721-5.835 1.034l.118.741c-1.96.311-3.946.59-5.958.837l-.092-.744c-1.935.238-3.894.445-5.877.622l.066.747c-1.98.176-3.984.322-6.013.436l-.042-.748c-1.943.109-3.909.19-5.897.241l.02.749c-1.988.051-3.998.073-6.03.064l.003-.75a210.34 210.34 0 01-5.903-.108l-.024.749a219.132 219.132 0 01-6.012-.277l.044-.749a225.072 225.072 0 01-5.907-.43l-.064.747a239.417 239.417 0 01-5.965-.587l.083-.745a256.993 256.993 0 01-6.028-.742l-.1.744a265.653 265.653 0 01-5.898-.861l.117-.741a248.933 248.933 0 01-5.696-.964l-.133.738c-2.008-.364-3.98-.748-5.917-1.151l.152-.734a219.077 219.077 0 01-5.707-1.266l-.172.73a203.85 203.85 0 01-5.758-1.445l.194-.725a189.315 189.315 0 01-5.672-1.603l-.215.719a181.09 181.09 0 01-5.614-1.779l.238-.711a170.074 170.074 0 01-5.577-1.975l-.263.702a159.072 159.072 0 01-5.469-2.159l.289-.692a151.056 151.056 0 01-5.413-2.379l-.315.681a141.926 141.926 0 01-5.296-2.588l.343-.667a133.33 133.33 0 01-5.17-2.807l-.373.651a126.622 126.622 0 01-5.072-3.061l.402-.633a118.92 118.92 0 01-4.847-3.249l-.433.612a114.64 114.64 0 01-4.774-3.562l.464-.589a109.569 109.569 0 01-4.495-3.737l-.495.564a106.934 106.934 0 01-4.34-4.027l.525-.535a103.072 103.072 0 01-4.082-4.239l-.555.505a102.048 102.048 0 01-3.837-4.471l.583-.472a100.073 100.073 0 01-3.56-4.672l-.61.437a100.92 100.92 0 01-3.31-4.916l.634-.4a101.552 101.552 0 01-2.987-5.047l-.656.363a103.617 103.617 0 01-2.707-5.238l.675-.326a105.307 105.307 0 01-2.405-5.375l-.692.287a109.602 109.602 0 01-2.118-5.53l.707-.249a112.89 112.89 0 01-1.807-5.589l-.72.212a118.483 118.483 0 01-1.528-5.705l.73-.176a122.63 122.63 0 01-1.242-5.745l-.737.141c-.376-1.962-.7-3.912-.98-5.846l.743-.107c-.284-1.968-.52-3.918-.713-5.847l-.746.074c-.2-1.992-.352-3.961-.465-5.902l.749-.043a147.307 147.307 0 01-.222-5.883l-.75.013a154.04 154.04 0 01.009-5.917l.75.016c.041-2.016.12-3.981.231-5.887l-.749-.043c.118-2.039.271-4.011.45-5.907l.747.071c.193-2.048.416-4.006.66-5.863l-.745-.097c.272-2.079.568-4.032.872-5.842l.74.124c.36-2.142.73-4.083 1.086-5.795l-.734-.153c.5-2.401.97-4.356 1.338-5.787L180.014 4.311z" stroke="#C8C2C8" stroke-width="1.5" stroke-dasharray="6 6"/></svg>