<svg width="262" height="242" fill="none" xmlns="http://www.w3.org/2000/svg"><path d="M.474 240.51a1.5 1.5 0 003-.053l-3 .053zm34.39-47.387l-.18-1.489.18 1.489zm51.484 14.288l.89-1.209-.89 1.209zm7.487 23.803l.919 1.186-.919-1.186zm-42.589-28.288l1.416-.494-1.416.494zm14.846-79.425l-1.148-.964 1.148.964zm97.03-34.322l-.653 1.35.653-1.35zm29.452 80.403l1.162.948-1.162-.948zm-50.537-16.431l-1.282.779 1.282-.779zm20.259-112.57l.817 1.257-.817-1.258zm99.039-29.182a1.5 1.5 0 00-.235-2.108L250.556.86a1.5 1.5 0 10-1.873 2.343l9.372 7.494-7.494 9.372a1.5 1.5 0 102.343 1.874l8.431-10.544zM3.473 240.457c-.189-10.659 2.492-21.539 7.843-30.038 5.337-8.477 13.29-14.543 23.728-15.807l-.36-2.978c-11.502 1.392-20.186 8.1-25.907 17.186-5.706 9.064-8.501 20.536-8.303 31.69l3-.053zm31.57-45.845c16.373-1.982 36.97 4.114 50.417 14.007l1.777-2.417c-13.994-10.296-35.344-16.651-52.554-14.568l.36 2.978zm50.417 14.007c3.32 2.443 7.265 6.459 9.272 10.607.998 2.063 1.463 4.047 1.247 5.831-.21 1.733-1.079 3.435-3.062 4.971l1.837 2.372c2.56-1.983 3.888-4.384 4.203-6.982.308-2.547-.376-5.124-1.525-7.499-2.287-4.728-6.63-9.094-10.195-11.717l-1.777 2.417zm7.457 21.409c-5.411 4.191-13.533 2.516-21.656-3.254-8.005-5.687-15.321-14.935-18.598-24.342l-2.833.987c3.5 10.046 11.226 19.785 19.694 25.801 8.352 5.932 18.135 8.675 25.23 3.18l-1.837-2.372zm-40.255-27.596c-9.883-28.366-3-57.03 14.58-77.966l-2.298-1.929c-18.208 21.684-25.371 51.444-15.114 80.882l2.833-.987zm14.58-77.966c10.977-13.075 26.357-25.697 43.238-32.965 16.869-7.263 35.103-9.13 51.989-.972l1.306-2.7c-17.899-8.65-37.081-6.575-54.481.917-17.389 7.486-33.131 20.429-44.35 33.791l2.297 1.929zm95.227-33.936c15.794 7.631 24.193 18.484 30.135 35.811l2.837-.973c-6.15-17.933-15.02-29.496-31.666-37.54l-1.306 2.701zm30.135 35.811c2.386 6.96 4.422 14.725 4.676 22.184.254 7.448-1.27 14.47-5.869 20.109l2.325 1.896c5.204-6.382 6.811-14.206 6.542-22.107-.269-7.891-2.41-15.979-4.837-23.055l-2.837.973zm-1.193 42.293c-3.842 4.711-8.014 7.087-12.229 7.842-4.238.758-8.685-.093-13.096-2.139-8.862-4.111-17.265-12.907-22.767-21.964l-2.564 1.557c5.696 9.376 14.495 18.687 24.069 23.128 4.807 2.23 9.886 3.266 14.887 2.371 5.023-.9 9.801-3.719 14.025-8.899l-2.325-1.896zm-48.092-16.261c-11.134-18.328-14.301-40.716-10.593-61.185 3.709-20.477 14.266-38.874 30.387-49.35l-1.634-2.516c-16.965 11.024-27.884 30.236-31.705 51.331-3.823 21.104-.577 44.252 10.981 63.277l2.564-1.557zm19.794-110.535c28.726-18.666 63.333-26.112 97.216-29.885l-.332-2.982c-34.032 3.79-69.201 11.301-98.518 30.351l1.634 2.516z" fill="#000"/></svg>