<svg width="40" height="40" fill="none" xmlns="http://www.w3.org/2000/svg"><g clip-path="url(#clip0_34_14996)" fill="#00001B"><path d="M32.425 4.344L22 11.918 39.468 24.61c.35-1.478.536-3.02.536-4.603 0-6.338-2.964-11.996-7.579-15.663zm-2.039-1.42A19.88 19.88 0 0019.996.008 19.875 19.875 0 008.938 3.352l3.984 12.26L30.386 2.925zM6.964 4.852C2.703 8.522 0 13.955 0 20.007c0 1.86.256 3.66.733 5.37h12.9L6.965 4.852zM1.547 27.719c2.922 6.963 9.675 11.935 17.607 12.267l3.985-12.267H1.547zm20.086 12.218c7.863-.639 14.454-5.846 17.109-12.956l-10.436-7.583-6.673 20.54z"/></g><defs><clipPath id="clip0_34_14996"><path fill="#fff" d="M0 0h40v40H0z"/></clipPath></defs></svg>