<svg width="30" height="30" fill="none" xmlns="http://www.w3.org/2000/svg"><g clip-path="url(#clip0_34_15195)" fill="#00001B"><path d="M18.397 12.218l-4.507 4.257-2.163-2.226a.623.623 0 10-.895.87l2.595 2.663c.241.242.63.25.882.018l4.958-4.676a.623.623 0 00.024-.882.638.638 0 00-.894-.024z"/><path d="M15.051 5.656c-5.151 0-9.34 4.19-9.34 9.34 0 5.152 4.189 9.341 9.34 9.341 5.152 0 9.34-4.189 9.34-9.34 0-5.152-4.188-9.34-9.34-9.34zm0 17.43c-4.463 0-8.09-3.632-8.09-8.09 0-4.457 3.627-8.09 8.09-8.09a8.09 8.09 0 110 16.18z"/><path d="M27.9 11.563l.207-3.707a.624.624 0 00-.344-.594l-3.302-1.67-1.669-3.3a.634.634 0 00-.594-.345l-3.713.2L15.39.104a.625.625 0 00-.688 0l-3.095 2.045L7.9 1.94a.623.623 0 00-.594.344l-1.67 3.301-3.3 1.67a.634.634 0 00-.344.593l.206 3.708-2.044 3.095a.625.625 0 000 .687l2.038 3.101-.206 3.708a.623.623 0 00.344.593l3.3 1.67 1.67 3.3a.634.634 0 00.594.345l3.707-.207 3.095 2.045c.207.142.48.142.688 0l3.095-2.045 3.707.207a.624.624 0 00.594-.344l1.67-3.301 3.3-1.67a.634.634 0 00.344-.593l-.206-3.708 2.044-3.095a.625.625 0 000-.687L27.9 11.563zm-1.163 6.364a.587.587 0 00-.1.382l.194 3.507-3.12 1.576a.616.616 0 00-.275.275l-1.575 3.12-3.508-.194a.683.683 0 00-.381.1l-2.926 1.932-2.926-1.932a.62.62 0 00-.344-.107h-.03l-3.508.194-1.576-3.12a.616.616 0 00-.275-.274l-3.126-1.57.194-3.507a.683.683 0 00-.1-.382l-1.932-2.925 1.932-2.926a.585.585 0 00.1-.382l-.194-3.507 3.12-1.575a.616.616 0 00.275-.275l1.575-3.12 3.508.194a.686.686 0 00.381-.1l2.926-1.932 2.926 1.931a.586.586 0 00.381.1l3.508-.193 1.575 3.12c.06.118.156.215.275.275l3.12 1.575-.194 3.507a.684.684 0 00.1.382l1.932 2.926-1.932 2.925z"/></g><defs><clipPath id="clip0_34_15195"><path fill="#fff" d="M0 0h30v30H0z"/></clipPath></defs></svg>