<svg width="30" height="30" fill="none" xmlns="http://www.w3.org/2000/svg"><path d="M23.834 21.22a.77.77 0 00.849 0c.113-.113.283-.226.396-.452-.113-.227-.283-.34-.396-.453a.771.771 0 00-.85 0c-.112.113-.282.226-.395.453.17.226.283.396.396.453zm-2.947-.452c.113.226.283.34.396.453a.77.77 0 00.849 0c.113-.114.283-.227.396-.453-.113-.227-.283-.34-.396-.453a.771.771 0 00-.85 0c-.112.113-.282.226-.395.453zm-1.302-.453a.77.77 0 00-.849 0c-.113.113-.283.226-.396.453.113.226.283.34.396.453.283.17.566.17.85 0 .112-.114.282-.227.395-.453-.113-.227-.283-.34-.396-.453z" fill="#00001B"/><path d="M27.906 10.584l-.056-1.981c0-.283-.057-1.585-.057-1.472 0-.17 0-.34-.056-.51-.17-.679-.68-1.245-1.302-1.528-.34-.113-.68-.17-1.02-.17h-.622c0-.113-.056-.283-.226-.283l-4.755-1.81c-1.585-.566-3.17-1.132-4.811-1.642 1.528.68 3.113 1.359 4.641 2.038l3.906 1.642c-.226.113-.51.17-.736.283-1.302-.113-2.604-.227-3.906-.283a25.523 25.523 0 00-2.943 0V4.81v.057c-.34 0-.623 0-.962.056.283.057.51.114.792.17-.113.057-.17.113-.283.113a.965.965 0 01-.566 0l-.51-.17c-.112-.113-.17-.17-.17-.226 0-.056.058-.113.17-.226a2.63 2.63 0 01.51-.17c.17 0 .396-.057.566 0 .17.057.396.17.51.396.113-.226-.057-.566-.283-.736a1.985 1.985 0 00-.793-.34c-.283-.056-.623 0-.905.17-.284.114-.623.453-.623.906s.34.793.623.906c.283.17.622.17.905.17.283-.057.566-.114.793-.34.113-.113.226-.283.226-.453.962.17 1.925.34 2.887.453.736.113 1.471.17 2.15.226-.452.17-.962.34-1.414.566L15 8.093l-4.585-1.755a112.23 112.23 0 00-3.962-1.471l3.905-1.642c1.528-.679 3.113-1.358 4.642-2.038-1.642.567-3.227 1.133-4.812 1.642L5.435 4.584c-.114.056-.227.17-.227.283h-.622c-.34 0-.68 0-1.02.17-.622.283-1.131.849-1.301 1.528-.057.17-.057.34-.057.51 0 .112-.056 1.584-.056 1.471l-.057 1.981c-.17 5.83-.17 7.302-.226 9.962-.057.793.34 1.642.962 2.151.34.227.68.453 1.075.51.283 0 .51.056.68.056h7.188c.057.397.057.793-.056 1.189a3.753 3.753 0 01-.51 1.076h-.905c-.397 0-.793 0-1.246.056a2.856 2.856 0 00-1.302.51c-.792.509-1.358 1.301-1.528 2.207-.056.283.17.51.396.51 2.83-.114 5.604-.227 8.434-.453-2.604-.227-5.207-.34-7.811-.396.396-.736 1.075-1.246 1.925-1.359.283-.057.735 0 1.132 0l4.754.057 4.755-.057c.396 0 .793-.057 1.132 0 .85.113 1.528.623 1.925 1.358-2.321.057-5.49.227-7.812.397 2.434.226 6.227.34 8.434.396.283 0 .453-.226.396-.51-.17-.905-.735-1.698-1.528-2.207a5.187 5.187 0 00-1.302-.51c-.51-.056-.849-.056-1.245-.056h-.906a4.632 4.632 0 01-.51-1.076 2.854 2.854 0 01-.056-1.188h7.189c.17 0 .396 0 .623-.057.396-.113.792-.283 1.075-.51.623-.509 1.019-1.358.962-2.094l-.056-1.98c-.113-2.661-.17-5.322-.227-7.925zM14.831 8.999c.113.056.226.056.283 0C19.416 7.3 19.076 7.414 20.66 6.79l-.056 2.378v.792c-.227.226-.51.34-.736.453-.51.226-1.02.283-1.585.396-1.076.17-2.151.227-3.283.227-1.076 0-2.208-.057-3.283-.227-.51-.113-1.076-.17-1.585-.396-.283-.113-.566-.226-.736-.453v-.79L9.34 6.79c1.585.623.963.396 5.49 2.208zm5.774 1.302v1.019c0 .17-.114.283-.284.396-.283.283-.679.453-1.132.622-.452.17-.905.284-1.358.34-.906.17-1.868.226-2.83.226s-1.925-.056-2.83-.226a5.967 5.967 0 01-1.359-.34c-.453-.17-.849-.34-1.132-.622-.17-.113-.226-.283-.283-.396V10.3c.17.17.34.34.566.454.51.34 1.076.509 1.642.679 1.132.34 2.264.396 3.396.453 1.132 0 2.32-.114 3.396-.453.566-.17 1.132-.34 1.642-.68.226-.113.396-.283.566-.452zm-2.152 15.226h-6.905a3.049 3.049 0 001.019-2.32h4.811c.057.905.396 1.697 1.075 2.32zm8.718-5.038c0 .793-.566 1.529-1.359 1.642-.113 0-.226.056-.396 0h-2.49L15 22.074l-7.925.057h-2.49c-.17 0-.283 0-.397-.057a1.587 1.587 0 01-1.358-1.585v-1.528c1.981.227 3.906.34 5.887.396 2.094.114 4.188.114 6.34.114 2.094 0 4.188-.057 6.339-.114a68.522 68.522 0 005.887-.396l-.113 1.528zm.283-12.905c0 .113-.114 3.17-.114 3-.113 5.434-.17 7.471-.17 8.32a68.522 68.522 0 00-5.886-.396c-2.095-.113-4.189-.113-6.34-.113-2.094 0-4.189.057-6.34.113-1.98.057-3.905.17-5.886.396 0-.735-.057-2.773-.17-8.32 0-.114-.113-3.17-.113-3 0-.34-.057-.68 0-.963A1.967 1.967 0 013.51 5.206c.453-.226 1.019-.226 1.528-.226 0 .113.057.226.17.283.34.17.566.226 3.396 1.358l-.056 2.604v2.264c.056.34.226.623.453.85.453.396.905.622 1.415.792.51.17.962.283 1.471.396.963.17 1.982.227 3 .283 1.02 0 1.982-.056 3-.283.51-.113.963-.226 1.472-.396.51-.17.962-.396 1.415-.793.227-.226.396-.509.453-.849V9.225l-.056-2.604c.396-.17.735-.283 1.132-.452 0 .792.056 1.528.113 2.32.056.963.17 1.925.283 2.887.283-1.641.396-3.849.396-5.547.453-.17.962-.396 1.415-.566.057-.057.17-.113.17-.17v-.056c.566 0 1.075 0 1.528.226a2.08 2.08 0 011.076 1.415c.226.226.17.566.17.906z" fill="#00001B"/></svg>