<svg width="112" height="52" fill="none" xmlns="http://www.w3.org/2000/svg"><g opacity=".8" filter="url(#filter0_d_34_14975)"><path d="M1.036 38.7s13.55 9.412 19.14 4.857c4.162-3.393 4.415-14.946 4.415-14.946s7.79 9.881 12.108 7.868c4.23-1.971 2.306-14.042 2.306-14.042s5.438 9.345 9.647 8.923c5.035-.506 3.361-14.494 3.361-14.494s4.54 9.511 8.592 9.374c4.896-.166 2.658-14.193 2.658-14.193s3.889 9.353 7.89 9.675c5.08.41 3.009-14.343 3.009-14.343s5.07 9.01 9.295 9.073c5.476.082.044-11.895 4.416-14.946 5.345-3.73 17.381 5.61 17.381 5.61" stroke="#6440FB"/></g><defs><filter id="filter0_d_34_14975" x=".752" y=".126" width="110.809" height="51.175" filterUnits="userSpaceOnUse" color-interpolation-filters="sRGB"><feFlood flood-opacity="0" result="BackgroundImageFix"/><feColorMatrix in="SourceAlpha" values="0 0 0 0 0 0 0 0 0 0 0 0 0 0 0 0 0 0 127 0" result="hardAlpha"/><feOffset dx="6" dy="6"/><feComposite in2="hardAlpha" operator="out"/><feColorMatrix values="0 0 0 0 0 0 0 0 0 0 0 0 0 0 0 0 0 0 0.25 0"/><feBlend in2="BackgroundImageFix" result="effect1_dropShadow_34_14975"/><feBlend in="SourceGraphic" in2="effect1_dropShadow_34_14975" result="shape"/></filter></defs></svg>