<svg width="30" height="30" fill="none" xmlns="http://www.w3.org/2000/svg"><g opacity=".8" fill="#EBECED"><path d="M27.928 11.914a1.88 1.88 0 00-1.412-1.256l-6.584-1.329-3.298-5.85a1.877 1.877 0 00-3.267-.001l-3.299 5.851-6.585 1.33a1.88 1.88 0 00-1.412 1.259 1.88 1.88 0 00.404 1.847L7.02 18.71l-.771 6.675a1.88 1.88 0 00.761 1.73 1.916 1.916 0 001.882.188L15 24.507l6.11 2.797c.213.097.438.152.68.166l.113.003h.032a1.885 1.885 0 001.8-2.222l-.755-6.54 4.547-4.947a1.88 1.88 0 00.4-1.85zm-.919 1.374l-4.765 5.183.795 6.873.004.027a1.178 1.178 0 01-1.122 1.398h-.024l-.077-.002a1.16 1.16 0 01-.418-.103L15 23.734l-6.4 2.929a1.202 1.202 0 01-1.176-.117 1.176 1.176 0 01-.476-1.082l.808-6.993-4.763-5.182a1.175 1.175 0 01-.253-1.154 1.18 1.18 0 01.882-.788l6.901-1.392 3.457-6.132a1.173 1.173 0 012.041 0l3.456 6.132 6.9 1.392a1.173 1.173 0 01.632 1.941z"/><path d="M15.002 5.828l-3.265 5.793-6.518 1.315 4.5 4.896-.763 6.605 6.046-2.767 6.047 2.767-.764-6.605 4.5-4.896-6.518-1.315-3.265-5.793z"/></g></svg>