<svg width="60" height="75" fill="none" xmlns="http://www.w3.org/2000/svg"><path opacity=".12" d="M52.133 3.626A36.976 36.976 0 0033.18.977a36.902 36.902 0 00-17.724 7.186 36.976 36.976 0 00-11.757 15.1 37.126 37.126 0 00-2.651 18.98 37.202 37.202 0 007.165 17.79A37.127 37.127 0 0023.278 71.88a36.977 36.977 0 0018.942 2.736 36.9 36.9 0 0017.757-7.103L49.549 53.544a19.562 19.562 0 01-9.413 3.766 19.604 19.604 0 01-10.042-1.45 19.684 19.684 0 01-7.987-6.28 19.722 19.722 0 01-3.798-9.43 19.682 19.682 0 011.405-10.063 19.603 19.603 0 016.233-8.005 19.563 19.563 0 019.396-3.81 19.604 19.604 0 0110.048 1.404l6.742-16.05z" fill="url(#paint0_linear_34_1306)"/><defs><linearGradient id="paint0_linear_34_1306" x1="8" y1="17.004" x2="51.765" y2="72.154" gradientUnits="userSpaceOnUse"><stop stop-color="#186035"/><stop offset=".2" stop-color="#32C66D" stop-opacity=".2"/></linearGradient></defs></svg>