<svg width="50" height="50" fill="none" xmlns="http://www.w3.org/2000/svg"><path d="M18.75 42.188a1.563 1.563 0 01-1.563-1.563A14.08 14.08 0 003.126 26.562a1.563 1.563 0 110-3.125 17.208 17.208 0 0117.188 17.188 1.563 1.563 0 01-1.563 1.563z" fill="#000"/><path d="M12.5 42.188a1.563 1.563 0 01-1.563-1.563 7.822 7.822 0 00-7.812-7.813 1.563 1.563 0 110-3.124 10.95 10.95 0 0110.938 10.937 1.563 1.563 0 01-1.563 1.563z" fill="#000"/><path d="M6.25 42.188a1.563 1.563 0 01-1.563-1.563 1.563 1.563 0 00-1.562-1.563 1.563 1.563 0 110-3.124 4.688 4.688 0 014.688 4.687 1.563 1.563 0 01-1.563 1.563zM46.875 7.813H3.125a1.562 1.562 0 00-1.563 1.562v9.375a1.563 1.563 0 001.563 1.563 20.336 20.336 0 0120.313 20.312A1.563 1.563 0 0025 42.188h21.875a1.563 1.563 0 001.563-1.563V9.375a1.563 1.563 0 00-1.563-1.563z" fill="#000"/></svg>