<svg width="50" height="50" fill="none" xmlns="http://www.w3.org/2000/svg"><path fill-rule="evenodd" clip-rule="evenodd" d="M7.658 41.12c-.649-.084-1.172-.328-1.658-.685-.888-.651-1.328-1.06-1.881-1.885-.478-.714-.78-1.36-1.072-2.873-.37-1.914 0-11.29 0-11.29-.211-3.932 3.599-5.973 6.382-6.737 2.256-.62 4.706-.843 6.969-.843 2.22 0 4.488.182 6.608.843 2.165.675 4.532 1.988 5.634 4.115-.15.213-.328.476-.565.819a1.343 1.343 0 01-.037.052 2.202 2.202 0 00-2.107-1.58h-2.537a2.203 2.203 0 00-2.195 2.194v8.701c-1.082 1.357-1.283 3.193-.476 4.79l.896 1.774c.075.147.1.292.08.456v.002l-.235 1.973a4.63 4.63 0 00-.02.204H9.227V25.813a.785.785 0 00-1.569 0v15.306zm8.56-25.551c-3.18 0-5.761-3.21-5.761-8.218 0-5.007 2.702-5.882 5.882-5.882 3.18 0 5.64.875 5.64 5.882s-2.582 8.218-5.761 8.218zm11.438 19.99a7.037 7.037 0 00-.025.6c0 3.833 3.126 6.96 6.96 6.96s6.96-3.127 6.96-6.96a6.91 6.91 0 00-.65-2.936 2.277 2.277 0 00-.11-1.168 2.296 2.296 0 001.713-2.215c0-.444-.129-.86-.351-1.213.482-.383.807-.956.86-1.603.282.32.488.712.593 1.157l.452 1.934c.124.53.368.951.765 1.322l1.447 1.36a2.607 2.607 0 01.55 3.116l-.896 1.773c-.245.485-.33.965-.266 1.504l.237 1.973a2.611 2.611 0 01-1.583 2.74l-1.826.78c-.5.215-.872.529-1.17.983l-1.086 1.663a2.609 2.609 0 01-2.974 1.081l-1.902-.573a2.518 2.518 0 00-1.527 0l-1.902.573a2.606 2.606 0 01-2.972-1.08l-1.087-1.664a2.54 2.54 0 00-1.171-.982l-1.825-.78a2.608 2.608 0 01-1.582-2.741l.235-1.973a2.524 2.524 0 00-.265-1.504l-.743-1.47c.27.118.567.185.879.185h2.537c.698 0 1.323-.33 1.725-.842zm.47-2.417v-9.094a2.25 2.25 0 00.916-.795c.893-1.292.807-1.274 1.975-2.038 1.975-1.291 2.069-1.81 2.762-4.845.742.336 1.063 1.033 1.15 1.814.165 1.484-.47 3.281-.998 3.89a.392.392 0 00.297.65h5.684c.611 0 1.111.498 1.111 1.109 0 .61-.5 1.11-1.11 1.11h-3.92a.392.392 0 000 .784h4.741c.611 0 1.11.499 1.11 1.11 0 .61-.499 1.11-1.11 1.11h-4.74a.392.392 0 000 .784h4.224c.61 0 1.11.5 1.11 1.11 0 .61-.5 1.11-1.11 1.11h-4.224a.392.392 0 000 .785h2.651c.611 0 1.11.499 1.11 1.11 0 .61-.499 1.11-1.11 1.11h-6.6c-1.709 0-2.847-.414-3.92-.814zm-4.732-10.518h2.537c.344 0 .626.281.626.626v10.956a.627.627 0 01-.626.626h-2.537a.628.628 0 01-.626-.626V23.25c0-.345.283-.626.626-.626z" fill="#00001B"/></svg>