<svg width="60" height="75" fill="none" xmlns="http://www.w3.org/2000/svg"><path opacity=".12" d="M51.602 3.15A36.976 36.976 0 0032.648.5a36.9 36.9 0 00-17.724 7.186 36.975 36.975 0 00-11.758 15.1 37.126 37.126 0 00-2.65 18.981 37.202 37.202 0 007.164 17.79 37.128 37.128 0 0015.067 11.845 36.978 36.978 0 0018.941 2.737 36.902 36.902 0 0017.757-7.104L49.018 53.068a19.562 19.562 0 01-9.414 3.766 19.602 19.602 0 01-10.041-1.451 19.683 19.683 0 01-7.987-6.28 19.722 19.722 0 01-3.799-9.43 19.682 19.682 0 011.406-10.063 19.602 19.602 0 016.233-8.005 19.562 19.562 0 019.396-3.81A19.602 19.602 0 0144.86 19.2l6.742-16.05z" fill="url(#paint0_linear_34_1411)"/><defs><linearGradient id="paint0_linear_34_1411" x1="7.469" y1="16.527" x2="51.233" y2="71.677" gradientUnits="userSpaceOnUse"><stop stop-color="#186035"/><stop offset=".2" stop-color="#32C66D" stop-opacity=".2"/></linearGradient></defs></svg>