<svg width="50" height="50" fill="none" xmlns="http://www.w3.org/2000/svg"><path d="M42.497 20.573l-9.046-7.995h-3.857l4.361 7.995h8.542zM16.45 12.578h-3.858l-9.037 7.995h8.541l4.353-7.995zm15.619 7.995l-4.362-7.995h-9.369l-4.354 7.995H32.07zm-18.264 1.661l9.162 23.033 9.27-23.033H13.805zm-10.68 0L20.307 43.05l-8.285-20.815H3.125zm30.894 0l-8.277 20.55 17.166-20.55h-8.89zM5.874 8.672h1.455v1.455a.828.828 0 101.655 0V8.672h1.455a.828.828 0 000-1.655H8.984V5.562a.828.828 0 00-1.655 0v1.455H5.874a.828.828 0 000 1.655zM46.06 30.421h-1.455v-1.455a.828.828 0 00-1.655 0v1.455h-1.456a.828.828 0 100 1.655h1.456v1.455a.827.827 0 101.655 0v-1.455h1.455a.828.828 0 000-1.655z" fill="#fff"/></svg>