<svg width="50" height="50" fill="none" xmlns="http://www.w3.org/2000/svg"><path fill-rule="evenodd" clip-rule="evenodd" d="M35.918 39.883H22.413c-.54-3.026-2.366-4.186-5.475-3.48-2.074.36-3.09.07-3.046-.87-.01-1.46-.26-1.99-.636-2.272-.833-.642.095-1.467 1.048-1.985-.802-.064-1.832-.709-1.61-1.225.355-1.215.188-1.704-.36-1.988-1.068-.522-1.285-1.186-.653-1.994.734-.797 1.316-1.607 1.745-2.43.394-.758.539-1.51.454-2.36-.04-.392-.06-.79-.06-1.192 0-6.528 5.292-11.82 11.82-11.82 6.528 0 11.82 5.292 11.82 11.82 0 2.912-1.054 5.578-2.8 7.638a4.028 4.028 0 00-.971 2.257c-.32 2.905.46 6.302 2.229 9.901zm-5.715-20.308a1.953 1.953 0 000-3.581v-2.253a.781.781 0 00-1.563 0v2.253a1.954 1.954 0 000 3.58v6.858a.781.781 0 001.563 0v-6.857zm-5.345-5.834v7.834a1.953 1.953 0 000 3.58v1.277a.781.781 0 101.563 0v-1.276a1.954 1.954 0 000-3.581V13.74a.781.781 0 00-1.563 0zm-2.219 12.69v-6.856a1.953 1.953 0 000-3.581v-2.253a.781.781 0 00-1.563 0v2.253a1.953 1.953 0 000 3.58v6.858a.781.781 0 101.563 0zm17.142 2.282h8.07c.538 0 .977.438.977.976v8.071a.978.978 0 01-.976.977H39.78a.978.978 0 01-.977-.977v-8.07c0-.539.44-.977.977-.977zM15.014 5.47a21.567 21.567 0 019.38-2.127 21.592 21.592 0 0115.315 6.343 21.592 21.592 0 016.332 16.072.779.779 0 101.557.049c.009-.267.018-.538.018-.805 0-12.825-10.397-23.222-23.222-23.222-3.48 0-6.915.778-10.052 2.287a.778.778 0 00.672 1.403zm23.888 35.615a.78.78 0 111.044 1.16 23.18 23.18 0 01-15.552 5.979c-2.111 0-4.23-.29-6.262-.858a.779.779 0 01.415-1.501 21.65 21.65 0 005.847.797 21.538 21.538 0 0014.508-5.577zm-33.145-5.04a.78.78 0 01-1.342.794 23.243 23.243 0 01-1.682-20.216.779.779 0 011.452.562 21.583 21.583 0 00-1.45 7.817c0 3.907 1.027 7.683 3.022 11.044zM7.915 4.29a5.482 5.482 0 100 10.963 5.482 5.482 0 000-10.963zm.86 31.622L2.938 46.024h11.678l-5.84-10.113zM25.64 10.817a9.27 9.27 0 109.27 9.27 9.27 9.27 0 00-9.27-9.27z" fill="#fff"/></svg>