<svg width="50" height="50" fill="none" xmlns="http://www.w3.org/2000/svg"><g clip-path="url(#clip0_34_914)" fill="#fff"><path d="M48.861 16.744c-.227-.152-.53-.076-.757.075l-9.849 6.818v-6.212a.796.796 0 00-.378-.681c-.228-.152-.53-.076-.758.075l-8.864 6.667v-6.06a.796.796 0 00-.378-.682c-.228-.152-.53-.076-.758 0l-8.94 6.06 3.789 25.379c.075.379 0 .758-.076 1.06h4.166v-10.15a.76.76 0 01.758-.758h8.41a.76.76 0 01.757.758v10.151h12.5a.76.76 0 00.757-.757v-31.06a.796.796 0 00-.379-.682zm-22.045 16.59c0 .303-.227.53-.53.53H22.27a.518.518 0 01-.53-.53V29.85c0-.302.227-.53.53-.53h4.015c.303 0 .53.228.53.53v3.485zm9.015 0c0 .303-.227.53-.53.53h-4.015a.518.518 0 01-.53-.53V29.85c0-.302.227-.53.53-.53H35.3c.303 0 .53.228.53.53v3.485zm9.091 0c0 .303-.227.53-.53.53h-4.015a.518.518 0 01-.53-.53V29.85c0-.302.227-.53.53-.53h4.015c.303 0 .53.228.53.53v3.485zM15.61 15.906H5.686l-.303 2.045h10.53l-.303-2.045zM5.152 19.39L.758 48.406c0 .227 0 .454.151.606a.86.86 0 00.606.227H19.85c.227 0 .454-.076.53-.227a.59.59 0 00.151-.606L16.137 19.39H5.152zm9.699-8.784c-.076-.379-.379-.606-.758-.606H7.2c-.38 0-.682.227-.758.606l-.606 3.788h9.47l-.455-3.788zm-1.289-2.123a.76.76 0 00.758-.757V4.468a.76.76 0 00-.758-.757c-.454 0-.757.303-.757.757v3.334c0 .378.379.681.757.681zM10.68 5.76a.76.76 0 00.757-.758V1.82a.76.76 0 00-.757-.758c-.455 0-.758.303-.758.758v3.257c0 .38.303.682.758.682zM7.726 8.483a.76.76 0 00.758-.757V4.468a.76.76 0 00-.758-.757.76.76 0 00-.757.757v3.334c0 .378.379.681.757.681z"/><path d="M48.713 7.197c-.076 0-.606-.152-.985-.303-.151-.455-.303-.91-.53-1.364l.53-.909c.076-.227 0-.606-.227-.833L46.213 2.5a.806.806 0 00-.909-.152l-.91.53c-.454-.226-.908-.454-1.363-.53l-.303-.984c0-.38-.303-.606-.682-.606h-1.893a.728.728 0 00-.682.53l-.228.985c-.454.151-.909.303-1.363.53l-.91-.53c-.302-.152-.605-.076-.908.151l-1.288 1.364a.805.805 0 00-.152.909l.53.909c-.227.455-.454.91-.606 1.364l-.984.303a.728.728 0 00-.53.682v1.893c0 .303.227.606.53.682l.984.303c.152.455.303.91.607 1.364l-.53.91c-.152.302-.152.68.15.908l1.289 1.288a.805.805 0 00.909.151l.909-.53c.454.228.909.455 1.363.53l.303.985c.076.303.38.53.682.53h1.894a.728.728 0 00.682-.53l.303-.985c.455-.151.91-.303 1.364-.53l.909.53c.303.152.606.076.909-.151l1.288-1.288a.805.805 0 00.151-.909l-.606-.985c.227-.454.455-.909.53-1.363l.985-.303a.728.728 0 00.53-.682V7.879c.076-.303-.15-.606-.454-.682zm-7.576 4.394a2.716 2.716 0 01-2.727-2.727 2.716 2.716 0 012.727-2.728 2.716 2.716 0 012.728 2.728 2.716 2.716 0 01-2.728 2.727z"/></g><defs><clipPath id="clip0_34_914"><path fill="#fff" d="M0 0h50v50H0z"/></clipPath></defs></svg>