<svg width="40" height="40" fill="none" xmlns="http://www.w3.org/2000/svg"><path fill-rule="evenodd" clip-rule="evenodd" d="M12.373 10.039V4.502l-4.675 1.79v5.538l4.675-1.791zm19.882 2.795v15.993h-3.649v.938h4.118a.47.47 0 00.469-.469V12.834h-.938zm-24.557 0h-.937v16.462c0 .259.21.469.469.469h4.117v-.938H7.698V12.833zM28.99 35.742H10.965v1.089c0 .6.488 1.088 1.088 1.088h15.848c.6 0 1.088-.488 1.088-1.088v-1.09zm-1.877-10.958h-14.27a.558.558 0 00-.558.557v9.463H27.67v-9.463a.557.557 0 00-.557-.557zm-2.613 4.68a.469.469 0 010 .663l-2.25 2.25a.468.468 0 11-.663-.663l1.918-1.919-1.918-1.919a.469.469 0 01.663-.663l2.25 2.251zm-3.564-2.366l-1.07 5.57a.468.468 0 11-.92-.176l1.07-5.571a.47.47 0 01.92.177zm-2.571.779l-1.92 1.918 1.92 1.919a.469.469 0 01-.663.663l-2.25-2.25a.467.467 0 010-.663l2.25-2.25a.469.469 0 01.663.663zm1.61-9.289a2.854 2.854 0 002.851-2.85 2.854 2.854 0 00-2.85-2.851 2.854 2.854 0 00-2.851 2.85 2.854 2.854 0 002.85 2.851zm4.844 5.26c-.666-1.746-2.43-2.77-4.843-2.77s-4.178 1.024-4.843 2.77h9.686zM28.423 3.82l4.301 1.648 4.301-1.648-4.3-1.648-4.302 1.648zm3.832 8.01l-4.675-1.791V4.502l4.675 1.79v5.538zm.938-5.538l4.674-1.79v5.537l-4.674 1.79V6.293zM2.928 3.82L7.23 2.172l4.3 1.648-4.3 1.648L2.928 3.82zm3.833 8.01V6.292l-4.675-1.79v5.537l4.675 1.79z" fill="#000"/></svg>