<svg width="40" height="40" fill="none" xmlns="http://www.w3.org/2000/svg"><path d="M38.276 15.75a19.179 19.179 0 00-.902-1.75L33.12 25.558a3.987 3.987 0 01-.697 1.184 7.453 7.453 0 006.22-10.096 15.39 15.39 0 00-.366-.896zM13.856 5.339A19.59 19.59 0 002.234 31.062c.026.053.043.104.07.157a7.446 7.446 0 0013.05 1.271 13.927 13.927 0 016.448-5.235c.084-.033.167-.058.25-.089a5.156 5.156 0 013.216-2.877 4.054 4.054 0 01.376-1.82l6.583-14.256a19.628 19.628 0 00-18.37-2.874zm-5.108 21.75a3.333 3.333 0 110-6.666 3.333 3.333 0 010 6.666zm4.167-9.584a3.334 3.334 0 110-6.667 3.334 3.334 0 010 6.667zm10-2.916a3.333 3.333 0 110-6.666 3.333 3.333 0 010 6.666zM37.894 3.462a1.548 1.548 0 00-2 .782l-8.736 18.92a2.381 2.381 0 00.445 2.65 3.52 3.52 0 00-4.054 2.076c-1.349 3.259.785 4.688-.565 7.946a8.771 8.771 0 007.084-5.25 3.516 3.516 0 00-1.042-4.072 2.375 2.375 0 002.53-1.531l7.2-19.56a1.55 1.55 0 00-.862-1.96z" fill="#000"/></svg>