<svg width="40" height="40" fill="none" xmlns="http://www.w3.org/2000/svg"><path d="M21.181 13.31c-.125 1.023.985 2.367 3.35 2.958 2.53.633 3.243 1.998 3.873 3.203.468.895.88 1.683 2.006 2.266A14.383 14.383 0 0029.36 9.75c-1.281 1.064-3.17 2.125-5.606 2.125-1.455 0-2.465.563-2.573 1.435zm-3.158-6.157c.29.435.584.48 1.968-.055 1.033-.399 2.318-.896 3.484-.119.817.545 2.166-.21 3-.797a14.359 14.359 0 00-6.07-3.245c-2.26 2.344-2.704 3.732-2.382 4.216zM7.156 21.528c.998-.46 1.593-2.201 1.593-4.655 0-2.671 1.338-3.242 2.518-3.746 1.02-.435 1.984-.846 2.507-2.676.784-2.745-2.323-5.048-4.009-6.068a14.38 14.38 0 00-6.969 15.4c1.898 1.583 3.403 2.186 4.36 1.745z" fill="#000"/><path d="M11.215 21.819c-.012-.68.215-1.262.656-1.683.854-.815 2.285-.827 3.48-.03.294.196.565.169 1.765-.921.586-.532 1.192-1.082 1.908-1.37.91-.367 1.791-.216 2.62.447 1.372 1.097 1.426 2.504 1.095 3.951l3.249-1.528a.625.625 0 01.532 0l1.623.763c-.357-.46-.608-.941-.846-1.397-.582-1.112-1.085-2.073-3.07-2.57-1.39-.347-2.53-.953-3.298-1.752-.746-.777-1.097-1.69-.988-2.57.189-1.54 1.686-2.534 3.813-2.534 2.15 0 3.819-.986 4.931-1.94a14.482 14.482 0 00-1.303-1.612c-1.843 1.367-3.463 1.705-4.6.947-.583-.388-1.305-.155-2.34.245-.554.215-1.215.47-1.853.47-.59 0-1.159-.218-1.605-.888-.765-1.147-.098-2.893 1.979-5.195a14.37 14.37 0 00-7.896 1.077c.837.558 1.77 1.289 2.534 2.168 1.387 1.599 1.85 3.247 1.378 4.9-.686 2.403-2.09 3.001-3.217 3.482-1.097.468-1.758.75-1.758 2.596 0 1.763-.302 4.858-2.32 5.79a2.84 2.84 0 01-1.193.254c-.912 0-1.959-.387-3.132-1.156a14.431 14.431 0 0010.286 9.12c-.168-2.03-.593-5.004-1.677-6.812-.488-.811-.741-1.57-.753-2.253z" fill="#000"/><path d="M15.002 26.25a.626.626 0 01.359-.566l5.881-2.768c.644-2.03.541-2.941-.38-3.679-.938-.75-1.606-.31-2.907.872-.916.831-2.055 1.865-3.3 1.035-.682-.455-1.51-.5-1.923-.104-.45.428-.335 1.32.306 2.387.57.951 1.552 3.195 1.877 7.688 1.273.174 2.563.179 3.837.013V28.41l-3.391-1.595a.624.624 0 01-.36-.566zm11.248 5.625a.623.623 0 01-.266-.06L20 29v5.625c2.082 1.079 4.183 1.626 6.25 1.626s4.168-.547 6.25-1.626V29l-5.984 2.816a.623.623 0 01-.266.06z" fill="#000"/><path d="M36.25 29.997h1.25v-3.75a.625.625 0 00-.624-.625H34.08l-7.83-3.684-9.156 4.309 9.157 4.309 7.829-3.684h2.17v3.125zm.625 3.753s-1.25.625-1.25 3.75h2.5c0-3.125-1.25-3.75-1.25-3.75zm0 0a1.25 1.25 0 100-2.5 1.25 1.25 0 000 2.5z" fill="#000"/></svg>