<svg width="40" height="40" fill="none" xmlns="http://www.w3.org/2000/svg"><path d="M36.053 3.719H3.942c-1.278 0-2.278 1-2.278 2.222v20.833c0 1.223 1 2.278 2.278 2.278h32.166c1.223 0 2.278-1 2.278-2.278V5.941a2.327 2.327 0 00-2.333-2.222zM19.997 25.552c-5.055 0-9.222-4.111-9.222-9.222 0-5.056 4.111-9.222 9.222-9.222 5.056 0 9.223 4.11 9.223 9.222 0 5.11-4.167 9.222-9.223 9.222z" fill="#000"/><path d="M24.162 16.383c0 .555-.278 1.055-.778 1.389l-4.611 2.777a1.568 1.568 0 01-.834.223c-.277 0-.555-.056-.777-.223-.5-.277-.834-.833-.834-1.389v-5.555c0-.556.278-1.111.834-1.389a1.661 1.661 0 011.61 0l4.612 2.778c.5.278.777.778.777 1.389zM38.33 34.167a.557.557 0 01-.555.555h-26.61c-.334.945-1.334 1.611-2.612 1.611-1.222 0-2.278-.666-2.611-1.61H2.72a.557.557 0 01-.556-.556c0-.334.222-.556.556-.556h3.222C6.22 32.667 7.275 32 8.552 32c1.279 0 2.279.667 2.612 1.611h26.611c.334 0 .556.222.556.556z" fill="#000"/></svg>