<svg width="40" height="40" fill="none" xmlns="http://www.w3.org/2000/svg"><g clip-path="url(#clip0_34_1246)" fill="#000"><path d="M26.195 20.167a6.749 6.749 0 01-1.928 3.955c-1.322 1.322-3.17 1.945-5.49 1.851-1.627-.064-2.379.361-2.502.439a2.717 2.717 0 01-1.8.675c-.73 0-1.416-.284-1.933-.8a2.75 2.75 0 01-.426-3.314l.436-.693c.149-.361.35-1.076.303-2.23-.093-2.32.53-4.167 1.851-5.49a6.711 6.711 0 013.964-1.93 6.392 6.392 0 011.332-2.77h-15.7a3.132 3.132 0 00-3.13 3.127v15.515h32.642V13.097l-3.967 4.86a6.392 6.392 0 01-3.651 2.21zM1.172 31.844a3.132 3.132 0 003.129 3.127h8.892v2.683h-1.97a1.172 1.172 0 000 2.344h12.54a1.172 1.172 0 000-2.344H21.79V34.97h8.893a3.132 3.132 0 003.129-3.127v-1H1.172v1z"/><path d="M14.231 24.051l-.001.001-.001.001-.001.001a.39.39 0 00.554.55c.024-.022 1.207-1.116 4.122-.999 1.64.067 2.898-.326 3.738-1.167a4.422 4.422 0 000-6.246 4.388 4.388 0 00-3.123-1.294c-1.18 0-2.289.46-3.123 1.294-.84.84-1.233 2.098-1.167 3.738.118 2.931-.988 4.111-.997 4.12l-.001.001zM26.09 17.76a4.04 4.04 0 001.965-1.31l1.498-1.835-5.334-5.334-1.828 1.493a4.033 4.033 0 00-1.313 1.964 6.702 6.702 0 013.215 1.797c.92.92 1.52 2.042 1.797 3.225zM38.127.704A2.388 2.388 0 0034.92.543l-8.872 7.246 4.999 4.999 7.243-8.876a2.39 2.39 0 00-.162-3.208z"/></g><defs><clipPath id="clip0_34_1246"><path fill="#fff" d="M0 0h40v40H0z"/></clipPath></defs></svg>