<svg width="40" height="40" fill="none" xmlns="http://www.w3.org/2000/svg"><path d="M20 16.405a3.93 3.93 0 100-7.858 3.93 3.93 0 000 7.858z" fill="#000"/><path d="M37.08 1.828h-2.5c-.687 0-1.25.563-1.25 1.25v4.583h-3.662a1.232 1.232 0 00-.508-.033c-.05.008-.096.021-.142.033H10.977c-.046-.012-.092-.029-.142-.033a1.228 1.228 0 00-.508.033H6.664V3.078c0-.687-.562-1.25-1.25-1.25h-2.5c-.687 0-1.25.563-1.25 1.25v9.584c0 .687.563 1.25 1.25 1.25h2.5c.688 0 1.25-.563 1.25-1.25V8.495h2.458l-.033.025a1.257 1.257 0 00-.254 1.679l6.592 9.692.808 7.679-4.592 7.983a1.251 1.251 0 00.413 1.621l1.183.788a1.246 1.246 0 001.733-.346l4.68-7.017c.158-.238.537-.238.691 0l4.68 7.017a1.236 1.236 0 001.041.558c.246 0 .483-.07.692-.208l1.183-.788c.533-.354.713-1.05.404-1.633l-4.583-7.971.808-7.68 6.592-9.69a1.252 1.252 0 00-.254-1.68l-.034-.025h2.459v4.167c0 .687.562 1.25 1.25 1.25h2.5c.687 0 1.25-.563 1.25-1.25V3.078c0-.687-.563-1.25-1.25-1.25zM21.865 17.245h-3.737l-6.2-8.75H28.06l-6.2 8.75h.004z" fill="#000"/></svg>