<svg width="40" height="40" fill="none" xmlns="http://www.w3.org/2000/svg"><path d="M36.25 26.598V13.402a2.492 2.492 0 001.25-2.152c0-1.378-1.121-2.5-2.5-2.5-.568 0-1.087.198-1.507.518L22.467 4.674A2.495 2.495 0 0020 2.5c-1.267 0-2.305.95-2.467 2.174L6.507 9.268A2.475 2.475 0 005 8.75a2.503 2.503 0 00-2.5 2.5c0 .92.506 1.718 1.25 2.152v13.196A2.492 2.492 0 002.5 28.75c0 1.378 1.121 2.5 2.5 2.5.568 0 1.087-.198 1.507-.518l11.026 4.594A2.495 2.495 0 0020 37.5c1.267 0 2.305-.95 2.467-2.174l11.026-4.594c.42.32.939.518 1.507.518 1.379 0 2.5-1.122 2.5-2.5 0-.92-.506-1.718-1.25-2.152zm-3.717 1.825l-11.026 4.595A2.475 2.475 0 0020 32.5c-.568 0-1.087.198-1.507.518L7.467 28.423a2.489 2.489 0 00-1.217-1.825V13.402a2.489 2.489 0 001.217-1.825l11.026-4.595c.42.32.939.518 1.507.518s1.087-.198 1.507-.518l11.026 4.595a2.49 2.49 0 001.217 1.825v13.196a2.49 2.49 0 00-1.217 1.825z" fill="#000"/><path d="M20.625 19.158v10.844l8.617-3.851c.46-.197.758-.65.758-1.15v-10l-.001-.009-9.374 4.166zm-.134-9.056a1.242 1.242 0 00-.984 0s-8.816 3.793-8.85 3.812l9.342 4.152 9.343-4.152c-.035-.02-8.85-3.812-8.85-3.812zM10 15.002v10c0 .5.298.952.758 1.149L19.375 30V19.159l-9.374-4.166-.001.01z" fill="#000"/></svg>