<svg width="40" height="40" fill="none" xmlns="http://www.w3.org/2000/svg"><path d="M31.11 31.76c-5.714-4.47-1.68-22.848-1.68-22.848h6.984c.73 0 3.587-.459 3.587-3.88 0-4.21-3.492-3.952-3.492-3.952H10.792c-4.22 0-8.03 4.833-10.217 8.29-1.165 1.846-.506 2.363 1.493 1.493C9.076 7.794 11.051 8.9 11.051 8.9c.494 2.363.659 13.028-1.14 17.237-1.822 3.963-5.185 8.984-.247 11.935 3.857 2.187 7.902-2.305 7.502-9.948-.188-4.045-.506-19.213-.506-19.213h6.444c-.2 2.363-1.293 14.428-.153 21.577 1.188 11.935 14.157 9.618 16.579 2.858.6-1.87.459-3.305.012-4.387-.824-2.01-2.2-2.116-2.046-1.175.094.6.035 1.187-.06 1.717-.282 1.634-3.62 4.197-6.326 2.258z" fill="#000"/></svg>