<svg width="40" height="40" fill="none" xmlns="http://www.w3.org/2000/svg"><g clip-path="url(#clip0_34_1225)" fill="#000"><path d="M32.89 8.281C32.89 3.76 29.21 0 24.688 0 22.925 0 21.279.754 20 2.111 18.722.754 17.075 0 15.312 0 10.79 0 7.11 3.759 7.11 8.281c0 4.55 3.339 6.898 7.204 9.618 1.595 1.121 3.244 2.282 4.92 3.735L20 22.3l.768-.665c1.894-1.639 3.695-2.921 5.284-4.053 3.82-2.72 6.84-4.87 6.84-9.3zm-9.374 3.516h-2.344v2.344h-2.344v-2.344h-2.344V9.453h2.344V7.11h2.344v2.344h2.344v2.344zm15.078-1.078c-2.39 0-3.008 11.11-3.055 11.344-.238 1.627-1.385 4.037-3.321 5.488l-5.076 3.685-1.405-1.876 5.075-3.685c2.011-1.507 2.927-4.081.415-4.081-2.251 0-6.458 2.605-7.705 3.64a6.497 6.497 0 00-2.35 5.002V40h7.031c0-1.125.61-2.352 1.547-3.523.984-1.29 2.39-2.602 3.844-3.938 2.765-2.602 5.633-5.273 6.008-7.992.222-1.826.407-4.959.398-7.75-.01-3.126-.275-5.977-1.406-6.078zM16.202 25.016c-3.305-2.274-5.812-3.422-7.43-3.422-2.512 0-1.596 2.574.415 4.081l5.076 3.684-1.406 1.877-5.076-3.685C5.845 26.1 4.698 23.69 4.46 22.063c-.047-.235-.664-11.344-3.055-11.344-1.312.117-1.453 3.937-1.383 7.593.047 2.672.258 5.274.375 6.235.375 2.718 3.243 5.39 6.008 7.992 1.453 1.336 2.86 2.648 3.844 3.938.937 1.171 1.547 2.398 1.547 3.523h7.031v-9.717c0-2.07-.972-4.021-2.625-5.267z"/></g><defs><clipPath id="clip0_34_1225"><path fill="#fff" d="M0 0h40v40H0z"/></clipPath></defs></svg>