<svg width="50" height="50" fill="none" xmlns="http://www.w3.org/2000/svg"><g clip-path="url(#clip0_34_711)" fill="#000"><path d="M6.25 28.125a4.693 4.693 0 014.688-4.688 4.693 4.693 0 014.687 4.688h3.125v-5.109c0-1.167 1.345-1.935 2.352-1.348 1.015.59 2.335-.18 2.335-1.355 0-1.135-1.338-1.942-2.335-1.356-1.018.6-2.352-.172-2.352-1.348V9.375H4.687A4.693 4.693 0 000 14.063v14.062h6.25z"/><path d="M18.75 43.75a4.693 4.693 0 01-4.688-4.688 4.693 4.693 0 014.688-4.687V31.25h-5.11c-1.165 0-1.954-1.316-1.348-2.353.586-1.001-.172-2.334-1.354-2.334-1.132 0-1.94 1.34-1.356 2.334.6 1.022-.165 2.353-1.348 2.353H0v14.063A4.693 4.693 0 004.688 50H18.75v-6.25z"/><path d="M34.375 31.25a4.693 4.693 0 01-4.688 4.688A4.693 4.693 0 0125 31.25h-3.125v5.109c0 1.17-1.342 1.938-2.352 1.349-1.01-.59-2.335.177-2.335 1.355 0 1.139 1.336 1.943 2.335 1.354 1.013-.596 2.352.184 2.352 1.35V50h14.063a4.693 4.693 0 004.687-4.688V31.25h-6.25zM45.313 0H29.687c-.863 0-1.562.699-1.562 1.563v6.67c0 1.185 1.332 1.945 2.353 1.35 1.022-.597 2.334.19 2.334 1.354 0 1.141-1.333 1.946-2.334 1.356-1.015-.6-2.353.184-2.353 1.348v6.671c0 .864.699 1.563 1.563 1.563h4.687a4.693 4.693 0 004.688 4.688 4.693 4.693 0 004.687-4.688h4.688c.863 0 1.562-.699 1.562-1.563V4.688A4.693 4.693 0 0045.312 0z"/></g><defs><clipPath id="clip0_34_711"><path fill="#fff" d="M0 0h50v50H0z"/></clipPath></defs></svg>