<svg width="50" height="50" fill="none" xmlns="http://www.w3.org/2000/svg"><path fill-rule="evenodd" clip-rule="evenodd" d="M45.527 11.448a5.894 5.894 0 002.268-.975v15.231a1.01 1.01 0 01-1.006 1.006H31.472a1.009 1.009 0 01-1.006-1.006v-5.287l2.268-.608v3.154c0 .408.335.743.743.743h11.307a.745.745 0 00.743-.743V11.448zM32.734 8.013c0-.408.335-.742.743-.742h5.198a5.927 5.927 0 01-.069-3.005h-7.134a1.01 1.01 0 00-1.006 1.006v10.35l2.268-.452V8.013zm10.377 38.388h-1.842V32.265h-4.276V46.4H35.15c-.861 0-1.564.702-1.564 1.563v.966h11.087v-.966c0-.86-.702-1.563-1.563-1.563zM4.6 46.07h-.745a.764.764 0 00-.761.762v1.287c0 .42.342.762.761.762H4.6a.764.764 0 00.761-.762v-1.287a.764.764 0 00-.761-.762zm6.226.048h-.744a.764.764 0 00-.762.762v1.287c0 .42.343.762.762.762h.744a.764.764 0 00.762-.762V46.88a.764.764 0 00-.762-.762zm2.777-15.706v12.91a2.021 2.021 0 01-2.015 2.015H3.094a2.021 2.021 0 01-2.016-2.016v-12.91c0-1.108.907-2.015 2.016-2.015h.044v-6.643a1.937 1.937 0 011.937-1.937h4.532a1.93 1.93 0 011.368.569c.35.35.569.835.569 1.368v6.643h.044a2.02 2.02 0 012.015 2.016zm-9.098-2.016h5.671v-6.643a.568.568 0 00-.168-.402.568.568 0 00-.401-.167H5.075a.568.568 0 00-.402.167.568.568 0 00-.168.402v6.643zm7.212 14.437a.684.684 0 00-.683-.683H3.648a.684.684 0 100 1.367h7.386a.684.684 0 00.683-.684zm0-8.614c0-.585-.238-1.116-.622-1.5a2.117 2.117 0 00-1.5-.623H5.086c-.585 0-1.116.238-1.5.622a2.117 2.117 0 00-.623 1.5v6.298a.684.684 0 001.367 0V34.22c0-.208.085-.397.222-.534a.754.754 0 01.534-.222h4.507c.208 0 .397.085.534.222a.754.754 0 01.222.534v6.297a.684.684 0 101.368 0V34.22zm20.463-5.114c0 .985.806 1.792 1.792 1.792h10.317c.986 0 1.792-.806 1.792-1.792v-1.029h-13.9v1.03zm7.634-23.47a4.567 4.567 0 014.558-4.558 4.567 4.567 0 014.558 4.558 4.567 4.567 0 01-4.558 4.558 4.567 4.567 0 01-4.558-4.558zm1.98-.047l1.063 1.842a.684.684 0 001.073.144l2.91-2.91a.684.684 0 00-.966-.966L43.592 5.98l-.618-1.07a.68.68 0 00-1.18.678zm.667 14.826h-.796a.684.684 0 100 1.367h.796a.684.684 0 100-1.367zm-6.66 0a.684.684 0 100 1.367h.795a.684.684 0 100-1.367H35.8zm6.717-7.835h-6.775a.684.684 0 100 1.367h6.775a.684.684 0 000-1.367zm-3.786 7.835a.684.684 0 100 1.367h.797a.684.684 0 100-1.367h-.797zm-3.672-9.46c0 .378.305.684.683.684h3.296a.684.684 0 000-1.367h-3.296a.684.684 0 00-.684.684zM20.365 12.34c1.868 0 3.387-1.624 3.387-3.621 0-1.997-1.519-3.62-3.387-3.62s-3.389 1.624-3.389 3.62 1.52 3.62 3.389 3.62zm6.804 35.442l-1.94-.76a2.051 2.051 0 01-1.311-1.92v-17.2h-7.106v2.288c0 .806.127 1.47.426 2.22l2.072 5.202a.727.727 0 01.045.178l1.162 10.566c.033.305.28.526.587.526h5.888c.342 0 .446-.275.476-.439.036-.188.013-.539-.3-.661zm-9.163-9.75l-.712-1.788.023 12.27c0 .204.165.368.367.368h1.553a1.972 1.972 0 01-.08-.376l-1.151-10.475zm5.912-17.344l-3.666-.983a2.45 2.45 0 01-1.731-2.996 2.45 2.45 0 012.997-1.73l2.198.589a3.556 3.556 0 00-3.351-2.374 3.557 3.557 0 00-3.553 3.553v9.787h7.106V20.69zm-4.076-3.625a1.082 1.082 0 00.763 1.322l5.39 1.444c.477.128.903.128 1.38 0l7.247-1.942c.672-.18 1.006-.583.893-1.077-.083-.365-.424-.711-.974-.607l-7.723 1.538a.682.682 0 01-.31-.01L21.165 16.3a1.08 1.08 0 00-1.323.764z" fill="#000"/></svg>