<svg width="50" height="50" fill="none" xmlns="http://www.w3.org/2000/svg"><g clip-path="url(#clip0_34_732)" fill="#000"><path d="M23.438 13.281v-3.133a17.603 17.603 0 01-6.805-1.335 4.608 4.608 0 01-2.57 1.265v3.203a4.688 4.688 0 009.374 0z"/><path d="M12.5 11.016V9.375a.783.783 0 01.781-.781c.016 0 1.781-.024 2.453-1.172a.776.776 0 011.102-.258c.023.008 2.273 1.43 7.383 1.43a.784.784 0 01.781.781v1.64c.257-.053.519-.08.781-.078a4.077 4.077 0 012.344.711V7.031a6.258 6.258 0 00-6.25-6.25h-6.25a3.126 3.126 0 00-3.04 2.406 3.909 3.909 0 00-3.21 3.844v4.617a4.077 4.077 0 012.344-.71 3.63 3.63 0 01.781.078zm8.594 8.062a6.39 6.39 0 01-4.688 0v1.695l2.344 2.344 2.344-2.344v-1.695zm7.031-4.626a2.179 2.179 0 00-2.344-1.953 2.482 2.482 0 00-.781.117v.665c0 .941-.213 1.871-.625 2.718.42.269.908.41 1.406.406a2.179 2.179 0 002.344-1.953zM12.5 13.28v-.656a2.274 2.274 0 00-.781-.125 2.179 2.179 0 00-2.344 1.953 2.179 2.179 0 002.344 1.954 2.5 2.5 0 001.406-.407 6.205 6.205 0 01-.625-2.719zm34.68 3.962a4.294 4.294 0 011.945.461L48.82 6.578a1.946 1.946 0 00-3.89 0l-.32 11.477a4.343 4.343 0 011.913-.766c.218-.031.437-.047.657-.047zM4.688 29.266v5.89H6.25a1.563 1.563 0 011.563 1.563v3.547a3.12 3.12 0 010 5.406v3.547h3.125V24.492l-3.461 1.04a3.875 3.875 0 00-2.79 3.734zm10.281-3.688l2.515-1.515-1.984-1.985-2.523 1.516 1.992 1.984zm9.554-1.984L22 22.078l-1.984 1.985 2.515 1.515 1.992-1.984zm-6.867 3.75h2.188l.625-1.18-1.719-1.031-1.719 1.031.625 1.18zm3.399 15.266l-1.446-13.704h-1.718L16.445 42.61l2.305 1.727 2.305-1.727z"/><path d="M22.656 27.344a.805.805 0 01-.398-.11l-.445-.265-.696 1.312 1.531 14.61a.768.768 0 01-.304.703l-3.125 2.343a.782.782 0 01-.938 0l-3.125-2.343a.77.77 0 01-.304-.703l1.53-14.61-.695-1.312-.445.265a.788.788 0 01-.953-.117L12.5 25.328v23.89H25v-23.89l-1.79 1.79a.8.8 0 01-.554.226zm13.422 4.616a.766.766 0 01-1.086.165.784.784 0 01-.172-1.094l.828-1.125-4.023-3.445-5.063-1.89v24.648h3.907a.781.781 0 00.781-.782v-13.28a.781.781 0 111.563 0v2.741l5.867 2.493a.783.783 0 00.977-.32l8.054-13.759-4.828-3.617c-6.625 9.04-6.805 9.266-6.805 9.266zm12.789-12.591a2.807 2.807 0 00-2.117-.531 2.768 2.768 0 00-1.867 1.125l-1.078 1.468 4.703 3.532 1.101-1.89a2.837 2.837 0 00-.742-3.704zM0 47.656a1.562 1.562 0 001.563 1.563H6.25v-3.125H1.562A1.563 1.563 0 000 47.656zm1.563-7.812H6.25v-3.125H1.562a1.563 1.563 0 100 3.125zm4.687 1.562H1.562v3.125H6.25a1.563 1.563 0 100-3.125z"/></g><defs><clipPath id="clip0_34_732"><path fill="#fff" d="M0 0h50v50H0z"/></clipPath></defs></svg>