<svg width="41" height="40" fill="none" xmlns="http://www.w3.org/2000/svg"><g clip-path="url(#clip0_34_369)" fill="#000"><path d="M13.768 18.399l-1.03-.297L11.313 20l1.519 1.52.936-3.122zm16.63-14.196h1.38v13.793h-1.38V4.203zM14.541 9.031c0-.38-.31-.69-.69-.69h-1.155a8.973 8.973 0 01-4.612-1.277L6.96 6.391a1.79 1.79 0 00-.695 1.424v3.14a3.44 3.44 0 001.536 2.869l1.721 1.147a1.614 1.614 0 001.762 0l1.721-1.147a3.442 3.442 0 001.535-2.87V9.031z"/><path d="M3.45 7.977a2.749 2.749 0 011.534-.951 3.16 3.16 0 011.658-2.062l.338-.17L8.788 5.88a7.59 7.59 0 003.903 1.08h2.535c.696 0 1.326.269 1.812.697a21.97 21.97 0 00.238-2.492l-2.05.683v-.956c0-.013-.037-1.445-1.287-3.47l-.593 1.185-.677-.676C12.655 1.917 10.926.298 6.535.086l.777 2.33-3.088-.772c.074.994.27 1.973.587 2.922l.472 1.414-2.431-.81c.093 1.17.346 2.11.597 2.807zm8.332 9.096v-.807a2.949 2.949 0 01-1.38.347c-.484 0-.954-.123-1.379-.347v.807l1.38 1.84 1.38-1.84zm-6.897-6.167V8.53c-.41.239-.69.679-.69 1.187s.28.948.69 1.188zM27.64 4.203h1.38v13.793h-1.38V4.203zM16.607 9.716c0-.541-.316-1.006-.771-1.232.048.174.081.354.081.542v1.878c.41-.24.69-.68.69-1.188zm-9.576 8.683l.937 3.121L9.488 20l-1.426-1.898-1.03.297zm19.233 3.734a2.755 2.755 0 00-2.662 2.075 4.102 4.102 0 013.216 1.651l-1.104.828a2.737 2.737 0 00-2.209-1.106 2.762 2.762 0 00-2.758 2.759c0 .323.064.654.19.983l.17.445-.355.317a4.144 4.144 0 00-1.385 3.082 4.145 4.145 0 002.771 3.9 4.139 4.139 0 014.126-3.9v1.38a2.762 2.762 0 00-2.759 2.758 2.761 2.761 0 002.759 2.759 2.761 2.761 0 002.758-2.759V24.891a2.762 2.762 0 00-2.758-2.758zm6.898-2.758h-6.896v1.38c1.437 0 2.706.736 3.448 1.852a4.138 4.138 0 013.448-1.853v-1.379zm6.892 9.655a4.145 4.145 0 00-2.772-3.9 4.139 4.139 0 01-4.125 3.9v-1.38a2.761 2.761 0 002.759-2.759 2.762 2.762 0 00-2.759-2.758 2.762 2.762 0 00-2.759 2.758v12.414a2.761 2.761 0 002.76 2.759 2.755 2.755 0 002.661-2.075 4.102 4.102 0 01-3.216-1.651l1.104-.829a2.738 2.738 0 002.209 1.107 2.761 2.761 0 002.758-2.759c0-.323-.064-.654-.19-.983l-.17-.445.355-.317a4.145 4.145 0 001.385-3.083z"/><path d="M2.813 22.134h1.38v4.138H9.71V21.73l-2.398 2.397-1.605-5.346-4.157 1.2a2.078 2.078 0 00-1.495 1.987v4.304h2.758v-4.138zm17.109 4.138c.219-.378.497-.716.82-1.007v-3.297c0-.916-.616-1.734-1.497-1.987l-4.157-1.2-1.605 5.347-2.397-2.398v4.542h5.517v-4.138h1.38v4.138h1.939zM29.712.617l-1.47 2.205h2.94L29.711.617zM13.158 33.168H11.09v-2.332l-4.665 2.332H.744a.69.69 0 00-.69.69v5.517c0 .381.31.69.69.69h12.414a.69.69 0 00.69-.69v-5.517a.69.69 0 00-.69-.69zM9.71 38.685H1.434v-1.379H9.71v1.38zm2.758 0H11.09v-1.379h1.38v1.38zm0-2.758H1.434v-1.38h11.035v1.38z"/></g><defs><clipPath id="clip0_34_369"><path fill="#fff" transform="translate(.055)" d="M0 0h40.002v40H0z"/></clipPath></defs></svg>