<svg width="41" height="40" fill="none" xmlns="http://www.w3.org/2000/svg"><g clip-path="url(#clip0_34_392)" fill="#000"><path d="M34.117 23.515a3.515 3.515 0 100-7.03 3.515 3.515 0 000 7.03zm-28.125 0a3.515 3.515 0 100-7.03 3.515 3.515 0 000 7.03zm14.063 14.063a3.515 3.515 0 100-7.031 3.515 3.515 0 000 7.03zm0-28.125a3.515 3.515 0 100-7.031 3.515 3.515 0 000 7.03z"/><path d="M12.45 3.292c-.398-1.393-.626-2.375-.634-2.402a1.172 1.172 0 00-2.285.514c.235 1.165.777 2.934.71 2.697 1.178 4.11 3.416 7.845 6.44 10.869l3.374 3.374 3.374-3.374c3.024-3.024 5.262-6.758 6.44-10.87.068-.237.471-1.514.71-2.696A1.172 1.172 0 0028.294.89c-.009.027-.235 1.007-.632 2.395-1.018 3.162-3.368 8.513-7.607 8.513-4.237 0-6.585-5.344-7.605-8.506zm9.26 16.71l3.375 3.374c3.024 3.024 6.758 5.261 10.87 6.44.237.068 1.514.471 2.696.71a1.165 1.165 0 001.373-.892 1.17 1.17 0 00-.859-1.394c-.027-.008-.93-.234-2.317-.631-3.162-1.018-8.591-3.368-8.591-7.607 0-4.236 5.422-6.585 8.584-7.604 1.392-.399 2.297-.626 2.324-.634.618-.155 1-.773.86-1.394a1.165 1.165 0 00-1.374-.892c-1.166.235-2.856.778-2.619.71a25.51 25.51 0 00-10.947 6.44l-3.374 3.374zM.083 29.634c.14.621.75 1.024 1.374.892 1.166-.236 2.934-.778 2.697-.71 4.11-1.179 7.845-3.416 10.87-6.44l3.373-3.374-3.374-3.374c-3.024-3.024-6.758-5.261-10.87-6.44-.237-.068-1.514-.471-2.696-.71a1.165 1.165 0 00-1.374.892 1.17 1.17 0 00.86 1.394c.027.008 1.007.234 2.395.631 3.162 1.018 8.513 3.368 8.513 7.607 0 4.236-5.344 6.585-8.506 7.604-1.392.398-2.375.626-2.402.634a1.171 1.171 0 00-.86 1.394zm27.577 7.074c.398 1.393.625 2.375.634 2.402a1.172 1.172 0 002.285-.514 290.91 290.91 0 00-.71-2.696c-1.178-4.112-3.416-7.846-6.44-10.87l-3.374-3.374-3.374 3.374c-3.024 3.024-5.262 6.758-6.44 10.87-.006.017-.682 2.555-.71 2.697a1.172 1.172 0 002.285.513c.008-.027.235-1.007.632-2.395 1.017-3.162 3.368-8.513 7.607-8.513 4.236 0 6.585 5.344 7.605 8.506z"/></g><defs><clipPath id="clip0_34_392"><path fill="#fff" transform="translate(.055)" d="M0 0h40.002v40H0z"/></clipPath></defs></svg>