<svg width="60" height="60" fill="none" xmlns="http://www.w3.org/2000/svg"><g clip-path="url(#clip0_34_649)" fill="#fff"><path d="M46.32 20.583c.087 2.33 3.43 2.328 3.516 0v-7.247L46.32 14.62v5.962zM11.318 10.017l18.07 6.61c.39.142.816.142 1.206 0l18.082-6.61c1.529-.557 1.528-2.745 0-3.301L30.6.107a1.756 1.756 0 00-1.207 0L11.319 6.716c-1.53.557-1.529 2.744 0 3.301zm6.568 28.328a5.97 5.97 0 00-5.962-5.962c-7.9.3-7.897 11.626 0 11.925a5.97 5.97 0 005.962-5.963zm36.149 0a5.97 5.97 0 00-5.963-5.962c-7.9.3-7.897 11.626 0 11.925a5.97 5.97 0 005.962-5.963zm-29.995 0a5.97 5.97 0 005.962 5.963c7.899-.3 7.897-11.627 0-11.925a5.97 5.97 0 00-5.963 5.962zm24.034 5.968c-2.355 0-4.551.685-6.402 1.868a15.323 15.323 0 013.755 10.056v3.766h12.814c.97 0 1.758-.787 1.758-1.758v-2.008c0-6.575-5.35-11.925-11.925-11.925zm-18.17 0c-6.624 0-12.013 5.349-12.013 11.924v3.766h24.026v-3.766c0-6.575-5.39-11.925-12.014-11.925zm-17.979 0C5.349 44.313 0 49.662 0 56.236v2.008c0 .971.787 1.758 1.758 1.758H14.37v-3.766c0-3.876 1.445-7.423 3.826-10.137a11.854 11.854 0 00-6.272-1.788z"/><path d="M41.172 22.795v-6.287l-9.368 3.424a5.276 5.276 0 01-3.623-.001l-9.353-3.421v6.287c0 .738.461 1.398 1.154 1.651l9.408 3.44c.39.143.818.143 1.207 0l9.42-3.442a1.758 1.758 0 001.155-1.65z"/></g><defs><clipPath id="clip0_34_649"><path fill="#fff" d="M0 0h60v60H0z"/></clipPath></defs></svg>