<svg width="60" height="60" fill="none" xmlns="http://www.w3.org/2000/svg"><path d="M11 57.252l1.865.751L19.265 42h-2.166L11 57.252zM29 42h2v16h-2V42zm-2.003 9v-2h-8.384l-.8 2h9.184zM30 7a12 12 0 1012 12A12.013 12.013 0 0030 7zm5.789 7.614l-7.777 10a1 1 0 01-.727.384h-.062a1 1 0 01-.707-.293l-2.223-2.223a1 1 0 011.414-1.414l1.422 1.422 7.082-9.106a1 1 0 011.578 1.228v.002z" fill="#fff"/><path d="M56 3a1 1 0 00-1-1H5a1 1 0 00-1 1v33h52V3zM30 33a14 14 0 1114-14 14.015 14.015 0 01-14 14zm10.734 9l6.403 16 1.857-.747L42.9 42h-2.166zM2 38h56.001v2H2v-2zm39.384 11H33v2h9.184l-.8-2z" fill="#fff"/></svg>