<svg width="60" height="60" fill="none" xmlns="http://www.w3.org/2000/svg"><g clip-path="url(#clip0_34_668)" fill="#fff"><path d="M60 17.578v38.906H42.12c-4.912 0-7.496 3.332-7.76 3.516h-8.72c-.268-.187-2.814-3.516-7.76-3.516H0V14.062h3.516V52.97h14.379c5.494 0 8.552 3.1 9.314 3.515h5.582c.762-.415 3.821-3.515 9.315-3.515h14.378V17.58H60z"/><path d="M24.718 50.856a17.142 17.142 0 00-6.823-1.403H7.03V7.031h3.516v35.39h5.273c4.79 0 8.71 3.752 8.898 8.435zm17.386-40.309c-3.724 0-7.31.975-10.471 2.84.082.8.123 1.611.123 2.433v37.075c.236-.17.505-.36.812-.561 5.427-3.62 9.167-2.88 20.4-2.88V10.546H42.103z"/><path d="M28.242 51.21c0-6.784-5.572-12.304-12.422-12.304h-1.758V0c8.789 0 14.18 7.097 14.18 15.82v35.39z"/></g><defs><clipPath id="clip0_34_668"><path fill="#fff" d="M0 0h60v60H0z"/></clipPath></defs></svg>