<svg width="60" height="60" fill="none" xmlns="http://www.w3.org/2000/svg"><path d="M31.262 30.482c7.091 0 12.84-6.018 12.84-13.44 0-7.423-5.749-13.44-12.84-13.44s-12.84 6.017-12.84 13.44c0 7.422 5.748 13.44 12.84 13.44zm24.302 19.916c0-.12-.06-.24-.06-.36-.18-.84-.6-1.56-1.14-2.16-.66-.66-1.44-1.2-2.4-1.44-.36-.12-.78-.18-1.2-.18-2.7 0-4.92 2.22-4.92 4.92 0 2.7 2.22 4.92 4.92 4.92 2.7 0 4.92-2.22 4.92-4.92 0-.24-.06-.48-.12-.78zm-40.026-4.08c0-2.7-2.22-4.92-4.92-4.92h-.66c-.12 0-.24.06-.36.06-.06 0-.06 0-.12.06-.12 0-.24.06-.36.12-.06 0-.06 0-.06.06-.12.06-.24.12-.36.12h-.06c-.12.06-.24.12-.42.18-.12.06-.24.18-.42.24-.24.18-.54.42-.72.66-.84.9-1.32 2.04-1.32 3.36 0 2.7 2.22 4.92 4.92 4.92 2.7 0 4.86-2.16 4.86-4.86z" fill="#fff"/><path d="M57 47.343c-1.5-12.06-17.16-15.96-19.02-16.38l-6.54 5.16-6.54-5.16c-1.38.3-10.14 2.46-15.3 8.34l-4.38-15.42-2.22.6 4.5 16.08c.9-.48 1.98-.78 3.12-.78 3.6 0 6.54 2.94 6.54 6.54 0 3.3-2.46 6-5.58 6.48 2.7 1.14 6.42 2.28 11.34 2.94v-15.6s8.1 0 13.68 3.66l.06 12.6h1.62l-.06-12.6c5.58-3.66 13.68-3.66 13.68-3.66v4.68c2.22.42 4.02 1.92 4.86 3.96.24-.48.3-.96.24-1.44z" fill="#fff"/></svg>