<svg width="58" height="49" fill="none" xmlns="http://www.w3.org/2000/svg"><path opacity=".2" d="M2.002 46.909c6.15-7.226 11.002-15.714 15.395-24.078.339-.645 6.916-14.084 7.913-15.64 5.085-7.94 4.246 7.906 4.28 8.805.069 1.868.114 13.003.122 15.641.015 4.772-.154 3.958.247-.154.546-5.602 1.133-9.849 2.032-15.548.434-2.757.884-5.512 1.416-8.252.358-1.842.864-7.024 1.724-5.357 1.142 2.213.484 4.961.554 7.45.13 4.616-.762 10.27.247 14.81.339 1.526.788-3.026 1.108-4.556.042-.202 1.232-10.09 3.818-5.08 1.405 2.72 3.05 9.63 3.633 12.192.284 1.25 1.274 12.922 3.325 13.917.808.391 7.878-16.544 8.498-17.981" stroke="#6440FB" stroke-width="3" stroke-linecap="round"/></svg>