<svg width="107" height="93" fill="none" xmlns="http://www.w3.org/2000/svg"><path d="M23.037 4.178a2.091 2.091 0 002.095-2.09A2.091 2.091 0 0023.037 0a2.091 2.091 0 00-2.094 2.089c0 1.153.938 2.089 2.094 2.089zm0 17.804a2.091 2.091 0 002.095-2.089 2.091 2.091 0 00-2.095-2.089 2.091 2.091 0 00-2.094 2.089c0 1.154.938 2.089 2.094 2.089zm0 17.904a2.091 2.091 0 002.095-2.09 2.091 2.091 0 00-2.095-2.088 2.092 2.092 0 00-2.094 2.089c0 1.153.938 2.089 2.094 2.089zm0 17.904a2.091 2.091 0 002.095-2.09 2.091 2.091 0 00-2.095-2.088 2.091 2.091 0 00-2.094 2.088c0 1.154.938 2.09 2.094 2.09zm0 17.306a2.091 2.091 0 002.095-2.089 2.091 2.091 0 00-2.095-2.088 2.092 2.092 0 00-2.094 2.088c0 1.154.938 2.09 2.094 2.09zm0 17.904a2.091 2.091 0 002.095-2.089 2.091 2.091 0 00-2.095-2.088 2.091 2.091 0 00-2.094 2.088c0 1.154.938 2.089 2.094 2.089zM2.096 4.178a2.091 2.091 0 002.094-2.09A2.091 2.091 0 002.096 0 2.091 2.091 0 00.002 2.089c0 1.153.938 2.089 2.094 2.089zm0 17.804a2.091 2.091 0 002.094-2.089 2.091 2.091 0 00-2.094-2.089 2.091 2.091 0 00-2.094 2.089c0 1.154.938 2.089 2.094 2.089zm0 17.904a2.091 2.091 0 002.094-2.09 2.091 2.091 0 00-2.094-2.088 2.091 2.091 0 00-2.094 2.089c0 1.153.938 2.089 2.094 2.089zm0 17.904A2.091 2.091 0 004.19 55.7a2.091 2.091 0 00-2.094-2.088A2.091 2.091 0 00.002 55.7c0 1.154.938 2.09 2.094 2.09zm0 17.306a2.091 2.091 0 002.094-2.089 2.091 2.091 0 00-2.094-2.088 2.091 2.091 0 00-2.094 2.088c0 1.154.938 2.09 2.094 2.09zm0 17.904a2.091 2.091 0 002.094-2.089 2.091 2.091 0 00-2.094-2.088A2.091 2.091 0 00.002 90.91C.002 92.065.94 93 2.096 93zM63.923 4.178a2.091 2.091 0 002.094-2.09A2.091 2.091 0 0063.923 0a2.091 2.091 0 00-2.094 2.089c0 1.153.937 2.089 2.094 2.089zm0 17.804a2.092 2.092 0 002.094-2.089 2.091 2.091 0 00-2.094-2.089 2.091 2.091 0 00-2.094 2.089c0 1.154.937 2.089 2.094 2.089zm0 17.904a2.092 2.092 0 002.094-2.09 2.092 2.092 0 00-2.094-2.088 2.091 2.091 0 00-2.094 2.089c0 1.153.937 2.089 2.094 2.089zm0 17.904a2.092 2.092 0 002.094-2.09 2.091 2.091 0 00-2.094-2.088 2.091 2.091 0 00-2.094 2.088c0 1.154.937 2.09 2.094 2.09zm0 17.306a2.092 2.092 0 002.094-2.089 2.092 2.092 0 00-2.094-2.088 2.091 2.091 0 00-2.094 2.088c0 1.154.937 2.09 2.094 2.09zm0 17.904a2.092 2.092 0 002.094-2.089 2.091 2.091 0 00-2.094-2.088 2.091 2.091 0 00-2.094 2.088c0 1.154.937 2.089 2.094 2.089zM42.981 4.178a2.091 2.091 0 002.095-2.09A2.091 2.091 0 0042.98 0a2.091 2.091 0 00-2.094 2.089c0 1.153.938 2.089 2.094 2.089zm0 17.804a2.092 2.092 0 002.095-2.089 2.091 2.091 0 00-2.095-2.089 2.091 2.091 0 00-2.094 2.089c0 1.154.938 2.089 2.094 2.089zm0 17.904a2.092 2.092 0 002.095-2.09 2.092 2.092 0 00-2.095-2.088 2.091 2.091 0 00-2.094 2.089c0 1.153.938 2.089 2.094 2.089zm0 17.904a2.092 2.092 0 002.095-2.09 2.091 2.091 0 00-2.095-2.088 2.091 2.091 0 00-2.094 2.088c0 1.154.938 2.09 2.094 2.09zm0 17.306a2.092 2.092 0 002.095-2.089 2.092 2.092 0 00-2.095-2.088 2.091 2.091 0 00-2.094 2.088c0 1.154.938 2.09 2.094 2.09zm0 17.904a2.092 2.092 0 002.095-2.089 2.091 2.091 0 00-2.095-2.088 2.091 2.091 0 00-2.094 2.088c0 1.154.938 2.089 2.094 2.089zm61.927-88.822a2.092 2.092 0 002.094-2.09A2.092 2.092 0 00104.908 0a2.091 2.091 0 00-2.094 2.089c0 1.153.937 2.089 2.094 2.089zm0 17.804a2.092 2.092 0 002.094-2.089 2.092 2.092 0 00-2.094-2.089 2.091 2.091 0 00-2.094 2.089c0 1.154.937 2.089 2.094 2.089zm0 17.904a2.092 2.092 0 002.094-2.09 2.092 2.092 0 00-2.094-2.088 2.091 2.091 0 00-2.094 2.089c0 1.153.937 2.089 2.094 2.089zm0 17.904a2.092 2.092 0 002.094-2.09 2.092 2.092 0 00-2.094-2.088 2.091 2.091 0 00-2.094 2.088c0 1.154.937 2.09 2.094 2.09zm0 17.306a2.092 2.092 0 002.094-2.089 2.092 2.092 0 00-2.094-2.088 2.091 2.091 0 00-2.094 2.088c0 1.154.937 2.09 2.094 2.09zm0 17.904a2.092 2.092 0 002.094-2.089 2.092 2.092 0 00-2.094-2.088 2.091 2.091 0 00-2.094 2.088c0 1.154.937 2.089 2.094 2.089zM83.966 4.178a2.091 2.091 0 002.095-2.09A2.091 2.091 0 0083.966 0a2.091 2.091 0 00-2.094 2.089c0 1.153.938 2.089 2.094 2.089zm0 17.804a2.092 2.092 0 002.095-2.089 2.091 2.091 0 00-2.095-2.089 2.091 2.091 0 00-2.094 2.089c0 1.154.938 2.089 2.094 2.089zm0 17.904a2.092 2.092 0 002.095-2.09 2.092 2.092 0 00-2.095-2.088 2.091 2.091 0 00-2.094 2.089c0 1.153.938 2.089 2.094 2.089zm0 17.904a2.092 2.092 0 002.095-2.09 2.091 2.091 0 00-2.095-2.088 2.091 2.091 0 00-2.094 2.088c0 1.154.938 2.09 2.094 2.09zm0 17.306a2.092 2.092 0 002.095-2.089 2.092 2.092 0 00-2.095-2.088 2.091 2.091 0 00-2.094 2.088c0 1.154.938 2.09 2.094 2.09zm0 17.904a2.092 2.092 0 002.095-2.089 2.091 2.091 0 00-2.095-2.088 2.091 2.091 0 00-2.094 2.088c0 1.154.938 2.089 2.094 2.089z" fill="#A7A7CA"/></svg>