<svg width="111" height="24" fill="none" xmlns="http://www.w3.org/2000/svg"><g opacity=".4" stroke="#6440FB"><path d="M1.002 10.98s8.78 13.582 15.736 11.653c5.18-1.437 9.98-11.652 9.98-11.652s3.28 11.798 8.059 11.652c4.681-.143 7.676-11.652 7.676-11.652s1.324 10.42 5.373 11.652c4.845 1.474 8.828-11.652 8.828-11.652s.429 10.225 4.222 11.652c4.582 1.724 8.06-11.652 8.06-11.652s-.11 9.835 3.454 11.652c4.526 2.308 8.444-11.652 8.444-11.652s1.118 9.98 4.99 11.652c5.019 2.167 4.74-10.6 9.978-11.652 6.405-1.287 13.817 11.652 13.817 11.652"/><path d="M1.768 2.093s8.75 13.986 15.68 12c5.162-1.48 9.944-12 9.944-12s3.27 12.15 8.032 12c4.665-.147 7.649-12 7.649-12s1.32 10.73 5.354 12c4.827 1.518 8.797-12 8.797-12s.427 10.53 4.207 12c4.565 1.775 8.031-12 8.031-12s-.108 10.128 3.442 12c4.51 2.376 8.415-12 8.415-12s1.113 10.278 4.971 12c5.002 2.232 4.725-10.917 9.944-12 6.383-1.325 13.769 12 13.769 12"/></g></svg>