<svg width="40" height="40" fill="none" xmlns="http://www.w3.org/2000/svg"><g clip-path="url(#clip0_34_575)" fill="#000"><path d="M22.227.688V9.44h8.753L22.227.687z"/><path d="M19.878 11.785V0H0v38.748h22.175a11.669 11.669 0 01-2.354-3.564 11.655 11.655 0 01-.923-4.564 11.7 11.7 0 013.433-8.29 11.7 11.7 0 019.41-3.38v-7.165H19.878zm-14.031-.026h9.378v2.345H5.847v-2.345zm9.378 16.412H5.847v-2.344h9.378v2.344zm2.345-4.689H5.847v-2.345H17.57v2.345zm5.965-4.69H5.847v-2.344h17.688v2.345z"/><path d="M30.62 21.242A9.379 9.379 0 1030.622 40a9.379 9.379 0 000-18.758zm-.99 12.878l-3.332-3.429 1.682-1.634 1.766 1.818 3.69-3.29 1.56 1.75-5.366 4.785z"/></g><defs><clipPath id="clip0_34_575"><path fill="#fff" d="M0 0h40v40H0z"/></clipPath></defs></svg>