<svg width="137" height="55" fill="none" xmlns="http://www.w3.org/2000/svg"><path d="M.909 38.398c0 1.1-.02.257.051-.486.31-3.195 1.3-4.505 3.288-6.5 7.815-7.834 17.413-12.877 25.633-20.167 1.963-1.742 3.456-3.837 5.137-5.953 1.014-1.276 2.116-2.886 3.416-3.797 1.279-.896.846 3.264.847 3.371.11 9.96.197 19.997-.205 29.948-.2 4.965-.49 9.939-.925 14.883-.074.844-.1 3.407-.719 4.313-.776 1.136-3.358-.754-3.878-1.184-4.043-3.347-6.9-7.779-7.86-13.516-.87-5.2-1.434-11.666-.18-16.858 1.483-6.133 5.516-3.245 7.911.578 2.79 4.45 6.165 12.917 3.442 18.436-.499 1.012-2.55 3.194-3.801 2.521-1.723-.926.33-8.335.924-9.628 1.305-2.839 4.388-1.393 6.524-1.215 1.346.112 2.44.172 3.776-.122 1.444-.317 2.872-1.709 4.29-1.852 1.993-.203.348 6.691.05 7.836-.76 2.926 3.198-10.531 4.213-7.715.304.844.333 1.794.436 2.703.12 1.058.16 2.126.232 3.19.031.475-.327 1.427.077 1.427.402 0 .006-.952.025-1.427.13-3.174.245-6.356.822-9.477.821-4.436 2.88-11.353 7.783-10.266 3.388.751 1.026-1.804-.155.304-2.582 4.61-2.874 11.15-2.696 16.462.143 4.268 1.655 7.877 2.003 11.997.124 1.47-.748 3.387-2.209 1.914-2.35-2.37-2.541-7.463-2.157-10.661.46-3.828 1.398-6.504 3.621-9.325.72-.913 4.357-4.381 4.855-.85.636 4.516-3.382 8.4-5.548 11.299-.589.787-2.43 2.296-1.567 2.551 3.228.955 7.965.43 11.07.122 11.563-1.15 26.091-4.432 32.105-17.86 1.512-3.375 1.144-6.167-.231-9.385-.738-1.729-2.539-6.715-5.06-4.404-6.696 6.139-6.694 19.478-15.307 23.509-1.47.687-6.215 1.345-4.65 1.093 5.458-.88 11.165-.976 16.618-1.58 12.098-1.339 24.403-2.64 36.139-6.59 3.939-1.327 4.254-1.885 6.857-4.04" stroke="#00001B" stroke-linecap="round"/></svg>