<svg width="279" height="450" fill="none" xmlns="http://www.w3.org/2000/svg"><g opacity=".06" clip-path="url(#clip0_34_838)" fill="#6440FB"><path d="M185.236 140.636c-2.187-2.027-5.059-3.187-7.868-3.194-2.791-.006-5.34 1.137-6.991 3.135l-12.33 14.911c-2.78-3.299-6.397-5.98-10.346-7.646-2.52-1.062-5.188-.025-5.958 2.316-.771 2.342.647 5.101 3.167 6.163 2.652 1.118 5.072 3.049 6.755 5.356 1.581 2.173 4.053 3.64 6.617 3.923 2.571.284 4.912-.602 6.424-2.43l13.398-16.204a.584.584 0 01.473-.212c.148.001.374.04.587.243 35.422 32.716 42.022 83.842 15.019 116.397a71.115 71.115 0 01-2.994 3.395c-.329.35-.882.364-1.285.031l-8.281-6.847a18.868 18.868 0 004.725-5.203c5.117-8.307 3.14-20.034-4.7-27.883-4.892-4.897-11.433-7.8-17.954-7.961-6.526-.162-12.475 2.414-16.321 7.066a18.96 18.96 0 00-2.388 3.688l-18.713-15.472c-1.233-1.02-1.51-2.729-.615-3.81l14.638-17.704c1.516-1.834 1.947-4.31 1.18-6.793-.768-2.485-2.607-4.566-5.048-5.711a16.402 16.402 0 01-4.793-3.427c-4.534-4.651-5.589-11.522-2.509-16.339.274-.43.577-.84.899-1.221 1.569-1.852 1.123-4.799-.994-6.583a1.473 1.473 0 01-.041-.033c-2.115-1.749-5.076-1.682-6.634.158a18.965 18.965 0 00-1.512 2.052c-5.26 8.225-3.456 19.963 4.291 27.911a27.947 27.947 0 006.363 4.892l-13.568 16.409c-3.982 4.816-2.752 12.431 2.742 16.973l20.188 16.692c2.085 1.724 4.689 2.467 7.145 2.037 2.449-.428 4.429-2.022 5.287-4.25a11.228 11.228 0 011.809-3.079c2.258-2.731 5.751-4.242 9.584-4.148 3.883.096 7.631 1.759 10.559 4.694 4.591 4.597 5.75 11.462 2.754 16.323a11.158 11.158 0 01-3.661 3.676c-2.036 1.249-3.187 3.396-3.154 5.891.031 2.485 1.289 4.993 3.364 6.708l9.756 8.067c4.495 3.717 10.772 3.695 14.29-.048a79.282 79.282 0 003.313-3.758c29.96-36.119 22.637-92.849-16.669-129.151z"/><path d="M120.191 276.251c-.201-3.053-1.771-6.007-4.308-8.105l-7.149-5.911c11.229-7.798 9.524-27.708-4.143-36.533-9.184-6.226-21.073-5.964-28.27.623a18.864 18.864 0 00-4.223 5.618l-20.949-17.321 16.26-19.665c1.516-1.834 1.946-4.309 1.18-6.792-.768-2.486-2.607-4.567-5.048-5.712a16.45 16.45 0 01-4.794-3.427c-4.532-4.651-5.589-11.522-2.51-16.337 1.96-3.062 5.138-4.923 8.95-5.237 3.766-.31 7.71.988 10.824 3.562a16.312 16.312 0 012.767 2.927c1.58 2.175 4.052 3.641 6.616 3.923 2.57.284 4.912-.601 6.423-2.429l13.26-16.037c1.692-2.046 2.347-4.83 1.798-7.639-.552-2.818-2.278-5.469-4.731-7.266-42.756-31.331-99.617-27.964-129.446 7.666-14.182 16.715-21.175 40.579-18.003 64.336.32 2.57 2.697 4.672 5.314 4.692 2.616.02 4.478-2.047 4.16-4.619-2.04-16.479.727-32.216 8.017-45.829l8.047 6.653c-10.09 7.261-10.448 24.903 2.029 34.939 10.923 9.156 28.467 8.101 34.605-4.649l20.954 17.325-16.249 19.653c-3.097 3.588-1.139 10.854 5.242 13.244 7.444 4.096 10.46 15.493 4.125 21.188-4.807 4.701-15.596 4.122-20.786-3.48-1.56-2.168-3.928-3.577-6.5-3.868-2.562-.29-4.99.623-6.493 2.441l-16.258 19.663-26.318-21.76a95.542 95.542 0 009.657-31.945c.297-2.496-1.584-5.019-4.202-5.637-2.618-.616-4.983.907-5.28 3.403-1.204 10.762-4.993 22.325-10.302 32.054l-22.96 27.769c-6.52 7.885-4.506 20.351 4.49 27.789l41.852 34.605c8.995 7.437 21.617 7.073 28.137-.812l22.957-27.766c13.653-11.402 32.001-18.609 52.048-20.216 17.272-1.404 33.163-7.454 45.954-17.496 2.268-1.78 3.454-4.545 3.256-7.585zm-99.199-86.562c-3.522-3.117-10.768-2.932-12.526 2.42-2.877 7.195-13.761 10.306-21.847 2.321-4.772-4.913-6.93-13.877.065-19.416 4.126-2.043 5.93-8.787.626-13.174l-10.461-8.65a71.06 71.06 0 013.545-4.604c26.887-32.115 78.137-35.149 116.677-6.908.293.21.399.48.436.664a.783.783 0 01-.157.667l-12.19 14.744a27.803 27.803 0 00-3.548-3.512c-5.304-4.385-12.021-6.596-18.43-6.068-6.402.528-11.952 3.768-15.226 8.888-5.26 8.225-3.456 19.963 4.292 27.912a27.888 27.888 0 006.362 4.89l-15.189 18.371-22.429-18.545zM3.752 324.175l-35.258-29.151c-2.134-1.765-5.117-1.679-6.663.192-1.547 1.871-1.071 4.817 1.063 6.581l35.257 29.152-5.6 6.773-59.026-48.803 5.6-6.774 5.976 4.941c2.135 1.765 5.117 1.678 6.664-.192 1.547-1.871 1.071-4.817-1.063-6.582l-5.976-4.941 4.924-5.955 59.025 48.803-4.924 5.956zm-30.313 19.178l-41.853-34.604c-4.12-3.407-5.454-8.816-3.47-12.898l58.643 48.488c-3.637 2.714-9.2 2.421-13.32-.986zm136.954-67.062c-11.522 9.046-25.841 14.496-41.408 15.762-20.68 1.681-39.352 8.576-54.037 19.948l-26.32-21.763 15.188-18.369c8.297 10.483 25.588 12.883 34.204 4.303 10.298-9.386 6.679-28.603-7.653-36.415l15.18-18.361 22.425 18.542c2.093 1.73 4.708 2.475 7.175 2.042 2.47-.432 4.382-1.971 5.247-4.224a11.164 11.164 0 012.915-4.266c4.212-3.855 11.172-4.008 16.55-.361 7.709 5.173 9.727 16.973 1.639 22.028-2.036 1.276-3.226 3.522-3.182 6.007.043 2.49 1.262 4.905 3.344 6.627l8.622 7.128c.295.244.372.53.385.726a.729.729 0 01-.274.646zm24.04 46.055l-12.909-11.747c-2.046-1.852-5.052-1.936-6.712-.164-1.659 1.772-1.345 4.719.702 6.582l12.909 11.747c.068.062.137.122.208.181 2.038 1.685 4.899 1.696 6.503-.017 1.66-1.772 1.346-4.719-.701-6.582zM93.76 345.691l-4.178-15.652c-.682-2.55-3.296-4.342-5.843-4.002-2.545.339-4.058 2.68-3.378 5.229l4.178 15.652c.295 1.103.951 2.063 1.808 2.772 1.123.929 2.59 1.423 4.035 1.23 2.545-.339 4.058-2.68 3.378-5.229z"/><path d="M49.497 325.806c.946-2.261-.286-5.087-2.742-6.31-2.46-1.224-5.22-.383-6.166 1.878l-5.966 14.263c-.792 1.897-.058 4.19 1.65 5.602.33.272.695.512 1.092.709 2.46 1.224 5.22.383 6.166-1.878l5.966-14.264zM65.915 95.892c-1.077 1.917-.419 4.465 1.45 6.01.2.166.414.32.643.461 2.349 1.45 5.222.905 6.416-1.219l7.529-13.39c1.194-2.122.258-5.015-2.093-6.47-2.349-1.45-5.221-.905-6.415 1.22l-7.53 13.388zm-39.957-8.204c.208 1.285.924 2.433 1.913 3.25.988.818 2.25 1.305 3.552 1.268 2.603-.076 4.375-2.22 3.96-4.79l-2.55-15.783c-.417-2.57-2.862-4.593-5.465-4.518-2.602.075-4.375 2.22-3.96 4.79l2.55 15.783zM-1.563 97.84L-13.33 85.002c-1.867-2.034-4.887-2.411-6.748-.84-1.86 1.571-1.858 4.496.008 6.53l11.766 12.838c.181.197.374.38.575.546 1.867 1.544 4.493 1.713 6.173.294 1.862-1.571 1.859-4.495-.007-6.53z"/></g><defs><clipPath id="clip0_34_838"><path fill="#fff" transform="rotate(39.585 7.583 21.071)" d="M0 0h342.238v300H0z"/></clipPath></defs></svg>