<svg width="28" height="28" fill="none" xmlns="http://www.w3.org/2000/svg"><path d="M13.779 19.153v-8.73L5.588 6.36h-.07v9.133l8.26 3.66zm.51-8.73v8.766l8.305-3.695V6.358h-.068l-8.237 4.065zm7.102 3.291a.254.254 0 01.217.46l-4.968 2.35a.257.257 0 01-.34-.123.256.256 0 01.123-.338l4.968-2.349zm0-1.666a.254.254 0 11.217.46l-4.968 2.348a.255.255 0 01-.34-.121.255.255 0 01.123-.338l4.968-2.349zm0-3.331a.254.254 0 11.217.46l-4.968 2.347a.257.257 0 01-.34-.121.255.255 0 01.123-.338l4.968-2.348zm0 1.666a.254.254 0 11.217.46L16.64 13.19a.255.255 0 01-.34-.122.255.255 0 01.123-.338l4.968-2.348zM7.008 14.174a.254.254 0 01.217-.46l4.967 2.349a.255.255 0 01-.217.461l-4.967-2.35zm0-1.666a.254.254 0 01.217-.46l4.967 2.349c.127.06.182.211.122.338a.253.253 0 01-.338.122l-4.968-2.349zm0-3.331a.254.254 0 11.217-.46l4.967 2.348a.254.254 0 01-.217.46L7.009 9.177zm0 1.665a.254.254 0 01.217-.46l4.967 2.349a.254.254 0 01.122.338.253.253 0 01-.338.121l-4.968-2.348zm9.694 11.28l3.369 1.49-.02-3.029-3.35 1.539zm-2.748-1.373l10.104-4.404V6.71l-.953.422v8.528a.257.257 0 01-.172.24l-8.755 3.895a.25.25 0 01-.206 0v.002l-8.81-3.905a.254.254 0 01-.154-.232V7.135l-.952-.424v9.635l9.898 4.403zm-1.993.87l1.179-.515-9.093-4.02.055 1.097 7.86 3.438zM8 23.345l3.056-1.332L8 20.742v2.603zm7.67-1.122l-1.16.51 5.574 2.436-.007-.998-4.407-1.948zm-7.659 2.81l16.017-7.042.02-1.087-10.16 4.43a.256.256 0 01-.026.01l-2.044.892-.022.008-3.784 1.65v1.139zm5.105-21.916c-1.226.546-1.921 1.847-1.434 3.108.484 1.256 1.913 1.9 3.236 1.692-1.02-.257-1.913-.947-2.3-1.944-.385-1-.165-2.063.498-2.856zm2.558 1.152l-.293-.625-.285.606a.255.255 0 01-.208.164l-.683.086.496.464c.066.058.1.149.083.24l-.13.678.603-.332a.255.255 0 01.247 0l.605.332-.13-.678a.256.256 0 01.075-.232l.503-.472-.683-.085v-.002a.255.255 0 01-.2-.144z" fill="#fff"/></svg>