<svg width="143" height="109" fill="none" xmlns="http://www.w3.org/2000/svg"><path d="M.984 106.82a1.503 1.503 0 001.345 1.642 1.497 1.497 0 001.642-1.342l-2.987-.3zm20.03-19.946l-.103-1.496.103 1.496zm24.411 7.283l.907-1.193-.907 1.193zm2.418 10.578l.778 1.283-.778-1.283zm-19.335-13.24l1.45-.383-1.45.382zM39.9 56.99l-1.012-1.108L39.9 56.99zm49.196-13.11l-.67 1.341.67-1.34zm10.2 35.813l1.028 1.094-1.027-1.094zM75.462 71.49l-1.319.714 1.319-.714zm15.764-48.919l.68 1.338-.68-1.338zm50.509-10.254a1.499 1.499 0 00-.128-2.117L131.5 1.232a1.499 1.499 0 10-1.991 2.24l8.984 7.972-7.963 8.963a1.502 1.502 0 002.246 1.993l8.959-10.083zM3.971 107.12c.902-9.111 7.265-18.088 17.146-18.75l-.206-2.992C9.08 86.171 1.976 96.803.984 106.82l2.987.3zm17.146-18.75c7.941-.532 17.507 2.5 23.4 6.98l1.815-2.386c-6.46-4.91-16.741-8.168-25.42-7.586l.205 2.992zm23.4 6.98c1.43 1.086 3.015 2.808 3.694 4.459.332.806.4 1.475.264 2.006-.127.495-.479 1.073-1.41 1.636l1.556 2.567c1.471-.889 2.407-2.064 2.762-3.457.346-1.356.09-2.708-.396-3.889-.956-2.322-2.984-4.438-4.655-5.708l-1.814 2.386zm2.548 8.101c-2.52 1.523-6.076.8-9.622-1.8-3.483-2.554-6.435-6.587-7.484-10.539l-2.901.764c1.248 4.706 4.656 9.29 8.612 12.191 3.893 2.855 8.857 4.424 12.95 1.951l-1.555-2.567zM29.959 91.112c-3.244-12.22 1.428-24.33 10.954-33.013l-2.025-2.216c-10.18 9.279-15.415 22.487-11.83 35.993l2.9-.764zM40.913 58.1c5.98-5.452 14.07-10.622 22.597-13.438 8.531-2.817 17.333-3.229 24.917.561l1.339-2.681c-8.537-4.266-18.221-3.693-27.202-.727-8.987 2.967-17.435 8.379-23.676 14.069l2.025 2.216zm47.514-12.877c3.595 1.797 6.19 3.873 8.13 6.383 1.945 2.515 3.29 5.545 4.273 9.333l2.905-.748c-1.052-4.056-2.542-7.49-4.803-10.415-2.265-2.932-5.245-5.275-9.166-7.234l-1.34 2.681zm12.403 15.716c1.619 6.24 2.174 13.227-2.56 17.66l2.054 2.19c6.097-5.71 5.033-14.348 3.411-20.598l-2.905.748zm-2.56 17.66c-2.023 1.895-4.055 2.784-6.001 3.013-1.96.23-3.951-.195-5.893-1.128-3.921-1.884-7.447-5.751-9.597-9.706l-2.637 1.428c2.362 4.344 6.297 8.75 10.937 10.98 2.34 1.124 4.905 1.715 7.545 1.404 2.654-.312 5.266-1.521 7.7-3.8l-2.055-2.19zm-21.49-7.821c-8.722-16.046-1.437-38.472 15.126-46.867l-1.362-2.675c-18.01 9.129-25.961 33.382-16.402 50.97l2.637-1.428zM91.905 23.91c14.885-7.546 32.074-10.114 48.795-11.092l-.18-2.993c-16.856.986-34.538 3.584-49.977 11.41l1.362 2.675z" fill="#006766"/></svg>