<svg width="156" height="156" fill="none" xmlns="http://www.w3.org/2000/svg"><path d="M10.212 39.396L39.44 10.2c-5.106 2.99-10.036 6.507-14.262 10.552l-4.225 4.221a71.484 71.484 0 00-10.74 14.422zM1.585 62.435l60.92-60.852c-1.76.352-3.345.703-4.93 1.231L2.642 57.511c-.352 1.583-.704 3.341-1.056 4.924zM0 77.912v.528L78.528 0h-3.873L0 74.57v3.342zm1.233 13.894L91.91 1.231a139.13 139.13 0 00-3.346-.528L.704 88.464c.176 1.056.352 2.111.529 3.342zm2.993 11.432l99.128-99.017c-1.056-.352-1.936-.704-2.993-.88L3.345 100.249c.176 1.055.529 1.935.88 2.99zm4.225 10.201L113.567 8.442c-.881-.352-1.761-.88-2.641-1.231L7.219 110.8c.352.88.88 1.759 1.232 2.639zm5.459 8.969L122.546 13.894c-.704-.528-1.584-1.055-2.289-1.583L12.325 120.122c.528.703 1.057 1.583 1.585 2.286zm6.338 8.09L130.47 20.401c-.705-.527-1.409-1.23-2.113-1.758L18.487 128.388c.705.703 1.233 1.407 1.761 2.11zm7.395 7.035l110.045-109.92c-.528-.704-1.232-1.408-1.76-2.111L25.707 135.775c.528.527 1.232 1.231 1.936 1.758zm8.276 6.156L143.85 35.879c-.528-.704-1.056-1.584-1.585-2.287L33.806 142.106l2.113 1.583zm9.508 5.1l103.706-103.59c-.352-.879-.88-1.758-1.232-2.638L42.786 147.558c.88.528 1.76.879 2.64 1.231zm10.388 4.045l97.016-96.906c-.352-1.055-.529-1.935-.881-2.814l-98.952 98.665c.88.352 1.937.704 2.817 1.055zm11.973 2.463l87.684-87.586c-.176-1.055-.352-2.286-.528-3.341l-90.502 90.399c1.057.176 2.29.352 3.346.528zM78 156h3.521L156 81.605v-3.869L77.824 156H78zm20.776-2.814l54.407-54.345c.528-1.583.88-3.342 1.232-5.1l-60.568 60.676c1.76-.352 3.345-.703 4.93-1.231zm46.836-36.054l-28.348 28.316a78.107 78.107 0 0028.348-28.316z" opacity=".6" fill="#EBECED"/></svg>