<svg width="189" height="164" fill="none" xmlns="http://www.w3.org/2000/svg"><path d="M84.393.849a.349.349 0 11-.698 0 .349.349 0 01.698 0zm10.231 0a.349.349 0 11-.698 0 .349.349 0 01.698 0zm10.222 0a.349.349 0 11-.698 0 .349.349 0 01.698 0zm10.231 0a.349.349 0 11-.698 0 .349.349 0 01.698 0zM1.198.849a.349.349 0 11-.698 0 .349.349 0 01.698 0zm124.789 0a.35.35 0 01-.596.247l-.353.353.353-.353a.343.343 0 01-.095-.179.348.348 0 11.691-.068zm-114.559 0a.349.349 0 01-.595.247l-.354.353.354-.353a.348.348 0 11.595-.247zm124.789 0a.349.349 0 11-.697 0 .349.349 0 01.697 0zm-114.566 0a.349.349 0 11-.698 0 .349.349 0 01.698 0zm124.797 0a.349.349 0 11-.698 0 .349.349 0 01.698 0zM32.57.849a.349.349 0 11-.699 0 .349.349 0 01.698 0zm124.101 0a.35.35 0 11-.699-.001.35.35 0 01.699.001zm-113.879 0a.349.349 0 11-.698 0 .349.349 0 01.698 0zm124.797 0a.35.35 0 11-.699-.001.35.35 0 01.699.001zm-114.567 0a.349.349 0 11-.698 0 .349.349 0 01.698 0zm124.789 0a.349.349 0 11-.698 0 .349.349 0 01.698 0zm-114.558 0a.349.349 0 11-.698 0 .349.349 0 01.698 0zm124.789 0a.35.35 0 11-.699-.001.35.35 0 01.699.001zm-113.879 0a.349.349 0 11-.698 0 .349.349 0 01.698 0zm10.23 11.594a.349.349 0 11-.698 0 .349.349 0 01.698 0zm10.231 0a.349.349 0 11-.698 0 .349.349 0 01.698 0zm10.222 0a.349.349 0 11-.698 0 .349.349 0 01.698 0zm10.231 0a.349.349 0 11-.698 0 .349.349 0 01.698 0zm-113.879 0a.349.349 0 11-.698 0 .349.349 0 01.698 0zm124.789 0a.35.35 0 01-.596.247l-.353.353.353-.353a.343.343 0 01-.095-.18.347.347 0 01.589-.315.35.35 0 01.102.248zm-114.559 0a.349.349 0 01-.595.247l-.354.353.354-.353a.349.349 0 11.595-.247zm124.789 0a.349.349 0 11-.697 0 .349.349 0 01.697 0zm-114.566 0a.349.349 0 11-.698 0 .349.349 0 01.698 0zm124.797 0a.349.349 0 11-.698 0 .349.349 0 01.698 0zm-113.878 0a.349.349 0 11-.699 0 .349.349 0 01.698 0zm124.101 0a.35.35 0 11-.699-.001.35.35 0 01.699 0zm-113.879 0a.349.349 0 11-.698 0 .349.349 0 01.698 0zm124.797 0a.35.35 0 11-.699-.001.35.35 0 01.699 0zm-114.567 0a.349.349 0 11-.698 0 .349.349 0 01.698 0zm124.789 0a.349.349 0 11-.698 0 .349.349 0 01.698 0zm-114.558 0a.349.349 0 11-.698 0 .349.349 0 01.698 0zm124.789 0a.35.35 0 11-.699-.001.35.35 0 01.699 0zm-113.879 0a.349.349 0 11-.698 0 .349.349 0 01.698 0zm10.23 11.577a.349.349 0 11-.698 0 .349.349 0 01.698 0zm10.231 0a.349.349 0 11-.698 0 .349.349 0 01.698 0zm10.222 0a.349.349 0 11-.698.001.349.349 0 01.698 0zm10.231 0a.349.349 0 11-.698.001.349.349 0 01.698 0zm-113.879 0a.349.349 0 11-.698 0 .349.349 0 01.698 0zm124.789 0a.35.35 0 01-.596.247l-.353.354.353-.353a.343.343 0 01-.095-.18.348.348 0 11.691-.068zm-114.559 0a.348.348 0 01-.595.248l-.354.353.354-.353a.349.349 0 11.595-.247zm124.789 0a.349.349 0 11-.697.002.349.349 0 01.697-.001zm-114.566 0a.349.349 0 11-.698 0 .349.349 0 01.698 0zm124.797 0a.349.349 0 11-.698.001.349.349 0 01.698 0zm-113.878 0a.349.349 0 11-.699 0 .349.349 0 01.698 0zm124.101 0a.35.35 0 11-.699 0 .35.35 0 01.699 0zm-113.879 0a.349.349 0 11-.698 0 .349.349 0 01.698 0zm124.797 0a.35.35 0 11-.699 0 .35.35 0 01.699 0zm-114.567 0a.349.349 0 11-.698 0 .349.349 0 01.698 0zm124.789 0a.349.349 0 11-.698.001.349.349 0 01.698 0zm-114.558 0a.349.349 0 11-.698 0 .349.349 0 01.698 0zm124.789 0a.35.35 0 11-.699 0 .35.35 0 01.699 0zm-113.879 0a.349.349 0 11-.698 0 .349.349 0 01.698 0zm10.23 11.618a.349.349 0 11-.698 0 .349.349 0 01.698 0zm10.231 0a.349.349 0 11-.698 0 .349.349 0 01.698 0zm10.222 0a.349.349 0 11-.698 0 .349.349 0 01.698 0zm10.231 0a.349.349 0 11-.698 0 .349.349 0 01.698 0zm-113.879 0a.349.349 0 11-.698 0 .349.349 0 01.698 0zm124.789 0a.35.35 0 01-.596.247l-.353.353.353-.353a.343.343 0 01-.095-.179.348.348 0 11.691-.068zm-114.559 0a.348.348 0 01-.595.247l-.354.353.354-.353a.349.349 0 11.595-.247zm124.789 0a.349.349 0 11-.697 0 .349.349 0 01.697 0zm-114.566 0a.349.349 0 11-.698 0 .349.349 0 01.698 0zm124.797 0a.349.349 0 11-.698 0 .349.349 0 01.698 0zm-113.878 0a.349.349 0 11-.699 0 .349.349 0 01.698 0zm124.101 0a.35.35 0 11-.699 0 .35.35 0 01.699 0zm-113.879 0a.349.349 0 11-.698 0 .349.349 0 01.698 0zm124.797 0a.35.35 0 11-.699 0 .35.35 0 01.699 0zm-114.567 0a.349.349 0 11-.698 0 .349.349 0 01.698 0zm124.789 0a.349.349 0 11-.698 0 .349.349 0 01.698 0zm-114.558 0a.349.349 0 11-.698 0 .349.349 0 01.698 0zm124.789 0a.35.35 0 11-.699 0 .35.35 0 01.699 0zm-113.879 0a.349.349 0 11-.698 0 .349.349 0 01.698 0zm10.23 11.586a.35.35 0 11-.698 0 .35.35 0 01.698 0zm10.231 0a.349.349 0 11-.698 0 .349.349 0 01.698 0zm10.222 0a.349.349 0 11-.698 0 .349.349 0 01.698 0zm10.231 0a.349.349 0 11-.698 0 .349.349 0 01.698 0zm-113.879 0a.349.349 0 11-.698 0 .349.349 0 01.698 0zm124.789 0a.35.35 0 01-.596.247l-.353.353.353-.353a.343.343 0 01-.095-.179.348.348 0 11.691-.068zm-114.559 0a.349.349 0 01-.595.247l-.354.353.354-.353a.349.349 0 11.595-.247zm124.789 0a.349.349 0 11-.697 0 .349.349 0 01.697 0zm-114.566 0a.35.35 0 11-.698 0 .35.35 0 01.698 0zm124.797 0a.349.349 0 11-.698 0 .349.349 0 01.698 0zm-113.878 0a.35.35 0 11-.699 0 .35.35 0 01.698 0zm124.101 0a.35.35 0 11-.699-.001.35.35 0 01.699.001zm-113.879 0a.349.349 0 11-.698 0 .349.349 0 01.698 0zm124.797 0a.35.35 0 11-.699-.001.35.35 0 01.699.001zm-114.567 0a.35.35 0 11-.698 0 .35.35 0 01.698 0zm124.789 0a.349.349 0 11-.698 0 .349.349 0 01.698 0zm-114.558 0a.35.35 0 11-.698 0 .35.35 0 01.698 0zm124.789 0a.35.35 0 11-.699-.001.35.35 0 01.699.001zm-113.879 0a.349.349 0 11-.698 0 .349.349 0 01.698 0zm10.23 11.586a.349.349 0 11-.698 0 .349.349 0 01.698 0zm10.231 0a.349.349 0 11-.698 0 .349.349 0 01.698 0zm10.222 0a.349.349 0 11-.698 0 .349.349 0 01.698 0zm10.231 0a.349.349 0 11-.698 0 .349.349 0 01.698 0zm-113.879 0a.349.349 0 11-.698 0 .349.349 0 01.698 0zm124.789 0a.35.35 0 01-.596.247l-.353.353.353-.353a.343.343 0 01-.095-.179.347.347 0 01.589-.315.35.35 0 01.102.247zm-114.559 0a.349.349 0 01-.595.247l-.354.353.354-.353a.349.349 0 11.595-.247zm124.789 0a.349.349 0 11-.697 0 .349.349 0 01.697 0zm-114.566 0a.349.349 0 11-.698 0 .349.349 0 01.698 0zm124.797 0a.349.349 0 11-.698 0 .349.349 0 01.698 0zm-113.878 0a.349.349 0 11-.699 0 .349.349 0 01.698 0zm124.101 0a.35.35 0 11-.699-.001.35.35 0 01.699 0zm-113.879 0a.349.349 0 11-.698 0 .349.349 0 01.698 0zm124.797 0a.35.35 0 11-.699-.001.35.35 0 01.699 0zm-114.567 0a.349.349 0 11-.698 0 .349.349 0 01.698 0zm124.789 0a.349.349 0 11-.698 0 .349.349 0 01.698 0zm-114.558 0a.349.349 0 11-.698 0 .349.349 0 01.698 0zm124.789 0a.35.35 0 11-.699-.001.35.35 0 01.699 0zm-113.879 0a.349.349 0 11-.698 0 .349.349 0 01.698 0zm10.23 11.594a.35.35 0 11-.698 0 .35.35 0 01.698 0zm10.231 0a.349.349 0 11-.698 0 .349.349 0 01.698 0zm10.222 0a.349.349 0 11-.698 0 .349.349 0 01.698 0zm10.231 0a.349.349 0 11-.698 0 .349.349 0 01.698 0zm-113.879 0a.349.349 0 11-.698 0 .349.349 0 01.698 0zm124.789 0a.349.349 0 01-.596.247l-.353.353.353-.354a.343.343 0 01-.095-.178.348.348 0 11.691-.068zm-114.559 0a.348.348 0 01-.595.246l-.354.354.354-.354a.348.348 0 01.053-.537.35.35 0 01.542.29zm124.789 0a.349.349 0 11-.697 0 .349.349 0 01.697 0zm-114.566 0a.35.35 0 11-.698 0 .35.35 0 01.698 0zm124.797 0a.349.349 0 11-.698 0 .349.349 0 01.698 0zm-113.878 0a.35.35 0 11-.699 0 .35.35 0 01.698 0zm124.101 0a.35.35 0 11-.699-.001.35.35 0 01.699 0zm-113.879 0a.349.349 0 11-.698 0 .349.349 0 01.698 0zm124.797 0a.35.35 0 11-.699-.001.35.35 0 01.699 0zm-114.567 0a.35.35 0 11-.698 0 .35.35 0 01.698 0zm124.789 0a.349.349 0 11-.698 0 .349.349 0 01.698 0zm-114.558 0a.35.35 0 11-.698 0 .35.35 0 01.698 0zm124.789 0a.35.35 0 11-.699-.001.35.35 0 01.699 0zm-113.879 0a.349.349 0 11-.698 0 .349.349 0 01.698 0zm10.23 11.578a.35.35 0 11-.698 0 .35.35 0 01.698 0zm10.231 0a.349.349 0 11-.698 0 .349.349 0 01.698 0zm10.222 0a.349.349 0 11-.698 0 .349.349 0 01.698 0zm10.231 0a.349.349 0 11-.698 0 .349.349 0 01.698 0zm-113.879 0a.349.349 0 11-.698 0 .349.349 0 01.698 0zm124.789 0a.35.35 0 01-.596.247l-.353.353.353-.353a.343.343 0 01-.095-.18.348.348 0 11.691-.068zm-114.559 0a.349.349 0 01-.595.247l-.354.353.354-.353a.349.349 0 11.595-.247zm124.789 0a.349.349 0 11-.697 0 .349.349 0 01.697 0zm-114.566 0a.35.35 0 11-.698 0 .35.35 0 01.698 0zm124.797 0a.349.349 0 11-.698 0 .349.349 0 01.698 0zm-113.878 0a.35.35 0 11-.699 0 .35.35 0 01.698 0zm124.101 0a.35.35 0 11-.699-.001.35.35 0 01.699 0zm-113.879 0a.349.349 0 11-.698 0 .349.349 0 01.698 0zm124.797 0a.35.35 0 11-.699-.001.35.35 0 01.699 0zm-114.567 0a.35.35 0 11-.698 0 .35.35 0 01.698 0zm124.789 0a.349.349 0 11-.698 0 .349.349 0 01.698 0zm-114.558 0a.35.35 0 11-.698 0 .35.35 0 01.698 0zm124.789 0a.35.35 0 11-.699-.001.35.35 0 01.699 0zm-113.879 0a.349.349 0 11-.698 0 .349.349 0 01.698 0zm10.23 11.601a.349.349 0 11-.698 0 .349.349 0 01.698 0zm10.231 0a.349.349 0 11-.698 0 .349.349 0 01.698 0zm10.222 0a.349.349 0 11-.698 0 .349.349 0 01.698 0zm10.231 0a.349.349 0 11-.698 0 .349.349 0 01.698 0zm-113.879 0a.349.349 0 11-.698 0 .349.349 0 01.698 0zm124.789 0a.35.35 0 01-.596.247l-.353.354.353-.354a.343.343 0 01-.095-.179.348.348 0 11.691-.068zm-114.559 0a.348.348 0 01-.595.247l-.354.354.354-.354a.349.349 0 11.595-.247zm124.789 0a.349.349 0 11-.697.001.349.349 0 01.697 0zm-114.566 0a.349.349 0 11-.698 0 .349.349 0 01.698 0zm124.797 0a.349.349 0 11-.698 0 .349.349 0 01.698 0zm-113.878 0a.349.349 0 11-.699 0 .349.349 0 01.698 0zm124.101 0a.35.35 0 11-.699 0 .35.35 0 01.699 0zm-113.879 0a.349.349 0 11-.698 0 .349.349 0 01.698 0zm124.797 0a.35.35 0 11-.699 0 .35.35 0 01.699 0zm-114.567 0a.349.349 0 11-.698 0 .349.349 0 01.698 0zm124.789 0a.349.349 0 11-.698 0 .349.349 0 01.698 0zm-114.558 0a.349.349 0 11-.698 0 .349.349 0 01.698 0zm124.789 0a.35.35 0 11-.699 0 .35.35 0 01.699 0zm-113.879 0a.349.349 0 11-.698 0 .349.349 0 01.698 0zm10.23 11.602a.349.349 0 11-.697 0 .349.349 0 01.697 0zm10.231 0a.349.349 0 11-.698 0 .349.349 0 01.698 0zm10.222 0a.349.349 0 11-.697 0 .349.349 0 01.697 0zm10.231 0a.349.349 0 11-.697 0 .349.349 0 01.697 0zm-113.879 0a.349.349 0 11-.698 0 .349.349 0 01.698 0zm124.789 0a.346.346 0 01-.215.322.341.341 0 01-.202.02.344.344 0 01-.179-.095l-.353.353.353-.353a.344.344 0 01-.095-.179.348.348 0 11.691-.068zm-114.559 0a.35.35 0 01-.417.342.343.343 0 01-.178-.095l-.354.353.354-.353a.349.349 0 11.595-.247zm124.789 0a.348.348 0 11-.697.001.348.348 0 01.697-.001zm-114.566 0a.349.349 0 11-.698 0 .349.349 0 01.698 0zm124.797 0a.349.349 0 11-.697 0 .349.349 0 01.697 0zm-113.878 0a.349.349 0 11-.699 0 .349.349 0 01.698 0zm124.101 0a.35.35 0 11-.699 0 .35.35 0 01.699 0zm-113.879 0a.349.349 0 11-.698 0 .349.349 0 01.698 0zm124.797 0a.35.35 0 11-.699 0 .35.35 0 01.699 0zm-114.567 0a.349.349 0 11-.698 0 .349.349 0 01.698 0zm124.789 0a.349.349 0 11-.697 0 .349.349 0 01.697 0zm-114.558 0a.349.349 0 11-.698 0 .349.349 0 01.698 0zm124.789 0a.35.35 0 11-.699 0 .35.35 0 01.699 0zm-113.879 0a.349.349 0 11-.698 0 .349.349 0 01.698 0zm10.23 11.586a.349.349 0 11-.697 0 .349.349 0 01.697 0zm10.231 0a.349.349 0 11-.698 0 .349.349 0 01.698 0zm10.222 0a.349.349 0 11-.697 0 .349.349 0 01.697 0zm10.231 0a.349.349 0 11-.697 0 .349.349 0 01.697 0zm-113.879 0a.349.349 0 11-.698 0 .349.349 0 01.698 0zm124.789 0a.346.346 0 01-.215.322.351.351 0 01-.381-.075l-.353.353.353-.353a.344.344 0 01-.095-.179.348.348 0 11.691-.068zm-114.559 0a.35.35 0 01-.417.342.35.35 0 01-.178-.095l-.354.353.354-.353a.349.349 0 11.595-.247zm124.789 0a.348.348 0 11-.697.001.348.348 0 01.697-.001zm-114.566 0a.349.349 0 11-.698 0 .349.349 0 01.698 0zm124.797 0a.349.349 0 11-.697 0 .349.349 0 01.697 0zm-113.878 0a.349.349 0 11-.699 0 .349.349 0 01.698 0zm124.101 0a.35.35 0 11-.699 0 .35.35 0 01.699 0zm-113.879 0a.349.349 0 11-.698 0 .349.349 0 01.698 0zm124.797 0a.35.35 0 11-.699 0 .35.35 0 01.699 0zm-114.567 0a.349.349 0 11-.698 0 .349.349 0 01.698 0zm124.789 0a.349.349 0 11-.697 0 .349.349 0 01.697 0zm-114.558 0a.349.349 0 11-.698 0 .349.349 0 01.698 0zm124.789 0a.35.35 0 11-.699 0 .35.35 0 01.699 0zm-113.879 0a.349.349 0 11-.698 0 .349.349 0 01.698 0zm10.23 11.594a.35.35 0 11-.699-.001.35.35 0 01.7.001zm10.231 0a.35.35 0 11-.7 0 .35.35 0 01.7 0zm10.222 0a.35.35 0 11-.699 0 .35.35 0 01.699 0zm10.231 0a.35.35 0 11-.699 0 .35.35 0 01.699 0zm-113.879 0a.35.35 0 11-.699 0 .35.35 0 01.699 0zm124.789 0a.34.34 0 01-.059.193.344.344 0 01-.358.149.353.353 0 01-.179-.096l-.353.354.353-.354a.341.341 0 01-.095-.178.35.35 0 01.148-.359.353.353 0 01.441.044.35.35 0 01.102.247zm-114.559 0a.343.343 0 01-.215.322.352.352 0 01-.38-.076l-.354.354.354-.354a.346.346 0 01-.076-.38.351.351 0 01.671.134zm124.789 0a.35.35 0 11-.698 0 .35.35 0 01.698 0zm-114.566 0a.35.35 0 11-.699-.001.35.35 0 01.7.001zm124.797 0a.35.35 0 11-.699 0 .35.35 0 01.699 0zm-113.878 0a.35.35 0 11-.7-.001.35.35 0 01.7.001zm124.101 0a.35.35 0 11-.697 0 .35.35 0 01.697 0zm-113.879 0a.35.35 0 11-.7 0 .35.35 0 01.7 0zm124.797 0a.35.35 0 11-.697 0 .35.35 0 01.697 0zm-114.567 0a.35.35 0 11-.699-.001.35.35 0 01.7.001zm124.789 0a.35.35 0 11-.699 0 .35.35 0 01.699 0zm-114.558 0a.35.35 0 11-.7-.001.35.35 0 01.7.001zm124.789 0a.35.35 0 11-.697 0 .35.35 0 01.697 0zm-113.879 0a.35.35 0 11-.7 0 .35.35 0 01.7 0zm10.23 11.601a.349.349 0 11-.697 0 .349.349 0 01.697 0zm10.231 0a.349.349 0 11-.698 0 .349.349 0 01.698 0zm10.222 0a.349.349 0 11-.697 0 .349.349 0 01.697 0zm10.231 0a.349.349 0 11-.697 0 .349.349 0 01.697 0zm-113.879 0a.349.349 0 11-.698 0 .349.349 0 01.698 0zm124.789 0c0 .069-.02.137-.059.194a.349.349 0 01-.537.053l-.353.354.353-.354a.344.344 0 01-.095-.179.338.338 0 01.02-.201.346.346 0 01.322-.216c.093 0 .181.037.247.102a.353.353 0 01.102.247zm-114.559 0a.348.348 0 01-.595.247l-.354.354.354-.354a.349.349 0 11.595-.247zm124.789 0a.348.348 0 11-.697.001.348.348 0 01.697-.001zm-114.566 0a.349.349 0 11-.698 0 .349.349 0 01.698 0zm124.797 0a.349.349 0 11-.697 0 .349.349 0 01.697 0zm-113.878 0a.349.349 0 11-.699 0 .349.349 0 01.698 0zm124.101 0a.35.35 0 11-.699 0 .35.35 0 01.699 0zm-113.879 0a.349.349 0 11-.698 0 .349.349 0 01.698 0zm124.797 0a.35.35 0 11-.699 0 .35.35 0 01.699 0zm-114.567 0a.349.349 0 11-.698 0 .349.349 0 01.698 0zm124.789 0a.349.349 0 11-.697 0 .349.349 0 01.697 0zm-114.558 0a.349.349 0 11-.698 0 .349.349 0 01.698 0zm124.789 0a.35.35 0 11-.699 0 .35.35 0 01.699 0zm-113.879 0a.349.349 0 11-.698 0 .349.349 0 01.698 0zm10.23 11.578a.349.349 0 11-.697 0 .349.349 0 01.697 0zm10.231 0a.349.349 0 11-.698 0 .349.349 0 01.698 0zm10.222 0a.349.349 0 11-.697 0 .349.349 0 01.697 0zm10.231 0a.349.349 0 11-.697 0 .349.349 0 01.697 0zm-113.879 0a.349.349 0 11-.698 0 .349.349 0 01.698 0zm124.789 0a.35.35 0 01-.417.343.353.353 0 01-.179-.096l-.353.354.353-.354a.344.344 0 01-.095-.179.35.35 0 01.342-.417.348.348 0 01.349.349zm-114.559 0a.348.348 0 01-.595.247l-.354.354.354-.354a.349.349 0 11.595-.247zm124.789 0a.348.348 0 11-.697.001.348.348 0 01.697-.001zm-114.566 0a.349.349 0 11-.698 0 .349.349 0 01.698 0zm124.797 0a.349.349 0 11-.697 0 .349.349 0 01.697 0zm-113.878 0a.349.349 0 11-.699 0 .349.349 0 01.698 0zm124.101 0a.35.35 0 11-.699 0 .35.35 0 01.699 0zm-113.879 0a.349.349 0 11-.698 0 .349.349 0 01.698 0zm124.797 0a.35.35 0 11-.699 0 .35.35 0 01.699 0zm-114.567 0a.349.349 0 11-.698 0 .349.349 0 01.698 0zm124.789 0a.349.349 0 11-.697 0 .349.349 0 01.697 0zm-114.558 0a.349.349 0 11-.698 0 .349.349 0 01.698 0zm124.789 0a.35.35 0 11-.699 0 .35.35 0 01.699 0zm-113.879 0a.349.349 0 11-.698 0 .349.349 0 01.698 0zm10.23 11.602a.349.349 0 11-.697 0 .349.349 0 01.697 0zm10.231 0a.349.349 0 11-.698 0 .349.349 0 01.698 0zm10.222 0a.349.349 0 11-.697 0 .349.349 0 01.697 0zm10.231 0a.349.349 0 11-.697 0 .349.349 0 01.697 0zm-113.879 0a.349.349 0 11-.698 0 .349.349 0 01.698 0zm124.789 0a.346.346 0 01-.215.322.351.351 0 01-.381-.075l-.353.353.353-.353a.344.344 0 01-.095-.179.348.348 0 11.691-.068zm-114.559 0a.35.35 0 01-.417.342.35.35 0 01-.178-.095l-.354.353.354-.353a.349.349 0 11.595-.247zm124.789 0a.348.348 0 11-.697.001.348.348 0 01.697-.001zm-114.566 0a.349.349 0 11-.698 0 .349.349 0 01.698 0zm124.797 0a.349.349 0 11-.697 0 .349.349 0 01.697 0zm-113.878 0a.349.349 0 11-.699 0 .349.349 0 01.698 0zm124.101 0a.35.35 0 11-.699 0 .35.35 0 01.699 0zm-113.879 0a.349.349 0 11-.698 0 .349.349 0 01.698 0zm124.797 0a.35.35 0 11-.699 0 .35.35 0 01.699 0zm-114.567 0a.349.349 0 11-.698 0 .349.349 0 01.698 0zm124.789 0a.349.349 0 11-.697 0 .349.349 0 01.697 0zm-114.558 0a.349.349 0 11-.698 0 .349.349 0 01.698 0zm124.789 0a.35.35 0 11-.699 0 .35.35 0 01.699 0zm-113.879 0a.349.349 0 11-.698 0 .349.349 0 01.698 0z" fill="#7900FF" stroke="#6440FB"/></svg>