<svg width="1290" height="946" fill="none" xmlns="http://www.w3.org/2000/svg"><path d="M514.664 873.775c169.123 0 306.224-137.101 306.224-306.224S683.787 261.327 514.664 261.327 208.439 398.428 208.439 567.551s137.102 306.224 306.225 306.224z" fill="#DFF1F4"/><path d="M699.142 689.291c169.123 0 306.228-137.101 306.228-306.224S868.265 76.842 699.142 76.842c-169.123 0-306.224 137.102-306.224 306.225 0 169.123 137.101 306.224 306.224 306.224z" fill="#DFF1F4"/><path d="M647.471 526.641c45.736-55.945 122.294-38.707 186.451 23.188 34.009 32.81 37.67 40.387 37.67 40.387l-55.343 94.764-146.063-99.849-22.715-58.49z" fill="#83A9FF"/><path d="M844.125 637.247L741.984 532.192l14.981 112.261 59.284 40.528 27.876-47.734z" fill="#6F97DD"/><path d="M869.544 684.607c28.623-18.885 36.518-57.398 17.634-86.022-18.885-28.624-57.398-36.519-86.022-17.634-28.624 18.885-36.519 57.398-17.634 86.022 18.885 28.623 57.398 36.518 86.022 17.634z" fill="#6F97DD"/><path d="M712.836 509.835s67.331 144.453 75.512 155.201c8.181 10.746 51.684 26.924 73.996 23.722 22.309-3.202 23.369-74.66 18.683-83.437-4.685-8.779-126.966-120.438-126.966-120.438s-45.239-14.81-41.225 24.952z" fill="#A56F62"/><path d="M537.727 538.958c-29.706-65.875-88.056-77.834-166.042-34.644-41.34 22.894-46.835 29.265-46.835 29.265l28.943 105.857 183.934-100.478z" fill="#83A9FF"/><path d="M372.614 641.498c31.683-13.124 46.728-49.446 33.604-81.129-13.124-31.683-49.446-46.728-81.129-33.604-31.683 13.124-46.728 49.446-33.604 81.129 13.124 31.683 49.446 46.728 81.129 33.604z" fill="#6F97DD"/><path d="M704.638 860.256c.06 10.75-5.996 20.668-15.693 25.303-21.469 10.26-52.651 21.495-91.353 24.209-54.478 3.823-98.235-11.03-124.362-23.046-9.843-4.529-16.1-14.42-16.157-25.254-.523-97.696-1.046-187.224-1.571-284.335-.303-56.089 44.926-101.818 101.017-102.114l51.174-.271c52.376-.278 95.063 41.958 95.341 94.334l1.604 291.174z" fill="#83A9FF"/><path d="M457.074 861.473c.057 10.833 6.314 20.727 16.157 25.253 26.127 12.017 69.884 26.867 124.362 23.047 38.704-2.716 69.884-13.95 91.353-24.21 9.699-4.634 15.753-14.554 15.693-25.302l-.589-106.991-247.091 86.901.115 21.302z" fill="#6F97DD"/><path d="M537.202 479.996c-7.847 19.114 11.688 45.244 43.636 58.362 31.947 13.12 64.208 8.26 72.058-10.854 7.85-19.112-11.686-45.244-43.633-58.362-31.948-13.12-64.211-8.26-72.061 10.854z" fill="#A56F62"/><path d="M662.145 195.803l-4.443-.971c-28.491-6.234-59.481 24.791-69.218 69.291l-48.269 220.628 107.618 23.545 48.272-220.625c9.734-44.505-5.469-85.633-33.96-91.868z" fill="#A56F62"/><path d="M661.591 203.873l-4.442-.971c-28.492-6.235-58.905 22.159-67.934 63.418l-32.978 150.736c-6.501 29.717 12.319 59.08 42.038 65.581 29.718 6.504 59.079-12.317 65.581-42.035l32.98-150.735c9.024-41.26-6.756-79.76-35.245-85.994z" fill="#8C5C53"/><path d="M640.576 400.721c-1.973 4.849-12.961 4.959-24.545.245-11.582-4.714-19.372-12.465-17.399-17.316 1.973-4.848 12.963-4.956 24.545-.244 11.582 4.716 19.372 12.466 17.399 17.315z" fill="#D88D87"/><path d="M648.753 95.788c-8.671-.936-16.872-11.997-25.342-11.708-8.682.296-16.095 11.922-24.468 13.427-8.521 1.531-19.516-6.764-27.613-4.065-8.188 2.728-12.008 15.976-19.659 19.809-7.698 3.86-20.593-1-27.637 3.895-7.058 4.902-7.01 18.684-13.302 24.537-6.28 5.839-20.025 4.787-25.436 11.485-5.379 6.656-1.464 19.864-5.873 27.281-4.361 7.336-17.847 10.201-21.158 18.199-3.255 7.861 4.24 19.412 2.099 27.831-2.088 8.214-14.217 14.767-15.153 23.438-.933 8.671 9.521 17.659 9.81 26.129.296 8.682-9.487 18.373-7.982 26.746 1.531 8.521 14.097 14.195 16.794 22.294 2.728 8.188-3.913 20.258-.077 27.909 3.86 7.698 17.512 9.598 22.405 16.642 4.901 7.058 1.915 20.514 7.766 26.806 5.839 6.28 19.474 4.281 26.169 9.692 6.656 5.379 7.568 19.134 14.985 23.546 7.336 4.361 19.845-1.399 27.841 1.911 7.861 3.255 12.625 16.192 21.043 18.333 8.214 2.088 18.582-6.974 27.253-6.038 8.671.936 16.869 11.997 25.34 11.708 8.682-.296 16.095-11.922 24.468-13.425 8.518-1.532 19.513 6.764 27.613 4.065 8.187-2.728 12.01-15.974 19.659-19.811 7.698-3.86 20.59.999 27.635-3.893 7.058-4.902 7.009-18.686 13.301-24.537 6.281-5.839 20.025-4.787 25.437-11.485 5.378-6.658 1.463-19.864 5.872-27.284 4.363-7.336 17.85-10.2 21.16-18.196 3.256-7.861-4.239-19.414-2.099-27.831 2.09-8.214 14.22-14.767 15.153-23.438.936-8.671-9.518-17.66-9.807-26.13-.296-8.682 9.487-18.372 7.982-26.745-1.532-8.519-14.098-14.195-16.795-22.292-2.727-8.188 3.911-20.258.075-27.909-3.857-7.698-17.511-9.598-22.404-16.642-4.902-7.058-1.916-20.514-7.768-26.808-5.84-6.281-19.474-4.281-26.17-9.693-6.658-5.378-7.568-19.136-14.985-23.545-7.336-4.361-19.845 1.401-27.84-1.911-7.861-3.256-12.626-16.192-21.043-18.333-8.21-2.09-18.578 6.972-27.249 6.036z" fill="#252538"/><path d="M732.703 331.814l-209.408-22.576 2.322-21.54c6.234-57.825 58.165-99.649 115.991-93.414 57.828 6.234 99.649 58.165 93.414 115.993l-2.319 21.537z" fill="#252538"/><path d="M733.27 355.712l-216.095-23.299c-9.454-1.019-16.291-9.509-15.272-18.964 1.02-9.454 9.51-16.293 18.964-15.274l216.095 23.299c9.455 1.019 16.292 9.509 15.272 18.964-1.02 9.456-9.51 16.293-18.964 15.274z" fill="#8C5C53"/><path d="M510.864 314.424a8.204 8.204 0 019.035-7.278l216.095 23.298a8.204 8.204 0 017.276 9.038 8.203 8.203 0 01-9.035 7.276l-216.094-23.299a8.203 8.203 0 01-7.277-9.035z" fill="#AA635F"/><path d="M611.26 473.568c-52.774-5.69-90.942-53.083-85.251-105.857l9.779-90.709c5.456-50.593 50.892-87.186 101.485-81.733l7.892.852c50.596 5.455 87.187 50.891 81.733 101.487l-9.778 90.709c-5.692 52.772-53.086 90.94-105.86 85.251z" fill="#A56F62"/><path d="M601.414 395.944c10.271 2.143 24.576 5.758 37.915 11.315 8.775 3.655 16.567-5.429 13.169-14.806-2.792-7.702-11.119-14.374-21.992-17.913-12.167-3.962-26.415.953-31.939 4.773-7.817 5.409-6.309 14.722 2.847 16.631z" fill="#fff"/><path d="M654.086 194.085l-24.623-2.655c-51.026-5.502-96.852 31.403-102.354 82.431l-.755 6.994a27.457 27.457 0 00-.148 2.189c-.379 13.965 20.69 14.938 22.189 1.05l.364-3.37c2.646-24.534 24.68-42.282 49.216-39.636l76.291 8.225c24.537 2.646 42.28 24.68 39.636 49.215l-.364 3.37c-1.498 13.888 19.295 17.428 21.902 3.703a28.53 28.53 0 00.322-2.172l.755-6.994c5.501-51.024-31.405-96.848-82.431-102.35z" fill="#252538"/><path d="M603.348 303.745l-21.114-2.276a8.754 8.754 0 00-9.64 7.764 8.752 8.752 0 007.764 9.64l21.114 2.278a8.752 8.752 0 009.64-7.764 8.753 8.753 0 00-7.764-9.642zm94.888 10.234l-21.113-2.275a8.752 8.752 0 00-9.64 7.764c-.519 4.806 2.959 9.121 7.764 9.64l21.113 2.275a8.75 8.75 0 009.64-7.762 8.755 8.755 0 00-7.764-9.642z" fill="#8C5C53"/><path d="M597.906 300.648c-6.177-.666-11.723 3.803-12.387 9.978-.666 6.175 3.8 11.723 9.977 12.389 6.178.667 11.724-3.802 12.39-9.977.664-6.175-3.802-11.723-9.98-12.39zm84.735 9.133c-6.177-.667-11.723 3.802-12.39 9.977-.666 6.175 3.803 11.724 9.978 12.39 6.175.667 11.723-3.802 12.389-9.977.667-6.175-3.8-11.724-9.977-12.39zm21.904-16.947l-15.483-13.345a8.107 8.107 0 00-11.439.847 8.11 8.11 0 00.848 11.441l15.483 13.345a8.115 8.115 0 0011.441-.848 8.116 8.116 0 00-.85-11.44zm-104.109-22.203l-19.2 7.016a8.112 8.112 0 105.568 15.237l19.2-7.016a8.115 8.115 0 004.835-10.404 8.114 8.114 0 00-10.403-4.833z" fill="#252538"/><path d="M637.004 430.653c-2.071 4.659-12.77 4.427-23.899-.516-11.13-4.944-18.474-12.728-16.404-17.386 2.07-4.659 12.769-4.427 23.896.516 11.132 4.944 18.474 12.727 16.407 17.386z" fill="#8C5C53"/><path d="M635.982 363.064c-8.79-.949-15.146-8.841-14.199-17.631l2.781-25.808c.949-8.79 8.84-15.146 17.631-14.199 8.79.946 15.146 8.841 14.199 17.631l-2.783 25.807c-.947 8.791-8.841 15.149-17.629 14.2z" fill="#D88D87"/><path d="M645.409 354.935a4.229 4.229 0 01-3.752-4.657l3.222-29.873a4.23 4.23 0 018.409.908l-3.22 29.872a4.232 4.232 0 01-4.659 3.75z" fill="#F79C97"/><path d="M498.999 497.012s-102.41 122.115-113.093 130.38c-10.684 8.263-56.892 12.637-77.613 3.772-20.723-8.866-3.26-78.165 3.538-85.43 6.797-7.268 153.802-83.488 153.802-83.488s47.532-2.604 33.366 34.766z" fill="#A56F62"/><path d="M515.539 343.418c-5.978 1.49-8.594 10.644-11.023 17.183-2.43 6.539-22.045 74.918-22.045 74.918h22.232l10.836-92.101z" fill="#8C5C53"/><path d="M498.998 496.998c16.728-10.849 27.306-21.497 25.66-41.675-1.437-17.605 2.01-93.238 2.913-112.237.156-3.309-2.443-6.151-5.756-6.16-2.858-.007-6.164 1.357-8.519 6.493-5.056 11.017-13.824 62.4-21.111 73.543-7.285 11.143-40.349 57.417-40.349 57.417l47.162 22.619z" fill="#A56F62"/><path d="M517.768 354.708c-.764 3.46-14.541 66.741-14.541 66.741l2.244.49s13.773-63.274 14.539-66.735c.36-1.629 2.231-8.761 7.49-10.626l.071-1.488a6.019 6.019 0 00-.053-.953c-6.983 1.79-9.318 10.611-9.75 12.571zm217.189 6.741c5.449 2.878 5.796 12.392 6.588 19.322.792 6.93 3.465 78.017 3.465 78.017l-21.586-5.323 11.533-92.016z" fill="#8C5C53"/><path d="M714.242 514.519c-13.643-14.537-21.365-27.41-14.936-46.606 5.61-16.748 20.372-91.006 24.046-109.668.64-3.248 3.847-5.387 7.062-4.601 2.777.677 5.659 2.794 6.718 8.342 2.271 11.908-1.518 63.895 2.889 76.458 4.405 12.564 25.428 65.409 25.428 65.409l-51.207 10.666z" fill="#A56F62"/><path d="M730.089 371.871c-.087 3.543-1.863 68.282-1.863 68.282l-2.295-.064s1.776-64.731 1.865-68.273c.039-1.668-.069-9.041-4.728-12.111.1-.508.201-1.013.287-1.459.062-.318.17-.618.278-.914 6.35 3.41 6.504 12.533 6.456 14.539z" fill="#8C5C53"/><path d="M1171.88 877.273h-59.95l-12.15-62.363h84.26l-12.16 62.363z" fill="#A94BBC"/><path d="M1105.28 843.126l75.25-10.207 3.51-18.009h-84.26l5.5 28.216z" fill="#843C96"/><path d="M1141.37 810.225c36.11-50.075.46-79.891 0-80.275v-.008l-.01.004v-.004.008c-.47.382-36.12 30.198 0 80.275v.015-.006l.01.006v-.015z" fill="#A7E070"/><path d="M1138.68 816.42c.45-68.516 42.99-73.442 78.37-48.812l-78.37 48.812z" fill="#75B75A"/><path d="M1144.5 818.205c0-43.887 49.71-58.664 75.24-8.508l-75.24 8.508z" fill="#A7E070"/><path d="M1144.05 816.42c-.45-68.516-42.99-73.442-78.37-48.812l78.37 48.812z" fill="#75B75A"/><path d="M1138.23 818.205c0-43.887-49.71-58.664-75.23-8.508l75.23 8.508z" fill="#A7E070"/><path d="M1189.03 812.395h-95.87v14.312h95.87v-14.312z" fill="#A94BBC"/><path d="M1172.72 542.871l16.65-52-39.9 67.223 22.31-3.924-16.24 56.764 39.49-71.985-22.31 3.922zm44.09 26.414l42.94-33.726-70.73 33.289 20.68 9.262-45.28 37.893 73.07-37.456-20.68-9.262zm73.19 43.393l-77.19-12.346 11.86 19.3-58.75 5.793 81.47 10.222-11.86-19.297 54.47-3.672z" fill="#EDCB3A"/><path d="M1077.56 860.608l-335.585-.047 70.078-235.963h335.237l-69.73 236.01z" fill="#3C3C5B"/><path d="M1077.53 860.528H586.771v16.761h490.759v-16.761z" fill="#252538"/><path d="M1077.54 860.528H741.988v16.761h335.552v-16.761z" fill="#6D6DA0"/><path d="M812.054 624.598h-12.74l-71.072 236.681 13.747-.755 70.065-235.926z" fill="#252538"/><path d="M979.116 763.44c-5.491 16.863-21.645 26.721-36.083 22.021-14.438-4.701-21.692-22.182-16.201-39.045 5.491-16.863 21.646-26.722 36.083-22.021 14.438 4.701 21.69 22.182 16.201 39.045z" fill="#6D6DA0"/><path d="M1208.95 877.473H0v36.692h1208.95v-36.692z" fill="#EDCB3A"/><path d="M1146.83 913.332H62.133v32.658H1146.83v-32.658z" fill="#EDCB3A"/><path d="M62.133 922.138l1084.697 15.278v-24.084H62.133v8.806z" fill="#E59F01"/><path d="M381.636 213.858c11.838-94.347-55.048-180.427-149.394-192.265C137.895 9.754 51.815 76.64 39.977 170.987 28.138 265.334 95.024 351.414 189.37 363.252c94.346 11.839 180.426-55.047 192.265-149.394z" fill="#890C25"/><path d="M336.84 289.268h66.748l-44.123-44.123-22.625 44.123z" fill="#FF5050"/><path d="M162.085 291.339l183.624-117.962-253.102-71.961 126.551 189.923 21.507-186.615L83.508 223.121l244.005-98.546-52.109 167.145s-145.577-48.038-143.095-48.863c2.481-.827 46.319-194.376 46.319-194.376l68.653 271.806" stroke="#fff" stroke-width="2" stroke-miterlimit="10"/><path d="M223.502 720.565h55.542c10.112 0 18.308-8.196 18.308-18.308V596.051h-92.161v106.206c0 10.112 8.199 18.308 18.311 18.308z" fill="#A94BBC"/><path d="M205.447 704.346c1.437 9.185 9.362 16.219 18.949 16.219h53.752c10.606 0 19.204-8.598 19.204-19.205v-28.504l-91.905 31.49z" fill="#843C96"/><path d="M165.732 670.318v-36.275c0-14.058 11.437-25.492 25.49-25.492h29.904v87.257h-29.904c-14.053 0-25.49-11.436-25.49-25.49zm42.157-48.532h-16.667c-6.757 0-12.255 5.5-12.255 12.257v36.275c0 6.758 5.498 12.253 12.255 12.253h16.667v-60.785z" fill="#A94BBC"/><path d="M270.368 585.139a3.473 3.473 0 01-3.472-3.472c0-10.114 5.509-15.23 10.371-19.743 4.374-4.061 8.15-7.565 8.15-14.651 0-7.091-3.778-10.603-8.152-14.668-4.86-4.517-10.369-9.635-10.369-19.749 0-10.119 5.509-15.237 10.369-19.755 4.371-4.065 8.15-7.574 8.15-14.664a3.47 3.47 0 116.943 0c0 10.116-5.509 15.234-10.368 19.751-4.375 4.066-8.153 7.575-8.153 14.668 0 7.088 3.778 10.599 8.15 14.665 4.86 4.517 10.368 9.635 10.368 19.754 0 10.112-5.508 15.227-10.368 19.738-4.374 4.063-8.15 7.57-8.15 14.657a3.468 3.468 0 01-3.469 3.469zm-28.354 0a3.472 3.472 0 01-3.471-3.472c0-10.114 5.508-15.23 10.37-19.743 4.374-4.061 8.15-7.565 8.15-14.651 0-7.091-3.778-10.603-8.152-14.668-4.86-4.517-10.368-9.635-10.368-19.749 0-10.119 5.508-15.237 10.368-19.755 4.374-4.065 8.15-7.574 8.15-14.664a3.471 3.471 0 116.943 0c0 10.116-5.508 15.234-10.368 19.751-4.374 4.066-8.152 7.575-8.152 14.668 0 7.088 3.778 10.599 8.15 14.665 4.859 4.517 10.368 9.635 10.368 19.754 0 10.112-5.509 15.227-10.368 19.738-4.374 4.063-8.15 7.57-8.15 14.657a3.47 3.47 0 01-3.47 3.469zm-28.353 0a3.473 3.473 0 01-3.472-3.472c0-10.114 5.509-15.23 10.371-19.743 4.372-4.061 8.15-7.565 8.15-14.651 0-7.091-3.778-10.603-8.152-14.668-4.86-4.517-10.366-9.635-10.366-19.749 0-10.119 5.508-15.237 10.368-19.755 4.374-4.065 8.15-7.574 8.15-14.664a3.471 3.471 0 116.943 0c0 10.116-5.509 15.234-10.366 19.751-4.374 4.066-8.152 7.575-8.152 14.668 0 7.088 3.778 10.599 8.15 14.665 4.859 4.517 10.368 9.635 10.368 19.754 0 10.112-5.509 15.227-10.368 19.738-4.372 4.063-8.15 7.57-8.15 14.657a3.474 3.474 0 01-3.474 3.469z" fill="#fff"/><path d="M218.959 877.822H79.027c-13.619 0-24.66-11.041-24.66-24.66v-3.154c0-13.619 11.041-24.66 24.66-24.66H218.96a3.52 3.52 0 013.52 3.52v45.429a3.521 3.521 0 01-3.52 3.525z" fill="#A7E070"/><path d="M230.584 871.687v-40.206h137.43v-6.133H196.302c-14.49 0-26.236 11.747-26.236 26.236 0 14.49 11.746 26.236 26.236 26.236h171.712v-6.133h-137.43z" fill="#75B75A"/><path d="M361.234 871.686v-40.205H198.238c-11.103 0-20.103 9-20.103 20.103 0 11.103 9 20.102 20.103 20.102h162.996z" fill="#fff"/><path d="M178.135 851.591c0 4.763 1.659 9.137 4.427 12.582 1.26-3.445 2.015-7.817 2.015-12.582 0-4.762-.755-9.136-2.015-12.579a20.007 20.007 0 00-4.427 12.579z" fill="#DFF1F4"/><path opacity=".94" d="M361.236 848.931v-17.45H198.239c-6.389 0-12.072 2.99-15.753 7.638 14.946-6.27 138.566-2.598 178.75 9.812z" fill="url(#paint0_linear_34_17874)"/><path d="M218.959 772.884H79.027c-13.619 0-24.66-11.041-24.66-24.66v-3.154c0-13.618 11.041-24.66 24.66-24.66H218.96a3.52 3.52 0 013.52 3.52v45.43a3.52 3.52 0 01-3.52 3.524z" fill="#83A9FF"/><path d="M230.584 766.749v-40.206h137.43v-6.133H196.302c-14.49 0-26.236 11.746-26.236 26.236 0 14.491 11.746 26.236 26.236 26.236h171.712v-6.133h-137.43z" fill="#6F97DD"/><path d="M361.234 766.749v-40.206H198.238c-11.103 0-20.103 9-20.103 20.103 0 11.103 9 20.103 20.103 20.103h162.996z" fill="#fff"/><path d="M178.135 746.654a20.02 20.02 0 004.427 12.582c1.26-3.445 2.015-7.817 2.015-12.582 0-4.763-.755-9.137-2.015-12.58a20.008 20.008 0 00-4.427 12.58z" fill="#DFF1F4"/><path opacity=".94" d="M361.236 743.993v-17.45H198.239c-6.389 0-12.072 2.991-15.753 7.638 14.946-6.27 138.566-2.597 178.75 9.812z" fill="url(#paint1_linear_34_17874)"/><path d="M203.422 825.369h139.932c13.619 0 24.66-11.042 24.66-24.66v-3.154c0-13.619-11.041-24.66-24.66-24.66H203.422a3.52 3.52 0 00-3.52 3.52v45.429a3.521 3.521 0 003.52 3.525z" fill="#A94BBC"/><path d="M191.796 819.233v-40.205H54.367v-6.133H226.08c14.49 0 26.235 11.745 26.235 26.236 0 14.49-11.747 26.235-26.235 26.235H54.367v-6.133h137.429z" fill="#843C96"/><path d="M61.143 819.233v-40.205H224.14c11.103 0 20.103 8.999 20.103 20.102s-9 20.103-20.103 20.103H61.143z" fill="#fff"/><path d="M244.247 799.136c0 4.763-1.66 9.137-4.427 12.582-1.261-3.445-2.015-7.817-2.015-12.58 0-4.762.754-9.136 2.015-12.579a20.006 20.006 0 014.427 12.577z" fill="#DFF1F4"/><path opacity=".94" d="M61.143 796.478v-17.45H224.14c6.389 0 12.072 2.99 15.753 7.638-14.945-6.27-138.568-2.598-178.751 9.812z" fill="url(#paint2_linear_34_17874)"/><path d="M1022.92 324.949H870.959v151.964h151.961V324.949z" fill="#890C25"/><path d="M957.689 446.036l-23.906 23.906 23.906 23.905 23.905-23.905-23.905-23.906z" fill="#FF5050"/><path d="M970.951 452.52h-85.92v5.943h85.92v-5.943zm-51.048-16.906h-34.872v5.943h34.872v-5.943zm51.048-16.891h-85.92v5.943h85.92v-5.943zm-51.048-16.891h-34.872v5.943h34.872v-5.943zm72.007-16.898H885.031v5.943H991.91v-5.943zm-78.529-16.891h-28.35v5.944h28.35v-5.944zm57.57-16.89h-85.92v5.943h85.92v-5.943z" fill="#fff"/><path d="M1107.42 490.824h-103.19v103.198h103.19V490.824z" fill="#83A9FF"/><path d="M1063.12 573.067l-16.23 16.234 16.23 16.234 16.23-16.234-16.23-16.234z" fill="#83A9FF"/><path d="M1080.42 578.543h-65.05v4.5h65.05v-4.5zm-38.65-12.789h-26.4v4.5h26.4v-4.5zm38.65-12.789h-65.05v4.5h65.05v-4.5zm-38.65-12.789h-26.4v4.5h26.4v-4.5zm54.52-12.797h-80.92v4.5h80.92v-4.5zm-59.46-12.789h-21.46v4.5h21.46v-4.5zm43.59-12.789h-65.05v4.5h65.05v-4.5z" fill="#fff"/><path d="M1155.18 132.621H980.256v174.927h174.924V132.621z" fill="#75B75A"/><path d="M1080.09 271.994l-27.52 27.518 27.52 27.518 27.52-27.518-27.52-27.518z" fill="#75B75A"/><path d="M1107.17 278.387h-103.96v7.192h103.96v-7.192zm-61.77-20.445h-42.19v7.192h42.19v-7.192zm61.77-20.438h-103.96v7.192h103.96v-7.192zm-61.77-20.437h-42.19v7.192h42.19v-7.192zm87.13-20.453h-129.32v7.192h129.32v-7.192zm-95.02-20.438h-34.3v7.192h34.3v-7.192zm69.66-20.437h-103.96v7.192h103.96v-7.192z" fill="#fff"/><defs><linearGradient id="paint0_linear_34_17874" x1="266.608" y1="881.542" x2="284.584" y2="753.14" gradientUnits="userSpaceOnUse"><stop stop-color="#9D9DCF" stop-opacity="0"/><stop offset="1" stop-color="#9D9DCF"/></linearGradient><linearGradient id="paint1_linear_34_17874" x1="266.608" y1="776.604" x2="284.584" y2="648.204" gradientUnits="userSpaceOnUse"><stop stop-color="#9D9DCF" stop-opacity="0"/><stop offset="1" stop-color="#9D9DCF"/></linearGradient><linearGradient id="paint2_linear_34_17874" x1="155.771" y1="829.089" x2="137.795" y2="700.689" gradientUnits="userSpaceOnUse"><stop stop-color="#9D9DCF" stop-opacity="0"/><stop offset="1" stop-color="#9D9DCF"/></linearGradient></defs></svg>