<svg width="154" height="134" fill="none" xmlns="http://www.w3.org/2000/svg"><path d="M33.154 6.02a3.012 3.012 0 003.014-3.01c0-1.663-1.35-3.01-3.014-3.01a3.012 3.012 0 00-3.014 3.01c0 1.662 1.35 3.01 3.014 3.01zm0 25.653a3.012 3.012 0 003.014-3.01c0-1.662-1.35-3.01-3.014-3.01a3.012 3.012 0 00-3.014 3.01c0 1.662 1.35 3.01 3.014 3.01zm0 25.797a3.012 3.012 0 003.014-3.01c0-1.662-1.35-3.01-3.014-3.01a3.012 3.012 0 00-3.014 3.01c0 1.662 1.35 3.01 3.014 3.01zm0 25.796a3.012 3.012 0 003.014-3.01 3.012 3.012 0 00-3.014-3.009 3.012 3.012 0 00-3.014 3.01c0 1.662 1.35 3.01 3.014 3.01zm0 24.937a3.011 3.011 0 003.014-3.009c0-1.663-1.35-3.01-3.014-3.01a3.012 3.012 0 00-3.014 3.01 3.011 3.011 0 003.014 3.009zm0 25.797a3.012 3.012 0 003.014-3.01 3.011 3.011 0 00-3.014-3.009 3.011 3.011 0 00-3.014 3.009c0 1.663 1.35 3.01 3.014 3.01zM3.014 6.02a3.012 3.012 0 003.014-3.01C6.028 1.347 4.678 0 3.014 0A3.012 3.012 0 000 3.01c0 1.662 1.35 3.01 3.014 3.01zm0 25.653a3.012 3.012 0 003.014-3.01c0-1.662-1.35-3.01-3.014-3.01A3.012 3.012 0 000 28.663c0 1.662 1.35 3.01 3.014 3.01zm0 25.797a3.012 3.012 0 003.014-3.01c0-1.662-1.35-3.01-3.014-3.01A3.012 3.012 0 000 54.46c0 1.662 1.35 3.01 3.014 3.01zm0 25.796a3.012 3.012 0 003.014-3.01 3.012 3.012 0 00-3.014-3.009A3.012 3.012 0 000 80.257c0 1.662 1.35 3.01 3.014 3.01zm0 24.937a3.011 3.011 0 003.014-3.009c0-1.663-1.35-3.01-3.014-3.01A3.012 3.012 0 000 105.194a3.011 3.011 0 003.014 3.009zm0 25.797a3.012 3.012 0 003.014-3.01 3.011 3.011 0 00-3.014-3.009A3.011 3.011 0 000 130.99c0 1.663 1.35 3.01 3.014 3.01zM91.998 6.02a3.012 3.012 0 003.014-3.01c0-1.663-1.35-3.01-3.014-3.01a3.012 3.012 0 00-3.014 3.01c0 1.662 1.35 3.01 3.014 3.01zm0 25.653a3.012 3.012 0 003.014-3.01c0-1.662-1.35-3.01-3.014-3.01a3.012 3.012 0 00-3.014 3.01c0 1.662 1.35 3.01 3.014 3.01zm0 25.797a3.012 3.012 0 003.014-3.01c0-1.662-1.35-3.01-3.014-3.01a3.012 3.012 0 00-3.014 3.01c0 1.662 1.35 3.01 3.014 3.01zm0 25.796a3.012 3.012 0 003.014-3.01 3.012 3.012 0 00-3.014-3.009 3.012 3.012 0 00-3.014 3.01c0 1.662 1.35 3.01 3.014 3.01zm0 24.937a3.011 3.011 0 003.014-3.009c0-1.663-1.35-3.01-3.014-3.01a3.012 3.012 0 00-3.014 3.01 3.011 3.011 0 003.014 3.009zm0 25.797a3.012 3.012 0 003.014-3.01 3.011 3.011 0 00-3.014-3.009 3.011 3.011 0 00-3.014 3.009c0 1.663 1.35 3.01 3.014 3.01zM61.858 6.02a3.012 3.012 0 003.014-3.01c0-1.663-1.35-3.01-3.014-3.01a3.012 3.012 0 00-3.014 3.01c0 1.662 1.35 3.01 3.014 3.01zm0 25.653a3.012 3.012 0 003.014-3.01c0-1.662-1.35-3.01-3.014-3.01a3.012 3.012 0 00-3.014 3.01c0 1.662 1.35 3.01 3.014 3.01zm0 25.797a3.012 3.012 0 003.014-3.01c0-1.662-1.35-3.01-3.014-3.01a3.012 3.012 0 00-3.014 3.01c0 1.662 1.35 3.01 3.014 3.01zm0 25.796a3.012 3.012 0 003.014-3.01 3.012 3.012 0 00-3.014-3.009 3.012 3.012 0 00-3.014 3.01c0 1.662 1.35 3.01 3.014 3.01zm0 24.937a3.011 3.011 0 003.014-3.009c0-1.663-1.35-3.01-3.014-3.01a3.012 3.012 0 00-3.014 3.01 3.011 3.011 0 003.014 3.009zm0 25.797a3.012 3.012 0 003.014-3.01 3.011 3.011 0 00-3.014-3.009 3.011 3.011 0 00-3.014 3.009c0 1.663 1.35 3.01 3.014 3.01zM150.986 6.02A3.012 3.012 0 00154 3.01 3.012 3.012 0 00150.986 0a3.012 3.012 0 00-3.014 3.01 3.012 3.012 0 003.014 3.01zm0 25.653a3.012 3.012 0 003.014-3.01 3.012 3.012 0 00-3.014-3.01 3.012 3.012 0 00-3.014 3.01 3.012 3.012 0 003.014 3.01zm0 25.797A3.012 3.012 0 00154 54.46a3.012 3.012 0 00-3.014-3.01 3.012 3.012 0 00-3.014 3.01 3.012 3.012 0 003.014 3.01zm0 25.796a3.012 3.012 0 003.014-3.01 3.012 3.012 0 00-3.014-3.009 3.012 3.012 0 00-3.014 3.01 3.012 3.012 0 003.014 3.01zm0 24.937a3.011 3.011 0 003.014-3.009 3.011 3.011 0 00-3.014-3.01 3.011 3.011 0 00-3.014 3.01 3.011 3.011 0 003.014 3.009zm0 25.797a3.011 3.011 0 003.014-3.01 3.011 3.011 0 00-3.014-3.009 3.011 3.011 0 00-3.014 3.009 3.011 3.011 0 003.014 3.01zM120.846 6.02a3.012 3.012 0 003.014-3.01A3.012 3.012 0 00120.846 0a3.012 3.012 0 00-3.014 3.01c0 1.662 1.35 3.01 3.014 3.01zm0 25.653a3.012 3.012 0 003.014-3.01 3.012 3.012 0 00-3.014-3.01 3.012 3.012 0 00-3.014 3.01c0 1.662 1.35 3.01 3.014 3.01zm0 25.797a3.012 3.012 0 003.014-3.01 3.012 3.012 0 00-3.014-3.01 3.012 3.012 0 00-3.014 3.01c0 1.662 1.35 3.01 3.014 3.01zm0 25.796a3.012 3.012 0 003.014-3.01 3.012 3.012 0 00-3.014-3.009 3.012 3.012 0 00-3.014 3.01c0 1.662 1.35 3.01 3.014 3.01zm0 24.937a3.011 3.011 0 003.014-3.009 3.011 3.011 0 00-3.014-3.01 3.012 3.012 0 00-3.014 3.01 3.012 3.012 0 003.014 3.009zm0 25.797a3.011 3.011 0 003.014-3.01 3.011 3.011 0 00-3.014-3.009 3.012 3.012 0 00-3.014 3.009c0 1.663 1.35 3.01 3.014 3.01z" fill="#A7A7CA"/></svg>