<svg width="132" height="108" fill="none" xmlns="http://www.w3.org/2000/svg"><path d="M1.046 107.296c.204-9.609 6.159-19.905 16.927-21.47 8.242-1.198 18.378 1.169 24.9 5.372 3.274 2.11 7.798 7.092 3.23 10.359-6.286 4.495-17.34-3.251-20.302-11.704-4.399-12.56-.44-25.565 8.689-35.282 11.324-12.054 31.34-23.66 48.034-16.877 7.785 3.164 11.802 7.95 14.438 15.613 2.099 6.1 3.51 13.828-1.497 19.303-8.24 9.011-19.26 1.591-24.4-6.334-10.413-16.059-4.624-39.918 11.932-49.991 14.523-8.836 31.706-12.76 48.368-15.039" stroke="#00001B" stroke-linecap="round"/></svg>