<svg width="241" height="231" fill="none" xmlns="http://www.w3.org/2000/svg"><g filter="url(#filter0_d_34_5367)"><path d="M126.417 39.364c1.327-1.477 3.763-.327 3.465 1.637l-5.663 37.281a2 2 0 001.826 2.295l42.518 3.222c2.095.158 2.559 3.027.621 3.839l-35.205 14.74a2 2 0 00-.728 3.167l26.974 30.609c1.422 1.614-.357 4.028-2.32 3.147l-38.98-17.496a2 2 0 00-2.778 1.419l-7.448 35.931c-.411 1.984-3.171 2.17-3.844.259l-13.444-38.151a2.001 2.001 0 00-2.57-1.215l-38.01 13.84c-1.904.693-3.513-1.558-2.242-3.135l23.03-28.569a2 2 0 00-.668-3.047L32.683 80.133c-1.927-.957-1.192-3.864.958-3.79l40.774 1.402A2 2 0 0076.4 75.17L65.432 38.615c-.604-2.013 1.907-3.476 3.36-1.958l29.487 30.8a2 2 0 002.932-.046l25.206-28.047z" fill="#FF9B24"/><path d="M126.603 39.53c1.161-1.292 3.292-.285 3.032 1.433l-5.663 37.282a2.25 2.25 0 002.054 2.581l42.518 3.222c1.833.139 2.239 2.65.543 3.36l-35.204 14.739a2.25 2.25 0 00-.82 3.563l26.974 30.609c1.245 1.412-.312 3.525-2.029 2.754l-38.981-17.496a2.25 2.25 0 00-3.125 1.596l-7.447 35.932c-.36 1.735-2.776 1.898-3.365.226L91.646 121.18a2.249 2.249 0 00-2.891-1.366l-38.01 13.839c-1.665.606-3.073-1.363-1.961-2.743l23.029-28.569a2.25 2.25 0 00-.751-3.428L32.794 79.91c-1.686-.837-1.043-3.38.838-3.316l40.775 1.402a2.25 2.25 0 002.232-2.896L65.672 38.543c-.529-1.76 1.668-3.041 2.94-1.713l29.487 30.8a2.25 2.25 0 003.298-.052l25.206-28.047z" stroke="#FF9B24" stroke-width=".5"/></g><g clip-path="url(#clip0_34_5367)" fill="#fff"><path d="M116.98 90.793a5.954 5.954 0 00-11.906 0 5.954 5.954 0 005.953 5.953c.985 0 1.893-.258 2.713-.68-1.054 4.641-5.209 8.121-10.166 8.121a1.49 1.49 0 00-1.488 1.489c0 .82.668 1.488 1.488 1.488 7.395 0 13.406-6.012 13.406-13.406v-2.965zm-14.867 0a5.954 5.954 0 10-5.953 5.953c.984 0 1.893-.258 2.713-.68-1.055 4.641-5.209 8.121-10.166 8.121a1.49 1.49 0 00-1.488 1.489c0 .82.668 1.488 1.488 1.488 7.395 0 13.406-6.012 13.406-13.406v-2.965z"/></g><defs><clipPath id="clip0_34_5367"><path fill="#fff" transform="rotate(180 58.549 55.5)" d="M0 0h30v30H0z"/></clipPath><filter id="filter0_d_34_5367" x="1.568" y="6.03" width="238.844" height="224.72" filterUnits="userSpaceOnUse" color-interpolation-filters="sRGB"><feFlood flood-opacity="0" result="BackgroundImageFix"/><feColorMatrix in="SourceAlpha" values="0 0 0 0 0 0 0 0 0 0 0 0 0 0 0 0 0 0 127 0" result="hardAlpha"/><feOffset dx="20" dy="20"/><feGaussianBlur stdDeviation="25"/><feComposite in2="hardAlpha" operator="out"/><feColorMatrix values="0 0 0 0 0 0 0 0 0 0 0 0 0 0 0.104167 0 0 0 0.15 0"/><feBlend in2="BackgroundImageFix" result="effect1_dropShadow_34_5367"/><feBlend in="SourceGraphic" in2="effect1_dropShadow_34_5367" result="shape"/></filter></defs></svg>