<svg width="50" height="54" fill="none" xmlns="http://www.w3.org/2000/svg"><path d="M36.282 43.727c-14.662 0-26.547-11.885-26.547-26.546a26.42 26.42 0 013.65-13.439C5.542 8.355.277 16.882.277 26.638c0 14.662 11.886 26.547 26.547 26.547 9.757 0 18.283-5.265 22.896-13.108a26.422 26.422 0 01-13.438 3.65zM24.203 11.868l3.59-2.22 3.59 2.22-1.003-4.1L33.6 5.04l-4.209-.313L27.794.82l-1.6 3.907-4.209.313 3.221 2.728-1.002 4.1z" fill="#FF9B24"/><path d="M33.15 25.01l-1.002 4.1 3.59-2.22 3.59 2.22-1.003-4.1 3.221-2.728-4.209-.313-1.6-3.907-1.598 3.907-4.21.313 3.222 2.728zm6.737-8.93l3.59-2.221 3.589 2.22-1.003-4.1 3.221-2.728-4.209-.314-1.599-3.906-1.599 3.906-4.209.314 3.22 2.728-1.001 4.1z" fill="#FF9B24"/></svg>