<svg width="264" height="350" fill="none" xmlns="http://www.w3.org/2000/svg"><g opacity=".05"><path d="M165.564 192.397h-74.71a3.872 3.872 0 01-3.873-3.873v-.893a3.873 3.873 0 013.872-3.873h74.711a3.873 3.873 0 013.873 3.873v.893a3.873 3.873 0 01-3.873 3.873zm-9.107-21.371c-2.105-17.968-28.247-20.799-28.247-34.393 0 13.594-26.142 16.425-28.247 34.393a21.977 21.977 0 00-.135 3.244h56.764a21.965 21.965 0 00-.135-3.244zm-61.313 23.021v91.923h66.125v-91.923H95.144zm17.288 71.148c-.895 7.636-12.005 8.839-12.005 14.617v-79.876c0 5.778 11.11 6.98 12.005 14.617v50.642zm27.78 0c-.895 7.636-12.005 8.839-12.005 14.617 0-5.777-11.111-6.981-12.005-14.617v-50.642c.894-7.637 12.005-8.839 12.005-14.617 0 5.778 11.11 6.98 12.005 14.617v50.642zm15.774 14.617c0-5.777-11.11-6.981-12.005-14.617v-50.642c.895-7.637 12.005-8.839 12.005-14.617v79.876zM97.981 178.015v-.669a1.299 1.299 0 10-2.598 0v.669c.092.785 1.18.942 1.29 1.491-.11.55-1.198.707-1.29 1.492v1.968h2.599v-1.968c-.093-.785-1.181-.942-1.291-1.492.11-.549 1.198-.706 1.29-1.491zm3.941 0v-.669a1.299 1.299 0 10-2.598 0v.669c.092.785 1.181.942 1.29 1.491-.109.55-1.198.707-1.29 1.492v1.968h2.598v-1.968c-.092-.785-1.181-.942-1.29-1.492.109-.549 1.198-.706 1.29-1.491zm3.942 0v-.669a1.299 1.299 0 10-2.598 0v.669c.092.785 1.181.942 1.29 1.491-.109.55-1.198.707-1.29 1.492v1.968h2.598v-1.968c-.092-.785-1.181-.942-1.289-1.492.108-.549 1.197-.706 1.289-1.491zm3.938 0v-.669a1.3 1.3 0 00-2.599 0v.669c.092.785 1.181.942 1.29 1.491-.109.55-1.197.707-1.29 1.492v1.968h2.599v-1.968c-.092-.785-1.181-.942-1.29-1.492.109-.549 1.198-.706 1.29-1.491zm3.94 0v-.669a1.298 1.298 0 10-2.597 0v.669c.091.785 1.18.942 1.289 1.491-.109.55-1.197.707-1.289 1.492v1.968h2.597v-1.968c-.091-.785-1.18-.942-1.289-1.492.109-.549 1.198-.706 1.289-1.491zm3.942 0v-.669a1.299 1.299 0 10-2.598 0v.669c.091.785 1.18.942 1.29 1.491-.11.55-1.198.707-1.29 1.492v1.968h2.598v-1.968c-.092-.785-1.181-.942-1.289-1.492.108-.549 1.197-.706 1.289-1.491zm3.941 0v-.669a1.298 1.298 0 10-2.598 0v.669c.092.785 1.181.942 1.29 1.491-.109.55-1.198.707-1.29 1.492v1.968h2.598v-1.968c-.091-.785-1.18-.942-1.29-1.492.11-.549 1.198-.706 1.29-1.491zm3.938 0v-.669a1.299 1.299 0 10-2.598 0v.669c.091.785 1.18.942 1.29 1.491-.11.55-1.198.707-1.29 1.492v1.968h2.598v-1.968c-.092-.785-1.181-.942-1.29-1.492.109-.549 1.198-.706 1.29-1.491zm3.941 0v-.669a1.298 1.298 0 10-2.598 0v.669c.092.785 1.181.942 1.29 1.491-.109.55-1.198.707-1.29 1.492v1.968h2.598v-1.968c-.091-.785-1.18-.942-1.289-1.492.109-.549 1.198-.706 1.289-1.491zm3.945 0v-.669a1.298 1.298 0 10-2.597 0v.669c.091.785 1.18.942 1.29 1.491-.11.55-1.198.707-1.29 1.492v1.968h2.597v-1.968c-.091-.785-1.18-.942-1.289-1.492.109-.549 1.197-.706 1.289-1.491zm3.938 0v-.669a1.299 1.299 0 10-2.598 0v.669c.091.785 1.181.942 1.29 1.491-.109.55-1.198.707-1.29 1.492v1.968h2.598v-1.968c-.091-.785-1.181-.942-1.29-1.492.11-.549 1.199-.706 1.29-1.491zm3.941 0v-.669a1.298 1.298 0 10-2.598 0v.669c.092.785 1.181.942 1.29 1.491-.109.55-1.198.707-1.29 1.492v1.968h2.598v-1.968c-.091-.785-1.18-.942-1.29-1.492.11-.549 1.199-.706 1.29-1.491zm3.942 0v-.669a1.299 1.299 0 10-2.598 0v.669c.091.785 1.18.942 1.29 1.491-.11.55-1.198.707-1.29 1.492v1.968h2.598v-1.968c-.092-.785-1.181-.942-1.29-1.492.109-.549 1.198-.706 1.29-1.491zm3.941 0v-.669a1.298 1.298 0 10-2.598 0v.669c.092.785 1.181.942 1.29 1.491-.109.55-1.198.707-1.29 1.492v1.968h2.598v-1.968c-.091-.785-1.18-.942-1.29-1.492.11-.549 1.198-.706 1.29-1.491zm3.938 0v-.669a1.299 1.299 0 10-2.598 0v.669c.091.785 1.18.942 1.289 1.491-.109.55-1.197.707-1.289 1.492v1.968h2.598v-1.968c-.092-.785-1.181-.942-1.29-1.492.11-.549 1.198-.706 1.29-1.491zm3.942 0v-.669a1.299 1.299 0 10-2.599 0v.669c.092.785 1.181.942 1.29 1.491-.109.55-1.197.707-1.29 1.492v1.968h2.599v-1.968c-.092-.785-1.181-.942-1.29-1.492.109-.549 1.198-.706 1.29-1.491zm3.941 0v-.669a1.3 1.3 0 00-2.598 0v.669c.091.785 1.18.942 1.29 1.491-.11.55-1.198.707-1.29 1.492v1.968h2.598v-1.968c-.092-.785-1.182-.942-1.29-1.492.108-.549 1.198-.706 1.29-1.491z" fill="#006766"/><path d="M133.843 139.503a5.636 5.636 0 11-11.273 0 5.636 5.636 0 0111.273 0z" fill="#006766"/><path d="M131.483 131.511a3.276 3.276 0 11-6.553 0 3.277 3.277 0 016.553 0z" fill="#006766"/><path d="M128.691 0h-.968v131.51h.968V0z" fill="#006766"/><path d="M135.871 163.118a7.664 7.664 0 01-7.664 7.664 7.664 7.664 0 117.664-7.664zm-18.937 2.011a4.496 4.496 0 11-8.992 0 4.496 4.496 0 018.992 0zm31.535 0a4.496 4.496 0 11-8.992 0 4.496 4.496 0 018.992 0z" fill="#fff"/><path d="M156.457 315.604c-2.105 17.968-28.247 20.799-28.247 34.393 0-13.594-26.142-16.425-28.247-34.393a21.985 21.985 0 01-.135-3.245h56.764a21.983 21.983 0 01-.135 3.245zm-58.476-6.973v.669a1.299 1.299 0 11-2.598 0v-.669c.092-.785 1.18-.942 1.29-1.492-.11-.549-1.198-.706-1.29-1.491v-1.968h2.599v1.968c-.093.785-1.181.942-1.291 1.491.11.55 1.198.707 1.29 1.492zm3.941 0v.669a1.299 1.299 0 11-2.598 0v-.669c.092-.785 1.181-.942 1.29-1.492-.109-.549-1.198-.706-1.29-1.491v-1.968h2.598v1.968c-.092.785-1.181.942-1.29 1.491.109.55 1.198.707 1.29 1.492zm3.942 0v.669a1.299 1.299 0 11-2.598 0v-.669c.092-.785 1.181-.942 1.29-1.492-.109-.549-1.198-.706-1.29-1.491v-1.968h2.598v1.968c-.092.785-1.181.942-1.289 1.491.108.55 1.197.707 1.289 1.492zm3.938 0v.669a1.3 1.3 0 01-2.599 0v-.669c.092-.785 1.181-.942 1.29-1.492-.109-.549-1.197-.706-1.29-1.491v-1.968h2.599v1.968c-.092.785-1.181.942-1.29 1.491.109.55 1.198.707 1.29 1.492zm3.94 0v.669a1.298 1.298 0 11-2.597 0v-.669c.091-.785 1.18-.942 1.289-1.492-.109-.549-1.197-.706-1.289-1.491v-1.968h2.597v1.968c-.091.785-1.18.942-1.289 1.491.109.55 1.198.707 1.289 1.492zm3.942 0v.669a1.299 1.299 0 11-2.598 0v-.669c.091-.785 1.18-.942 1.29-1.492-.11-.549-1.198-.706-1.29-1.491v-1.968h2.598v1.968c-.092.785-1.181.942-1.289 1.491.108.55 1.197.707 1.289 1.492zm3.941 0v.669a1.298 1.298 0 11-2.598 0v-.669c.092-.785 1.181-.942 1.29-1.492-.109-.549-1.198-.706-1.29-1.491v-1.968h2.598v1.968c-.091.785-1.18.942-1.29 1.491.11.55 1.198.707 1.29 1.492zm3.938 0v.669a1.299 1.299 0 11-2.598 0v-.669c.091-.785 1.18-.942 1.29-1.492-.11-.549-1.198-.706-1.29-1.491v-1.968h2.598v1.968c-.092.785-1.181.942-1.29 1.491.109.55 1.198.707 1.29 1.492zm3.941 0v.669a1.298 1.298 0 11-2.598 0v-.669c.092-.785 1.181-.942 1.29-1.492-.109-.549-1.198-.706-1.29-1.491v-1.968h2.598v1.968c-.091.785-1.18.942-1.289 1.491.109.55 1.198.707 1.289 1.492zm3.945 0v.669a1.298 1.298 0 11-2.597 0v-.669c.091-.785 1.18-.942 1.29-1.492-.11-.549-1.198-.706-1.29-1.491v-1.968h2.597v1.968c-.091.785-1.18.942-1.289 1.491.109.55 1.197.707 1.289 1.492zm3.938 0v.669a1.299 1.299 0 11-2.598 0v-.669c.091-.785 1.181-.942 1.29-1.492-.109-.549-1.198-.706-1.29-1.491v-1.968h2.598v1.968c-.091.785-1.181.942-1.29 1.491.11.55 1.199.707 1.29 1.492zm3.941 0v.669a1.298 1.298 0 11-2.598 0v-.669c.092-.785 1.181-.942 1.29-1.492-.109-.549-1.198-.706-1.29-1.491v-1.968h2.598v1.968c-.091.785-1.18.942-1.29 1.491.11.55 1.199.707 1.29 1.492zm3.942 0v.669a1.299 1.299 0 11-2.598 0v-.669c.091-.785 1.18-.942 1.29-1.492-.11-.549-1.198-.706-1.29-1.491v-1.968h2.598v1.968c-.092.785-1.181.942-1.29 1.491.109.55 1.198.707 1.29 1.492zm3.941 0v.669a1.298 1.298 0 11-2.598 0v-.669c.092-.785 1.181-.942 1.29-1.492-.109-.549-1.198-.706-1.29-1.491v-1.968h2.598v1.968c-.091.785-1.18.942-1.29 1.491.11.55 1.198.707 1.29 1.492zm3.938 0v.669a1.299 1.299 0 11-2.598 0v-.669c.091-.785 1.18-.942 1.289-1.492-.109-.549-1.197-.706-1.289-1.491v-1.968h2.598v1.968c-.092.785-1.181.942-1.29 1.491.11.55 1.198.707 1.29 1.492zm3.942 0v.669a1.299 1.299 0 11-2.599 0v-.669c.092-.785 1.181-.942 1.29-1.492-.109-.549-1.197-.706-1.29-1.491v-1.968h2.599v1.968c-.092.785-1.181.942-1.29 1.491.109.55 1.198.707 1.29 1.492zm3.941 0v.669a1.3 1.3 0 01-2.598 0v-.669c.091-.785 1.18-.942 1.29-1.492-.11-.549-1.198-.706-1.29-1.491v-1.968h2.598v1.968c-.092.785-1.182.942-1.29 1.491.108.55 1.198.707 1.29 1.492z" fill="#006766"/><path d="M128.408 331.18a7.665 7.665 0 007.47-7.854 7.664 7.664 0 10-7.47 7.854zm-11.474-9.004a4.496 4.496 0 10-8.992 0 4.496 4.496 0 008.992 0zm31.535 0a4.496 4.496 0 10-8.992 0 4.496 4.496 0 008.992 0z" fill="#fff"/><path d="M166.012 191.172h-75.61v4.075h75.61v-4.075z" fill="#006766"/><path d="M162.773 194.297H93.648v3.726h69.125v-3.726zm2.791 97.297h-74.71a3.872 3.872 0 00-3.873 3.873v.893a3.872 3.872 0 003.872 3.872h74.711a3.872 3.872 0 003.873-3.872v-.893a3.873 3.873 0 00-3.873-3.873z" fill="#006766"/><path d="M166.012 288.75h-75.61v4.076h75.61v-4.076z" fill="#006766"/><path d="M162.773 285.969H93.648v3.726h69.125v-3.726zm98.816-172.973h-43.877a2.275 2.275 0 01-2.274-2.275v-.525a2.274 2.274 0 012.274-2.274h43.877a2.273 2.273 0 012.274 2.274v.525a2.274 2.274 0 01-2.274 2.275zm-5.352-12.547c-1.236-10.553-16.589-12.216-16.589-20.199 0 7.983-15.353 9.646-16.589 20.199a12.875 12.875 0 00-.08 1.906h33.338a13.013 13.013 0 00-.08-1.906zm-36.007 13.512v53.986h38.835v-53.986H220.23zm10.153 41.785c-.525 4.485-7.05 5.191-7.05 8.584v-46.911c0 3.393 6.525 4.1 7.05 8.585v29.742zm16.316 0c-.526 4.485-7.052 5.191-7.052 8.584 0-3.393-6.525-4.099-7.05-8.584v-29.742c.525-4.485 7.05-5.192 7.05-8.585 0 3.393 6.526 4.1 7.052 8.585v29.742zm9.264 8.585c0-3.393-6.526-4.1-7.051-8.585v-29.741c.525-4.485 7.051-5.192 7.051-8.585v46.911zm-34.062-59.785v-.392a.762.762 0 10-1.526 0v.392c.054.462.694.554.758.877-.063.323-.704.415-.758.875v1.156h1.526v-1.156c-.053-.461-.692-.553-.756-.875.063-.323.703-.416.756-.877zm2.313 0v-.392a.763.763 0 00-1.526 0v.392c.053.462.692.554.757.877-.064.323-.704.415-.757.875v1.156h1.526v-1.156c-.054-.461-.694-.553-.758-.875.064-.323.704-.416.758-.877zm2.316 0v-.392a.762.762 0 10-1.526 0v.392c.054.462.693.554.757.877-.064.323-.703.415-.757.875v1.156h1.526v-1.156c-.054-.461-.693-.553-.757-.875.064-.323.703-.416.757-.877zm2.317 0v-.392a.763.763 0 00-1.527 0v.392c.054.462.694.554.757.877-.063.323-.703.415-.757.875v1.156h1.527v-1.156c-.054-.461-.694-.553-.758-.875.064-.323.704-.416.758-.877zm2.312 0v-.392a.762.762 0 10-1.526 0v.392c.054.462.693.554.758.877-.064.323-.704.415-.758.875v1.156h1.526v-1.156c-.054-.461-.693-.553-.758-.875.065-.323.704-.416.758-.877zm2.312 0v-.392a.763.763 0 10-1.526 0v.392c.054.462.694.554.758.877-.064.323-.704.415-.758.875v1.156h1.526v-1.156c-.054-.461-.693-.553-.757-.875.064-.323.703-.416.757-.877zm2.318 0v-.392a.763.763 0 00-1.527 0v.392c.054.462.693.554.757.877-.064.323-.703.415-.757.875v1.156h1.527v-1.156c-.055-.461-.694-.553-.759-.875.065-.323.704-.416.759-.877zm2.312 0v-.392a.762.762 0 10-1.527 0v.392c.054.462.694.554.759.877-.065.323-.705.415-.759.875v1.156h1.527v-1.156c-.054-.461-.693-.553-.758-.875.065-.323.704-.416.758-.877zm2.316 0v-.392a.763.763 0 10-1.526 0v.392c.054.462.692.554.757.877-.064.323-.703.415-.757.875v1.156h1.526v-1.156c-.055-.461-.693-.553-.757-.875.064-.323.702-.416.757-.877zm2.313 0v-.392a.763.763 0 00-1.527 0v.392c.055.462.694.554.758.877-.064.323-.703.415-.758.875v1.156h1.527v-1.156c-.054-.461-.693-.553-.757-.875.063-.323.703-.416.757-.877zm2.316 0v-.392a.762.762 0 10-1.526 0v.392c.054.462.693.554.757.877-.063.323-.703.415-.757.875v1.156h1.526v-1.156c-.054-.461-.693-.553-.757-.875.064-.323.703-.416.757-.877zm2.312 0v-.392a.762.762 0 10-1.526 0v.392c.054.462.693.554.758.877-.065.323-.704.415-.758.875v1.156h1.526v-1.156c-.053-.461-.692-.553-.757-.875.064-.323.704-.416.757-.877zm2.313 0v-.392a.762.762 0 10-1.526 0v.392c.054.462.694.554.757.877-.063.323-.703.415-.757.875v1.156h1.526v-1.156c-.053-.461-.693-.553-.757-.875.064-.323.704-.416.757-.877zm2.316 0v-.392a.763.763 0 10-1.526 0v.392c.054.462.693.554.757.877-.064.323-.703.415-.757.875v1.156h1.526v-1.156c-.055-.461-.694-.553-.758-.875.064-.323.703-.416.758-.877zm2.317 0v-.392a.764.764 0 00-1.527 0v.392c.054.462.694.554.758.877-.063.323-.704.415-.758.875v1.156h1.527v-1.156c-.054-.461-.693-.553-.758-.875.064-.323.704-.416.758-.877zm2.313 0v-.392a.763.763 0 00-1.527 0v.392c.054.462.693.554.757.877-.063.323-.703.415-.757.875v1.156h1.527v-1.156c-.055-.461-.694-.553-.758-.875.064-.323.704-.416.758-.877zm2.312 0v-.392a.763.763 0 00-1.527 0v.392c.054.462.693.554.757.877-.063.323-.703.415-.757.875v1.156h1.527v-1.156c-.054-.461-.693-.553-.758-.875.065-.323.704-.416.758-.877z" fill="#006766"/><path d="M242.96 81.927a3.311 3.311 0 11-6.622-.002 3.311 3.311 0 016.622.002z" fill="#006766"/><path d="M241.575 77.237a1.923 1.923 0 11-3.847.002 1.923 1.923 0 013.847-.002z" fill="#006766"/><path d="M239.935 0h-.568v77.235h.568V0z" fill="#006766"/><path d="M244.151 95.798a4.501 4.501 0 11-9.003 0 4.501 4.501 0 019.003 0zm-11.124 1.179a2.64 2.64 0 11-5.281 0 2.64 2.64 0 115.281 0zm18.52 0a2.64 2.64 0 11-5.281 0 2.64 2.64 0 015.281 0z" fill="#fff"/><path d="M256.237 185.351c-1.236 10.553-16.589 12.215-16.589 20.199 0-7.984-15.353-9.646-16.589-20.199a12.875 12.875 0 01-.08-1.906h33.338c.018.617-.003 1.25-.08 1.906zm-34.336-4.099v.393a.763.763 0 11-1.526 0v-.393c.054-.461.694-.553.758-.876-.063-.323-.704-.415-.758-.876v-1.156h1.526v1.156c-.053.461-.692.553-.756.876.063.323.703.415.756.876zm2.313 0v.393a.764.764 0 01-1.526 0v-.393c.053-.461.692-.553.757-.876-.064-.323-.704-.415-.757-.876v-1.156h1.526v1.156c-.054.461-.694.553-.758.876.064.323.704.415.758.876zm2.316 0v.393a.763.763 0 11-1.526 0v-.393c.054-.461.693-.553.757-.876-.064-.323-.703-.415-.757-.876v-1.156h1.526v1.156c-.054.461-.693.553-.757.876.064.323.703.415.757.876zm2.317 0v.393a.764.764 0 01-1.527 0v-.393c.054-.461.694-.553.757-.876-.063-.323-.703-.415-.757-.876v-1.156h1.527v1.156c-.054.461-.694.553-.758.876.064.323.704.415.758.876zm2.312 0v.393a.763.763 0 01-1.526 0v-.393c.054-.461.693-.553.758-.876-.064-.323-.704-.415-.758-.876v-1.156h1.526v1.156c-.054.461-.693.553-.758.876.065.323.704.415.758.876zm2.312 0v.393a.764.764 0 01-1.526 0v-.393c.054-.461.694-.553.758-.876-.064-.323-.704-.415-.758-.876v-1.156h1.526v1.156c-.054.461-.693.553-.757.876.064.323.703.415.757.876zm2.318 0v.393a.764.764 0 01-1.527 0v-.393c.054-.461.693-.553.757-.876-.064-.323-.703-.415-.757-.876v-1.156h1.527v1.156c-.055.461-.694.553-.759.876.065.323.704.415.759.876zm2.312 0v.393a.763.763 0 01-1.527 0v-.393c.054-.461.694-.553.759-.876-.065-.323-.705-.415-.759-.876v-1.156h1.527v1.156c-.054.461-.693.553-.758.876.065.323.704.415.758.876zm2.316 0v.393a.764.764 0 01-1.526 0v-.393c.054-.461.692-.553.757-.876-.064-.323-.703-.415-.757-.876v-1.156h1.526v1.156c-.055.461-.693.553-.757.876.064.323.702.415.757.876zm2.313 0v.393a.763.763 0 11-1.527 0v-.393c.055-.461.694-.553.758-.876-.064-.323-.703-.415-.758-.876v-1.156h1.527v1.156c-.054.461-.693.553-.757.876.063.323.703.415.757.876zm2.316 0v.393a.763.763 0 11-1.526 0v-.393c.054-.461.693-.553.757-.876-.063-.323-.703-.415-.757-.876v-1.156h1.526v1.156c-.054.461-.693.553-.757.876.064.323.703.415.757.876zm2.312 0v.393a.763.763 0 11-1.526 0v-.393c.054-.461.693-.553.758-.876-.065-.323-.704-.415-.758-.876v-1.156h1.526v1.156c-.053.461-.692.553-.757.876.064.323.704.415.757.876zm2.313 0v.393a.763.763 0 11-1.526 0v-.393c.054-.461.694-.553.757-.876-.063-.323-.703-.415-.757-.876v-1.156h1.526v1.156c-.053.461-.693.553-.757.876.064.323.704.415.757.876zm2.316 0v.393a.764.764 0 01-1.526 0v-.393c.054-.461.693-.553.757-.876-.064-.323-.703-.415-.757-.876v-1.156h1.526v1.156c-.055.461-.694.553-.758.876.064.323.703.415.758.876zm2.317 0v.393a.763.763 0 11-1.527 0v-.393c.054-.461.694-.553.758-.876-.063-.323-.704-.415-.758-.876v-1.156h1.527v1.156c-.054.461-.693.553-.758.876.064.323.704.415.758.876zm2.313 0v.393a.764.764 0 01-1.527 0v-.393c.054-.461.693-.553.757-.876-.063-.323-.703-.415-.757-.876v-1.156h1.527v1.156c-.055.461-.694.553-.758.876.064.323.704.415.758.876zm2.312 0v.393a.764.764 0 01-1.527 0v-.393c.054-.461.693-.553.757-.876-.063-.323-.703-.415-.757-.876v-1.156h1.527v1.156c-.054.461-.693.553-.758.876.065.323.704.415.758.876z" fill="#006766"/><path d="M244.151 190.001a4.501 4.501 0 10-9.003 0 4.501 4.501 0 009.003 0zm-11.124-.79a2.64 2.64 0 10-5.28-.001 2.64 2.64 0 005.28.001zm18.52 0a2.641 2.641 0 10-5.282 0 2.641 2.641 0 005.282 0z" fill="#fff"/><path d="M261.854 112.273h-44.405v2.394h44.405v-2.394z" fill="#006766"/><path d="M259.948 114.109h-40.596v2.189h40.596v-2.189zm1.641 57.149h-43.877a2.274 2.274 0 00-2.274 2.274v.525a2.275 2.275 0 002.274 2.275h43.877a2.274 2.274 0 002.274-2.275v-.525a2.273 2.273 0 00-2.274-2.274z" fill="#006766"/><path d="M261.854 169.586h-44.405v2.393h44.405v-2.393z" fill="#006766"/><path d="M259.948 167.953h-40.596v2.189h40.596v-2.189zM55.876 135.686H2.275A2.274 2.274 0 010 133.412v-1.543a2.274 2.274 0 012.275-2.275h53.6a2.275 2.275 0 012.275 2.275v1.543a2.275 2.275 0 01-2.274 2.274zm-6.881-15.079c-1.485-12.672-19.921-14.668-19.921-24.255 0 9.587-18.436 11.583-19.92 24.255a15.588 15.588 0 00-.095 2.287H49.09c.023-.739-.003-1.5-.096-2.287zM5.758 136.852v64.826H52.39v-64.826H5.758zm12.191 50.174c-.63 5.386-8.466 6.234-8.466 10.309v-56.33c0 4.075 7.836 4.923 8.466 10.308v35.713zm19.591 0c-.631 5.386-8.466 6.234-8.466 10.309 0-4.074-7.836-4.923-8.465-10.309v-35.713c.63-5.386 8.465-6.234 8.465-10.308 0 4.074 7.835 4.922 8.466 10.308v35.713zm11.124 10.309c0-4.074-7.834-4.923-8.466-10.309v-35.713c.632-5.386 8.466-6.234 8.466-10.308v56.33zM7.762 125.529v-.472a.916.916 0 00-1.832 0v.472c.064.553.833.664.91 1.052-.077.388-.845.499-.91 1.052v1.388h1.832v-1.388c-.065-.553-.833-.664-.91-1.052.077-.388.845-.499.91-1.052zm2.777 0v-.472a.916.916 0 10-1.832 0v.472c.065.553.833.664.91 1.052-.077.388-.844.499-.91 1.052v1.388h1.832v-1.388c-.064-.553-.833-.664-.91-1.052.077-.388.845-.499.91-1.052zm2.781 0v-.472a.916.916 0 10-1.832 0v.472c.065.553.833.664.91 1.052-.077.388-.845.499-.91 1.052v1.388h1.832v-1.388c-.064-.553-.832-.664-.91-1.052.078-.388.846-.499.91-1.052zm2.779 0v-.472a.917.917 0 00-1.833 0v.472c.065.553.832.664.91 1.052-.078.388-.845.499-.91 1.052v1.388h1.833v-1.388c-.065-.553-.833-.664-.91-1.052.077-.388.845-.499.91-1.052zm2.781 0v-.472a.916.916 0 00-1.833 0v.472c.065.553.833.664.91 1.052-.077.388-.845.499-.91 1.052v1.388h1.832v-1.388c-.065-.553-.833-.664-.91-1.052.077-.388.845-.499.91-1.052zm2.776 0v-.472a.916.916 0 10-1.832 0v.472c.065.553.833.664.91 1.052-.077.388-.845.499-.91 1.052v1.388h1.832v-1.388c-.064-.553-.832-.664-.91-1.052.078-.388.846-.499.91-1.052zm2.781 0v-.472a.916.916 0 00-1.832 0v.472c.064.553.833.664.91 1.052-.077.388-.845.499-.91 1.052v1.388h1.832v-1.388c-.065-.553-.833-.664-.91-1.052.078-.388.845-.499.91-1.052zm2.778 0v-.472a.916.916 0 10-1.832 0v.472c.065.553.833.664.91 1.052-.077.388-.845.499-.91 1.052v1.388h1.832v-1.388c-.065-.553-.833-.664-.91-1.052.077-.388.845-.499.91-1.052zm2.777 0v-.472a.916.916 0 00-1.832 0v.472c.066.553.833.664.91 1.052-.077.388-.844.499-.91 1.052v1.388h1.832v-1.388c-.064-.553-.832-.664-.91-1.052.078-.388.845-.499.91-1.052zm2.782 0v-.472a.916.916 0 00-1.833 0v.472c.065.553.833.664.91 1.052-.077.388-.844.499-.91 1.052v1.388h1.833v-1.388c-.065-.553-.833-.664-.91-1.052.077-.388.844-.499.91-1.052zm2.776 0v-.472a.916.916 0 10-1.831 0v.472c.065.553.833.664.91 1.052-.077.388-.845.499-.91 1.052v1.388h1.832v-1.388c-.065-.553-.832-.664-.91-1.052.078-.388.845-.499.91-1.052zm2.782 0v-.472a.916.916 0 10-1.832 0v.472c.064.553.833.664.91 1.052-.077.388-.845.499-.91 1.052v1.388h1.832v-1.388c-.065-.553-.833-.664-.91-1.052.078-.388.845-.499.91-1.052zm2.778 0v-.472a.916.916 0 10-1.833 0v.472c.065.553.833.664.91 1.052-.077.388-.844.499-.91 1.052v1.388h1.832v-1.388c-.064-.553-.833-.664-.91-1.052.077-.388.846-.499.91-1.052zm2.78 0v-.472a.916.916 0 10-1.831 0v.472c.064.553.833.664.91 1.052-.078.388-.846.499-.91 1.052v1.388h1.831v-1.388c-.063-.553-.832-.664-.909-1.052.077-.388.846-.499.91-1.052zm2.779 0v-.472a.916.916 0 00-1.833 0v.472c.065.553.833.664.91 1.052-.077.388-.845.499-.91 1.052v1.388h1.833v-1.388c-.065-.553-.833-.664-.91-1.052.077-.388.845-.499.91-1.052zm2.777 0v-.472a.916.916 0 00-1.833 0v.472c.065.553.833.664.91 1.052-.077.388-.844.499-.91 1.052v1.388h1.833v-1.388c-.065-.553-.833-.664-.91-1.052.077-.388.845-.499.91-1.052zm2.78 0v-.472a.916.916 0 10-1.831 0v.472c.064.553.832.664.91 1.052-.078.388-.846.499-.91 1.052v1.388h1.831v-1.388c-.064-.553-.832-.664-.909-1.052.078-.388.845-.499.91-1.052z" fill="#006766"/><path d="M33.051 98.38a3.974 3.974 0 11-7.949 0 3.974 3.974 0 017.95 0z" fill="#006766"/><path d="M31.383 92.74a2.311 2.311 0 11-4.622 0 2.311 2.311 0 014.622 0z" fill="#006766"/><path d="M29.418 0h-.684v92.744h.683V0z" fill="#006766"/><path d="M34.478 115.03a5.405 5.405 0 11-10.81 0 5.405 5.405 0 0110.81 0zm-13.351 1.43a3.171 3.171 0 11-6.342 0 3.171 3.171 0 016.342 0zm22.242 0a3.17 3.17 0 11-6.342 0 3.17 3.17 0 016.342 0z" fill="#fff"/><path d="M48.995 222.569c-1.485 12.673-19.921 14.669-19.921 24.255 0-9.586-18.436-11.583-19.92-24.255a15.59 15.59 0 01-.095-2.288H49.09a15.35 15.35 0 01-.096 2.288zm-41.233-4.912v.471a.917.917 0 11-1.832 0v-.471c.064-.553.833-.665.91-1.053-.077-.387-.845-.498-.91-1.052v-1.388h1.832v1.388c-.065.554-.833.665-.91 1.052.077.388.845.5.91 1.053zm2.777 0v.471a.916.916 0 11-1.832 0v-.471c.065-.553.833-.665.91-1.053-.077-.387-.844-.498-.91-1.052v-1.388h1.832v1.388c-.064.554-.833.665-.91 1.052.077.388.845.5.91 1.053zm2.781 0v.471a.916.916 0 11-1.832 0v-.471c.065-.553.833-.665.91-1.053-.077-.387-.845-.498-.91-1.052v-1.388h1.832v1.388c-.064.554-.832.665-.91 1.052.078.388.846.5.91 1.053zm2.779 0v.471a.917.917 0 11-1.833 0v-.471c.065-.553.832-.665.91-1.053-.078-.387-.845-.498-.91-1.052v-1.388h1.833v1.388c-.065.554-.833.665-.91 1.052.077.388.845.5.91 1.053zm2.781 0v.471a.917.917 0 11-1.833 0v-.471c.065-.553.833-.665.91-1.053-.077-.387-.845-.498-.91-1.052v-1.388h1.832v1.388c-.065.554-.833.665-.91 1.052.077.388.845.5.91 1.053zm2.776 0v.471a.916.916 0 11-1.832 0v-.471c.065-.553.833-.665.91-1.053-.077-.387-.845-.498-.91-1.052v-1.388h1.832v1.388c-.064.554-.832.665-.91 1.052.078.388.846.5.91 1.053zm2.781 0v.471a.917.917 0 11-1.832 0v-.471c.064-.553.833-.665.91-1.053-.077-.387-.845-.498-.91-1.052v-1.388h1.832v1.388c-.065.554-.833.665-.91 1.052.078.388.845.5.91 1.053zm2.778 0v.471a.916.916 0 11-1.832 0v-.471c.065-.553.833-.665.91-1.053-.077-.387-.845-.498-.91-1.052v-1.388h1.832v1.388c-.065.554-.833.665-.91 1.052.077.388.845.5.91 1.053zm2.777 0v.471a.917.917 0 11-1.832 0v-.471c.066-.553.833-.665.91-1.053-.077-.387-.844-.498-.91-1.052v-1.388h1.832v1.388c-.064.554-.832.665-.91 1.052.078.388.845.5.91 1.053zm2.782 0v.471a.917.917 0 11-1.833 0v-.471c.065-.553.833-.665.91-1.053-.077-.387-.844-.498-.91-1.052v-1.388h1.833v1.388c-.065.554-.833.665-.91 1.052.077.388.844.5.91 1.053zm2.776 0v.471a.916.916 0 11-1.831 0v-.471c.065-.553.833-.665.91-1.053-.077-.387-.845-.498-.91-1.052v-1.388h1.832v1.388c-.065.554-.832.665-.91 1.052.078.388.845.5.91 1.053zm2.782 0v.471a.916.916 0 11-1.832 0v-.471c.064-.553.833-.665.91-1.053-.077-.387-.845-.498-.91-1.052v-1.388h1.832v1.388c-.065.554-.833.665-.91 1.052.078.388.845.5.91 1.053zm2.778 0v.471a.916.916 0 11-1.833 0v-.471c.065-.553.833-.665.91-1.053-.077-.387-.844-.498-.91-1.052v-1.388h1.832v1.388c-.064.554-.833.665-.91 1.052.077.388.846.5.91 1.053zm2.78 0v.471a.916.916 0 11-1.831 0v-.471c.064-.553.833-.665.91-1.053-.078-.387-.846-.498-.91-1.052v-1.388h1.831v1.388c-.063.554-.832.665-.909 1.052.077.388.846.5.91 1.053zm2.779 0v.471a.917.917 0 11-1.833 0v-.471c.065-.553.833-.665.91-1.053-.077-.387-.845-.498-.91-1.052v-1.388h1.833v1.388c-.065.554-.833.665-.91 1.052.077.388.845.5.91 1.053zm2.777 0v.471a.917.917 0 11-1.833 0v-.471c.065-.553.833-.665.91-1.053-.077-.387-.844-.498-.91-1.052v-1.388h1.833v1.388c-.065.554-.833.665-.91 1.052.077.388.845.5.91 1.053zm2.78 0v.471a.916.916 0 11-1.831 0v-.471c.064-.553.832-.665.91-1.053-.078-.387-.846-.498-.91-1.052v-1.388h1.831v1.388c-.064.554-.832.665-.909 1.052.078.388.845.5.91 1.053z" fill="#006766"/><path d="M34.478 228.155a5.405 5.405 0 10-10.81 0 5.405 5.405 0 0010.81 0zm-13.351-.945a3.17 3.17 0 10-6.341-.001 3.17 3.17 0 006.34.001zm22.242 0a3.17 3.17 0 10-6.342 0 3.17 3.17 0 106.342 0z" fill="#fff"/><path d="M55.736 134.812H2.414v2.874h53.322v-2.874z" fill="#006766"/><path d="M53.447 137.023H4.7v2.628h48.748v-2.628zm2.429 68.618H2.275A2.274 2.274 0 000 207.916v1.543a2.274 2.274 0 002.275 2.274h53.6a2.274 2.274 0 002.275-2.274v-1.543a2.275 2.275 0 00-2.274-2.275z" fill="#006766"/><path d="M55.736 203.633H2.414v2.874h53.322v-2.874z" fill="#006766"/><path d="M53.447 201.68H4.7v2.627h48.748v-2.627zm150.301 11.666a3.902 3.902 0 11-7.804 0 3.902 3.902 0 017.804 0z" fill="#006766"/><path d="M202.115 207.815a2.269 2.269 0 11-4.537-.001 2.269 2.269 0 014.537.001zm5.904 30.434c-6.134 1.279-12.141-2.657-13.419-8.79-1.15-5.515 1.923-10.916 7.013-12.881-.629.031-1.261.096-1.896.228-6.549 1.365-10.751 7.78-9.385 14.328 1.365 6.549 7.78 10.75 14.328 9.386a12.045 12.045 0 005.933-3.151c-.806.384-1.662.69-2.574.88z" fill="#006766"/><path d="M204.004 221.336l1.452 4.468h4.698l-3.802 2.76 1.453 4.468-3.801-2.761-3.8 2.761 1.452-4.468-3.801-2.76h4.698l1.451-4.468z" fill="#006766"/><path d="M199.875 206.242V0" stroke="#006766" stroke-width="2" stroke-miterlimit="10"/><path d="M68.162 285.362a3.9 3.9 0 11-7.802 0 3.9 3.9 0 017.802 0z" fill="#006766"/><path d="M64.26 282.099a2.268 2.268 0 10.002-4.536 2.268 2.268 0 00-.001 4.536zm8.172 28.166c-6.132 1.278-12.14-2.657-13.419-8.79-1.15-5.514 1.925-10.917 7.013-12.881-.629.03-1.26.095-1.896.227-6.548 1.365-10.75 7.78-9.384 14.328 1.364 6.549 7.779 10.751 14.327 9.386a12.032 12.032 0 005.934-3.151c-.806.385-1.663.691-2.575.881z" fill="#006766"/><path d="M68.419 293.352l1.45 4.467h4.698l-3.8 2.761 1.452 4.467-3.8-2.76-3.8 2.76 1.451-4.467-3.8-2.761h4.696l1.453-4.467z" fill="#006766"/><path d="M64.29 278.252V0" stroke="#006766" stroke-width="2" stroke-miterlimit="10"/></g></svg>