<svg width="65" height="65" fill="none" xmlns="http://www.w3.org/2000/svg"><path opacity=".3" d="M64.878 32.205l-2.248-2.234a16.783 16.783 0 00-3.816-2.834 26.597 26.597 0 00-3.917-9.453c.452-1.527.69-3.116.695-4.707l.01-3.17a.412.412 0 00-.413-.413h-.001l-3.17.01c-1.59.005-3.18.243-4.706.696a26.578 26.578 0 00-9.45-3.917 16.788 16.788 0 00-2.835-3.818L32.792.117a.424.424 0 00-.584 0l-2.234 2.248a16.783 16.783 0 00-2.835 3.818A26.582 26.582 0 0017.69 10.1a16.787 16.787 0 00-4.709-.696l-3.169-.01h-.001a.412.412 0 00-.413.414l.01 3.17c.005 1.59.244 3.18.696 4.706l-.01.011a26.593 26.593 0 00-3.907 9.44 16.791 16.791 0 00-3.817 2.836L.122 32.205a.413.413 0 000 .585l2.248 2.234a16.776 16.776 0 003.817 2.835 26.606 26.606 0 003.86 9.368.34.34 0 00.06.07 16.788 16.788 0 00-.699 4.72l-.01 3.17a.412.412 0 00.413.414h.001l3.17-.01a16.779 16.779 0 004.706-.695 26.585 26.585 0 009.451 3.917 16.793 16.793 0 002.835 3.817l2.234 2.248a.412.412 0 00.584 0l2.235-2.248a16.789 16.789 0 002.834-3.817 26.593 26.593 0 009.41-3.888l.037-.03a16.78 16.78 0 004.71.697l3.17.01h.001a.412.412 0 00.413-.415l-.01-3.17a16.787 16.787 0 00-.695-4.706 26.592 26.592 0 003.915-9.439l.001-.013a16.781 16.781 0 003.818-2.835l2.247-2.234a.412.412 0 000-.585zm-7.02-5.552a16.74 16.74 0 00-1.842-.727 24.269 24.269 0 00-2.244-5.407c.3-.59.563-1.198.79-1.819a25.734 25.734 0 013.297 7.953zm-11.562-16.22c-.62.227-1.228.49-1.818.79A24.272 24.272 0 0039.07 8.98a16.739 16.739 0 00-.727-1.843 25.73 25.73 0 017.952 3.296zm-19.64-3.296a16.594 16.594 0 00-.727 1.843 24.263 24.263 0 00-5.407 2.243c-.59-.3-1.198-.563-1.819-.79a25.738 25.738 0 017.953-3.296zM10.437 18.7c.228.62.49 1.229.79 1.82a24.27 24.27 0 00-2.243 5.406c-.629.206-1.244.45-1.843.727a25.734 25.734 0 013.296-7.953zM7.141 38.342c.599.278 1.214.521 1.843.727a24.281 24.281 0 002.243 5.407c-.3.59-.563 1.198-.79 1.82a25.749 25.749 0 01-3.296-7.954zm11.562 16.22a16.56 16.56 0 001.82-.79 24.256 24.256 0 005.406 2.243c.205.629.449 1.244.727 1.843a25.727 25.727 0 01-7.953-3.296zm19.64 3.297c.279-.6.522-1.215.728-1.844a24.272 24.272 0 005.407-2.243c.59.3 1.198.563 1.818.79a25.744 25.744 0 01-7.952 3.297zm16.22-11.564a17.127 17.127 0 00-.79-1.82 24.266 24.266 0 002.243-5.406c.628-.206 1.244-.45 1.843-.727a25.74 25.74 0 01-3.296 7.953zm7.486-11.856a16.018 16.018 0 01-6.495 3.912.411.411 0 00-.275.286 23.449 23.449 0 01-2.333 5.623.412.412 0 00-.008.398 16.018 16.018 0 011.83 7.362l.008 2.755-2.755-.008a16.014 16.014 0 01-7.362-1.83.413.413 0 00-.397.008 23.458 23.458 0 01-5.623 2.333.41.41 0 00-.286.276 16.018 16.018 0 01-3.911 6.495L32.5 64.003l-1.942-1.954a16.016 16.016 0 01-3.911-6.495.411.411 0 00-.287-.276 23.46 23.46 0 01-5.622-2.333.414.414 0 00-.397-.008 16.015 16.015 0 01-7.363 1.83l-2.754.008.009-2.755c.008-2.55.64-5.097 1.829-7.362a.412.412 0 00-.008-.398 23.462 23.462 0 01-2.333-5.623.411.411 0 00-.276-.286 16.018 16.018 0 01-6.494-3.911L.997 32.498l1.954-1.942a16.017 16.017 0 016.495-3.912.411.411 0 00.275-.286 23.462 23.462 0 012.332-5.623.412.412 0 00.008-.398 16.018 16.018 0 01-1.828-7.362l-.009-2.755 2.754.009a16.02 16.02 0 017.362 1.829.412.412 0 00.398-.008 23.452 23.452 0 015.622-2.333.411.411 0 00.287-.275 16.02 16.02 0 013.91-6.496L32.5.993l1.941 1.953a16.021 16.021 0 013.912 6.495.41.41 0 00.286.276 23.46 23.46 0 015.623 2.333c.122.07.272.073.397.008a16.016 16.016 0 017.362-1.83l2.754-.008-.008 2.755a16.02 16.02 0 01-1.829 7.362.412.412 0 00.008.398 23.457 23.457 0 012.333 5.623.41.41 0 00.275.286 16.016 16.016 0 016.495 3.912l1.953 1.942-1.953 1.941z" fill="#006766"/></svg>