<svg width="118" height="120" fill="none" xmlns="http://www.w3.org/2000/svg"><path fill-rule="evenodd" clip-rule="evenodd" d="M15.512 71.479a45.968 45.968 0 0010.278 15.65l32.87 32.869 32.868-32.87a46.017 46.017 0 0010.289-15.65c-6.051-3.782-13.764-5.52-21.119-4.842a25.391 25.391 0 01-4.174 5.49c-9.865 9.864-25.865 9.864-35.73 0a25.041 25.041 0 01-4.165-5.49c-7.364-.678-15.067 1.06-21.117 4.843z" fill="#006766"/><path fill-rule="evenodd" clip-rule="evenodd" d="M62.667 68.852c11.644-9.209 29.88-8.975 42.267-.785a113.963 113.963 0 0112.239-55.671 34.384 34.384 0 00-13.839-1.081 146.969 146.969 0 00-.615 3.104 39.803 39.803 0 016.348.35 123.892 123.892 0 00-7.81 45.51c-13.023-3.888-29.118-1.155-38.59 8.573zM58.66 20.47c-1.176 18.046-1.176 28.419 0 46.464 1.187-18.045 1.187-28.418 0-46.464zm-4.005 48.382c-11.645-9.209-29.881-8.975-42.268-.785A113.962 113.962 0 00.16 12.396 34.366 34.366 0 0114 11.315a279.4 279.4 0 01.614 3.104 39.723 39.723 0 00-6.347.35 124.109 124.109 0 017.81 45.51c13.011-3.888 29.107-1.155 38.58 8.573zm2.627 2.67c-7.883-12.588-22.95-18.68-37.372-15.12a165 165 0 00-5.37-55.398c14.41-3.56 29.49 2.533 37.372 15.121A39.3 39.3 0 0021.204 4.28a182.834 182.834 0 014.79 46.03 36.43 36.43 0 0131.29 21.212zm-31.29-59.889c10.12-2.914 20.938 1.26 26.47 10.215a33.913 33.913 0 00-26.47-10.215zm3.433 35.349c10.12-2.914 20.939 1.26 26.47 10.214a33.912 33.912 0 00-26.47-10.215zm-.857-8.837a23.47 23.47 0 0126.468 10.214A33.913 33.913 0 0028.57 38.145zm-.86-8.838a23.475 23.475 0 0126.47 10.215 33.912 33.912 0 00-26.47-10.215zm-.858-8.837c10.12-2.914 20.939 1.261 26.47 10.215A33.914 33.914 0 0026.85 20.47zm33.187 51.052C67.921 58.934 83 52.842 97.411 56.402a165.018 165.018 0 015.382-55.397c-14.421-3.56-29.489 2.533-37.372 15.121A39.276 39.276 0 0196.117 4.28a183.769 183.769 0 00-4.79 46.03 36.458 36.458 0 00-31.289 21.212zm31.301-59.889a23.494 23.494 0 00-26.48 10.215 33.935 33.935 0 0126.48-10.215zm-3.433 35.349a23.493 23.493 0 00-26.48 10.214 33.934 33.934 0 0126.48-10.215zm.858-8.837a23.494 23.494 0 00-26.48 10.214 33.935 33.935 0 0126.48-10.214zm.859-8.838a23.493 23.493 0 00-26.48 10.215 33.934 33.934 0 0126.48-10.215zm.858-8.837A23.495 23.495 0 0064 30.685 33.937 33.937 0 0190.48 20.47z" fill="#006766"/></svg>