<svg width="100" height="120" fill="none" xmlns="http://www.w3.org/2000/svg"><path fill-rule="evenodd" clip-rule="evenodd" d="M49.615 114.881L70.91 93.747c5.857-5.802 8.775-13.469 8.775-21.125 0-4.272-.908-8.545-2.721-12.492-.317.195-.645.38-.983.553l-1.684.922v6.235a2.976 2.976 0 011.18 2.364 2.991 2.991 0 01-3.004 2.982 2.991 2.991 0 01-3.004-2.982c0-.965.458-1.822 1.18-2.364v-4.272l-3.3 1.778a18.806 18.806 0 011.453 7.276c0 4.858-1.879 9.738-5.616 13.447-3.748 3.73-8.653 5.585-13.57 5.585v23.227zm0-46.694V60l21.032-11.343v10.8L60.05 65.185c-3.725 2.005-7.09 3.003-10.434 3.003zm.01-18.89V31.285l-1.944-1.052a4.002 4.002 0 01-1.617-5.455c.732-1.344 2.12-2.093 3.562-2.103V4.11l41.879 22.588-19.033 10.28-21.983-11.863a1.829 1.829 0 00-2.469.726 1.788 1.788 0 00.731 2.44L68.66 39.027l-19.033 10.27zm30.299 8.577a33.51 33.51 0 013.42 14.748c0 8.578-3.29 17.166-9.855 23.684L49.615 120 25.753 96.306c-6.566-6.518-9.855-15.106-9.855-23.684a33.485 33.485 0 013.42-14.748 11.303 11.303 0 01-1.683-2.146c-1.19-2.007-1.715-4.349-1.715-7.353v-10.66l2.698 1.454L49.616 55.89l21.032-11.332v-2.494L49.616 53.407.12 26.697l2.94-1.582L49.615 0 99.12 26.698 74.297 40.09v2.495l9.026-4.87v10.66c0 3.005-.525 5.347-1.716 7.353a11.35 11.35 0 01-1.683 2.146zm-15.8 9.218l-2.337 1.258c-4.284 2.31-8.216 3.459-12.172 3.459-3.944 0-7.877-1.15-12.16-3.46l-2.339-1.268a15.337 15.337 0 00-1.027 5.541 15.33 15.33 0 004.546 10.898 15.582 15.582 0 0010.98 4.512 15.59 15.59 0 0010.992-4.511 15.312 15.312 0 004.545-10.899c0-1.876-.35-3.752-1.027-5.53zm10.172-20.398v10.8c1.978-1.084 3.344-2.211 4.175-3.61.84-1.4 1.201-3.167 1.201-5.509v-4.587l-5.376 2.906z" fill="#FF9B24"/></svg>