<svg width="121" height="120" fill="none" xmlns="http://www.w3.org/2000/svg"><path fill-rule="evenodd" clip-rule="evenodd" d="M18.02 107.794h-.461c-.477 0-.848.201-1.113.606-.127.192-.189.624-.189 1.302v4.966c0 1.132-.09 1.994-.272 2.585-.266.828-.772 1.502-1.527 2.012-.717.488-1.69.732-2.921.732-2.39 0-3.895-.856-4.522-2.565-.194-.529-.29-1.537-.29-3.017v-4.788c0-.624-.068-1.063-.201-1.31-.194-.35-.571-.523-1.131-.523h-.467v-.352h5.323v.352h-.477c-.51 0-.874.161-1.094.479-.152.216-.228.671-.228 1.357v5.347c0 1.447.204 2.473.609 3.076.525.788 1.388 1.184 2.587 1.184.726 0 1.4-.151 2.015-.452.707-.34 1.193-.813 1.452-1.421.232-.541.347-1.465.347-2.767v-4.967c0-.767-.084-1.246-.254-1.437-.235-.267-.585-.399-1.048-.399h-.46v-.352h4.32l.001.352zm13.336 0h-.435c-.52 0-.89.157-1.107.47-.133.195-.2.634-.2 1.32v10.339h-.328l-8.11-9.885v7.542c0 .757.08 1.227.243 1.407.226.253.578.38 1.063.38h.436v.353h-4.265v-.353h.427c.525 0 .899-.157 1.115-.47.133-.191.2-.63.2-1.316v-8.513c-.318-.374-.556-.621-.713-.741-.223-.18-.523-.331-.903-.452-.166-.052-.432-.08-.794-.08v-.353h3.338l7.511 9.207v-7.066c0-.754-.083-1.224-.253-1.409-.226-.254-.578-.38-1.064-.38h-.426v-.352h4.265v.352zm5.994 11.924h-5.267v-.352h.436c.51 0 .878-.148 1.11-.442.144-.185.216-.649.216-1.391v-7.906c0-.621-.04-1.029-.118-1.227a.762.762 0 00-.374-.389 1.684 1.684 0 00-.834-.216h-.436v-.353h5.267v.352h-.448c-.504 0-.872.148-1.104.442-.151.191-.229.655-.229 1.391v7.906c0 .622.04 1.03.118 1.227.167.405.572.606 1.215.606h.448v.352zm13.613-11.924c-.442.077-.77.216-.99.417-.312.281-.596.733-.85 1.354l-4.29 10.432h-.334l-4.593-10.568c-.234-.547-.401-.878-.497-.992-.3-.374-.782-.587-1.447-.643v-.352h5.008v.352c-.902.083-1.354.359-1.354.822 0 .3.139.77.417 1.41l3.122 7.18 2.896-7.091c.284-.692.426-1.177.426-1.455 0-.433-.38-.711-1.143-.838l-.155-.027v-.353h3.783v.352zm11.13 8.846l-1.057 3.078h-9.458v-.352h.435c.285 0 .56-.068.826-.207.25-.127.405-.364.463-.714.025-.126.037-.426.037-.902v-7.953c0-.782-.077-1.261-.235-1.434-.213-.241-.574-.361-1.09-.361h-.436v-.353h9.452l.136 2.689h-.352c-.102-.526-.205-.896-.31-1.116a1.477 1.477 0 00-.794-.77c-.225-.089-.649-.135-1.276-.135h-3.37v4.858h2.705c.702 0 1.168-.105 1.407-.315.314-.278.488-.766.525-1.465h.352v4.266h-.352c-.084-.606-.17-.992-.254-1.156-.232-.455-.79-.68-1.678-.68h-2.705v4.056c0 .423.004.655.01.699.036.284.142.473.315.572.12.071.352.108.689.108h2.08c.597 0 1.03-.031 1.302-.09a2.266 2.266 0 001.112-.628c.368-.368.752-.933 1.15-1.694h.37v-.001zm12.96 3.078h-3.292l-4.154-5.749c-.31.013-.56.019-.755.019-.164 0-.34-.006-.534-.019v3.561c0 .766.083 1.246.253 1.437.236.266.579.399 1.03.399h.479v.353h-5.25v-.353h.46c.52 0 .891-.17 1.114-.506.126-.192.188-.634.188-1.326v-7.906c0-.77-.083-1.249-.253-1.434-.235-.266-.585-.399-1.048-.399h-.46v-.353H67.3c1.09 0 1.891.055 2.405.164.869.185 1.551.575 2.052 1.165.43.51.643 1.119.643 1.824 0 1.644-1.007 2.689-3.023 3.134l2.535 3.52c.513.717.949 1.206 1.307 1.465.476.356 1.085.575 1.833.652v.352zm-4.673-9c0-.779-.242-1.406-.727-1.879-.486-.473-1.122-.711-1.907-.711-.352 0-.828.055-1.428.167v5.119h.51c.986 0 1.796-.198 2.426-.594.752-.47 1.126-1.172 1.126-2.102zm13.816 5.866c0 1.02-.393 1.855-1.18 2.507-.743.602-1.633.905-2.671.905-.35 0-.683-.027-1.001-.08-.183-.031-.572-.148-1.175-.352-.528-.176-.897-.263-1.1-.263-.3 0-.486.232-.55.695h-.353v-4.209h.353c.139.791.315 1.388.534 1.793.282.538.72.964 1.317 1.276.544.291 1.14.437 1.79.437.652 0 1.208-.17 1.672-.508.514-.367.77-.868.77-1.502 0-.664-.34-1.255-1.023-1.774-.417-.321-1.107-.742-2.068-1.264-.964-.52-1.663-.955-2.099-1.298-.906-.711-1.357-1.561-1.357-2.553 0-.952.365-1.737 1.094-2.352.693-.585 1.524-.878 2.492-.878.658 0 1.347.161 2.068.479.346.151.58.225.714.225.315 0 .522-.234.624-.704h.353v4.247h-.353c-.204-1.528-.798-2.559-1.777-3.097a3.275 3.275 0 00-1.604-.427c-.56 0-1.051.17-1.478.507-.457.368-.686.826-.686 1.376 0 .368.13.708.39 1.023.376.451 1.263 1.057 2.66 1.811.968.516 1.586.872 1.858 1.057.693.47 1.178.977 1.453 1.52.222.448.333.915.333 1.403zm6.735 3.134h-5.267v-.352h.436c.51 0 .878-.148 1.11-.442.145-.185.216-.649.216-1.391v-7.906c0-.621-.04-1.029-.118-1.227-.062-.158-.186-.288-.374-.389a1.682 1.682 0 00-.835-.216h-.435v-.353h5.266v.352h-.448c-.504 0-.872.148-1.103.442-.152.191-.229.655-.229 1.391v7.906c0 .622.04 1.03.117 1.227.167.405.572.606 1.215.606h.448v.352zm11.319-9.402h-.34c-.068-.508-.157-.872-.272-1.088-.365-.683-1.023-1.026-1.982-1.026h-1.734v9.372c0 .76.083 1.233.248 1.412.225.254.58.38 1.066.38h.43v.353h-5.23v-.353h.442c.526 0 .897-.157 1.12-.469.132-.195.2-.634.2-1.323v-9.372h-1.48c-.582 0-.99.043-1.225.126-.726.26-1.13.924-1.208 1.988h-.35l.146-2.874h10.033l.136 2.874zm13.566-2.522h-.235c-.494 0-.999.269-1.512.803-.216.229-.522.65-.914 1.265l-2.958 4.648v3.069c0 .752.083 1.221.253 1.407.232.254.594.38 1.091.38h.399v.353h-5.212v-.353h.436c.519 0 .891-.157 1.107-.469.133-.192.201-.631.201-1.317v-2.899l-3.366-5.125c-.368-.563-.599-.896-.695-1.005-.216-.228-.551-.451-.996-.667a1.271 1.271 0 00-.525-.09v-.352h5.23v.352h-.272a1.49 1.49 0 00-.749.179c-.259.145-.389.349-.389.615.001.216.185.609.554 1.174l2.565 3.947 2.405-3.774c.361-.568.541-.989.541-1.267 0-.355-.167-.609-.501-.767-.161-.071-.402-.108-.723-.108v-.351h4.265v.352zm-87.171-8.545l6.106-.39 6.106-.39v1.56l-6.106-.39-6.106-.39zm63.45 0l-6.106-.39-6.106-.39v1.56l6.106-.39 6.106-.39z" fill="#890C25"/><path d="M48.168 99.808c-.396.775-.842 1.185-1.558 1.185-1.11 0-1.908-.938-1.908-2.34 0-1.132.64-2.176 1.84-2.176.709 0 1.253.29 1.476 1.156l.261-.053a14.73 14.73 0 00-.172-1.214c-.201-.038-.76-.201-1.386-.201-1.796 0-3.026 1.066-3.026 2.638 0 1.207.85 2.512 2.847 2.512.537 0 1.23-.15 1.431-.202.134-.253.336-.834.44-1.2l-.245-.105zm3.458-3.644c-1.692 0-2.669 1.275-2.669 2.601 0 1.461 1.096 2.549 2.579 2.549 1.438 0 2.63-.999 2.63-2.63 0-1.506-1.17-2.52-2.534-2.52h-.006zm-.142.305c.947 0 1.67.873 1.67 2.415 0 1.424-.679 2.132-1.469 2.132-1.036 0-1.714-1.067-1.714-2.415 0-1.371.693-2.132 1.506-2.132h.007zm6.804 3.414c-.141.372-.275.619-.417.775-.172.194-.447.238-.82.238-.268 0-.499-.007-.633-.074-.149-.075-.187-.209-.187-.589v-2.966c0-.655.075-.693.664-.738v-.254h-2.199v.254c.604.045.671.09.671.738v2.944c0 .648-.074.693-.738.753v.238h3.63c.067-.216.223-.961.276-1.252l-.246-.067zm4.174 0c-.142.372-.276.619-.418.775-.17.194-.446.238-.82.238-.268 0-.499-.007-.633-.074-.149-.075-.186-.209-.186-.589v-2.966c0-.655.074-.693.663-.738v-.254H58.87v.254c.603.045.67.09.67.738v2.944c0 .648-.074.693-.737.753v.238h3.63c.066-.216.223-.961.275-1.252l-.246-.067zm4.345.03a2.627 2.627 0 01-.41.738c-.18.193-.432.246-.902.246-.32 0-.596-.008-.73-.082-.149-.082-.186-.261-.186-.619V98.84h.603c.656 0 .738.037.835.58h.254v-1.497h-.254c-.097.523-.171.573-.835.573h-.603v-1.66c0-.233.022-.255.283-.255h.47c.476 0 .678.052.804.202.12.157.209.367.284.66l.253-.037a73.11 73.11 0 01-.067-1.13h-3.532v.246c.566.052.633.081.633.756v2.94c0 .634-.067.686-.745.746v.238h3.83c.06-.231.216-.931.268-1.237l-.253-.052zm5.753-1.036h-2.154v.246c.79.067.835.12.835.663v.671c0 .261-.075.373-.209.447-.134.082-.343.12-.536.12-1.372 0-1.983-1.238-1.983-2.355 0-1.372.827-2.2 1.863-2.2.738 0 1.327.314 1.506 1.2l.26-.052c-.06-.566-.096-.976-.119-1.237-.268-.06-.872-.216-1.505-.216-1.573 0-3.011.887-3.011 2.616 0 1.52 1.147 2.534 2.899 2.534.626 0 1.281-.164 1.75-.276a3.448 3.448 0 01-.052-.716v-.61c0-.485.045-.523.455-.59v-.245zm4.233 1.036a2.624 2.624 0 01-.41.738c-.179.193-.432.246-.901.246-.32 0-.597-.008-.73-.082-.15-.082-.187-.261-.187-.619V98.84h.604c.656 0 .738.037.835.58h.253v-1.497h-.253c-.098.523-.172.573-.835.573h-.604v-1.66c0-.233.022-.255.283-.255h.47c.477 0 .678.052.805.202.12.157.209.367.283.66l.254-.037a64.56 64.56 0 01-.067-1.13H73.06v.246c.567.052.634.081.634.756v2.94c0 .634-.067.686-.746.746v.238h3.83c.06-.231.217-.931.269-1.237l-.254-.052z" fill="#890C25"/><path fill-rule="evenodd" clip-rule="evenodd" d="M60.377 80.516a2.931 2.931 0 110 5.862 2.931 2.931 0 010-5.862zM80.695 69.86c.415 8.75-.181 8.863-5.45 11.63-1.597-4.907-1.054-6.287 5.45-11.63zm6.585 15.8c-5.157-5.696-5.597-5.397-10.585-3.857 2.043 4.037 3.235 4.56 10.584 3.858zm1.1-17.308c.036 7.584-.484 7.66-5.144 9.859-1.2-4.304-.68-5.478 5.143-9.86zm7.509 13.738c-5.156-5.696-5.596-5.398-10.584-3.858 2.044 4.038 3.235 4.56 10.584 3.858zm-1.47-17.613c1.505 7.433 1.01 7.608-3.135 10.67-2.012-3.99-1.729-5.242 3.135-10.67zm9.834 12.025c-6.163-4.589-6.537-4.21-11.132-1.732 2.789 3.565 4.059 3.847 11.132 1.732zm-5.159-16.486c3.072 6.548 2.653 6.822-.498 10.594-2.764-3.243-2.784-4.468.498-10.594zm11.784 9.03c-6.746-2.862-7.007-2.428-10.706.905 3.387 2.675 4.628 2.65 10.706-.905zm-7.396-14.523c3.686 5.903 3.317 6.213.741 10.178-3.012-2.78-3.173-3.948-.741-10.178zm11.95 7.651c-6.773-1.96-6.972-1.514-10.123 2.094 3.543 2.167 4.725 2 10.123-2.094zm-8.553-12.252c4 4.85 3.707 5.17 1.868 9.027-3.026-2.134-3.308-3.16-1.868-9.027zm11.678 5.485c-6.298-.953-6.424-.53-8.819 3.074 3.43 1.52 4.469 1.232 8.819-3.074zm-8.725-10.391c3.684 4.465 3.412 4.76 1.72 8.31-2.787-1.963-3.047-2.909-1.72-8.31zm10.736 5.044c-5.798-.878-5.914-.489-8.119 2.83 3.158 1.4 4.114 1.134 8.119-2.83zm-3.598-8.615c.802 5.733.417 5.843-2.883 7.983-1.348-3.132-1.074-4.073 2.883-7.983zM73.83 71.984c-1.862 8.56-2.466 8.516-8.273 9.826-.273-5.153.609-6.346 8.273-9.826zm3.532 17.503c-3.758-7.324-4.296-7.137-9.885-6.926.996 4.746 2.084 5.617 9.885 6.926zM40.048 69.86c-.415 8.75.18 8.863 5.45 11.63 1.597-4.907 1.054-6.287-5.45-11.63zm-6.583 15.8c5.156-5.696 5.596-5.397 10.584-3.857-2.043 4.037-3.235 4.56-10.584 3.858zm-1.1-17.308c-.036 7.584.483 7.66 5.143 9.859 1.2-4.304.68-5.478-5.143-9.86zM24.86 82.09c5.155-5.696 5.596-5.398 10.584-3.858-2.044 4.038-3.236 4.56-10.585 3.858zm1.46-17.613c-1.505 7.433-1.01 7.608 3.135 10.67 2.012-3.99 1.729-5.242-3.134-10.67zm-9.832 12.025c6.163-4.589 6.537-4.21 11.131-1.732-2.787 3.565-4.057 3.847-11.13 1.732zm5.168-16.486c-3.072 6.548-2.653 6.822.498 10.594 2.764-3.243 2.784-4.468-.498-10.594zm-11.785 9.03c6.746-2.862 7.008-2.428 10.707.905-3.388 2.675-4.629 2.65-10.707-.905zm7.394-14.523c-3.688 5.903-3.319 6.213-.741 10.178 3.012-2.78 3.172-3.948.74-10.178zM5.313 62.174c6.772-1.96 6.972-1.514 10.123 2.094-3.544 2.167-4.726 2-10.123-2.094zm8.547-12.252c-4 4.85-3.707 5.17-1.869 9.027 3.027-2.134 3.309-3.16 1.869-9.027zM2.191 55.407c6.298-.953 6.424-.53 8.819 3.074-3.43 1.52-4.47 1.232-8.819-3.074zm8.722-10.391c-3.683 4.465-3.412 4.76-1.72 8.31 2.787-1.963 3.046-2.909 1.72-8.31zM.172 50.06c5.798-.878 5.914-.489 8.119 2.83-3.158 1.4-4.115 1.134-8.12-2.83zm3.598-8.615c-.801 5.733-.417 5.843 2.883 7.983 1.348-3.132 1.074-4.073-2.882-7.983zm43.144 30.539c1.862 8.56 2.466 8.516 8.273 9.826.273-5.153-.609-6.346-8.273-9.826zm-3.531 17.503c3.758-7.324 4.296-7.137 9.886-6.926-.996 4.746-2.085 5.617-9.886 6.926zm11.028-21.704h-.68v-4.33a3.475 3.475 0 01-.644.469 4.53 4.53 0 01-.716.35v-.656a4.07 4.07 0 00.997-.65c.285-.253.486-.499.605-.738h.438v5.555zM56.26 66.5l.649-.054c.056.307.16.529.316.666a.873.873 0 00.6.208c.21 0 .393-.048.55-.145a1.14 1.14 0 00.387-.383c.1-.16.183-.376.252-.648a3.4 3.4 0 00.097-.967 1.55 1.55 0 01-.555.527 1.5 1.5 0 01-.762.202 1.54 1.54 0 01-1.16-.499c-.316-.33-.475-.769-.475-1.312 0-.562.165-1.012.496-1.355.33-.341.743-.512 1.242-.512a1.771 1.771 0 011.662 1.119c.155.358.232.877.232 1.556 0 .707-.076 1.27-.229 1.688-.153.42-.382.738-.685.957a1.767 1.767 0 01-1.064.329c-.432 0-.785-.12-1.06-.36-.273-.242-.438-.581-.493-1.017zm2.773-2.44c0-.39-.102-.699-.309-.927a.97.97 0 00-.748-.342c-.304 0-.567.122-.788.368-.223.246-.334.565-.334.957 0 .351.106.637.316.856.211.22.474.33.787.33.313 0 .571-.11.773-.33.203-.218.303-.523.303-.912zm2.47.723c-.281-.103-.49-.25-.627-.441a1.164 1.164 0 01-.203-.688c0-.404.143-.74.432-1.015.29-.275.674-.412 1.155-.412s.87.14 1.164.42c.293.282.44.623.44 1.026 0 .256-.067.48-.2.67-.134.19-.337.337-.612.44.339.111.595.289.772.536.176.246.265.54.265.882 0 .473-.167.87-.5 1.192-.336.321-.775.483-1.32.483-.544 0-.984-.161-1.319-.485a1.618 1.618 0 01-.5-1.209c0-.36.09-.66.273-.903.183-.243.443-.408.78-.496zm-.134-1.154a.87.87 0 00.25.643c.166.166.386.25.657.25a.874.874 0 00.644-.248.82.82 0 00.249-.606.85.85 0 00-.257-.63.871.871 0 00-.644-.255.887.887 0 00-.647.25.814.814 0 00-.252.596zm-.224 2.558c0 .195.044.382.135.563.09.18.227.32.41.42.18.099.377.15.584.15.327 0 .595-.105.805-.314.21-.209.314-.474.314-.796a1.097 1.097 0 00-1.14-1.132 1.07 1.07 0 00-.796.317 1.086 1.086 0 00-.313.792zm3.61.127l.68-.092c.078.386.21.665.396.835.187.17.416.254.688.254.322 0 .594-.11.813-.332.219-.222.328-.496.328-.823 0-.311-.102-.569-.307-.772a1.055 1.055 0 00-.778-.304c-.128 0-.288.025-.48.076l.076-.596a1.41 1.41 0 00.893-.219c.232-.15.348-.382.348-.695a.826.826 0 00-.253-.618.9.9 0 00-.653-.244.92.92 0 00-.662.251c-.176.168-.29.419-.34.753l-.68-.123c.084-.456.272-.81.567-1.062.293-.25.66-.375 1.099-.375.3 0 .579.064.833.194a1.386 1.386 0 01.785 1.24c0 .239-.065.456-.192.651-.129.196-.32.352-.57.468.327.074.58.231.762.47.18.237.27.535.27.892 0 .483-.176.894-.528 1.23-.352.336-.798.504-1.337.504-.485 0-.888-.146-1.209-.436a1.684 1.684 0 01-.55-1.127zm-20.595-.881l3.121-.506 3.12-.505v2.021l-3.12-.505-3.12-.505zm32.425 0l-3.12-.506-3.121-.505v2.021l3.12-.505 3.12-.505zm7.767-34.581v16.351L60.365 59.197 36.38 47.203V30.852l23.986 11.993 23.987-11.993z" fill="#890C25"/><path fill-rule="evenodd" clip-rule="evenodd" d="M60.367 0l41.031 20.516-41.03 20.515-41.032-20.515L60.367 0z" fill="#890C25"/><path fill-rule="evenodd" clip-rule="evenodd" d="M60.679 20.156H31.01a2.572 2.572 0 00-2.565 2.565v2.336l1.016.509V22.72c0-.852.697-1.549 1.55-1.549h29.672c.926 0 .93-1.016-.004-1.016z" fill="#890C25"/><path fill-rule="evenodd" clip-rule="evenodd" d="M60.307 19.633H30.64a2.572 2.572 0 00-2.565 2.565v15.554a2.03 2.03 0 00-.999 3.318h-.016l-.68 5.875c1.31.618 3.11.618 4.421 0l-.68-5.875h-.017a2.03 2.03 0 00-1.013-3.32V22.197c0-.852.697-1.548 1.55-1.548h29.672c.925-.001.93-1.017-.005-1.017z" fill="#890C25"/></svg>