<svg width="184" height="120" fill="none" xmlns="http://www.w3.org/2000/svg"><path fill-rule="evenodd" clip-rule="evenodd" d="M88.087 30.649v9.788c-6.74.749-13.264 3.69-18.399 8.824-12.051 12.051-12.051 31.75 0 43.784l10.286 10.305C61.487 88.75 37.01 83.544 13.94 89.694V1.858c20.467-5.456 74.147.232 74.147 28.79zM87.764 120C67.602 94.347 40.825 88.874 7.79 97.68V9.362c-2.923.322-5.562.785-7.79 1.374v98.389C29.309 96.379 62.2 100.569 87.764 120zm7.614 0c20.162-25.653 46.939-31.126 79.974-22.32V9.362c2.923.322 5.562.785 7.808 1.374v98.389c-29.308-12.746-62.236-8.556-87.782 10.875zm-.322-89.351v9.788a30.824 30.824 0 0118.417 8.824c12.033 12.051 12.033 31.75 0 43.784L103.15 103.35c18.487-14.6 42.982-19.806 66.051-13.656V1.858c-20.466-5.456-74.145.232-74.145 28.79zM91.33 87.982c9.805.143 16.972-7.665 17.061-16.829-.089-9.467-7.612-16.847-16.883-16.811-9.555.017-16.668 7.737-16.757 16.811.089 9.199 7.292 16.686 16.58 16.829z" fill="#890C25"/></svg>