<svg width="40" height="40" fill="none" xmlns="http://www.w3.org/2000/svg"><g clip-path="url(#clip0_34_7334)" fill="#fff"><path d="M12.768 40.003a.431.431 0 01-.424-.485l.648-4.696a.428.428 0 01.846.117l-.648 4.695a.428.428 0 01-.422.37zm14.78 0a.428.428 0 01-.423-.369l-.648-4.695a.427.427 0 01.846-.117l.648 4.696a.431.431 0 01-.423.485z"/><path d="M39.557 22.267L37.39 17.3a3.689 3.689 0 00-4.395-2.063l-1.248.36c-1.28.371-1.965 1.843-1.413 3.063l.324.715a1.811 1.811 0 002.375.896l1.143 2.726c-1.2-.398-2.397.047-3.132 1.05-1.21-1.003-3.22-1.37-4.466-.2-.84-.453-1.779-.763-2.699-1.004a6.35 6.35 0 002.184-3.154 1.896 1.896 0 001.745-1.892c0-.73-.41-1.364-1.014-1.68.85-3.838-1.766-7.175-5.35-8.283-1.837-.567-3.762-.458-4.73 1.41-.168-.27-.507-.323-.783-.215-.677.263-1.87 1.693-2.45 3.212-.46 1.199-.567 2.521-.323 3.935-.588.33-.966.942-.966 1.62 0 1 .77 1.82 1.745 1.893a6.35 6.35 0 002.184 3.154c-.92.241-1.858.551-2.698 1.003-1.246-1.17-3.257-.802-4.467.201-.734-1.003-1.932-1.448-3.132-1.05l1.143-2.726a1.811 1.811 0 002.375-.896l.324-.715c.551-1.219-.132-2.692-1.413-3.062l-1.248-.361A3.689 3.689 0 002.61 17.3L.443 22.267C-.46 24.342.047 26.74 1.71 28.236c2.283 2.054 5.374 2.626 7.723 2.72l-1.13 8.561a.43.43 0 00.356.478.43.43 0 00.49-.366l1.35-10.22c.463-3.505 3.437-5.277 6.638-5.926.05.026.1.052.15.076v1.761A2.717 2.717 0 0020 28.034a2.717 2.717 0 002.714-2.713v-1.762c.05-.024.1-.05.15-.076 3.2.649 6.175 2.42 6.638 5.925l1.35 10.221a.431.431 0 00.49.366.431.431 0 00.357-.478l-1.13-8.562c2.348-.094 5.439-.665 7.722-2.72 1.662-1.495 2.17-3.893 1.266-5.968zM9.65 29.297l-.107.807c-2.213-.078-5.142-.595-7.263-2.504-1.387-1.249-1.811-3.255-1.053-4.99l2.166-4.969a2.832 2.832 0 013.374-1.583l1.249.361a1.39 1.39 0 01.871 1.889l-.323.715c-.315.697-1.084.595-1.644.287-.253-.086-.444-.012-.57.224l-1.76 4.193c-.159.38.287.75.631.521 1.141-.757 2.62-.737 3.255.645a.432.432 0 00.697.118c.861-.896 2.345-1.44 3.48-.686a7.3 7.3 0 00-3.002 4.973zm4.628-16.752c.444-1.16 1.235-2.141 1.692-2.538l-.013.152c-.034.398-.073.848.339.978.491.155.709-.446.854-.793.8-1.907 2.071-2.303 4.04-1.694 3.07.95 5.439 3.735 4.813 7.063l-1.809-1.979v-.363a1.91 1.91 0 00-1.908-1.909.427.427 0 100 .855c.581 0 1.054.473 1.054 1.054v.382c-1.728 2.21-5.173 2.194-6.884-.028-.172-.258-.555-.368-.76-.063L14.2 15.898c-.073 0-.146.006-.218.014-.192-1.216-.093-2.347.298-3.367zm7.58 12.775c0 1.026-.834 1.86-1.86 1.86a1.861 1.861 0 01-1.858-1.86v-1.43c1.206.37 2.512.37 3.718 0v1.43zM20 23.314a5.49 5.49 0 01-5.326-4.164.427.427 0 00-.415-.323c-.626 0-1.213-.317-1.213-1.031 0-.678.688-1.112 1.32-1.034.16.02.318-.052.407-.186l1.316-1.963c2.046 2.215 5.686 2.189 7.698-.06l1.887 2.064a.427.427 0 00.295.139c.552.026.985.482.985 1.04 0 .575-.463 1.043-1.033 1.043-.242 0-.518.008-.594.31A5.49 5.49 0 0120 23.315zM37.72 27.6c-2.122 1.909-5.051 2.426-7.264 2.504l-.107-.807a7.301 7.301 0 00-3-4.973c1.133-.754 2.617-.21 3.478.686.205.213.571.15.696-.117.64-1.377 2.106-1.409 3.256-.646.345.23.79-.14.63-.521l-1.758-4.193c-.127-.236-.318-.31-.571-.224l-.398.181a.956.956 0 01-1.246-.468l-.323-.715a1.39 1.39 0 01.871-1.89l1.248-.36a2.832 2.832 0 013.375 1.583l2.166 4.969c.758 1.736.334 3.742-1.054 4.991zM20.087 4.636a.427.427 0 01-.427-.428V.428a.427.427 0 11.855 0v3.78a.427.427 0 01-.428.428zm-7.124 1.907a.427.427 0 01-.37-.213l-1.891-3.275a.427.427 0 11.74-.427l1.89 3.274a.431.431 0 01-.37.641zm-5.219 5.218a.425.425 0 01-.213-.057l-3.274-1.89a.427.427 0 01.427-.741l3.274 1.89c.37.214.214.798-.214.798zm24.689 0c-.428 0-.583-.584-.214-.797l3.274-1.891a.427.427 0 11.428.74l-3.274 1.89a.426.426 0 01-.214.058zm-5.218-5.218a.431.431 0 01-.37-.64l1.89-3.275a.427.427 0 01.74.427l-1.89 3.275a.427.427 0 01-.37.213z"/></g><defs><clipPath id="clip0_34_7334"><path fill="#fff" d="M0 0h40v40H0z"/></clipPath></defs></svg>