<svg width="40" height="40" fill="none" xmlns="http://www.w3.org/2000/svg"><path d="M32.964 29.491a4.41 4.41 0 001.552-1.05c1.008-1.043 1.556-2.526 1.506-4.072-.09-2.738-1.798-4.44-4.456-4.442-2.658.001-4.366 1.704-4.455 4.442-.051 1.546.497 3.03 1.505 4.072.46.474.988.83 1.555 1.051-1.517.216-2.797.794-3.77 1.706a6.337 6.337 0 00-.616-.68c-1.135-1.077-2.66-1.744-4.461-1.96a4.83 4.83 0 001.941-1.244c1.119-1.157 1.728-2.805 1.672-4.521-.1-3.036-1.991-4.923-4.937-4.924-2.945.001-4.836 1.888-4.936 4.924-.056 1.716.552 3.364 1.672 4.521a4.824 4.824 0 001.941 1.245c-1.8.215-3.326.882-4.46 1.96a6.09 6.09 0 00-.617.68c-.973-.914-2.253-1.492-3.77-1.707a4.422 4.422 0 001.555-1.051c1.008-1.043 1.556-2.526 1.505-4.072-.09-2.738-1.797-4.44-4.455-4.442-2.658.001-4.366 1.704-4.456 4.442-.05 1.546.498 3.03 1.506 4.072.458.474.987.829 1.552 1.05-3.874.547-5.627 3.37-5.627 6.173v1.784c0 .258.21.468.469.468h36.243a.47.47 0 00.469-.468v-1.784c0-2.802-1.753-5.627-5.627-6.173zm-4.916-5.09c.074-2.246 1.356-3.535 3.519-3.535 2.162 0 3.444 1.289 3.519 3.535.042 1.293-.41 2.528-1.243 3.388-.644.666-1.453 1.033-2.276 1.033-.824 0-1.632-.367-2.277-1.033-.832-.86-1.285-2.095-1.242-3.388zM16 22.824c.085-2.551 1.543-4.015 4-4.016 2.458 0 3.916 1.465 4 4.016.049 1.464-.464 2.863-1.408 3.838-.733.758-1.653 1.175-2.592 1.175-.939 0-1.859-.418-2.591-1.174-.943-.976-1.456-2.375-1.409-3.839zM4.916 24.401c.074-2.246 1.356-3.535 3.519-3.535 2.162 0 3.444 1.289 3.518 3.535.043 1.293-.41 2.528-1.242 3.388-.644.666-1.453 1.033-2.276 1.033-.824 0-1.632-.367-2.277-1.033-.832-.86-1.285-2.095-1.242-3.388zM2.347 35.664c0-3.238 2.39-5.33 6.087-5.33 1.955 0 3.549.572 4.634 1.657-.575 1.014-.884 2.197-.884 3.458v1.53H2.347v-1.315zm24.531 1.314H13.122v-1.53c0-3.663 2.7-6.03 6.878-6.03s6.878 2.368 6.878 6.03v1.53zm10.776 0h-9.838V35.45c0-1.261-.308-2.443-.884-3.458 1.086-1.085 2.68-1.657 4.634-1.657 3.698 0 6.087 2.093 6.087 5.33v1.315zM16.829 9.437l-.73 3.616a.467.467 0 00.689.5L20 11.74l3.213 1.813a.468.468 0 00.69-.501l-.731-3.616 2.717-2.495a.47.47 0 00-.264-.811l-3.664-.422-1.534-3.356a.47.47 0 00-.853 0L18.04 5.71l-3.665.42a.47.47 0 00-.263.812l2.717 2.495zm1.582-2.827a.468.468 0 00.372-.27L20 3.675l1.218 2.663c.068.15.209.252.372.271l2.909.335-2.156 1.98a.468.468 0 00-.143.438l.58 2.87-2.55-1.44a.465.465 0 00-.46 0l-2.55 1.44.58-2.87a.468.468 0 00-.142-.438l-2.156-1.98 2.909-.336zM3.31 16.798a.467.467 0 00.69.5l3.212-1.813 3.213 1.813a.467.467 0 00.506-.03.468.468 0 00.184-.471l-.732-3.616 2.717-2.495a.47.47 0 00-.263-.811l-3.665-.422L7.64 6.098a.469.469 0 00-.853 0L5.252 9.454l-3.665.422a.47.47 0 00-.263.81l2.717 2.496-.731 3.616zm-.596-6.108l2.908-.335a.469.469 0 00.373-.27L7.212 7.42l1.217 2.663c.068.15.21.253.373.271l2.909.335-2.157 1.98a.468.468 0 00-.142.439l.58 2.87-2.55-1.44a.47.47 0 00-.46 0l-2.55 1.44.58-2.87a.468.468 0 00-.142-.439l-2.156-1.98zm36.092-.494a.47.47 0 00-.392-.321l-3.665-.422-1.534-3.355a.47.47 0 00-.853 0L30.83 9.453l-3.665.422a.47.47 0 00-.264.81l2.718 2.496-.732 3.616a.467.467 0 00.69.5l3.213-1.813L36 17.298a.468.468 0 00.69-.502l-.731-3.615 2.717-2.496a.467.467 0 00.129-.489zM35.13 12.67a.468.468 0 00-.142.439l.58 2.87-2.55-1.44a.47.47 0 00-.46 0l-2.55 1.44.58-2.87a.468.468 0 00-.142-.439l-2.157-1.98 2.909-.335a.469.469 0 00.372-.27l1.22-2.665 1.217 2.663c.068.15.21.253.373.271l2.908.335-2.156 1.98z" fill="#fff"/></svg>