<svg width="40" height="40" fill="none" xmlns="http://www.w3.org/2000/svg"><path d="M40 2.248C40 .999 39.04 0 37.842 0H3.823c-1.2 0-2.158.999-2.158 2.248 0 1.186.898 2.185 2.036 2.248v23.227c0 1.249 1.019 2.31 2.217 2.31h8.086l-3.355 9.054c-.12.312.06.687.36.811.3.125.659-.062.778-.374l3.474-9.49h4.433v8.054c0 .374.24.624.599.624s.599-.25.599-.624v-7.992h4.671l3.474 9.49c.12.312.48.5.78.375.298-.125.478-.5.358-.812l-3.354-9.053h8.925c1.198 0 2.216-1.062 2.216-2.31V4.557c1.138-.125 2.036-1.061 2.036-2.31zm-4.253 26.599H5.919c-.54 0-1.019-.5-1.019-1.062V4.558h31.865v23.227c0 .562-.42 1.062-1.018 1.062zm2.096-25.538H3.883c-.6 0-1.02-.437-1.02-1.061 0-.625.42-1 .96-1h33.96c.6 0 1.018.438 1.018 1s-.419 1.061-.958 1.061z" fill="#fff"/><path d="M21.491 7.68h-8.445c-.36 0-.599.25-.599.624 0 .375.24.625.6.625h8.444c.36 0 .6-.25.6-.625 0-.374-.24-.624-.6-.624zm-11.44-.624L8.794 8.179l-.18-.187c-.18-.25-.599-.312-.839-.125-.24.188-.3.625-.12.874l.54.75c.24.25.599.312.838.062l1.737-1.56c.24-.25.3-.625.06-.875-.12-.25-.539-.312-.779-.062zm11.44 6.181h-8.445c-.36 0-.599.25-.599.624 0 .375.24.625.6.625h8.444c.36 0 .6-.25.6-.625 0-.312-.24-.624-.6-.624zm-11.44-.624l-1.257 1.124-.18-.188c-.18-.25-.599-.312-.839-.125-.24.188-.3.625-.12.875l.54.749c.12.125.24.187.419.25h.06c.12 0 .3-.063.42-.125l1.736-1.561c.24-.25.3-.625.06-.874-.18-.313-.599-.313-.839-.125zm11.44 6.244h-8.445c-.36 0-.599.25-.599.624 0 .375.24.624.6.624h8.444c.36 0 .6-.25.6-.624 0-.312-.24-.625-.6-.625zm-11.44-.625l-1.257 1.124-.18-.187c-.18-.25-.599-.313-.839-.125-.24.187-.3.624-.12.874l.54.75c.24.249.599.312.838.062l1.737-1.561c.24-.25.3-.625.06-.874-.12-.25-.539-.313-.779-.063zm11.44 6.244h-8.445c-.36 0-.599.25-.599.624 0 .375.24.625.6.625h8.444c.36 0 .6-.25.6-.625 0-.374-.24-.624-.6-.624zm-11.44-.624l-1.257 1.124-.18-.188c-.18-.25-.599-.312-.839-.125-.24.188-.3.625-.12.875l.6.686c.24.25.599.313.838.063l1.737-1.561c.24-.25.3-.625.06-.874-.18-.25-.599-.25-.839 0zm25.277-10.178l-.78-2.185a.633.633 0 00-.299-.375.636.636 0 00-.479 0l-2.156 1c-.3.124-.42.499-.3.81.12.313.48.438.78.313l.778-.375-1.258 3.684-3.115-2.372c-.12-.125-.3-.125-.479-.125-.18.062-.3.187-.42.312l-2.275 5.058c-.12.312 0 .686.3.811.299.125.658 0 .778-.312l1.977-4.37 3.114 2.372c.3.25.779.125.899-.312l1.497-4.184.24.625c.12.312.479.5.778.374.36-.062.48-.374.42-.749z" fill="#fff"/></svg>