<svg width="122" height="88" fill="none" xmlns="http://www.w3.org/2000/svg"><g opacity=".3" filter="url(#filter0_d_34_6946)" stroke="#EBECED"><path opacity=".8" d="M17.241 74.987s14.512 7.848 19.56 2.7c3.76-3.835 2.728-15.344 2.728-15.344s8.84 8.954 12.907 6.474c3.984-2.43.731-14.212.731-14.212s6.443 8.683 10.579 7.795c4.947-1.061 1.73-14.778 1.73-14.778s5.568 8.949 9.58 8.362c4.847-.709 1.065-14.4 1.065-14.4s4.903 8.863 8.915 8.738c5.095-.158 1.397-14.589 1.397-14.589s6.04 8.39 10.245 7.984c5.452-.526-1.277-11.826 2.728-15.344 4.898-4.301 17.897 3.643 17.897 3.643"/><path opacity=".8" d="M11.143 64.237s14.512 7.848 19.56 2.7c3.76-3.835 2.728-15.344 2.728-15.344s8.84 8.954 12.907 6.474c3.985-2.43.732-14.212.732-14.212s6.443 8.683 10.578 7.795c4.948-1.061 1.73-14.778 1.73-14.778s5.568 8.949 9.58 8.362c4.847-.709 1.065-14.4 1.065-14.4s4.903 8.863 8.915 8.738c5.096-.158 1.397-14.589 1.397-14.589s6.04 8.39 10.246 7.984c5.451-.526-1.278-11.826 2.727-15.344 4.898-4.301 17.897 3.643 17.897 3.643"/><path opacity=".8" d="M5.046 53.487s14.511 7.848 19.56 2.7c3.76-3.835 2.727-15.344 2.727-15.344s8.84 8.954 12.907 6.474c3.985-2.43.732-14.212.732-14.212s6.443 8.683 10.579 7.795c4.947-1.061 1.73-14.778 1.73-14.778s5.567 8.949 9.58 8.362c4.847-.709 1.064-14.4 1.064-14.4s4.904 8.863 8.915 8.738c5.096-.158 1.397-14.589 1.397-14.589s6.04 8.39 10.246 7.984c5.452-.526-1.278-11.826 2.728-15.344 4.898-4.301 17.897 3.644 17.897 3.644"/></g><defs><filter id="filter0_d_34_6946" x=".809" y="5.096" width="120.754" height="82.841" filterUnits="userSpaceOnUse" color-interpolation-filters="sRGB"><feFlood flood-opacity="0" result="BackgroundImageFix"/><feColorMatrix in="SourceAlpha" values="0 0 0 0 0 0 0 0 0 0 0 0 0 0 0 0 0 0 127 0" result="hardAlpha"/><feOffset dy="4"/><feGaussianBlur stdDeviation="2"/><feComposite in2="hardAlpha" operator="out"/><feColorMatrix values="0 0 0 0 0 0 0 0 0 0 0 0 0 0 0 0 0 0 0.25 0"/><feBlend in2="BackgroundImageFix" result="effect1_dropShadow_34_6946"/><feBlend in="SourceGraphic" in2="effect1_dropShadow_34_6946" result="shape"/></filter></defs></svg>