<svg width="50" height="120" fill="none" xmlns="http://www.w3.org/2000/svg"><g opacity=".5" fill="#00001B"><path d="M38.902 113.597c-1.928.973-3.938 1.738-6.129 2.072-.377.058-.644.242-.913.465-1.314 1.088-2.567 2.244-4.175 3.009-.873.415-1.767.755-2.759.839-2.772.236-4.777-1.905-4.122-4.432.427-1.649 1.474-3.011 2.622-4.309.28-.317.422-.627.476-1.033.232-1.737 1.06-3.283 2.03-4.771.311-.476.671-.927 1.01-1.389h.004l.01-.03-.007.019-.008.011c-.21-.022-.351.107-.509.195-2.273 1.278-4.633 2.389-7.228 3.052a.93.93 0 00-.472.265c-1.68 1.78-3.721 3.124-6.103 4.052-.996.388-2.01.541-3.062.215-1.618-.502-2.54-1.942-2.256-3.608.293-1.723 1.08-3.238 2.53-4.434.183-.151.304-.309.368-.53.546-1.891 1.556-3.586 2.718-5.22 2.346-3.3 5.164-6.276 7.882-9.32 1.584-1.773 3.195-3.526 4.786-5.294.14-.156.355-.282.372-.583-.49.186-.95.343-1.395.531-2.485 1.052-5.162 1.344-7.842 1.623-.9.094-1.805.147-2.705.236-.388.04-.574-.017-.523-.432.097-.775.161-.792 1.251-.904 2.413-.248 4.852-.353 7.195-1.007a36.621 36.621 0 004.846-1.74c.759-.333 1.403-.81 1.895-1.439.476-.607.957-1.21 1.397-1.856-2.475 1.614-5.29 2.49-8.188 3.183-2.007.48-4.065.65-6.137.743-2.07.094-4.15.023-6.21.255-1.6.18-3.013.781-4.188 1.788-1.228 1.053-2.154 2.306-2.749 3.725-.445 1.06-.33 2.202-.273 3.31a8.37 8.37 0 001.025 3.578c.113.209.272.397.444.643.443-.43.421-.924.44-1.396.048-1.242-.037-2.485.116-3.729.303-2.467 1.729-4.116 4.308-4.973.224-.074.448-.147.674-.215.784-.236.814-.205.984.505.088.366-.081.492-.428.59-.773.222-1.525.482-2.203.906-1.74 1.088-2.15 2.69-2.195 4.453-.029 1.134.12 2.276-.158 3.4a2.88 2.88 0 01-.239.67c-.628 1.17-1.948 1.4-3 .509-1.178-1-1.687-2.282-1.708-3.703-.036-2.474.863-4.71 2.236-6.823 1.943-2.99 5.005-4.406 8.627-5.106 2.536-.49 5.11-.531 7.681-.65 3.124-.143 6.16-.623 8.984-1.907.555-.253 1.097-.53 1.538-.93.167-.15.496-.258.349-.56-.128-.261-.406-.252-.677-.25-.692.004-1.385.02-2.076-.006-2.173-.08-4.178-.668-5.975-1.759-2.535-1.538-3.647-3.823-4.073-6.455-.336-2.075-.106-4.095.557-6.102 1.152-3.49 2.63-6.849 4.75-9.963 1.09-1.6 2.38-3.061 3.857-4.381 2.444-2.183 5.266-2.827 8.51-1.588.918.35 1.9.591 2.667 1.21.214.171.337.037.475-.087.403-.365.787-.752 1.218-1.088.426-.333.468-.52-.074-.822-2.864-1.603-5.184-3.705-6.907-6.32-4.347-6.593-3.66-14.935 1.745-21.265 1.08-1.265 2.294-2.417 3.687-3.401.442-.312.398-.504.067-.85-1.987-2.086-3.978-4.17-5.81-6.369-.243-.292-.457-.213-.731-.122a3.898 3.898 0 01-2.654-.05c-1.095-.406-1.82-1.109-1.959-2.192-.173-1.355.28-2.527 1.345-3.519 1.113-1.036 2.99-.844 4.344-.253 1.226.536 1.837 1.817 1.55 3.188-.084.409.02.663.297.973a521.408 521.408 0 015.951 6.763c.375.435.648.536 1.178.207C43.76 9.947 46.89 9.483 50 9.062v.73c-3.08.41-5.793 1.667-8.318 3.433 2.516-1.663 5.338-2.492 8.318-3.008v.572l-.275.046c-2.56.418-4.901 1.346-7.111 2.56-.356.196-.59.365-.371.808.167.337.084.718-.24 1.011-.59.538-1.61.594-2.248.104a3.161 3.161 0 01-.537-.515c-.207-.255-.387-.211-.655-.067-.568.308-.935.79-1.376 1.207-1.754 1.665-3.181 3.53-4.227 5.625-.196.392-.34.795-.422 1.22-.368 1.907-.494 3.812-.314 5.752.273 2.949 1.028 5.783 2.344 8.48 2.277 4.665 5.946 7.918 11.674 8.98.629.116 1.252.282 2.027.295-.195-.098-.274-.146-.36-.18-5.5-2.138-8.999-5.87-10.738-10.973a14.643 14.643 0 01-.618-7.127c.093-.584.38-.7 1.361-.59.665.072.285.48.263.735-.1 1.162-.287 2.321-.017 3.565.84-.806 1.796-1.33 2.767-1.823.38-.192.515-.423.599-.787.596-2.588 2.012-4.747 4.28-6.44 1.259-.94 2.677-1.556 4.194-1.968v1.208c-.036.007-.073.013-.108.022-1.585.413-2.968 1.147-4.202 2.124-.231.183-.193.323-.04.542 1.279 1.821 2.705 3.531 4.35 5.082v1.112c-1.908-1.717-3.782-3.465-5.59-5.31-.199.263-.34.435-.464.617-.136.201-.26.41-.383.618-1.392 2.351-1.192 4.778-.498 7.258.931 3.327 2.971 6.105 5.205 8.8A7.767 7.767 0 0050 44.345v3.7c-3.133-.177-6.104-.882-8.915-2.157-.364-.166-.619-.192-.94.09-.631.555-1.33 1.045-1.968 1.593-1.576 1.355-3.012 2.816-3.898 4.637-1.219 2.506-2.567 4.96-3.554 7.558-1.34 3.531-1.986 7.123-1.475 10.85.279 2.034 1.096 3.82 2.788 5.267 1.904 1.63 4.177 2.622 6.659 3.255 3.714.95 7.48 1.51 11.303 1.62V82.3a51.973 51.973 0 01-5.93-.445c-3.762-.5-7.475-1.2-10.77-3.055-.271-.153-.471-.126-.703.044-.925.676-1.86 1.339-2.76 2.044-1.998 1.566-3.522 3.493-5.15 5.34-3.273 3.716-6.731 7.307-9.68 11.244-1.635 2.18-2.472 4.609-2.234 7.283.127 1.437.435 1.812 2.012 1.983 1.884.204 3.7-.177 5.466-.735 2.886-.911 5.444-2.37 7.956-3.902.415-.253.843-.496 1.174-.839 2.481-2.557 5.274-4.846 7.82-7.348 1.815-1.783 3.815-3.43 5.034-5.646.167-.303.43-.567.758-.76.234-.138.477-.194.724-.021.23.16.219.377.131.585-.127.3-.258.602-.435.88-.818 1.284-1.657 2.557-2.693 3.715-2.367 2.65-4.93 5.138-7.833 7.316-1.575 1.181-2.853 2.57-4.115 4.004-1.065 1.211-1.695 2.465-1.602 4.051.11 1.882.078 3.766.924 5.55.193.407.458.6.93.664 1.435.196 2.85.158 4.259-.166 3.01-.692 5.651-2.072 8.15-3.66 3.245-2.06 6.009-4.561 8.567-7.261v2.106c-3.213 3.289-6.819 6.165-11.098 8.325zM3.572 95.371c-1.342-1.695-1.677-3.516-1.736-5.544-.758 2.532.004 5.079 1.737 5.544zm7.465-13.923c3.707-.147 7.443-.012 11.059-.943-3.678.472-7.444-.014-11.059.943zm18.498-80.17l-.001.001-.01.005c-1.249.525-1.922 1.983-1.44 3.12.084.199.161.406.438.454l.017.032-.007-.023c-.643-1.314-.33-2.434 1.002-3.588zm2.5.382c-.373-.334-.775-.742-1.413-.519-1.04.362-1.925 1.518-1.942 2.506-.016.967.8 1.797 1.67 1.7 1.148-.13 2.24-1.226 2.258-2.36-.055-.425-.153-.95-.574-1.327zm8.096 13.064c.348.51.591.045.85-.081.347-.17.215-.336-.017-.535-.498-.43-.997-.866-1.44-1.341-2.162-2.318-4.253-4.686-6.217-7.143-.102-.129-.16-.322-.427-.319l-.604.577c1.874 1.649 3.431 3.439 4.96 5.25.995 1.177 2.032 2.328 2.895 3.592zm-3.438 26.469l-.151-.124-.173-.13-.01-.01c.035-.16-.09-.27-.174-.386-3.184-4.377-4.558-9.214-4.533-14.407 0-.107.013-.216-.002-.321-.014-.103.067-.229-.112-.34-1.076 5.853.365 11.032 4.82 15.453 0 .007 0 .013-.003.02l.175.132.152.122.033.022-.022-.031zm9.559-14.964c.003.009.008.017.012.026l.018.013c.018.06.062.09.127.095l.02.015.021.023-.007-.035c-.013 0-.023-.002-.034-.003l-.127-.095c-.002-.007-.006-.013-.008-.022l-.022-.017c-.252-.58-.699-1.036-1.192-1.46.206.61.641 1.072 1.192 1.46zm-5.057 4.34c-.437.32-.911.595-1.317 1.026 1.526-.375 1.68-.49 1.317-1.027zm.118.987l-2.143.842c.79.842 1.831 1.35 2.619 2.102l.002.013h.01c.002 0 .003.002.004.003l.026-.004h-.03l-.012-.012-.476-2.944zm6.556 12.472c-2.094-2.32-4.029-4.728-5.257-7.534A1.418 1.418 0 0042 35.8c-.944-.523-1.676-1.264-2.499-1.912-.356-.282-.689-.6-1.2-.822.55 2.694 1.708 5.04 3.543 7.102 1.723 1.936 3.822 3.444 6.405 4.369l.002.012.012-.007-.014-.005c-.022-.232-.237-.351-.38-.51zM19.383 60.985v.285a.248.248 0 00-.01.031l-.003.025c-.346.345-.359.804-.49 1.217-.823 2.6-.644 5.154.519 7.643.393.842.919 1.614 1.796 2.135l.01.024.023.022-.01-.032c-.008-.004-.015-.01-.023-.013-.433-1.005-.917-1.996-1.288-3.02-.946-2.611-.835-5.291-.537-7.976l.013-.014v-.042c.032-.082.097-.164 0-.285zm10.862-14.513l-.007.003-.003.001c-.098.028-.234-.005-.272.12l-.02.008-.034.023c-1.066.232-1.906.822-2.618 1.515-3.213 3.128-5.654 6.665-6.856 10.826-.57 1.969-.884 4.87-.677 6.318.132-.866.205-1.587.357-2.295.73-3.409 2.245-6.562 3.906-9.67 1.407-2.634 3.223-4.964 5.888-6.694.016-.004.031-.008.047-.01.001-.009.004-.014.007-.021l.275-.12c.011-.005.023-.008.035-.012l-.028.008zm5.844 2.002c.241-.244.523-.47.696-.834-1.474-.445-2.842-1.005-4.305-1.33-.496-.11-.905-.035-1.348.205-1.995 1.083-3.68 2.478-4.906 4.242-2.985 4.298-5.194 8.87-5.892 13.965-.393 2.864.071 5.537 1.774 8.01.203.294.404.565.772.727 1.82.803 3.768 1.155 5.904 1.417-.602-.959-1.073-1.82-1.433-2.727-1.275-3.213-.972-6.424.095-9.603 1.76-5.24 4.586-9.964 8.643-14.072zm-4.404 7.553a.83.83 0 01.004-.036l.14-.23-.002-.003.018-.061c-.014.007-.04.015-.04.02.003.014.013.027.022.04l-.004.014c-.092.053-.122.132-.134.22l-.016.024c-.017.02-.035.038-.053.057l.064-.045zm-2.448 6.54c.418-1.699 1.109-3.329 1.719-4.977l.024-.015c-.003-.008-.004-.016-.005-.024.095-.108.084-.24.098-.366l.018-.022.003-.016c.112-.029.106-.13.146-.203l.024-.01.005-.12-.016.108-.013.022c-.093.04-.13.115-.146.203-.006.001-.01.004-.017.005l-.004.033a.412.412 0 00-.098.366l-.01.011-.01.028c-.05.03-.11.056-.129.098-1.454 3.117-2.6 6.303-2.606 9.732-.002.893.028 1.788.364 2.645.03-.213.051-.426.027-.635-.267-2.323.07-4.606.625-6.864zm.704 17.638h.004l.037-.034.13-.094.02-.035c.713-.625 1.58-1.085 2.336-1.728-.311-.02-.454-.593-.755-.248-.554.637-1.192 1.23-1.58 1.976l-.032.026-.119.103-.04.03-.001.004a7.004 7.004 0 01-.049.01c.032.048.048.044.049-.01zM12.143 105.71v.013l.01-.001.004.005.031-.01-.035.005-.01-.012c.014-.822-.536-1.532-.504-2.358-.417.926-.302 1.393.504 2.358zm.495-4.748l-.008.09-.015.011-.005.031c-.82.915-.53 1.935-.327 2.946-.105-1.001.168-1.968.327-2.946l.018-.021.002-.021.077-.058-.069-.032zm-2.496 3.823c-.948 1.215-1.513 2.481-1.613 3.875-.095 1.328.977 2.237 2.459 2.153 1.205-.069 2.237-.589 3.209-1.168.768-.457 1.388-1.083 2.026-1.877-2.776.072-5.016-.471-6.08-2.983zm6.078 3.756l1.267-.854c-.902-.15-.994.451-1.267.854zm6.032 9.034c.144-1.869 1.032-3.55 1.66-5.301-1 1.655-2.446 3.207-1.66 5.301zm3.592-8.821c-.196.41-.367.815-.43 1.232-.196 1.317-.162 2.584 1.231 3.449l.024.011-.03-.019c-.73-1.489-1.01-3.041-.795-4.673zm.93-1.392c-.97 2.335-.442 5.913 1.124 6.593-1.172-2.117-1.13-4.31-1.125-6.593zm-2.625 5.474c-.6 1.47-1.22 2.811-1.352 4.27-.122 1.35.341 1.741 1.863 1.677a2.32 2.32 0 00.354-.034c2.2-.444 3.936-1.631 5.856-2.905-2.81-.151-5.297-.548-6.721-3.008z"/><path d="M36.78 65.407c-.423-.877-.335-1.076.705-1.498.105.214.212.428.316.642.486 1.004 1.005 1.992 1.682 2.907.148.2.257.388.61.227 1.7-.775 3.22-1.75 4.49-3.038.278-.282.185-.47-.002-.726-.956-1.306-1.4-2.76-1.506-4.307-.044-.642-.074-1.284-.128-1.925-.124-1.481-.852-2.7-2.026-3.721a1.848 1.848 0 00-1.013-.433c-1.593-.202-3.574 1.198-3.725 2.729-.114 1.15-.156 2.313.05 3.466.174.964.099 1.073-.982 1.5-.162-.123-.155-.304-.198-.468-.38-1.437-.394-2.9-.246-4.353.156-1.528.523-3.013 1.762-4.192 1.164-1.107 2.64-1.326 4.077-.53 1.652.916 2.594 2.327 3.069 3.963.373 1.286.313 2.637.435 3.96.16 1.722.811 3.256 2.045 4.578a5.318 5.318 0 002.15 1.402c.082-.257-.015-.415-.046-.581-.354-1.9-.84-3.782-.794-5.733.036-1.473.572-2.72 1.738-3.753.245-.217.497-.423.757-.62v1.639c-.334.581-.525 1.24-.586 1.971-.163 1.955.113 3.86.586 5.744v3.046c-.231.015-.28.198-.357.377-.57 1.313-1.35 2.506-2.48 3.497-.268.236-.552.46-.892.74 1.249.427 2.442.623 3.65.717l.079.006v1.214c-6.069-.515-10.647-3.114-13.22-8.447zm-.2-10.767c1.232-1.17 1.39-1.245 3.095-1.525-1.123-.736-2.621-.033-3.095 1.525zm5.527-.057c-.004-.001-.005-.004-.008-.005.002-.102.004-.202-.122-.256-.406-1.189-1.334-1.907-2.627-2.223-.636-.155-1.256-.029-1.633.548l-.026.009-.039.015.051-.004.014-.02c1.2-.45 2.206-.128 3.094.647.39.341.771.69 1.157 1.036-.005.104.03.19.13.248v.006l.027.014-.018-.015zm7.608 11.042c.038.154-.01.354.235.427.074-.18-.012-.335-.059-.5-.494-1.738-.844-3.496-.916-5.296-.047-1.185.126-2.34.435-3.484v-.001l.03-.023-.024.016-.006.007c-.99 1.199-1.144 2.578-.881 3.972.31 1.64.78 3.256 1.185 4.882zm-5.087 5.736c.243.106.444.092.66-.057a12.091 12.091 0 003.616-3.927c.155-.266.053-.386-.227-.475-.718-.228-1.377-.568-2.099-.936-.93 1.758-2.31 3.132-4.193 4.162.748.494 1.47.899 2.242 1.233zm-2.446-2.421c1.369-.773 2.39-1.865 3.35-3.018.37-.443.307-.704-.27-1.016-1.094 1.747-2.843 2.794-4.701 3.727.693.755.763.792 1.621.307zm4.006-31.296c-1.132-.87-1.752-2.027-1.46-3.38.478-2.21 3.065-3.402 5.272-2.765v1.068l-.004-.004c-.232-.189-.51-.317-.841-.296-1.599.102-2.88.546-2.767 2.373.014.643.08 1.274.437 1.856.506.822 1.128 1.075 2.13.83.388-.095.74-.227 1.045-.404v1.05l-.06.028c-1.327.568-2.63.508-3.752-.356zm-.193-1.988l-.003-.013-.012-.017v-1.473c-.33.503-.395.998 0 1.474v.025l.015.004.04.204c.018-.01.05-.018.05-.03.011-.076.01-.15-.09-.174z"/><path d="M36.624 61.734c.527.976.519.999-.573 1.694-.69-.8-.621-1.014.573-1.694zM48.93 32.93c.491.007.72.304.726.708.007.397-.232.632-.824.613-.344-.038-.633-.245-.614-.686.017-.396.261-.642.712-.635z"/></g></svg>