<svg width="76" height="95" fill="none" xmlns="http://www.w3.org/2000/svg"><g opacity=".56" fill="#006766"><path d="M12.522 94.41c1.368.106 2.729.025 4.085-.157 2.104-.284 4.162-.779 6.193-1.391 8.181-2.468 15.716-6.281 22.796-11.02 2.504-1.677 4.887-3.523 7.19-5.468 3.355-2.833 6.449-5.918 9.127-9.404 2.279-2.965 4.18-6.148 5.46-9.678 2.046-5.639 2.224-11.332.354-17.039-2.152-6.567-6.14-11.822-11.388-16.147a.478.478 0 01.06-.096c.142.05.278.083.4.144 1.105.563 2.008 1.387 2.884 2.245 1.008.987 1.988 2.005 3.036 2.948 1.265 1.14 2.785 1.731 4.488 1.836.423.026.847.054 1.27.053 1.835-.004 3.67-.014 5.506-.033a4.81 4.81 0 00.98-.094c.59-.13.852-.662.575-1.186a4.546 4.546 0 00-.645-.92c-1.96-2.163-3.967-4.28-6.261-6.1-2.673-2.12-5.673-3.504-9.06-4.01-.28-.041-.562-.076-.835-.142-.12-.03-.222-.13-.406-.244.16-.166.262-.316.402-.41 1.494-1.015 2.75-2.286 3.879-3.68a202.242 202.242 0 003.562-4.56 8.23 8.23 0 00.888-1.437c.57-1.195.362-2.212-.68-3.012a10.29 10.29 0 00-2.056-1.217c-.767-.343-1.58-.629-2.404-.788-1.455-.282-2.355.26-2.877 1.633-.216.57-.334 1.177-.52 1.76-.412 1.299-.785 2.614-1.273 3.885-.631 1.644-1.61 3.089-2.872 4.32-1.632 1.593-3.612 2.503-5.852 2.869-.036.006-.08-.033-.199-.085.125-.29.277-.577.372-.88.237-.762.544-1.517.652-2.299.395-2.855-.555-5.282-2.53-7.331-1.253-1.3-2.751-2.274-4.305-3.172-2.077-1.2-4.149-2.41-6.224-3.616-.203-.118-.404-.244-.62-.335-.81-.342-1.361-.108-1.688.708a1.93 1.93 0 00-.126.404c-.349 2.067-.43 4.117.394 6.11.123.296.215.604.378 1.067-.408-.141-.675-.206-.917-.32-2.837-1.348-5.827-1.784-8.94-1.548-2.345.178-4.694.323-7.04.495-.372.028-.758.068-1.103.196-.773.287-.944 1.112-.39 1.711a2.1 2.1 0 00.208.19c.99.817 2.055 1.49 3.33 1.777.964.218 1.928.44 2.885.688 1.434.371 2.744 1.01 3.829 2.028l.126.122c-3.777.352-7.325 1.428-10.576 3.443-3.012 1.867-5.414 4.356-7.369 7.294-1.812 2.723-3.146 5.675-4.19 8.765-.937 2.771-1.626 5.606-2.159 8.479A142.86 142.86 0 00.162 60.12c-.315 5.842-.205 11.671.64 17.472.382 2.614.946 5.185 1.809 7.685.586 1.698 1.343 3.307 2.356 4.802 1.818 2.685 4.351 4.082 7.555 4.33zm42.507-77.427c1.651-1.324 2.8-3.016 3.658-4.927.638-1.421 1.047-2.913 1.4-4.425.149-.64.308-1.279.517-1.9.168-.498.498-.675.988-.557 1.25.302 2.367.895 3.406 1.635.312.222.363.524.2.874a3.358 3.358 0 01-.35.61c-1.814 2.393-3.575 4.832-5.741 6.933-1.089 1.056-2.322 1.904-3.765 2.412a3.002 3.002 0 01-.545.13c-.086.012-.18-.03-.478-.09.32-.316.499-.526.71-.695zm7.773 4.234c.62.225 1.224.49 1.811.79 2.273 1.16 4.252 2.814 6.078 4.58.463.447.917.904 1.367 1.365.289.296 1.2.959 1.26 1.37a.333.333 0 01-.01.151c-.134.406-1.17.201-1.482.178-.655-.05-1.307-.137-1.963-.184-1.324-.095-2.682-.03-3.948-.43-2.356-.744-3.916-2.916-5.858-4.445-2.344-1.845-5.269-2.754-8.122-3.626-.36-.11-.9-.119-.957.254 2.249 1.437 4.114 3.484 5.28 5.884 1.167 2.4 1.623 5.15 1.232 7.791-.13.883-.369 1.784-.938 2.472-.63-.402-.931-1.146-1.222-1.835-.866-2.056-1.958-4.03-3.387-5.744-1.163-1.394-2.54-2.607-3.615-4.07-1.074-1.463-1.842-3.282-1.532-5.07.041-.235.119-.493.327-.608.148-.082.329-.072.498-.06 5.09.347 10.384-.5 15.18 1.237zM36.166 8.093c-.713-2.177-1.294-4.479-.932-6.74V1.35L41.8 5.418c1.298.804 2.607 1.617 3.711 2.671 2.768 2.642 3.338 6.935.814 9.97-.147.176-.32.355-.546.394-.337.057-.631-.213-.862-.465-2.13-2.32-3.991-4.927-6.489-6.846-.497-.382-1.024-.742-1.411-1.235-.415-.528-.642-1.176-.851-1.814zm-15.85 1.594c-.246-.047-.544-.14-.588-.387-.058-.323.362-.497.686-.548 3.066-.479 6.198-.958 9.255-.426 3.313.577 6.335 2.32 8.897 4.498 1.32 1.122 2.534 2.363 3.69 3.652.914 1.017 2.628 2.453 3.089 3.734l.007.021c-2.066.981-5.191.492-7.292-.141-2.403-.724-4.604-2.04-6.512-3.67-1.947-1.665-3.632-3.678-5.856-4.95-1.647-.942-3.512-1.43-5.376-1.783zM6.465 86.178c-.98-2.103-1.504-4.354-1.916-6.628-.64-3.53-.916-7.096-.95-10.678-.087-9.546.91-18.988 2.827-28.334.606-2.955 1.425-5.854 2.544-8.662.997-2.503 2.224-4.882 3.832-7.053 2.98-4.023 6.894-6.633 11.798-7.673 1.47-.312 2.982-.423 4.476-.624.294.346.591.688.905 1.014 2.86 2.973 6.232 4.828 10.48 4.74.376-.008.754.026 1.129.008 1.215-.06 2.43-.134 3.806-.212.057.368.102.692.157 1.013.267 1.565.92 2.962 1.885 4.21a25.81 25.81 0 001.647 1.934c1.818 1.925 3.469 3.967 4.637 6.365.288.592.586 1.182.925 1.745.265.438.553.884.917 1.236.545.526 1.215.554 1.794.085.356-.288.714-.653.897-1.061.36-.81.735-1.654.867-2.52.2-1.307.26-2.583.153-3.82 1.68 2.076 3.134 4.305 4.258 6.748 1.976 4.292 2.788 8.77 2.046 13.48-.467 2.963-1.496 5.73-2.923 8.357-1.31 2.409-2.909 4.616-4.68 6.703-3.738 4.41-8.114 8.115-12.8 11.461-4.224 3.016-8.713 5.595-13.4 7.817-3.535 1.675-7.16 3.127-10.928 4.196-1.859.528-3.736.968-5.665 1.15-1.224.115-2.445.138-3.656-.12-1.438-.304-2.655-.996-3.497-2.207a18.168 18.168 0 01-1.565-2.67z"/><path d="M47.2 41.398c-.574 3.027-1.568 5.912-3.055 8.609a90.994 90.994 0 01-3.08 5.222c-2.136 3.327-4.489 6.502-6.988 9.563-3.959 4.849-8.281 9.367-12.638 13.855a30.454 30.454 0 01-5.576 4.514c-.397.251-.788.514-1.167.793-.135.099-.317.215-.157.616.202-.058.392-.08.547-.164.828-.447 1.651-.902 2.468-1.368 2.845-1.622 5.243-3.808 7.598-6.047 2.796-2.66 5.352-5.547 7.932-8.412 5.511-6.12 10.099-12.864 13.712-20.263a45.989 45.989 0 001.925-4.542c1.067-2.955 1.48-6.022 1.279-9.16a16.21 16.21 0 00-.307-2.233c-.16-.776-.478-1.15-.76-1.02-.481.224-.388.713-.414 1.109-.201 3.012-.759 5.97-1.32 8.928zM27.835 35.98c-2.357 3.394-4.043 7.117-5.216 11.06-1.262 4.238-2.499 8.486-3.587 12.77-1.332 5.243-2.5 10.527-3.736 15.794-.527 2.244-1.056 4.488-1.568 6.735-.089.388-.297.796.058 1.307.515-.474.557-1.013.694-1.5 2.294-8.152 4.612-16.296 6.654-24.516.748-3.015 1.571-6.008 2.624-8.934 1.844-5.13 4.338-9.902 7.791-14.145 1.16-1.425 2.403-2.768 3.86-3.903a23.9 23.9 0 015.345-3.124c.514-.219.994-.52 1.474-.81.085-.052.146-.253.116-.354-.031-.1-.196-.233-.295-.227-.371.023-.754.05-1.106.16-2.298.72-4.499 1.667-6.52 2.99-2.678 1.753-4.776 4.09-6.588 6.697zM7.832 45.22c.118-.123.158-.3.193-.467.855-4.074 1.915-8.132 3.647-11.917 1.731-3.786 4.168-7.309 7.435-9.888.878-.693 1.81-1.313 2.76-1.904.214-.134 1.28-.602 1.258-.875a.332.332 0 00-.005-.04c-.076-.356-.755-.142-.978-.065-1.474.508-2.796 1.381-4 2.37-3.287 2.698-5.776 6.29-7.504 10.174-1.728 3.886-2.72 8.066-3.309 12.277-.017.125-.03.266.05.362.109.132.334.096.453-.027z"/><path d="M24.813 72.514l.01-.004c.687-.256 1.215-.809 1.716-1.344l4.46-4.76c1.736-1.853 3.473-3.707 5.058-5.689.593-.743 1.172-1.514 1.536-2.393.16-.384.68-1.87-.283-1.654-.228.05-.408.222-.571.389-1.453 1.485-2.628 3.213-3.86 4.886-2.26 3.066-4.733 5.967-7.195 8.873-.42.495-.861 1.047-.872 1.696zm14.46-42.558c-3.21 1.976-5.875 4.765-7.972 7.896-2.098 3.132-3.646 6.605-4.881 10.166-.233.669-.455 1.346-.557 2.046.449-.116.712-.568.921-.981 1.645-3.253 2.959-6.681 4.877-9.78a29.022 29.022 0 018.073-8.518c.493-.343 1.671-.998 1.711-1.669-.663-.151-1.63.508-2.172.84zM23.116 57.268c-.134.139-.208.323-.277.503-.04.104-.078.21-.116.314-.95 2.629-1.552 5.41-2.234 8.117l-1.095 4.354-.548 2.176-.285 1.132c-.035.14-.312.854-.241.958-.14.554-.27 1.178.028 1.666.472-.264.67-.829.828-1.346.873-2.835 1.737-5.673 2.593-8.514.524-1.737 1.044-3.476 1.488-5.235.287-1.14.543-2.29.664-3.457.032-.308.007-.7-.281-.816-.179-.071-.39.01-.524.148zm26.153 1.73c-.618-.462-1.253-.904-1.934-1.268-.274-.147-.565-.283-.875-.305-.31-.023-.648.09-.818.351-.157.243-.14.567-.024.831.044.099.1.19.163.277.107.145.236.276.367.401.597.566 1.285 1.059 1.95 1.517 1.382.95 2.8 1.85 4.25 2.693.325.19.655.377 1.011.498.204.07.432.116.63.032 1.025-.433-1.618-2.514-1.981-2.817-.9-.753-1.8-1.506-2.74-2.21zM31.676 27.43c.602.3 1.203-.156 1.064-.802a3.962 3.962 0 00-.537-1.28c-1.276-1.987-2.899-3.69-4.509-5.4a2.144 2.144 0 00-.689-.474c-.144-.063-.395-.044-.515.048s-.21.331-.185.485c.044.27.155.54.292.78a44.98 44.98 0 001.862 2.986 34.836 34.836 0 002.124 2.804c.293.348.686.65 1.093.853zm21.75 13.415c-.408.08-.804.365-.892.772-.073.336.078.69.315.939l.017.017c.248.25.573.407.897.544 1.98.835 4.147 1.104 6.286 1.316.234.023.48.044.697-.045 1.213-.498-.976-1.622-1.37-1.809a23.49 23.49 0 00-4.713-1.637c-.406-.094-.828-.178-1.237-.097zm-11.197 7.267c-.041.155-.083.317-.048.473.035.157.174.302.333.287a.395.395 0 00.217-.11c.225-.199.335-.494.438-.777l1.632-4.527a191.503 191.503 0 001.653-4.707c.278-.839.545-1.683.725-2.548.046-.22.41-1.693-.063-1.785a.403.403 0 00-.241.046c-.194.089-.288.305-.365.503a126.952 126.952 0 00-4.281 13.145zm8.599 1.503c-.385-.072-.76.034-.963.416-.193.363-.13.724.222 1.234.295.202.72.594 1.22.817 1.581.706 3.188 1.351 4.788 2.013.171.07.36.11.544.134.29.036.574.004.714-.302.138-.3-.015-.54-.215-.752a1.524 1.524 0 00-.211-.183c-1.552-1.135-3.146-2.203-4.898-3.009a5.151 5.151 0 00-1.2-.368zM10.418 45.6c-.239-.011-.488-.017-.707.082-.218.1-.392.338-.338.571.034.146.147.26.269.347.292.21.65.305.997.396 1.232.323 2.465.641 3.699.956.769.196 1.544.392 2.336.444.355.024.732.013 1.04-.161l.03-.017c1.255-.766-.385-1.635-1.083-1.791a35.556 35.556 0 00-6.243-.828zm14.836-13.5c1.952-.32-.545-2.204-1.111-2.504l-4.195-2.22c-.276-.146-.568-.296-.88-.281-.31.014-.634.263-.61.574a.506.506 0 00.064.204c.07.127.184.235.294.333a26.12 26.12 0 005.155 3.553c.4.21.838.415 1.283.342zm16.032 32.47c-.24-.065-.534.006-.654.223-.08.144-.07.32-.04.48.074.395.253.763.457 1.11.67 1.139 1.608 2.09 2.454 3.105.659.79 1.273 1.628 2.063 2.285.193.16.444.316.677.227.215-.081.31-.342.291-.571-.025-.306-.2-.576-.37-.83a10356.85 10356.85 0 00-1.344-2.015c-.867-1.28-1.79-2.548-2.917-3.609-.18-.17-.377-.34-.617-.405zm-6.416 5.564a.687.687 0 00-.546.506c-.06.251.029.511.125.751.373.934.875 1.801 1.448 2.626.72 1.037 1.552 2.007 2.384 2.958.179.204.398.426.669.41.28-.017.484-.303.504-.582.027-.383-.195-.735-.373-1.057a140.01 140.01 0 00-.69-1.239 54.999 54.999 0 00-1.448-2.437c-.324-.51-.663-1.017-1.08-1.454-.265-.278-.614-.543-.993-.482zm27.446-18.73c-.038.18-.079.37-.023.546.057.176.25.323.423.26l.003-.002c.145-.054.21-.221.257-.37.524-1.651 1.032-3.318 1.262-5.035.093-.701.27-6.375-1.227-5.873-.332.112-.344.571-.299.919a28.13 28.13 0 01-.396 9.555zM28.91 75.614c-.39.248-.328.834-.17 1.27.296.823.779 1.654 1.338 2.436.57.8 1.22 1.55 1.83 2.189.24.252.58.516.9.38.213-.09.325-.336.325-.566 0-.231-.09-.451-.18-.663-.707-1.677-1.52-3.355-2.805-4.644-.332-.334-.84-.654-1.238-.402zm-9.113-36.32c.26.037.534.045.776-.056a.792.792 0 00.088-.042c.202-.116.357-.323.354-.554-.006-.39-.416-.63-.774-.783-1.883-.807-3.92-1.475-5.946-1.807-.245-.04-.559-.041-.668.181a.422.422 0 00-.006.315c.124.376.528.572.893.727 1.127.476 2.257.946 3.387 1.415.614.255 1.237.512 1.896.604zM7.725 72.69c1.42-.058 2.842-.117 4.247-.329.328-.05.668-.112.935-.309.661-.485.27-1.22-.427-1.351-.294-.055-.598-.021-.896.017a34.219 34.219 0 00-4.019.76 2.144 2.144 0 00-.443.148.935.935 0 00-.134.082c-.168.124-.29.333-.25.538.038.194.212.338.4.4.187.06.39.053.587.045zM9.4 55.496c1.905.16 3.833.273 5.723-.021.187-.029.381-.066.528-.184.877-.705-1.052-.993-1.404-.986-1.65.033-3.298.137-4.939.312-.258.027-.578.112-.62.368a.32.32 0 00.027.188c.041.09.117.166.205.214.145.08.315.095.48.109zM7.633 80.698a11.77 11.77 0 004.044-.671c.346-.123.734-.315.804-.675.06-.309-.16-.621-.447-.752-.286-.13-.617-.115-.927-.057-1.012.377-2.142.575-3.179.937a2.451 2.451 0 00-.473.204.895.895 0 00-.243.211c-.173.221-.174.599.07.737.104.06.23.065.35.066zM9.11 63.796c1.547.106 3.183.107 4.698-.267.147-.036.303-.083.4-.2.185-.227.029-.596-.23-.733-.26-.137-.571-.11-.863-.078l-3.849.409c-.18.02-.37.04-.523.139-.153.098-.259.297-.19.466a.314.314 0 00.02.04c.097.168.335.21.537.224zm15.083 17.158c-.168-.09-.392-.105-.54.016-.24.197-.14.58-.008.86.603 1.284 1.481 2.45 2.5 3.432.074.072.157.146.26.16.231.03.375-.26.366-.494-.011-.294-.14-.569-.276-.829-.221-.42-.47-.822-.736-1.214a24.27 24.27 0 00-1.154-1.538c-.119-.15-.244-.302-.412-.393zm-6.966 4.963c-.548.725-.485 2.1-.391 2.946.018.17.045.344.133.492a.55.55 0 00.032.049c.092.123.236.212.387.198.223-.02.368-.24.467-.442.392-.8.6-1.69.6-2.582.001-.356-.07-.775-.39-.932-.286-.14-.646.017-.838.271zm33.607-30.212c-.571-.298-1.184-.605-1.825-.54-.067.198.139.373.317.48 1.933 1.171 3.987 2.1 6.02 3.085.253.123.572.241.797.072-.076-.34-.418-.542-.728-.704l-4.581-2.393zm10.336 1.167c-.152.046-.264.173-.36.3-.24.321-.429.678-.614 1.034a88.363 88.363 0 00-1.647 3.347c-.096.206-.172.494.015.622a.26.26 0 00.15.045c.08 0 .162-.03.227-.079.108-.08.177-.201.243-.319l1.916-3.405c.122-.216.91-1.801.07-1.545zM44.415 62.18c-.133.132-.152.347-.096.527.056.179.175.33.291.478.94 1.19 1.884 2.384 2.969 3.443.048.047.108.098.175.088.046-.007.082-.042.11-.08.456-.627-2.051-3.198-2.482-3.757-.251-.326-.556-.681-.967-.7zM33.02 75.038c-.23-.276-.463-.556-.753-.767a.526.526 0 00-.253-.106.191.191 0 00-.153.05c-.094.093-.054.252.002.372.207.438.54.802.868 1.16l2.77 3.013c.13.142.387.275.48.106-.21-.743-.882-1.324-1.37-1.911l-1.591-1.917zM10.126 88.241c.151-.025.285-.11.411-.197a7.285 7.285 0 001.308-1.157c.295-.334.78-1.423-.15-1.28-.226.034-.417.184-.589.337-.506.451-.943.98-1.291 1.562-.107.178-.205.407-.095.583.081.13.255.178.406.152zm4.416-44.952c-.12.06-.19.234-.097.33.04.044.101.06.159.076 1.626.425 3.281.74 4.95.943.115.014.24.026.34-.032a.528.528 0 00.06-.04c.331-.257-.386-.53-.552-.557l-4.466-.737c-.132-.022-.274-.042-.394.017zm25.225 9.501c.357-.718.716-1.434 1.074-2.151.091-.184.558-1.514-.02-1.244a.783.783 0 00-.065.035c-.113.068-.187.183-.256.294-.556.9-1.01 1.861-1.353 2.861-.094.272-.18.567-.1.844.34.017.567-.335.72-.64zm-22.54-1.038c.12.007.243.013.355-.029.113-.042.21-.146.206-.266a14.098 14.098 0 00-4.897-.258c-.001.596 3.773.52 4.336.553zm38.242-2.977c-.379-.563-1.252-.92-1.893-1.09-.201-.054-.487-.046-.532.157-.036.167.135.3.284.383.549.312 1.51.89 2.14.55zM34.94 50.864c-.304.221-.364.702-.124.986.206.243.63.303.885.124.305-.214.358-.684.111-.986a.655.655 0 00-.873-.124zm-5.604 4.87a.6.6 0 00-.845-.23c-.338.218-.429.632-.218.985a.545.545 0 00.733.203c.368-.203.505-.6.33-.958zm9.223-8.464a.608.608 0 00-.862-.12.62.62 0 00-.13.865c.2.272.59.327.864.123a.621.621 0 00.128-.867zm1.744-8.349a.652.652 0 00.877.115.64.64 0 00.132-.873c-.193-.256-.619-.312-.878-.115-.266.201-.328.616-.13.873zm-.609-3.491c.19-.182.221-.55.065-.769-.196-.274-.607-.34-.86-.136a.603.603 0 10.795.905zm-3.182 4.117c-.128.19-.136.462-.227.817.369.015.637.095.849.019.297-.107.326-.57.1-.811-.191-.203-.573-.249-.722-.025zm-1.632 6.605a.508.508 0 00.193-.7c-.15-.242-.505-.362-.7-.167-.159.158-.203.431-.267.582.206.354.521.43.774.285zM46.053 32.46c-.045-.265-.432-.41-.683-.312-.252.1-.38.468-.246.713.132.245.478.34.84.138.025-.126.122-.343.09-.538zM31.457 48.844c-.314.226-.374.597-.154.782.149.125.409.214.59.177.277-.056.337-.594.079-.805-.146-.12-.389-.12-.515-.154zm6.809 20.01c.019.172.22.485.351.594.028.022.598.361.56.131-.083-.517-.37-.899-.76-1.242-.098-.086-.156.474-.151.517zm-6.98-17.304c-.114.148-.103.393-.173.703.328-.005.558.048.735-.026.255-.105.272-.525.054-.697-.204-.161-.464-.176-.616.02zm11.966-16.165c.163.098.398.077.533.099.287-.264.287-.617.06-.798-.191-.154-.413-.19-.618-.014-.209.18-.217.566.025.713zm-.624-3.209c-.106-.26-.488-.341-.704-.112-.133.142-.163.383-.287.702.342 0 .572.055.758-.013.239-.087.338-.319.233-.577zm-3.3 11.852c.339-.048.572-.021.716-.122.09-.064.118-.358.05-.477-.118-.207-.384-.298-.567-.102-.117.126-.111.366-.199.701zm9.421-21.583c-.087-.206-.226-.389-.43-.734-.408.622-.194 1.027-.06 1.4.4 1.118 1.01 2.122 1.774 3.03.544.648 1.095 1.291 1.653 1.928.806.92 1.616 1.835 2.437 2.74.104.115.243.312.53.072-.039-.13-.045-.325-.142-.45-1.036-1.338-2.064-2.684-3.14-3.99-1.023-1.24-1.992-2.503-2.622-3.996zm13.349 1.071c1.35.545 2.665 1.154 3.83 2.047.182.14.392.259.608.33.092.03.25-.064.344-.143.05-.041.07-.194.033-.253-.147-.234-.28-.511-.496-.663-.684-.485-1.355-1.04-2.12-1.351-1.776-.723-3.602-1.323-5.414-1.957-.197-.069-.431-.034-.692-.05.015.446.265.565.521.669 1.128.46 2.257.914 3.386 1.37zm2.322 2.187a3.315 3.315 0 00-.65-.246c-.07-.02-.225.037-.238.086-.029.114-.002.245.017.367.005.039.05.08.086.106 1.25.91 2.515 1.797 3.943 2.414.834.36 1.716.455 2.614.355.156-.017.299-.153.623-.33-.414-.174-.643-.329-.888-.364-1.324-.19-2.511-.726-3.66-1.377a67.178 67.178 0 00-1.847-1.011zm-25.745-7.01c.329.07.455.025.464-.077.018-.222-.523-.713-.742-.858-.532-.353-1.14-.578-1.72-.838-2.864-1.283-5.223-3.445-7.623-5.467-.554-.468-1.206-.958-1.925-.863 1.63 1.748 3.283 3.49 5.172 4.955 1.888 1.465 4.036 2.651 6.374 3.148zm-3.302-3.967c-.149-.602-.972-1.13-1.504-1.362-.137-.06-.285-.11-.431-.083-.146.028-.28.165-.255.311.013.08.068.144.124.202.46.488 1.365 1.062 2.066.932zm-1.73-2.306c-.309-.598-.77-.949-1.545-.982.312.757.911.897 1.545.981zm11.746 2.243c.072.195.227.424.428.37.202-.055.22-.33.197-.537-.14-1.217-.156-2.494-.63-3.637-.473-1.14-1.263-2.13-2.17-2.954-1.158-1.05-2.512-1.854-3.858-2.647C39.51 6.33 40.553 7 41.425 7.64c1.482 1.086 2.767 2.535 3.299 4.292.27.898.34 1.85.664 2.73zm-1.846-1.268a.227.227 0 00.202-.052.15.15 0 00.033-.048.294.294 0 00.016-.126c-.019-.698-.311-1.369-.774-1.888-.09-.1-.204-.203-.339-.195-.141.01-.249.146-.272.286-.023.14.018.282.063.417.179.538.427 1.07.839 1.461a.515.515 0 00.232.145zm18.093-2.516c.3-.424.564-.87.828-1.317l.71-1.198c.089-.152.18-.308.209-.482.011-.072.01-.15-.029-.21-.061-.096-.2-.115-.305-.073a.7.7 0 00-.258.217c-.713.842-1.241 1.86-1.7 2.858-.11.24-.206.55-.027.746.245-.104.419-.324.572-.541z"/></g></svg>