<svg width="310" height="305" fill="none" xmlns="http://www.w3.org/2000/svg"><g opacity=".05" stroke="#fff" stroke-miterlimit="10" stroke-linecap="round" stroke-linejoin="round"><path d="M127.248 301.471l54.796-3.876L294.241 97.297l-23.982 3.073-143.011 201.101zM291.703 13.15c-21.987-15.788-67.305 15.618-67.305 15.618l-27.558-.436C227.836-2.61 277.124-2.037 291.703 13.15z" stroke-width="5.148"/><path d="M3 179.553l124.248 121.918L270.259 100.37 196.84 28.327 3 179.553z" stroke-width="5.148"/><path d="M270.254 100.37L196.84 28.333l27.558.436 54.539 53.516c-4.785 10.603-8.683 18.085-8.683 18.085z" stroke-width="5.148"/><path d="M294.236 97.297l-23.982 3.072s3.899-7.48 8.683-18.085c9.239-20.549 21.782-52.837 15.572-65.233-.701-1.386-1.637-2.687-2.798-3.893 31.924 22.93 2.525 84.14 2.525 84.14z" stroke-width="5.148"/><path d="M184.674 76.877c-4.917 5.011-10.103 7.894-11.585 6.44-1.481-1.454 1.303-6.694 6.22-11.705 4.917-5.01 10.104-7.894 11.585-6.44 1.481 1.454-1.303 6.694-6.22 11.705zm31.367 27.478c-4.917 5.011-10.103 7.894-11.585 6.44-1.481-1.454 1.303-6.694 6.22-11.705 4.917-5.01 10.103-7.894 11.585-6.44 1.482 1.454-1.303 6.694-6.22 11.705zm-6.789 41.559c-4.917 5.011-10.103 7.894-11.585 6.44-1.481-1.454 1.303-6.694 6.22-11.705s10.104-7.894 11.585-6.44c1.481 1.454-1.303 6.695-6.22 11.705zm-39.066-23.593c-4.917 5.011-10.103 7.894-11.585 6.44-1.481-1.454 1.303-6.694 6.22-11.705s10.103-7.894 11.585-6.44c1.481 1.454-1.304 6.694-6.22 11.705zm-39.533-6.031c-4.917 5.011-10.103 7.894-11.585 6.44-1.481-1.454 1.303-6.694 6.219-11.705 4.917-5.011 10.104-7.894 11.585-6.44 1.483 1.454-1.302 6.694-6.219 11.705zm30.014 47.258c-4.917 5.011-10.103 7.894-11.585 6.44-1.482-1.454 1.303-6.694 6.22-11.705 4.917-5.01 10.103-7.894 11.585-6.44 1.481 1.454-1.304 6.694-6.22 11.705zm19.435 34.068c-4.917 5.01-10.103 7.894-11.585 6.44-1.482-1.454 1.303-6.694 6.219-11.705 4.917-5.011 10.103-7.894 11.585-6.44 1.483 1.454-1.302 6.694-6.219 11.705zm-59.265-40.347c-4.917 5.01-10.103 7.894-11.585 6.44-1.482-1.454 1.303-6.694 6.219-11.705 4.917-5.011 10.104-7.894 11.585-6.44 1.482 1.454-1.303 6.694-6.219 11.705zm-38.345-4.201c-4.917 5.011-10.103 7.894-11.585 6.44-1.48-1.454 1.303-6.694 6.22-11.705 4.917-5.01 10.103-7.894 11.585-6.44 1.481 1.454-1.303 6.694-6.22 11.705zm39.581 47.053c-4.917 5.01-10.103 7.894-11.585 6.44-1.482-1.454 1.303-6.694 6.219-11.705 4.917-5.011 10.104-7.894 11.585-6.44 1.482 1.454-1.302 6.695-6.219 11.705zm20.833 30.036c-4.917 5.01-10.103 7.894-11.585 6.44-1.481-1.454 1.303-6.694 6.22-11.705s10.104-7.894 11.586-6.44c1.482 1.454-1.304 6.694-6.221 11.705zm-38.261 11.633c-4.917 5.011-10.104 7.894-11.585 6.44-1.482-1.454 1.303-6.694 6.22-11.705s10.103-7.894 11.585-6.44c1.481 1.454-1.303 6.694-6.22 11.705zm-22.43-45.163c-4.917 5.011-10.104 7.894-11.585 6.44-1.48-1.454 1.303-6.694 6.22-11.705 4.917-5.01 10.103-7.894 11.585-6.44 1.481 1.454-1.303 6.695-6.22 11.705zm-33.853-3.411c-4.917 5.011-10.103 7.894-11.585 6.44-1.482-1.454 1.303-6.694 6.22-11.705s10.103-7.894 11.585-6.44c1.482 1.454-1.303 6.695-6.22 11.705z" stroke-width="3.603"/><path d="M267.14 122.756c-1.261 1.984-2.785 3.275-3.402 2.882-.618-.392-.096-2.319 1.165-4.303 1.261-1.984 2.785-3.275 3.402-2.882.617.392.096 2.318-1.165 4.303zm-17.137 41.49c-1.261 1.984-2.784 3.275-3.401 2.882-.618-.393-.096-2.319 1.165-4.303 1.261-1.984 2.784-3.275 3.401-2.882.617.391.095 2.318-1.165 4.303zm-1.393-16.359c-1.261 1.984-2.783 3.275-3.401 2.882-.618-.392-.096-2.319 1.165-4.303 1.261-1.984 2.784-3.275 3.401-2.882.617.392.096 2.319-1.165 4.303zm13.444-5.808c-1.261 1.984-2.784 3.275-3.402 2.882-.618-.392-.096-2.319 1.165-4.303 1.261-1.984 2.784-3.275 3.401-2.882.617.392.097 2.319-1.164 4.303zm-37.63 55.087c-1.261 1.984-2.782 3.275-3.4 2.882-.618-.392-.096-2.319 1.165-4.303 1.261-1.984 2.783-3.275 3.4-2.882.617.392.096 2.318-1.165 4.303zm-.286-16.447c-1.261 1.984-2.785 3.275-3.402 2.882-.618-.392-.096-2.319 1.165-4.304 1.261-1.984 2.784-3.275 3.401-2.882.617.393.097 2.32-1.164 4.304zm14.212 2.255c-1.261 1.984-2.784 3.275-3.401 2.882-.618-.392-.096-2.319 1.165-4.303 1.261-1.984 2.784-3.275 3.401-2.882.618.392.096 2.319-1.165 4.303zm-.266-16.469c-1.261 1.984-2.783 3.275-3.401 2.882-.617-.392-.096-2.319 1.165-4.303 1.261-1.984 2.783-3.275 3.401-2.882.618.393.096 2.319-1.165 4.303z" stroke-width="2.574"/><path d="M224.424 197.166c-1.261 1.984-2.782 3.275-3.4 2.882-.618-.392-.096-2.319 1.165-4.303 1.261-1.984 2.783-3.275 3.4-2.882.617.392.096 2.318-1.165 4.303zm-8.474 20.242c-1.261 1.984-2.784 3.275-3.401 2.882-.617-.393-.096-2.319 1.165-4.303 1.261-1.984 2.782-3.275 3.4-2.882.617.392.097 2.319-1.164 4.303zm-4.901-13.466c-1.261 1.984-2.783 3.275-3.401 2.882-.617-.392-.096-2.319 1.165-4.303 1.261-1.984 2.784-3.275 3.401-2.882.618.392.096 2.319-1.165 4.303zm-20.875 37.491c-1.261 1.984-2.783 3.275-3.4 2.882-.618-.392-.096-2.319 1.165-4.303 1.261-1.984 2.783-3.275 3.4-2.882.617.392.096 2.319-1.165 4.303zm14.923-7.717c-1.261 1.984-2.784 3.275-3.402 2.882-.618-.392-.096-2.319 1.165-4.303 1.261-1.984 2.783-3.275 3.401-2.882.618.393.097 2.319-1.164 4.303zm-7.893-11.05c-1.261 1.984-2.784 3.275-3.401 2.882-.618-.392-.096-2.319 1.165-4.303 1.261-1.984 2.784-3.275 3.401-2.882.617.392.096 2.319-1.165 4.303zm-15.477 39.351c-1.261 1.984-2.784 3.275-3.401 2.882-.617-.392-.096-2.319 1.165-4.303 1.261-1.984 2.783-3.275 3.401-2.882.618.393.096 2.318-1.165 4.303zm15.178-6.661c-1.261 1.984-2.784 3.275-3.401 2.882-.618-.392-.096-2.319 1.165-4.303 1.261-1.984 2.784-3.275 3.401-2.882.617.392.095 2.318-1.165 4.303zm-22.851-4.615c-1.261 1.984-2.784 3.275-3.402 2.882-.618-.393-.096-2.319 1.165-4.303 1.261-1.984 2.784-3.275 3.401-2.882.617.392.097 2.319-1.164 4.303zm-8.514 20.283c-1.261 1.984-2.783 3.275-3.401 2.882-.618-.392-.096-2.319 1.165-4.303 1.261-1.984 2.784-3.275 3.401-2.882.617.392.096 2.319-1.165 4.303zm21.417 4.071c-1.261 1.984-2.783 3.275-3.401 2.882-.617-.392-.096-2.319 1.165-4.303 1.261-1.984 2.784-3.275 3.401-2.882.617.393.096 2.319-1.165 4.303zm-34.288 11.289c-1.261 1.984-2.783 3.275-3.401 2.882-.618-.393-.096-2.319 1.165-4.303 1.261-1.984 2.784-3.275 3.401-2.882.617.392.096 2.319-1.165 4.303zm19.835-3.918c-1.261 1.984-2.784 3.275-3.401 2.882-.617-.392-.096-2.319 1.165-4.303 1.261-1.984 2.783-3.275 3.401-2.882.617.392.095 2.318-1.165 4.303z" stroke-width="2.574"/></g></svg>