<svg width="205" height="148" fill="none" xmlns="http://www.w3.org/2000/svg"><g opacity=".3" fill="#006766"><path d="M78.734 100.262c.044.026.09.044.134.084.045-.035.09-.057.134-.084l-.134.002-.134-.002zm-1.789.045l-.967-.001-.968.03-.961.011c-.321.016-.642.03-.963.044l-.957.025-.197.035.196.03.957-.021.965-.032.96-.01.969-.024.967-.002c.323-.02.647-.039.97-.06.054-.034.107-.057.16-.082l-.159-.002-.972.059z"/><path d="M16.107 55.747c5.357 3.731 10.754 7.41 16.481 10.574.72.397 1.681.6 1.85 1.934-5.372.89-10.708 1.737-16.029 2.674-2.555.45-5.155.874-7.463 2.157-2.932 1.63-3.075 4.643-.326 6.485.83.556 1.817.883 2.744 1.285 5.549 2.405 11.101 4.802 16.653 7.2l-.182.842c-1.168.38-2.341.748-3.504 1.147-4.063 1.39-8.205 2.587-12.015 4.619-1.304.695-2.53 1.676-2.192 3.46.307 1.622 1.682 1.985 3.02 2.286.879.198 1.778.323 2.675.414 6.962.701 13.938 1.279 20.886 2.094 24.873 2.915 49.773 3.148 74.723.654 7.494-.749 15.006-1.317 22.582-2.629-.103 2.204-.286 3.995-.245 5.78.045 1.985.588 3.883 2.485 4.884 2.042 1.078 3.64-.078 5.197-1.343 7.727-6.277 15.264-12.79 23.253-18.743 1.851-1.38 3.682-2.3 6.127-2.356 5.641-.128 11.284-.507 16.883-1.345 2.051-.307 4.25-.49 4.689-3.062.439-2.569-1.283-3.956-3.308-4.923-2.638-1.26-5.328-2.42-8.021-3.563-4.009-1.701-4.04-1.693-1.698-5.212 2.768-4.16 5.029-8.592 7.057-13.142 1.171-2.627.271-4.685-2.199-5.275-1.372-.328-2.692.046-3.99.467-3.994 1.296-7.774 3.112-11.467 5.072-2.049 1.087-2.882.581-3.702-1.45-1.867-4.627-2.99-9.446-4.109-14.282-1.072-4.63-4.661-5.727-8.293-2.602-2.104 1.811-3.475 4.184-4.794 6.542-.944 1.688-1.995 2.396-4.01 2.293-34.345-1.772-68.373-5.695-101.774-14.045a106.805 106.805 0 00-9.608-1.94c-2.293-.353-4.67-.172-5.875 2.287-1.299 2.65.636 4.154 2.307 5.715 2.834 2.645 5.63 5.332 8.44 8.001-1.706.41-3.219.26-4.72.036-5.369-.802-10.757-1.308-16.197-1.028-2.22.115-4.45.48-5.27 2.917-.893 2.646 1.233 3.932 2.94 5.121zM34.602 97.74c-4.317-.334-8.652-.455-12.98-.673 1.777-1.623 3.78-1.354 5.75-1.28 31.311 1.156 62.437-.862 93.363-6.092 6.554-1.108 12.982-2.848 19.448-4.623-.611 5.251-.731 5.158-5.644 6.158-25.425 5.171-51.156 7.05-77.001 7.826-7.697.23-15.3-.725-22.936-1.316zm100.965-1.017c-17.783 1.454-35.546 3.205-53.392 3.65-.419.011-.84-.08-1.259-.133-.023.024-.049.042-.071.069-.037-.035-.075-.051-.112-.077l-.781.011c-.039.029-.078.047-.117.084-.04-.038-.08-.054-.121-.081l-.709.013c-.044.027-.089.049-.133.084-.045-.039-.09-.058-.135-.084l-.66-.01c-.054.026-.107.048-.16.083l-.972.059-.966.002-.968.025-.962.009-.964.033-.957.02-.196-.029.197-.035.957-.025.963-.044.96-.012.969-.029h.967l.972-.059.159.002c.222-.106.443-.117.661.01l.134.002.134-.002c.234-.145.47-.169.709-.013l.121-.002.117-.002c.258-.19.518-.199.78-.011l.11-.002.075.01c.682-.712 1.614-.585 2.453-.617 17.746-.676 35.294-3.026 52.718-6.457.532-.104 1.084-.103 1.947-.18-.397 1.74.146 3.524-2.468 3.738zm15.53.767c3.535-4.174 6.977-8.462 12.565-10.116L151.097 97.49zm5.934-48.918c1.274 1.338 1.186 2.322.26 3.41-3.663 4.308-7.125 8.794-11.398 12.545 2.621-6.028 7.347-10.486 11.138-15.956zm-11.03 18.485c2.04-.458 3.399-1.563 4.603-3.157 2.511-3.325 5.113-6.581 7.97-10.24 1.087 2.828 1.961 5.319 2.993 7.74 2.021 4.744 4.738 5.703 9.408 3.509 2.524-1.186 5.09-2.28 8.346-3.732-1.532 3.879-3.78 6.397-5.48 9.22-3.319 5.512-2.722 7.37 3.138 9.533 1.871.69 3.841 1.184 5.446 2.464l.052-.007.003.047c-.018-.015-.037-.026-.055-.04-5.674.69-11.338 1.477-17.024 2.027-3.332.322-6.035 1.678-8.301 4.036-4.814 5.01-9.933 9.715-14.377 15.089l-.715-.352c1.295-5.774 2.545-11.559 3.899-17.32 1.122-4.776.499-6.315-3.867-8.757-3.167-1.773-6.704-2.587-10.078-3.823-1.47-.539-2.898-1.193-4.346-1.795l-.16-.074.117.052c6.14-1.486 12.266-3.039 18.428-4.42zM40.65 40.427c-.028.007-.055.011-.084.02-.042.005-.086-.022-.13-.058l-.39.084c.113-.386.254-.192.39-.084l.132-.028c.027.022.054.045.082.066.564-.14 1.005.059 1.359.498.018-.007.033-.008.052-.015.019.017.039.028.058.043.996-.523 1.946 0 2.873.212 32.427 7.393 65.331 11.271 98.541 12.906.216.01.427.118.947.27-1.072 1.156-2.317.738-3.375.736-16.176-.039-32.172-2.224-48.21-3.88-16.057-1.658-31.952-4.189-47.412-8.944-1.148-.353-2.393-.489-3.364-1.3-.02.011-.041.015-.063.027-.015-.02-.031-.037-.047-.056-.591.206-.962-.181-1.359-.497zm-9.52 13.85c3.932.339 7.863.709 11.793 1.075 2.009.188 3.916-.002 5.046-1.954 1.22-2.105.289-3.915-1.024-5.582-.833-1.057-1.732-2.062-3.178-3.773 16.475 4.997 32.7 7.58 49.046 9.405 16.452 1.837 32.885 4.028 49.799 3.656-1.191 4.458-3.472 6.77-7.898 7.1-3.578.266-7.121 1.202-10.645 1.998a13.655 13.655 0 00-4.063 1.64c-2.967 1.82-2.955 4.605.061 6.344 4.497 2.593 9.363 4.402 14.212 6.224 1.783.67 3.575 1.31 5.465 2.002-9.598 6.373-73.345 13.066-109.887 11.182 1.482-.486 2.977-.932 4.44-1.47 1.426-.526 2.693-1.308 2.925-2.988.248-1.787-.699-3.029-2.088-3.946-3.978-2.626-8.526-4.047-12.835-5.974-1.198-.535-2.553-.791-3.94-2.162 2.962-.518 5.573-.923 8.161-1.44 4.54-.907 9.067-1.882 13.6-2.83 1.74-.364 3.271-1.008 3.71-2.983.426-1.92-.595-3.299-1.884-4.432-2.805-2.469-6.152-4.137-9.332-6.05-2.663-1.602-5.308-3.235-8.734-5.327 3.085-.397 5.165.105 7.25.285z"/><path d="M42.118 40.958c-.019-.016-.039-.028-.058-.044-.018.008-.035.01-.052.015.015.02.031.036.047.056.021-.012.042-.017.063-.027zm38.613 59.271c.038.028.075.043.112.077.022-.026.048-.044.072-.068-.025-.003-.05-.008-.076-.01l-.108.001zM40.437 40.392c.044.035.087.061.13.057.029-.009.056-.013.083-.02l-.083-.065-.13.028zm39.278 59.854c.04.027.08.043.121.081.039-.037.078-.056.117-.084a4.48 4.48 0 00-.116.002l-.122.001zm102.763-17.862l-.052.006c.018.014.037.026.054.04l-.002-.046z"/></g></svg>