<svg width="111" height="269" fill="none" xmlns="http://www.w3.org/2000/svg"><g opacity=".5" fill="#006766"><path d="M86.163 254.219c-4.315 2.178-8.812 3.889-13.715 4.638-.844.128-1.442.541-2.043 1.039-2.942 2.436-5.745 5.024-9.344 6.734-1.955.929-3.954 1.69-6.174 1.879-6.204.527-10.69-4.263-9.225-9.92.955-3.689 3.3-6.737 5.869-9.643.627-.71.943-1.403 1.064-2.311.519-3.888 2.37-7.347 4.544-10.677.696-1.066 1.501-2.075 2.258-3.109h.01l.022-.067-.014.043-.018.024c-.47-.048-.788.239-1.14.437-5.087 2.859-10.369 5.345-16.176 6.829-.406.104-.754.275-1.056.595-3.761 3.982-8.327 6.99-13.659 9.067-2.229.869-4.498 1.21-6.85.481-3.621-1.123-5.686-4.347-5.05-8.075.656-3.855 2.416-7.245 5.662-9.922.41-.338.68-.693.823-1.186 1.222-4.231 3.482-8.025 6.084-11.683 5.25-7.384 11.555-14.043 17.639-20.856 3.544-3.968 7.15-7.891 10.71-11.848.313-.349.794-.631.833-1.304-1.096.415-2.128.767-3.123 1.189-5.56 2.353-11.552 3.006-17.55 3.631-2.013.21-4.038.328-6.053.529-.867.087-1.284-.039-1.169-.969.215-1.732.36-1.772 2.799-2.022 5.399-.554 10.859-.791 16.101-2.254a82.035 82.035 0 0010.845-3.894c1.698-.744 3.14-1.812 4.242-3.219 1.064-1.359 2.14-2.711 3.126-4.154-5.54 3.612-11.84 5.573-18.323 7.122-4.493 1.074-9.098 1.454-13.735 1.664-4.633.21-9.29.05-13.899.571-3.58.404-6.742 1.748-9.37 4.002-2.749 2.356-4.821 5.159-6.153 8.334-.995 2.372-.74 4.928-.611 7.411.144 2.793.926 5.478 2.295 8.005.252.467.608.888.992 1.438.993-.963.943-2.068.984-3.123.109-2.78-.081-5.561.26-8.345.68-5.522 3.87-9.212 9.642-11.129.5-.167 1.003-.331 1.509-.483 1.753-.527 1.821-.457 2.202 1.131.196.819-.183 1.101-.959 1.322-1.73.495-3.413 1.078-4.93 2.026-3.895 2.436-4.81 6.021-4.912 9.965-.065 2.538.269 5.094-.353 7.61-.126.511-.285 1.03-.536 1.498-1.404 2.621-4.36 3.136-6.711 1.139-2.638-2.239-3.779-5.105-3.825-8.287-.08-5.535 1.93-10.538 5.005-15.269 4.348-6.691 11.2-9.859 19.305-11.425 5.677-1.097 11.438-1.19 17.19-1.454 6.992-.321 13.785-1.397 20.105-4.27 1.242-.565 2.454-1.186 3.443-2.08.372-.337 1.11-.579.78-1.253-.287-.585-.909-.566-1.514-.562-1.549.012-3.1.047-4.647-.011-4.863-.18-9.349-1.494-13.37-3.936-5.674-3.444-8.163-8.557-9.116-14.446-.751-4.645-.237-9.165 1.246-13.657 2.58-7.81 5.887-15.326 10.631-22.296 2.438-3.581 5.326-6.851 8.632-9.804 5.469-4.886 11.784-6.326 19.042-3.553 2.055.785 4.253 1.322 5.97 2.706.478.385.755.084 1.063-.194.903-.818 1.762-1.681 2.727-2.436.951-.744 1.045-1.16-.166-1.838-6.411-3.588-11.601-8.291-15.459-14.142-9.728-14.757-8.188-33.423 3.906-47.59 2.416-2.83 5.134-5.409 8.252-7.613.987-.698.89-1.126.15-1.902-4.447-4.666-8.903-9.33-13.002-14.251-.545-.655-1.024-.478-1.638-.274-1.993.665-3.985.615-5.939-.11-2.45-.91-4.073-2.484-4.383-4.908-.387-3.031.627-5.654 3.01-7.875 2.49-2.32 6.692-1.888 9.721-.566 2.744 1.199 4.11 4.066 3.47 7.134-.19.916.043 1.485.663 2.178 4.48 5.016 8.933 10.052 13.318 15.135.84.974 1.451 1.199 2.636.463 6.004-3.733 13.009-4.77 19.967-5.713v1.632c-6.893.917-12.963 3.732-18.615 7.684 5.631-3.722 11.946-5.576 18.615-6.731v1.28l-.616.102c-5.73.937-10.968 3.012-15.914 5.732-.796.437-1.322.816-.83 1.805.374.755.188 1.607-.534 2.264-1.324 1.204-3.604 1.328-5.034.233a7.04 7.04 0 01-1.202-1.154c-.461-.57-.865-.472-1.464-.148-1.273.688-2.094 1.766-3.08 2.7-3.925 3.725-7.12 7.898-9.46 12.588a10.563 10.563 0 00-.945 2.731c-.822 4.266-1.105 8.53-.703 12.871.612 6.6 2.3 12.943 5.246 18.977 5.096 10.442 13.308 17.72 26.125 20.097 1.408.261 2.802.631 4.536.66-.436-.219-.612-.326-.803-.4-12.309-4.787-20.14-13.14-24.031-24.559-1.774-5.203-2.25-10.542-1.385-15.95.21-1.306.85-1.564 3.047-1.321 1.488.163.638 1.075.588 1.648-.222 2.599-.641 5.193-.038 7.976 1.881-1.803 4.02-2.977 6.192-4.078.851-.432 1.153-.949 1.34-1.763 1.335-5.792 4.504-10.623 9.578-14.412 2.818-2.103 5.992-3.482 9.387-4.404v2.704c-.081.015-.163.029-.243.05-3.546.924-6.641 2.566-9.402 4.752-.518.41-.433.722-.089 1.212 2.861 4.077 6.052 7.904 9.734 11.374v2.488c-4.269-3.842-8.465-7.753-12.51-11.883-.445.59-.761.975-1.038 1.382-.306.45-.583.916-.858 1.381-3.115 5.263-2.666 10.693-1.113 16.243 2.083 7.445 6.649 13.663 11.648 19.694 1.189 1.433 2.481 2.595 3.871 3.503v8.281c-7.011-.397-13.66-1.975-19.95-4.829-.816-.37-1.386-.429-2.106.204-1.412 1.239-2.976 2.337-4.403 3.563-3.528 3.033-6.74 6.302-8.723 10.377-2.727 5.608-5.746 11.098-7.953 16.913-3 7.903-4.444 15.942-3.301 24.283.623 4.552 2.453 8.547 6.24 11.787 4.26 3.646 9.346 5.867 14.9 7.285 8.313 2.124 16.741 3.38 25.296 3.624v3.454a116.297 116.297 0 01-13.27-.997c-8.42-1.119-16.728-2.685-24.101-6.836-.61-.343-1.057-.282-1.576.098-2.07 1.514-4.162 2.997-6.176 4.575-4.471 3.503-7.883 7.816-11.524 11.95-7.326 8.315-15.065 16.352-21.666 25.163-3.656 4.881-5.53 10.314-4.998 16.298.285 3.216.975 4.056 4.503 4.439 4.216.457 8.279-.396 12.233-1.645 6.46-2.039 12.183-5.304 17.805-8.732.928-.566 1.885-1.112 2.628-1.877 5.551-5.724 11.802-10.846 17.499-16.444 4.061-3.991 8.537-7.679 11.266-12.635.374-.68.964-1.27 1.696-1.701.525-.31 1.067-.436 1.62-.049.514.359.49.845.294 1.31-.284.67-.578 1.348-.974 1.968-1.831 2.875-3.709 5.723-6.026 8.316-5.298 5.93-11.032 11.496-17.53 16.37-3.524 2.644-6.385 5.752-9.208 8.961-2.385 2.711-3.795 5.518-3.587 9.066.248 4.213.175 8.429 2.068 12.42.432.912 1.025 1.343 2.084 1.488 3.209.437 6.377.352 9.529-.372 6.738-1.549 12.646-4.638 18.24-8.19 7.26-4.611 13.446-10.209 19.171-16.251v4.713c-7.191 7.362-15.26 13.797-24.837 18.631zM7.1 213.432c-3.006-3.795-3.754-7.868-3.885-12.407-1.699 5.665.009 11.365 3.885 12.407zm16.705-31.159c8.296-.33 16.657-.028 24.748-2.11-8.23 1.055-16.659-.031-24.748 2.11zM65.2 2.862l-.023.013c-2.794 1.174-4.302 4.437-3.222 6.982.188.444.36.907.981 1.015l.037.072-.015-.051c-1.44-2.941-.739-5.45 2.242-8.03a5.031 5.031 0 00.001-.001zm5.595.853c-.834-.747-1.733-1.66-3.161-1.161-2.326.81-4.309 3.396-4.346 5.609-.036 2.162 1.79 4.02 3.736 3.802 2.57-.288 5.015-2.743 5.054-5.28-.122-.952-.343-2.127-1.283-2.97zm18.12 29.236c.778 1.14 1.322.1 1.901-.182.776-.378.481-.75-.037-1.197-1.116-.963-2.233-1.937-3.224-3-4.837-5.188-9.516-10.487-13.911-15.986-.23-.289-.36-.721-.956-.714l-1.352 1.291c4.192 3.69 7.678 7.696 11.1 11.747 2.226 2.636 4.547 5.213 6.479 8.041zM81.22 92.185l-.338-.276-.387-.292-.023-.023c.08-.359-.2-.601-.39-.862-7.124-9.796-10.2-20.62-10.143-32.242.001-.24.028-.483-.004-.72-.032-.23.15-.51-.252-.759-2.408 13.1.818 24.688 10.79 34.583-.004.015-.004.029-.008.044l.391.295.34.273.074.049-.05-.07zm21.392-33.487c.008.02.019.038.027.058l.041.03c.04.133.138.2.284.212.015.01.029.022.044.033l.048.052-.016-.079c-.028.001-.051-.004-.076-.006l-.284-.212c-.006-.017-.014-.03-.018-.05l-.05-.038c-.563-1.298-1.563-2.318-2.668-3.27.462 1.367 1.436 2.402 2.668 3.27zm-11.317 9.71c-.978.717-2.04 1.334-2.948 2.3 3.417-.84 3.76-1.1 2.948-2.3zm.265 2.211l-4.796 1.885c1.769 1.885 4.098 3.019 5.86 4.705l.004.028.025-.001.007.006.06-.008-.067.002-.03-.027-1.063-6.59zm14.67 27.911c-4.684-5.19-9.015-10.58-11.764-16.86-.288-.66-.737-1.2-1.368-1.55-2.113-1.172-3.752-2.83-5.593-4.28-.798-.63-1.542-1.341-2.687-1.84 1.23 6.029 3.824 11.279 7.93 15.893 3.856 4.334 8.554 7.708 14.334 9.778l.005.028.025-.016-.03-.012c-.05-.518-.531-.785-.852-1.14zm-63.747 37.948v.638a.525.525 0 00-.023.071 9.889 9.889 0 00-.006.054c-.775.772-.804 1.799-1.097 2.725-1.843 5.818-1.442 11.532 1.16 17.103.881 1.885 2.057 3.612 4.02 4.78l.024.052.05.05-.024-.072c-.017-.01-.033-.021-.05-.03-.97-2.25-2.051-4.466-2.881-6.756-2.118-5.845-1.87-11.843-1.203-17.852l.03-.03v-.095c.07-.183.217-.366 0-.638zM66.79 104l-.016.007-.005.002c-.22.063-.524-.011-.61.267l-.043.018c-.026.017-.05.035-.077.052-2.387.519-4.266 1.84-5.858 3.391-7.191 7-12.654 14.916-15.345 24.228-1.273 4.406-1.977 10.9-1.514 14.138.295-1.937.458-3.551.797-5.135 1.636-7.628 5.025-14.685 8.742-21.642 3.15-5.893 7.213-11.107 13.178-14.979.035-.008.069-.017.104-.024.003-.018.01-.031.015-.047l.616-.268.078-.027-.062.019zm13.078 4.481c.54-.548 1.172-1.055 1.557-1.868-3.299-.996-6.36-2.248-9.633-2.975-1.11-.246-2.025-.08-3.017.458-4.464 2.425-8.235 5.545-10.978 9.493-6.681 9.619-11.625 19.851-13.188 31.253-.878 6.408.161 12.391 3.972 17.923.455.66.903 1.266 1.727 1.63 4.073 1.795 8.434 2.584 13.214 3.171-1.348-2.146-2.403-4.072-3.209-6.104-2.852-7.189-2.175-14.377.214-21.491 3.937-11.726 10.263-22.298 19.34-31.49zm-9.856 16.902l.009-.081.315-.513-.006-.009.042-.136c-.032.016-.091.035-.09.046.006.031.03.061.048.09l-.009.03c-.205.118-.273.296-.3.492l-.034.055-.12.127.145-.101zm-5.479 14.634c.937-3.8 2.482-7.447 3.847-11.137a.853.853 0 00.054-.033c-.005-.018-.007-.036-.01-.053.212-.243.188-.537.22-.819.013-.017.025-.033.04-.049l.007-.037c.25-.064.236-.291.326-.454.017-.008.033-.016.052-.023l.012-.268-.034.242a.306.306 0 00-.03.049c-.207.091-.29.258-.326.454-.013.003-.023.009-.038.011l-.01.075c-.205.244-.284.515-.22.819-.007.008-.012.016-.02.024l-.023.062c-.111.067-.245.127-.289.22-3.253 6.976-5.82 14.106-5.833 21.78-.003 1.997.064 4 .816 5.92.067-.478.114-.954.06-1.421-.599-5.2.154-10.31 1.4-15.362zm1.576 39.474l.009-.001.085-.074.29-.212c.014-.027.031-.052.045-.078 1.596-1.398 3.534-2.427 5.227-3.867-.697-.043-1.016-1.327-1.689-.554-1.24 1.425-2.669 2.75-3.538 4.421l-.07.059-.265.231-.093.067v.008l-.11.023c.072.107.108.098.11-.023zM26.28 236.566v.03l.022-.003.01.011.07-.022-.08.011-.022-.027c.031-1.84-1.2-3.427-1.127-5.276-.935 2.071-.678 3.118 1.127 5.276zm1.108-10.626l-.019.203-.032.025-.012.069c-1.834 2.047-1.185 4.329-.731 6.593-.235-2.241.375-4.405.73-6.593.015-.015.026-.032.041-.048l.004-.046.172-.131-.153-.072zm-5.586 8.556c-2.122 2.72-3.387 5.553-3.61 8.672-.213 2.972 2.187 5.007 5.502 4.818 2.697-.154 5.007-1.317 7.182-2.613 1.72-1.024 3.107-2.423 4.534-4.2-6.212.161-11.224-1.054-13.608-6.677zm13.601 8.406l2.835-1.912c-2.018-.335-2.224 1.011-2.835 1.912zm13.5 20.217c.322-4.183 2.308-7.944 3.713-11.863-2.237 3.704-5.473 7.178-3.713 11.863zm8.037-19.741c-.437.919-.82 1.824-.96 2.758-.439 2.947-.365 5.782 2.754 7.719l.053.024-.068-.043c-1.634-3.331-2.26-6.804-1.779-10.458zm2.081-3.116c-2.169 5.228-.988 13.233 2.517 14.755-2.622-4.736-2.53-9.645-2.517-14.755zm-5.874 12.251c-1.343 3.292-2.73 6.292-3.025 9.557-.273 3.022.764 3.896 4.168 3.753.266-.011.535-.025.794-.077 4.925-.993 8.808-3.649 13.105-6.5-6.29-.34-11.854-1.228-15.042-6.733z"/><path d="M81.414 146.37c-.946-1.961-.748-2.408 1.579-3.351.236.479.474.957.707 1.437 1.089 2.246 2.25 4.458 3.764 6.505.33.446.575.868 1.367.507 3.802-1.732 7.204-3.917 10.048-6.799.621-.629.412-1.051-.007-1.623-2.138-2.922-3.131-6.176-3.368-9.639-.099-1.436-.168-2.874-.288-4.308-.278-3.314-1.905-6.044-4.534-8.328-.632-.549-1.382-.855-2.266-.968-3.566-.453-7.998 2.681-8.337 6.107-.254 2.575-.349 5.176.114 7.757.386 2.156.219 2.4-2.2 3.356-.362-.275-.346-.68-.443-1.047-.85-3.216-.882-6.489-.551-9.741.349-3.42 1.171-6.743 3.944-9.381 2.605-2.478 5.907-2.969 9.124-1.186 3.697 2.05 5.806 5.208 6.868 8.867.835 2.878.7 5.903.974 8.864.357 3.852 1.815 7.286 4.576 10.245a11.91 11.91 0 004.811 3.136c.185-.574-.033-.928-.103-1.3-.792-4.253-1.881-8.464-1.776-12.83.08-3.295 1.28-6.088 3.89-8.399a28.08 28.08 0 011.693-1.386v3.667c-.747 1.301-1.175 2.775-1.311 4.411-.364 4.375.253 8.638 1.311 12.856v6.815c-.517.035-.626.443-.8.843-1.273 2.94-3.019 5.609-5.548 7.828-.602.528-1.235 1.027-1.998 1.657 2.796.954 5.465 1.391 8.168 1.603l.178.013v2.718c-13.58-1.154-23.828-6.971-29.586-18.906zm-.444-24.093c2.758-2.617 3.111-2.787 6.925-3.411-2.512-1.648-5.865-.075-6.925 3.411zm12.368-.126c-.008-.004-.011-.009-.018-.013.006-.226.01-.452-.271-.571-.91-2.662-2.988-4.269-5.88-4.975-1.424-.348-2.812-.066-3.655 1.226-.02.007-.038.012-.057.02l-.087.033.113-.008.031-.045c2.684-1.005 4.936-.287 6.923 1.448.874.763 1.727 1.545 2.59 2.318-.01.233.067.426.293.554v.014l.058.032-.04-.033zm17.025 24.711c.086.344-.02.791.527.954.166-.402-.027-.75-.131-1.117-1.105-3.892-1.889-7.825-2.05-11.854-.105-2.65.281-5.235.972-7.797l.002-.002.066-.05-.055.035-.011.015-.001.001-.001.001c-2.213 2.681-2.56 5.768-1.971 8.887.693 3.672 1.747 7.288 2.653 10.927zm-11.384 12.837c.544.236.995.205 1.477-.129 3.441-2.378 6.088-5.34 8.093-8.788.347-.596.118-.865-.508-1.064-1.606-.51-3.082-1.27-4.697-2.094-2.082 3.934-5.168 7.01-9.382 9.314 1.672 1.107 3.287 2.011 5.017 2.761zm-5.472-5.42c3.062-1.73 5.348-4.172 7.498-6.753.827-.992.685-1.575-.607-2.275-2.447 3.91-6.36 6.255-10.52 8.341 1.551 1.691 1.707 1.773 3.629.687zm8.961-70.028c-2.531-1.947-3.92-4.537-3.265-7.563 1.069-4.944 6.859-7.615 11.797-6.188v2.389l-.01-.009c-.518-.421-1.14-.71-1.881-.662-3.578.228-6.444 1.222-6.191 5.31.029 1.441.177 2.853.976 4.154 1.133 1.841 2.524 2.406 4.769 1.857.867-.212 1.657-.508 2.337-.903v2.35c-.045.02-.088.042-.134.062-2.97 1.272-5.885 1.137-8.398-.797zm-.431-4.448l-.006-.03-.029-.036v-3.299c-.736 1.127-.882 2.233 0 3.299v.057c.014.002.023.006.035.01l.089.456c.04-.023.111-.042.114-.069.023-.17.02-.333-.203-.388z"/><path d="M81.07 138.156c1.18 2.183 1.16 2.235-1.283 3.79-1.543-1.79-1.39-2.268 1.283-3.79zm27.535-64.468c1.099.016 1.61.682 1.625 1.585.015.889-.52 1.415-1.845 1.37-.769-.084-1.417-.546-1.374-1.534.038-.886.586-1.436 1.594-1.421z"/></g></svg>