<svg width="42" height="40" fill="none" xmlns="http://www.w3.org/2000/svg"><path opacity=".3" d="M21 32.927l.257.155 10.18 6.115.01.006h0c.365.232.728.322 1.1.291.4-.033.736-.163 1.024-.386a2.43 2.43 0 00.713-.89c.149-.311.188-.673.087-1.108L21 32.927zm0 0l-.258.155-10.18 6.115h0l-.01.006c-.365.232-.728.322-1.1.291a1.876 1.876 0 01-1.023-.386l-.307.395.307-.395a2.437 2.437 0 01-.714-.89c-.149-.311-.188-.673-.087-1.109 0 0 0 0 0 0l2.698-11.557.069-.295-.23-.197-9.01-7.763c-.34-.306-.53-.634-.607-.985v-.002a1.918 1.918 0 01.072-1.096c.138-.377.338-.67.595-.895l-.329-.377.33.377c.23-.202.576-.357 1.077-.43l11.882-1.038.3-.027.117-.277 4.6-10.885V1.66c.165-.395.41-.673.738-.858h0C20.29.594 20.645.5 21 .5c.354 0 .71.095 1.072.301.325.186.57.464.735.86v.001l4.6 10.885.117.277.3.027 11.882 1.038c.5.073.846.228 1.078.43l.329-.377-.329.377c.257.224.457.518.595.895l.47-.171-.47.171c.13.36.156.721.074 1.097-.077.352-.27.68-.61.986l-9.01 7.763-.229.197.069.295 2.698 11.557-13.372-4.182z" stroke="#FF9B24"/></svg>