<svg width="262" height="242" fill="none" xmlns="http://www.w3.org/2000/svg"><path d="M.474 240.516a1.5 1.5 0 103-.054l-3 .054zm34.39-47.386l-.18-1.489.18 1.489zm51.484 14.287l.89-1.208-.89 1.208zm7.487 23.803l.919 1.186-.919-1.186zm-42.589-28.288l1.416-.493-1.416.493zm14.846-79.423l-1.148-.965 1.148.965zm97.03-34.322l-.653 1.35.653-1.35zm29.452 80.401l1.162.948-1.162-.948zm-50.537-16.429l-1.282.778 1.282-.778zm20.259-112.57l.817 1.258-.817-1.258zm99.039-29.18A1.5 1.5 0 00261.1 9.3L250.556.87a1.5 1.5 0 10-1.873 2.342l9.372 7.494-7.494 9.372a1.5 1.5 0 102.343 1.874l8.431-10.544zM3.473 240.461c-.189-10.658 2.492-21.538 7.843-30.037 5.337-8.477 13.29-14.543 23.728-15.806l-.36-2.978c-11.502 1.392-20.186 8.099-25.907 17.185-5.706 9.064-8.501 20.536-8.303 31.69l3-.054zm31.57-45.843c16.373-1.982 36.97 4.113 50.417 14.006l1.777-2.416c-13.994-10.296-35.344-16.652-52.554-14.568l.36 2.978zm50.417 14.006c3.32 2.443 7.265 6.459 9.272 10.607.998 2.063 1.463 4.047 1.247 5.831-.21 1.733-1.079 3.434-3.062 4.971l1.837 2.372c2.56-1.983 3.888-4.384 4.203-6.982.308-2.547-.376-5.124-1.525-7.499-2.287-4.728-6.63-9.093-10.195-11.716l-1.777 2.416zm7.457 21.409c-5.411 4.191-13.533 2.515-21.656-3.254-8.005-5.687-15.321-14.935-18.598-24.341l-2.833.987c3.5 10.045 11.226 19.784 19.694 25.799 8.352 5.933 18.135 8.676 25.23 3.181l-1.837-2.372zm-40.255-27.595c-9.883-28.367-3-57.03 14.58-77.966l-2.298-1.929c-18.208 21.685-25.371 51.444-15.114 80.882l2.833-.987zm14.58-77.966c10.977-13.074 26.357-25.696 43.238-32.964 16.869-7.263 35.103-9.13 51.989-.971l1.306-2.702c-17.899-8.648-37.081-6.573-54.481.918-17.389 7.486-33.131 20.428-44.35 33.79l2.297 1.929zm95.227-33.935c15.794 7.631 24.193 18.484 30.135 35.811l2.837-.974c-6.15-17.933-15.02-29.495-31.666-37.539l-1.306 2.702zm30.135 35.811c2.386 6.959 4.422 14.724 4.676 22.183.254 7.448-1.27 14.47-5.869 20.108l2.325 1.896c5.204-6.381 6.811-14.205 6.542-22.106-.269-7.891-2.41-15.979-4.837-23.055l-2.837.974zm-1.193 42.291c-3.842 4.711-8.014 7.088-12.229 7.842-4.238.759-8.685-.092-13.096-2.139-8.862-4.111-17.265-12.906-22.767-21.963l-2.564 1.557c5.696 9.376 14.495 18.687 24.069 23.128 4.807 2.23 9.886 3.266 14.887 2.37 5.023-.899 9.801-3.719 14.025-8.899l-2.325-1.896zm-48.092-16.26c-11.134-18.327-14.301-40.715-10.593-61.184 3.709-20.477 14.266-38.874 30.387-49.35l-1.634-2.515c-16.965 11.024-27.884 30.235-31.705 51.33-3.823 21.103-.577 44.251 10.981 63.276l2.564-1.557zm19.794-110.533c28.726-18.666 63.333-26.112 97.216-29.885l-.332-2.981c-34.032 3.79-69.201 11.3-98.518 30.35l1.634 2.516z" fill="#fff"/></svg>