<svg width="50" height="50" fill="none" xmlns="http://www.w3.org/2000/svg"><path d="M34.17 20.83a9.167 9.167 0 00-18.334 0v1.29c.283-.168.59-.292.912-.37a3.533 3.533 0 014.965-2.483 7.807 7.807 0 006.578 0 3.501 3.501 0 013.385.215 3.549 3.549 0 011.583 2.269c.32.077.627.201.91.37v-1.29zm-9.173 15a8.286 8.286 0 01-3.333-.697v1.349c.058.108.122.213.192.314a3.775 3.775 0 003.183 1.523c-.017-.273-.042-.544-.042-.822.005-.558.047-1.114.125-1.667h-.125zm.727 5.818a12.396 12.396 0 01-.473-1.66c-.097.004-.194.013-.29.013a5.367 5.367 0 01-4.472-2.25c-.032-.045-.054-.084-.084-.126l-4.14.958c-.218.051-.424.126-.632.195a16.565 16.565 0 0010.09 2.87z" fill="#fff"/><path d="M34.086 25.482a1.642 1.642 0 00-1.583-2.153.834.834 0 01-.834-.833 1.895 1.895 0 00-.886-1.608A1.822 1.822 0 0029 20.774a9.473 9.473 0 01-7.992 0 1.87 1.87 0 00-2.672 1.722.834.834 0 01-.833.833 1.667 1.667 0 000 3.334.834.834 0 01.833.833 6.678 6.678 0 007.136 6.65 12.532 12.532 0 018.614-8.664z" fill="#fff"/><path d="M1.76 23.002a20.988 20.988 0 000 3.989.583.583 0 00.37.464l2.677 1.077a.833.833 0 01.505.602 19.959 19.959 0 002.851 6.847.834.834 0 01.07.782L7.098 39.43a.558.558 0 00.064.583 23.259 23.259 0 002.818 2.819.56.56 0 00.589.069l2.667-1.143a.833.833 0 01.783.069 19.93 19.93 0 006.84 2.848.835.835 0 01.603.506l1.075 2.682a.597.597 0 00.472.373c1.322.12 2.651.12 3.973 0a.603.603 0 00.478-.381l.79-1.981a12.538 12.538 0 01-1.834-2.608 16.45 16.45 0 01-1.42.064A18.333 18.333 0 1143.33 24.997c0 .479-.024.954-.06 1.424a12.53 12.53 0 012.608 1.833l1.984-.794a.584.584 0 00.372-.463 21.006 21.006 0 000-3.99.584.584 0 00-.37-.465l-2.678-1.076a.835.835 0 01-.505-.602 19.947 19.947 0 00-2.851-6.852.833.833 0 01-.07-.782l1.134-2.667a.561.561 0 00-.064-.589 23.699 23.699 0 00-2.818-2.817.564.564 0 00-.589-.069l-2.666 1.143a.833.833 0 01-.784-.069 19.933 19.933 0 00-6.84-2.848.833.833 0 01-.603-.506l-1.075-2.682a.594.594 0 00-.47-.373 22.199 22.199 0 00-3.975 0 .6.6 0 00-.478.381l-1.07 2.674a.833.833 0 01-.603.506 19.934 19.934 0 00-6.84 2.85.834.834 0 01-.783.068L10.569 7.09a.558.558 0 00-.583.06 23.324 23.324 0 00-2.823 2.82.558.558 0 00-.069.589l1.136 2.67a.834.834 0 01-.07.783 19.945 19.945 0 00-2.848 6.848.833.833 0 01-.505.602l-2.675 1.075a.584.584 0 00-.373.465z" fill="#fff"/><path d="M37.497 26.664a10.833 10.833 0 1010.834 10.833 10.846 10.846 0 00-10.834-10.833zm6.395 10.99L42.363 39.2l.362 2.194a2.373 2.373 0 01-.964 2.344 2.258 2.258 0 01-2.405.143l-1.859-1.015-1.858 1.015a2.258 2.258 0 01-2.405-.143 2.373 2.373 0 01-.964-2.343l.362-2.195-1.53-1.547a2.401 2.401 0 01-.563-2.453 2.318 2.318 0 011.853-1.584l2.087-.314.935-1.972a2.288 2.288 0 014.16 0l.938 1.976 2.088.315a2.318 2.318 0 011.852 1.583 2.398 2.398 0 01-.56 2.448z" fill="#fff"/><path d="M42.36 35.27l-2.523-.381a.833.833 0 01-.629-.467l-1.129-2.377a.623.623 0 00-1.148 0L35.8 34.422a.833.833 0 01-.628.467l-2.525.38a.652.652 0 00-.52.458.735.735 0 00.167.755l1.828 1.849a.834.834 0 01.229.721l-.431 2.612a.71.71 0 00.286.713.583.583 0 00.64.04l2.259-1.234a.833.833 0 01.798 0l2.258 1.233a.577.577 0 00.641-.039.71.71 0 00.285-.713l-.432-2.613a.832.832 0 01.23-.72l1.827-1.85a.734.734 0 00.166-.755.651.651 0 00-.518-.456z" fill="#fff"/></svg>