<svg width="40" height="40" fill="none" xmlns="http://www.w3.org/2000/svg"><g clip-path="url(#clip0_34_1201)" fill="#000"><path d="M14.997 16.667a8.333 8.333 0 100-16.667 8.333 8.333 0 000 16.667zm4.226 18A4.177 4.177 0 0119.562 30a4.177 4.177 0 01-.339-4.667L20.572 23a4.18 4.18 0 014.211-2.04c.055-.137.125-.265.194-.395A7.861 7.861 0 0022.083 20H7.917C3.552 20 0 23.552 0 27.917v5.833C0 34.44.56 35 1.25 35h18.165l-.192-.333z"/><path d="M36.173 30.779c.034-.258.079-.515.079-.782 0-.268-.047-.523-.079-.781l1.502-1.137a.834.834 0 00.218-1.082l-1.348-2.333a.834.834 0 00-1.045-.352l-1.728.729a6.19 6.19 0 00-1.365-.812l-.23-1.835a.834.834 0 00-.827-.73h-2.695a.833.833 0 00-.827.73l-.23 1.835a6.22 6.22 0 00-1.365.812l-1.728-.729a.832.832 0 00-1.045.352l-1.348 2.333a.835.835 0 00.218 1.082l1.502 1.137c-.034.258-.079.515-.079.781 0 .269.047.524.079.782l-1.502 1.137a.834.834 0 00-.218 1.081l1.348 2.335a.834.834 0 001.045.352l1.728-.73c.422.322.87.605 1.365.812l.23 1.835c.052.416.405.73.825.73h2.695c.42 0 .775-.314.827-.73l.23-1.835a6.22 6.22 0 001.365-.812l1.728.728a.832.832 0 001.045-.351l1.349-2.335a.835.835 0 00-.219-1.082l-1.5-1.135zm-6.171 2.552a3.332 3.332 0 110-6.667 3.332 3.332 0 110 6.667z"/></g><defs><clipPath id="clip0_34_1201"><path fill="#fff" d="M0 0h40v40H0z"/></clipPath></defs></svg>