<svg width="41" height="40" fill="none" xmlns="http://www.w3.org/2000/svg"><g clip-path="url(#clip0_34_357)" fill="#000"><path d="M24.742 1.762C23.913.96 22.631 0 21.226 0c-2.278 0-4.237 2.525-4.453 2.813-.266.355-.308.83-.11 1.227l3.84 7.757h8.479l3.84-7.757a1.172 1.172 0 00-.111-1.227C32.495 2.525 30.536 0 28.258 0c-1.404 0-2.687.959-3.516 1.762zm1.177 12.378v.202a6.88 6.88 0 002 4.83 1.171 1.171 0 11-1.657 1.656 9.08 9.08 0 01-1.515-2.01 9.076 9.076 0 01-1.515 2.01 1.171 1.171 0 11-1.658-1.657 6.876 6.876 0 002.001-4.829v-.201h-4.391c-2.703 2.554-5.386 6.027-7.184 9.375h10.403a3.52 3.52 0 013.516 3.515v11.797c0 .415-.085.802-.218 1.172h1.561c6.749 0 12.798-1.505 12.798-8.281 0-5.422-5.288-13.14-9.833-17.578h-4.308zM11.852 34.063a1.172 1.172 0 100-2.344 1.172 1.172 0 000 2.343z"/><path d="M1.227 40H22.4c.647 0 1.172-.524 1.172-1.172V27.031c0-.647-.525-1.172-1.172-1.172H1.227c-.648 0-1.172.524-1.172 1.172v11.797C.055 39.476.579 40 1.227 40zm17.657-8.281a1.172 1.172 0 110 2.343 1.172 1.172 0 010-2.343zm-7.032-2.344a3.52 3.52 0 013.516 3.516 3.52 3.52 0 01-3.516 3.515 3.52 3.52 0 01-3.516-3.515 3.52 3.52 0 013.516-3.516zm-7.031 2.344a1.172 1.172 0 110 2.343 1.172 1.172 0 010-2.343z"/></g><defs><clipPath id="clip0_34_357"><path fill="#fff" transform="translate(.055)" d="M0 0h40.002v40H0z"/></clipPath></defs></svg>