<svg width="50" height="50" fill="none" xmlns="http://www.w3.org/2000/svg"><g clip-path="url(#clip0_34_720)" fill="#000"><path d="M14.385 18.04c0-4.347-3.537-7.884-7.885-7.884H4.848A4.854 4.854 0 000 15.005c0 1.307.513 2.533 1.444 3.452a4.822 4.822 0 003.472 1.396l1.516-.021a4.905 4.905 0 013.548 1.426 4.92 4.92 0 011.475 3.528v4.775h2.93V18.04zm-2.93.612a7.815 7.815 0 00-5.064-1.75l-1.516.021a1.916 1.916 0 01-1.945-1.918 1.92 1.92 0 011.918-1.92H6.5a4.96 4.96 0 014.955 4.956v.61zm23.385-4.459L28.928 0h-6.076l7.06 16.987a6.435 6.435 0 014.928-2.794zM17.523 46.11H5.553v-2.929h11.97v-3.677H5.553v-2.93h11.97v-4.082H0V50h17.523v-3.89zm2.93 3.89H50V25.337H20.453V50zm9.998-20.437h9.551v2.93h-9.551v-2.93zm-4.776 6.606h19.103v2.93H25.675v-2.93zm0 6.607h19.103v2.93H25.675v-2.93zm15.028-25.535L47.868 0h-6.076l-4.847 11.599 1.392 3.386a6.48 6.48 0 012.366 2.256zm-1.974 5.163v-1.79a3.509 3.509 0 00-3.505-3.505 3.509 3.509 0 00-3.505 3.505v1.79h7.01z"/></g><defs><clipPath id="clip0_34_720"><path fill="#fff" d="M0 0h50v50H0z"/></clipPath></defs></svg>