<svg width="108" height="94" fill="none" xmlns="http://www.w3.org/2000/svg"><path d="M24.003 4.996a2.09 2.09 0 002.094-2.088A2.09 2.09 0 0024.003.82a2.09 2.09 0 00-2.094 2.088 2.09 2.09 0 002.094 2.088zm0 17.796a2.09 2.09 0 002.094-2.088 2.09 2.09 0 00-2.094-2.087 2.09 2.09 0 00-2.094 2.087 2.09 2.09 0 002.094 2.088zm0 17.896a2.09 2.09 0 002.094-2.088 2.09 2.09 0 00-2.094-2.088 2.09 2.09 0 00-2.094 2.088 2.09 2.09 0 002.094 2.088zm0 17.896a2.09 2.09 0 002.094-2.088 2.09 2.09 0 00-2.094-2.088 2.09 2.09 0 00-2.094 2.088 2.09 2.09 0 002.094 2.088zm0 17.299a2.091 2.091 0 002.094-2.088 2.09 2.09 0 00-2.094-2.088 2.09 2.09 0 00-2.094 2.088 2.09 2.09 0 002.094 2.088zm0 17.895a2.091 2.091 0 002.094-2.087 2.09 2.09 0 00-2.094-2.088 2.09 2.09 0 00-2.094 2.088 2.09 2.09 0 002.094 2.087zM3.063 4.996a2.09 2.09 0 002.094-2.088A2.09 2.09 0 003.063.82 2.09 2.09 0 00.969 2.908a2.09 2.09 0 002.094 2.088zm0 17.796a2.09 2.09 0 002.094-2.088 2.09 2.09 0 00-2.094-2.087 2.09 2.09 0 00-2.094 2.087 2.09 2.09 0 002.094 2.088zm0 17.896A2.09 2.09 0 005.157 38.6a2.09 2.09 0 00-2.094-2.088A2.09 2.09 0 00.969 38.6a2.09 2.09 0 002.094 2.088zm0 17.896a2.09 2.09 0 002.094-2.088 2.09 2.09 0 00-2.094-2.088 2.09 2.09 0 00-2.094 2.088 2.09 2.09 0 002.094 2.088zm0 17.299a2.091 2.091 0 002.094-2.088 2.091 2.091 0 00-2.094-2.088 2.091 2.091 0 00-2.094 2.088 2.09 2.09 0 002.094 2.088zm0 17.895a2.091 2.091 0 002.094-2.087 2.091 2.091 0 00-2.094-2.088A2.091 2.091 0 00.969 91.69a2.09 2.09 0 002.094 2.087zM64.886 4.996a2.09 2.09 0 002.094-2.088A2.09 2.09 0 0064.886.82a2.09 2.09 0 00-2.094 2.088 2.09 2.09 0 002.094 2.088zm0 17.796a2.09 2.09 0 002.094-2.088 2.09 2.09 0 00-2.094-2.087 2.09 2.09 0 00-2.094 2.087 2.09 2.09 0 002.094 2.088zm0 17.896A2.09 2.09 0 0066.98 38.6a2.09 2.09 0 00-2.094-2.088 2.09 2.09 0 00-2.094 2.088 2.09 2.09 0 002.094 2.088zm0 17.896a2.09 2.09 0 002.094-2.088 2.09 2.09 0 00-2.094-2.088 2.09 2.09 0 00-2.094 2.088 2.09 2.09 0 002.094 2.088zm0 17.299a2.091 2.091 0 002.094-2.088 2.09 2.09 0 00-2.094-2.088 2.09 2.09 0 00-2.094 2.088c0 1.153.938 2.088 2.094 2.088zm0 17.895a2.091 2.091 0 002.094-2.087 2.09 2.09 0 00-2.094-2.088 2.09 2.09 0 00-2.094 2.088 2.09 2.09 0 002.094 2.087zM43.946 4.996a2.09 2.09 0 002.094-2.088A2.09 2.09 0 0043.946.82a2.09 2.09 0 00-2.094 2.088 2.09 2.09 0 002.094 2.088zm0 17.796a2.09 2.09 0 002.094-2.088 2.09 2.09 0 00-2.094-2.087 2.09 2.09 0 00-2.094 2.087 2.09 2.09 0 002.094 2.088zm0 17.896A2.09 2.09 0 0046.04 38.6a2.09 2.09 0 00-2.094-2.088 2.09 2.09 0 00-2.094 2.088 2.09 2.09 0 002.094 2.088zm0 17.896a2.09 2.09 0 002.094-2.088 2.09 2.09 0 00-2.094-2.088 2.09 2.09 0 00-2.094 2.088 2.09 2.09 0 002.094 2.088zm0 17.299a2.091 2.091 0 002.094-2.088 2.09 2.09 0 00-2.094-2.088 2.09 2.09 0 00-2.094 2.088 2.09 2.09 0 002.094 2.088zm0 17.895a2.091 2.091 0 002.094-2.087 2.09 2.09 0 00-2.094-2.088 2.09 2.09 0 00-2.094 2.088 2.09 2.09 0 002.094 2.087zm61.923-88.782a2.091 2.091 0 002.094-2.088A2.091 2.091 0 00105.869.82a2.09 2.09 0 00-2.094 2.088 2.09 2.09 0 002.094 2.088zm0 17.796a2.091 2.091 0 002.094-2.088 2.091 2.091 0 00-2.094-2.087 2.09 2.09 0 00-2.094 2.087 2.09 2.09 0 002.094 2.088zm0 17.896a2.091 2.091 0 002.094-2.088 2.091 2.091 0 00-2.094-2.088 2.09 2.09 0 00-2.094 2.088 2.09 2.09 0 002.094 2.088zm0 17.896a2.091 2.091 0 002.094-2.088 2.091 2.091 0 00-2.094-2.088 2.09 2.09 0 00-2.094 2.088 2.09 2.09 0 002.094 2.088zm0 17.299a2.091 2.091 0 002.094-2.088 2.091 2.091 0 00-2.094-2.088 2.09 2.09 0 00-2.094 2.088 2.09 2.09 0 002.094 2.088zm0 17.895a2.091 2.091 0 002.094-2.087 2.091 2.091 0 00-2.094-2.088 2.09 2.09 0 00-2.094 2.088 2.09 2.09 0 002.094 2.087zM84.929 4.996a2.09 2.09 0 002.094-2.088A2.09 2.09 0 0084.929.82a2.09 2.09 0 00-2.094 2.088 2.09 2.09 0 002.094 2.088zm0 17.796a2.09 2.09 0 002.094-2.088 2.09 2.09 0 00-2.094-2.087 2.09 2.09 0 00-2.094 2.087 2.09 2.09 0 002.094 2.088zm0 17.896a2.09 2.09 0 002.094-2.088 2.09 2.09 0 00-2.094-2.088 2.09 2.09 0 00-2.094 2.088 2.09 2.09 0 002.094 2.088zm0 17.896a2.09 2.09 0 002.094-2.088 2.09 2.09 0 00-2.094-2.088 2.09 2.09 0 00-2.094 2.088 2.09 2.09 0 002.094 2.088zm0 17.299a2.091 2.091 0 002.094-2.088 2.09 2.09 0 00-2.094-2.088 2.09 2.09 0 00-2.094 2.088 2.09 2.09 0 002.094 2.088zm0 17.895a2.091 2.091 0 002.094-2.087 2.09 2.09 0 00-2.094-2.088 2.09 2.09 0 00-2.094 2.088 2.09 2.09 0 002.094 2.087z" fill="#A7A7CA"/></svg>