<svg width="40" height="40" fill="none" xmlns="http://www.w3.org/2000/svg"><path d="M35.997 15.48l-8.271-7.31h-3.527l3.988 7.31h7.81zM12.183 8.17H8.656L.393 15.48h7.81l3.98-7.31zm14.28 7.31l-3.988-7.31H13.91l-3.981 7.31h16.535zM9.76 17.002l8.377 21.06 8.476-21.06H9.76zm-9.76 0l15.71 19.031-7.575-19.032H0zm28.247 0l-7.567 18.79 15.695-18.79h-8.128zM2.513 4.6h1.33v1.331a.757.757 0 001.514 0v-1.33h1.33a.757.757 0 100-1.514h-1.33v-1.33a.757.757 0 00-1.513 0v1.33h-1.33a.757.757 0 000 1.514zm36.745 19.879h-1.33v-1.331a.756.756 0 00-1.514 0v1.33h-1.33a.757.757 0 100 1.514h1.33v1.33a.757.757 0 101.514 0v-1.33h1.33a.757.757 0 000-1.513z" fill="#000"/></svg>